<svg width="141" height="140" viewBox="0 0 141 140" fill="none" xmlns="http://www.w3.org/2000/svg">
<g clip-path="url(#clip0_17_13234)">
<path d="M46.4263 50.6805L46.3677 85.9149C46.3677 85.9472 46.3806 85.9782 46.4034 86.0011C46.4263 86.024 46.4573 86.0368 46.4897 86.0368L62.985 86.0661C67.4666 86.0729 71.7672 84.363 74.9411 81.3127C78.1149 78.2623 79.9021 74.1211 79.9096 69.7999L79.9194 66.9125C79.9231 64.7723 79.4895 62.6522 78.6433 60.6735C77.7972 58.6947 76.5551 56.896 74.988 55.3801C73.4209 53.8641 71.5595 52.6607 69.51 51.8384C67.4606 51.0162 65.2632 50.5912 63.0436 50.5879L46.5482 50.5586C46.5159 50.5586 46.4848 50.5714 46.462 50.5943C46.4391 50.6172 46.4263 50.6482 46.4263 50.6805Z" stroke="#00000E" stroke-width="0.97548"/>
<path d="M34.4035 55.4653C34.4035 54.1691 33.8887 52.9261 32.9721 52.0095C32.0556 51.093 30.8125 50.5781 29.5164 50.5781C28.2202 50.5781 26.9772 51.093 26.0606 52.0095C25.1441 52.9261 24.6292 54.1691 24.6292 55.4653C24.6292 56.7614 25.1441 58.0045 26.0606 58.921C26.9772 59.8375 28.2202 60.3524 29.5164 60.3524C30.8125 60.3524 32.0556 59.8375 32.9721 58.921C33.8887 58.0045 34.4035 56.7614 34.4035 55.4653Z" stroke="#00000E" stroke-width="0.97548"/>
<path d="M119.192 64.0302C118.085 56.397 112.988 51.9196 105.409 50.8709C92.3373 49.0614 82.5337 57.3871 84.1676 70.917C85.226 79.6427 90.596 84.8567 99.2388 85.9346C102.877 86.3882 106.311 86.0614 109.535 84.9542C118.485 81.8814 120.421 72.5119 119.192 64.0302Z" stroke="#00000E" stroke-width="0.97548"/>
<path d="M34.4474 66.5525C34.4474 66.506 34.4289 66.4613 34.396 66.4284C34.363 66.3955 34.3184 66.377 34.2718 66.377H24.7511C24.7045 66.377 24.6599 66.3955 24.627 66.4284C24.594 66.4613 24.5755 66.506 24.5755 66.5525V85.9256C24.5755 85.9721 24.594 86.0168 24.627 86.0497C24.6599 86.0827 24.7045 86.1012 24.7511 86.1012H34.2718C34.3184 86.1012 34.363 86.0827 34.396 86.0497C34.4289 86.0168 34.4474 85.9721 34.4474 85.9256V66.5525Z" stroke="#00000E" stroke-width="0.97548"/>
<path d="M83.1239 92.6025C83.1093 91.6172 82.4752 90.6125 81.3778 91.1197C81.1632 91.2222 81.051 91.1539 81.0412 90.9149L81.0168 90.2711C81.012 90.0565 80.8998 89.9638 80.6852 89.9882L80.2511 90.0418C80.1952 90.0501 80.1442 90.0778 80.1074 90.1199C80.0707 90.1621 80.0507 90.2157 80.0511 90.2711V93.4316C80.0511 93.6609 80.1584 93.7389 80.3779 93.656C80.7974 93.495 81.2315 93.4902 81.6753 93.6462C81.8407 93.7045 82.0178 93.7218 82.1914 93.6968C82.365 93.6718 82.5299 93.6052 82.6722 93.5027C82.8145 93.4002 82.9299 93.2648 83.0085 93.108C83.0872 92.9513 83.1268 92.7778 83.1239 92.6025Z" stroke="#00000E" stroke-width="0.97548"/>
<path d="M89.9132 91.343L90.5571 93.4159C90.5875 93.513 90.6484 93.598 90.7306 93.6582C90.8129 93.7184 90.9121 93.7506 91.0135 93.7501C91.115 93.7495 91.2132 93.7162 91.2935 93.6552C91.3738 93.5941 91.432 93.5084 91.4594 93.4111L92.0398 91.426C92.1325 91.0992 92.1959 91.1041 92.2251 91.4455C92.269 92.0259 91.8984 93.9476 92.9177 93.5818C93.0397 93.5379 93.0982 93.455 93.0982 93.3233V90.6017C93.1059 90.3805 93.0255 90.1653 92.8746 90.0034C92.7237 89.8415 92.5146 89.7461 92.2934 89.7384C92.0722 89.7306 91.857 89.811 91.6951 89.962C91.5332 90.1129 91.4379 90.3219 91.4301 90.5431C91.396 90.9967 91.2838 91.4357 91.0936 91.8601C90.9668 92.1381 90.8741 92.1283 90.8107 91.8308C90.718 91.3869 90.6449 90.9333 90.5863 90.4651C90.5652 90.2337 90.4541 90.0197 90.277 89.8693C90.0998 89.7188 89.8707 89.6439 89.6389 89.6605C89.4071 89.6771 89.191 89.7839 89.0371 89.9581C88.8832 90.1323 88.8038 90.3598 88.8158 90.5919L88.8646 93.3623C88.8646 93.533 88.9524 93.6305 89.1231 93.6549C90.1864 93.7964 89.5669 92.0356 89.8254 91.3382C89.8596 91.2504 89.8889 91.2504 89.9132 91.343Z" stroke="#00000E" stroke-width="0.97548"/>
<path d="M95.1735 90.4334C95.1736 90.3789 95.163 90.325 95.1422 90.2747C95.1215 90.2243 95.091 90.1786 95.0526 90.14C95.0141 90.1014 94.9685 90.0708 94.9182 90.0499C94.868 90.029 94.8141 90.0182 94.7596 90.0181L94.4865 90.0176C94.4321 90.0175 94.3781 90.0281 94.3278 90.0489C94.2775 90.0696 94.2317 90.1001 94.1931 90.1385C94.1546 90.1769 94.124 90.2226 94.103 90.2728C94.0821 90.3231 94.0713 90.377 94.0712 90.4314L94.0663 93.2506C94.0662 93.305 94.0768 93.3589 94.0976 93.4093C94.1183 93.4596 94.1488 93.5054 94.1872 93.5439C94.2257 93.5825 94.2713 93.6131 94.3216 93.634C94.3718 93.655 94.4257 93.6658 94.4802 93.6659L94.7533 93.6664C94.8077 93.6665 94.8617 93.6558 94.912 93.6351C94.9623 93.6143 95.0081 93.5839 95.0467 93.5454C95.0852 93.507 95.1158 93.4614 95.1368 93.4111C95.1577 93.3608 95.1685 93.307 95.1686 93.2525L95.1735 90.4334Z" stroke="#00000E" stroke-width="0.97548"/>
<path d="M97.4635 91.9586L98.595 93.4023C98.6769 93.5079 98.7887 93.5863 98.9159 93.6272C99.043 93.6682 99.1796 93.6698 99.3076 93.6318C99.4357 93.5939 99.5494 93.5182 99.6337 93.4145C99.718 93.3109 99.7691 93.1843 99.7802 93.0511C99.8241 92.6122 100.229 89.3248 98.873 90.1003C98.7608 90.1637 98.7072 90.2564 98.7072 90.3881V91.5733C98.7072 91.9489 98.5999 91.983 98.3804 91.6806L97.3854 90.2905C97.3012 90.1724 97.1816 90.0842 97.0439 90.0386C96.9062 89.9931 96.7576 89.9925 96.6196 90.0371C96.4816 90.0816 96.3613 90.169 96.2763 90.2865C96.1912 90.4039 96.1458 90.5455 96.1466 90.6905V93.3731C96.1466 93.5974 96.2587 93.695 96.4782 93.6608L96.8782 93.6072C97.0391 93.5828 97.122 93.4901 97.122 93.3292V92.0757C97.122 91.7099 97.2342 91.6709 97.4635 91.9586Z" stroke="#00000E" stroke-width="0.97548"/>
<path d="M101.784 90.402C101.783 90.3514 101.773 90.3015 101.752 90.2551C101.732 90.2087 101.703 90.1667 101.667 90.1316C101.63 90.0964 101.587 90.0688 101.54 90.0502C101.493 90.0317 101.443 90.0226 101.392 90.0235L101.012 90.0301C100.91 90.0319 100.812 90.0742 100.741 90.1477C100.67 90.2212 100.632 90.3199 100.633 90.4221L100.683 93.27C100.684 93.3206 100.695 93.3706 100.715 93.417C100.735 93.4634 100.764 93.5053 100.801 93.5405C100.837 93.5756 100.88 93.6033 100.927 93.6218C100.974 93.6404 101.024 93.6495 101.075 93.6486L101.455 93.6419C101.558 93.6402 101.655 93.5979 101.726 93.5244C101.797 93.4509 101.836 93.3522 101.834 93.25L101.784 90.402Z" stroke="#00000E" stroke-width="0.97548"/>
<path d="M104.721 90.8602L105.531 91.1626C105.701 91.226 105.848 91.1919 105.975 91.065L106.111 90.9285C106.223 90.8163 106.214 90.7139 106.092 90.6163C103.019 88.2557 101.043 93.0209 104.185 93.6696C104.95 93.8305 105.638 93.5525 106.243 92.8404C106.355 92.7087 106.335 92.6014 106.179 92.5234L105.731 92.3039C105.521 92.2015 105.35 92.2454 105.219 92.4356C105.072 92.6404 104.882 92.7868 104.648 92.8697C104.487 92.9282 104.336 92.9038 104.194 92.8014C103.804 92.5136 103.643 92.0747 103.711 91.4845C103.724 91.3705 103.763 91.2609 103.825 91.164C103.886 91.0671 103.968 90.9855 104.066 90.9253C104.163 90.8652 104.273 90.828 104.386 90.8167C104.5 90.8055 104.614 90.8203 104.721 90.8602Z" stroke="#00000E" stroke-width="0.97548"/>
<path d="M110.754 91.8318C110.754 91.317 110.55 90.8232 110.186 90.4592C109.822 90.0951 109.328 89.8906 108.813 89.8906C108.298 89.8906 107.805 90.0951 107.441 90.4592C107.076 90.8232 106.872 91.317 106.872 91.8318C106.872 92.0868 106.922 92.3392 107.02 92.5747C107.117 92.8102 107.26 93.0242 107.441 93.2045C107.621 93.3847 107.835 93.5277 108.07 93.6253C108.306 93.7228 108.558 93.773 108.813 93.773C109.328 93.773 109.822 93.5685 110.186 93.2045C110.55 92.8404 110.754 92.3467 110.754 91.8318Z" stroke="#00000E" stroke-width="0.97548"/>
<path d="M112.93 92.0034L113.983 93.452C114.064 93.5647 114.178 93.6488 114.309 93.6923C114.441 93.7358 114.583 93.7365 114.715 93.6942C114.846 93.6518 114.961 93.5687 115.043 93.4569C115.125 93.345 115.168 93.2101 115.168 93.0716V90.3793C115.168 90.2085 115.085 90.111 114.915 90.0915L114.432 90.0281C114.193 89.9988 114.071 90.1061 114.071 90.3451V91.6181C114.07 91.6535 114.058 91.6878 114.037 91.7161C114.015 91.7444 113.986 91.7653 113.952 91.776C113.918 91.7868 113.882 91.7867 113.848 91.7759C113.814 91.7651 113.785 91.744 113.764 91.7157L112.798 90.3207C112.712 90.1974 112.589 90.1047 112.447 90.0559C112.305 90.0071 112.151 90.0048 112.008 90.0494C111.864 90.094 111.739 90.183 111.649 90.3037C111.56 90.4244 111.511 90.5705 111.51 90.7207V93.2862C111.51 93.4374 111.579 93.5398 111.715 93.5983C112.739 94.0519 112.627 92.6082 112.603 92.1205C112.6 92.0813 112.611 92.0424 112.632 92.0096C112.654 91.9768 112.685 91.9518 112.722 91.9386C112.759 91.9254 112.799 91.9245 112.837 91.9362C112.874 91.9479 112.907 91.9715 112.93 92.0034Z" stroke="#00000E" stroke-width="0.97548"/>
<path d="M117.275 90.9054C117.768 90.7298 118.943 91.1688 118.958 90.325C118.959 90.283 118.951 90.2412 118.935 90.2022C118.92 90.1631 118.897 90.1276 118.867 90.0977C118.838 90.0677 118.802 90.0439 118.764 90.0277C118.725 90.0114 118.683 90.0031 118.641 90.0031L116.329 89.9982C116.124 89.9933 116.022 90.0958 116.022 90.3006V93.2661C116.02 93.3982 116.067 93.5259 116.154 93.6249C116.241 93.7239 116.361 93.7872 116.493 93.8029C116.624 93.8185 116.757 93.7854 116.866 93.7098C116.976 93.6342 117.053 93.5214 117.085 93.3929C117.139 93.188 117.144 92.871 117.1 92.4418C117.08 92.2272 117.178 92.115 117.392 92.1053L118.456 92.0516C118.539 92.0467 118.602 92.0077 118.646 91.9345L118.729 91.8028C118.744 91.7771 118.753 91.7479 118.755 91.7179C118.757 91.6878 118.751 91.6578 118.739 91.6305C118.726 91.6031 118.707 91.5792 118.683 91.5608C118.66 91.5424 118.632 91.53 118.602 91.5248L117.31 91.2956C117.267 91.2864 117.228 91.2638 117.199 91.2309C117.17 91.1981 117.152 91.1568 117.148 91.1131C117.144 91.0695 117.155 91.0257 117.178 90.9883C117.201 90.9509 117.235 90.9219 117.275 90.9054Z" stroke="#00000E" stroke-width="0.97548"/>
<path d="M84.8114 92.2263C84.7968 91.5484 84.4602 91.1582 83.8115 91.046C83.7666 91.039 83.7205 91.0441 83.6781 91.0607C83.6357 91.0772 83.5986 91.1046 83.5706 91.1401C83.5427 91.1755 83.5249 91.2176 83.5193 91.262C83.5136 91.3064 83.5202 91.3514 83.5384 91.3923L84.4895 93.553C84.5529 93.7042 84.509 93.8115 84.3529 93.87L83.6311 94.1237C83.5939 94.1357 83.561 94.1584 83.5366 94.1889C83.5122 94.2194 83.4972 94.2564 83.4936 94.2953C83.4899 94.3342 83.4978 94.3734 83.5162 94.4079C83.5345 94.4424 83.5626 94.4707 83.5969 94.4895C85.3626 95.4942 86.06 92.4458 86.4356 91.3679C86.499 91.1777 86.4307 91.085 86.2307 91.0899L85.6259 91.1045C85.5951 91.1056 85.5648 91.1132 85.537 91.1267C85.5092 91.1403 85.4845 91.1596 85.4644 91.1834C85.4442 91.2072 85.4291 91.235 85.42 91.2651C85.4109 91.2951 85.4079 91.3268 85.4113 91.3582C85.4504 91.6996 85.3723 92.0215 85.1723 92.3288C84.9431 92.6799 84.826 92.6458 84.8114 92.2263Z" stroke="#00000E" stroke-width="0.97548"/>
<path d="M78.2854 93.236C78.2854 93.1532 78.2526 93.0738 78.194 93.0153C78.1355 92.9567 78.0561 92.9238 77.9733 92.9238H24.8682C24.7854 92.9238 24.706 92.9567 24.6474 93.0153C24.5889 93.0738 24.556 93.1532 24.556 93.236V93.3433C24.556 93.4261 24.5889 93.5055 24.6474 93.564C24.706 93.6225 24.7854 93.6554 24.8682 93.6554H77.9733C78.0561 93.6554 78.1355 93.6225 78.194 93.564C78.2526 93.5055 78.2854 93.4261 78.2854 93.3433V93.236Z" stroke="#00000E" stroke-width="0.97548"/>
<path d="M58.2247 58.5584V78.0388C58.2247 78.0593 58.2288 78.0796 58.2366 78.0985C58.2445 78.1174 58.256 78.1346 58.2705 78.1491C58.285 78.1636 58.3022 78.1751 58.3211 78.183C58.34 78.1908 58.3603 78.1948 58.3808 78.1948H61.4292C63.2156 78.1948 64.9289 77.4235 66.1921 76.0506C67.4552 74.6776 68.1649 72.8155 68.1649 70.8739V65.7233C68.1649 63.7817 67.4552 61.9196 66.1921 60.5466C64.9289 59.1737 63.2156 58.4023 61.4292 58.4023H58.3808C58.3394 58.4023 58.2997 58.4188 58.2705 58.4481C58.2412 58.4773 58.2247 58.517 58.2247 58.5584Z" stroke="#00000E" stroke-width="0.97548"/>
<path d="M106.126 60.7767C103.619 57.9966 99.3754 58.1185 97.1172 60.9523C95.4101 63.0935 94.9857 66.1906 95.132 68.9415C95.371 73.3848 96.3368 77.472 101.809 77.5062C109.74 77.555 109.935 65.0005 106.126 60.7767Z" stroke="#00000E" stroke-width="0.97548"/>
<path d="M81.615 92.9276C81.7311 92.9185 81.8375 92.8467 81.9107 92.7281C81.9839 92.6095 82.0181 92.4537 82.0056 92.2951C81.9931 92.1365 81.935 91.988 81.8441 91.8823C81.7532 91.7766 81.637 91.7223 81.5209 91.7315C81.4049 91.7406 81.2985 91.8124 81.2253 91.931C81.152 92.0496 81.1179 92.2053 81.1304 92.364C81.1429 92.5226 81.2009 92.6711 81.2918 92.7768C81.3827 92.8825 81.499 92.9367 81.615 92.9276Z" stroke="#00000E" stroke-width="0.97548"/>
<path d="M108.879 92.8925C108.992 92.8844 109.102 92.8492 109.203 92.7889C109.303 92.7286 109.393 92.6444 109.466 92.5411C109.539 92.4378 109.594 92.3174 109.628 92.1868C109.662 92.0562 109.674 91.918 109.664 91.78C109.645 91.5013 109.535 91.2405 109.359 91.055C109.183 90.8695 108.956 90.7745 108.728 90.7909C108.615 90.799 108.505 90.8342 108.404 90.8945C108.304 90.9548 108.214 91.039 108.141 91.1423C108.068 91.2456 108.013 91.366 107.979 91.4966C107.945 91.6272 107.932 91.7655 107.942 91.9035C107.962 92.1822 108.072 92.4429 108.248 92.6284C108.423 92.8139 108.65 92.9089 108.879 92.8925Z" stroke="#00000E" stroke-width="0.97548"/>
<path d="M140.409 1.46289V139.747H2.1005L2.08587 1.73115C2.08587 1.6613 2.1131 1.5943 2.16158 1.54491C2.21006 1.49552 2.27581 1.46777 2.34437 1.46777L140.409 1.46289ZM46.4263 50.6807L46.3678 85.9151C46.3678 85.9474 46.3806 85.9784 46.4035 86.0013C46.4264 86.0242 46.4574 86.037 46.4897 86.037L62.9851 86.0663C67.4666 86.0731 71.7673 84.3633 74.9411 81.3129C78.115 78.2625 79.9022 74.1213 79.9097 69.8002L79.9194 66.9127C79.9231 64.7725 79.4895 62.6524 78.6434 60.6737C77.7973 58.6949 76.5552 56.8962 74.9881 55.3803C73.421 53.8643 71.5595 52.6609 69.5101 51.8386C67.4606 51.0164 65.2633 50.5914 63.0436 50.5881L46.5482 50.5588C46.5159 50.5588 46.4849 50.5717 46.462 50.5945C46.4392 50.6174 46.4263 50.6484 46.4263 50.6807ZM34.4035 55.4655C34.4035 54.1693 33.8886 52.9262 32.9721 52.0097C32.0556 51.0932 30.8125 50.5783 29.5164 50.5783C28.2202 50.5783 26.9771 51.0932 26.0606 52.0097C25.1441 52.9262 24.6292 54.1693 24.6292 55.4655C24.6292 56.7616 25.1441 58.0047 26.0606 58.9212C26.9771 59.8377 28.2202 60.3526 29.5164 60.3526C30.8125 60.3526 32.0556 59.8377 32.9721 58.9212C33.8886 58.0047 34.4035 56.7616 34.4035 55.4655ZM119.192 64.0302C118.085 56.3971 112.988 51.9196 105.409 50.871C92.3373 49.0614 82.5337 57.3872 84.1676 70.9171C85.226 79.6428 90.5961 84.8567 99.2388 85.9346C102.877 86.3882 106.311 86.0614 109.535 84.9542C118.485 81.8815 120.421 72.512 119.192 64.0302ZM34.4474 66.5518C34.4474 66.5052 34.4289 66.4606 34.396 66.4276C34.3631 66.3947 34.3184 66.3762 34.2718 66.3762H24.7511C24.7046 66.3762 24.6599 66.3947 24.627 66.4276C24.5941 66.4606 24.5756 66.5052 24.5756 66.5518V85.9248C24.5756 85.9714 24.5941 86.0161 24.627 86.049C24.6599 86.0819 24.7046 86.1004 24.7511 86.1004H34.2718C34.3184 86.1004 34.3631 86.0819 34.396 86.049C34.4289 86.0161 34.4474 85.9714 34.4474 85.9248V66.5518ZM83.1239 92.602C83.1092 91.6168 82.4752 90.612 81.3778 91.1193C81.1632 91.2217 81.051 91.1534 81.0412 90.9144L81.0168 90.2706C81.012 90.056 80.8998 89.9633 80.6852 89.9877L80.2511 90.0414C80.1952 90.0496 80.1442 90.0773 80.1074 90.1195C80.0707 90.1616 80.0507 90.2153 80.0511 90.2706V93.4312C80.0511 93.6604 80.1584 93.7384 80.3779 93.6555C80.7974 93.4946 81.2314 93.4897 81.6753 93.6458C81.8407 93.704 82.0178 93.7213 82.1914 93.6963C82.365 93.6714 82.5299 93.6048 82.6722 93.5022C82.8145 93.3997 82.9299 93.2643 83.0085 93.1075C83.0872 92.9508 83.1267 92.7774 83.1239 92.602ZM89.9132 91.3436L90.557 93.4165C90.5875 93.5136 90.6483 93.5986 90.7306 93.6588C90.8128 93.719 90.9121 93.7512 91.0135 93.7507C91.1149 93.7501 91.2131 93.7168 91.2935 93.6557C91.3738 93.5947 91.432 93.509 91.4594 93.4117L92.0398 91.4265C92.1324 91.0998 92.1958 91.1046 92.2251 91.4461C92.269 92.0265 91.8983 93.9482 92.9177 93.5824C93.0396 93.5385 93.0982 93.4556 93.0982 93.3239V90.6023C93.1059 90.3811 93.0255 90.1658 92.8746 90.0039C92.7236 89.842 92.5146 89.7467 92.2934 89.739C92.0722 89.7312 91.857 89.8116 91.6951 89.9626C91.5332 90.1135 91.4379 90.3225 91.4301 90.5437C91.396 90.9973 91.2838 91.4363 91.0936 91.8606C90.9667 92.1387 90.8741 92.1289 90.8107 91.8314C90.718 91.3875 90.6448 90.9339 90.5863 90.4657C90.5652 90.2343 90.4541 90.0203 90.2769 89.8699C90.0998 89.7194 89.8707 89.6445 89.6389 89.6611C89.4071 89.6777 89.191 89.7845 89.0371 89.9587C88.8832 90.1328 88.8038 90.3604 88.8158 90.5925L88.8646 93.3629C88.8646 93.5336 88.9524 93.6311 89.1231 93.6555C90.1864 93.797 89.5669 92.0362 89.8254 91.3388C89.8596 91.251 89.8888 91.251 89.9132 91.3436ZM95.1735 90.4325C95.1736 90.3781 95.163 90.3242 95.1422 90.2738C95.1215 90.2235 95.091 90.1777 95.0526 90.1392C95.0142 90.1006 94.9685 90.07 94.9183 90.0491C94.868 90.0281 94.8141 90.0173 94.7596 90.0172L94.4865 90.0167C94.4321 90.0166 94.3781 90.0273 94.3278 90.048C94.2775 90.0688 94.2317 90.0992 94.1932 90.1376C94.1546 90.1761 94.124 90.2217 94.103 90.272C94.0821 90.3222 94.0713 90.3761 94.0712 90.4306L94.0663 93.2497C94.0662 93.3042 94.0769 93.3581 94.0976 93.4084C94.1184 93.4588 94.1488 93.5045 94.1872 93.5431C94.2257 93.5817 94.2713 93.6123 94.3216 93.6332C94.3718 93.6541 94.4257 93.6649 94.4802 93.665L94.7533 93.6655C94.8077 93.6656 94.8617 93.655 94.912 93.6342C94.9624 93.6135 95.0081 93.583 95.0467 93.5446C95.0852 93.5062 95.1159 93.4605 95.1368 93.4103C95.1577 93.36 95.1685 93.3061 95.1686 93.2517L95.1735 90.4325ZM97.4634 91.9582L98.595 93.4019C98.6769 93.5075 98.7887 93.5859 98.9158 93.6268C99.043 93.6678 99.1795 93.6694 99.3076 93.6314C99.4357 93.5935 99.5493 93.5177 99.6337 93.4141C99.718 93.3105 99.7691 93.1838 99.7802 93.0507C99.8241 92.6118 100.229 89.3244 98.873 90.0999C98.7608 90.1633 98.7072 90.256 98.7072 90.3877V91.5729C98.7072 91.9484 98.5999 91.9826 98.3804 91.6802L97.3854 90.2901C97.3012 90.172 97.1816 90.0838 97.0439 90.0382C96.9062 89.9926 96.7576 89.9921 96.6196 90.0366C96.4816 90.0812 96.3613 90.1686 96.2763 90.286C96.1912 90.4035 96.1458 90.545 96.1465 90.6901V93.3726C96.1465 93.597 96.2587 93.6945 96.4782 93.6604L96.8781 93.6067C97.0391 93.5824 97.122 93.4897 97.122 93.3287V92.0752C97.122 91.7094 97.2342 91.6704 97.4634 91.9582ZM101.784 90.4022C101.783 90.3516 101.773 90.3017 101.752 90.2553C101.732 90.2089 101.703 90.1669 101.667 90.1318C101.63 90.0966 101.587 90.069 101.54 90.0505C101.493 90.0319 101.443 90.0228 101.392 90.0237L101.012 90.0303C100.91 90.0321 100.812 90.0744 100.741 90.1479C100.67 90.2214 100.632 90.3201 100.633 90.4223L100.683 93.2703C100.684 93.3208 100.695 93.3708 100.715 93.4172C100.735 93.4636 100.764 93.5056 100.801 93.5407C100.837 93.5759 100.88 93.6035 100.927 93.622C100.974 93.6406 101.024 93.6497 101.075 93.6488L101.455 93.6422C101.558 93.6404 101.655 93.5981 101.726 93.5246C101.797 93.4511 101.836 93.3524 101.834 93.2502L101.784 90.4022ZM104.721 90.8608L105.531 91.1632C105.701 91.2266 105.848 91.1924 105.974 91.0656L106.111 90.9291C106.223 90.8169 106.213 90.7145 106.092 90.6169C103.019 88.2562 101.043 93.0215 104.184 93.6702C104.95 93.8311 105.638 93.5531 106.243 92.841C106.355 92.7093 106.335 92.602 106.179 92.524L105.731 92.3045C105.521 92.2021 105.35 92.246 105.219 92.4362C105.072 92.641 104.882 92.7873 104.648 92.8703C104.487 92.9288 104.336 92.9044 104.194 92.802C103.804 92.5142 103.643 92.0752 103.711 91.4851C103.724 91.3711 103.763 91.2615 103.825 91.1646C103.886 91.0677 103.968 90.9861 104.066 90.9259C104.163 90.8658 104.273 90.8286 104.386 90.8173C104.5 90.806 104.614 90.8209 104.721 90.8608ZM110.754 91.8314C110.754 91.3165 110.55 90.8228 110.186 90.4587C109.822 90.0947 109.328 89.8902 108.813 89.8902C108.298 89.8902 107.805 90.0947 107.441 90.4587C107.076 90.8228 106.872 91.3165 106.872 91.8314C106.872 92.0863 106.922 92.3387 107.02 92.5742C107.117 92.8098 107.26 93.0238 107.441 93.204C107.621 93.3843 107.835 93.5273 108.07 93.6248C108.306 93.7224 108.558 93.7726 108.813 93.7726C109.328 93.7726 109.822 93.5681 110.186 93.204C110.55 92.84 110.754 92.3462 110.754 91.8314ZM112.93 92.0021L113.983 93.4507C114.064 93.5633 114.178 93.6474 114.309 93.691C114.441 93.7345 114.583 93.7351 114.715 93.6928C114.846 93.6505 114.961 93.5674 115.043 93.4555C115.125 93.3436 115.168 93.2087 115.168 93.0702V90.3779C115.168 90.2072 115.085 90.1097 114.915 90.0901L114.432 90.0267C114.193 89.9975 114.071 90.1048 114.071 90.3438V91.6168C114.07 91.6522 114.058 91.6864 114.037 91.7147C114.015 91.743 113.986 91.764 113.952 91.7747C113.918 91.7854 113.882 91.7854 113.848 91.7745C113.814 91.7637 113.785 91.7427 113.764 91.7143L112.798 90.3194C112.712 90.1961 112.589 90.1033 112.447 90.0546C112.305 90.0058 112.151 90.0035 112.008 90.0481C111.864 90.0926 111.739 90.1817 111.649 90.3024C111.56 90.4231 111.511 90.5691 111.51 90.7193V93.2848C111.51 93.436 111.579 93.5385 111.715 93.597C112.739 94.0506 112.627 92.6069 112.603 92.1191C112.6 92.08 112.611 92.041 112.632 92.0082C112.654 91.9754 112.685 91.9505 112.722 91.9373C112.759 91.924 112.799 91.9232 112.837 91.9349C112.874 91.9466 112.907 91.9702 112.93 92.0021ZM117.275 90.9047C117.768 90.7291 118.944 91.168 118.958 90.3243C118.959 90.2822 118.951 90.2405 118.935 90.2014C118.92 90.1624 118.897 90.1269 118.867 90.0969C118.838 90.067 118.802 90.0432 118.764 90.0269C118.725 90.0107 118.683 90.0023 118.641 90.0023L116.329 89.9975C116.124 89.9926 116.022 90.095 116.022 90.2999V93.2653C116.02 93.3974 116.067 93.5252 116.154 93.6241C116.241 93.7231 116.361 93.7865 116.493 93.8021C116.624 93.8178 116.757 93.7847 116.866 93.7091C116.976 93.6335 117.053 93.5207 117.085 93.3921C117.139 93.1873 117.144 92.8703 117.1 92.441C117.08 92.2264 117.178 92.1143 117.392 92.1045L118.456 92.0509C118.539 92.046 118.602 92.007 118.646 91.9338L118.729 91.8021C118.744 91.7763 118.753 91.7472 118.755 91.7171C118.757 91.6871 118.751 91.6571 118.739 91.6297C118.726 91.6024 118.707 91.5784 118.683 91.56C118.66 91.5416 118.632 91.5293 118.602 91.5241L117.31 91.2949C117.267 91.2857 117.228 91.263 117.199 91.2302C117.17 91.1973 117.152 91.1561 117.148 91.1124C117.144 91.0687 117.155 91.025 117.178 90.9876C117.201 90.9502 117.235 90.9211 117.275 90.9047ZM84.8115 92.2264C84.7968 91.5485 84.4603 91.1583 83.8116 91.0461C83.7666 91.0391 83.7205 91.0442 83.6781 91.0608C83.6357 91.0773 83.5986 91.1047 83.5707 91.1402C83.5427 91.1756 83.525 91.2177 83.5193 91.2621C83.5136 91.3065 83.5203 91.3515 83.5385 91.3924L84.4896 93.5531C84.553 93.7043 84.5091 93.8116 84.353 93.8701L83.6311 94.1238C83.5939 94.1358 83.5611 94.1585 83.5367 94.189C83.5122 94.2195 83.4973 94.2565 83.4936 94.2954C83.49 94.3343 83.4979 94.3735 83.5162 94.408C83.5346 94.4425 83.5627 94.4708 83.597 94.4896C85.3626 95.4943 86.0601 92.4459 86.4356 91.368C86.499 91.1778 86.4308 91.0851 86.2308 91.09L85.626 91.1046C85.5952 91.1057 85.5649 91.1133 85.5371 91.1268C85.5093 91.1404 85.4846 91.1597 85.4644 91.1835C85.4443 91.2073 85.4292 91.2351 85.42 91.2652C85.4109 91.2952 85.408 91.3269 85.4114 91.3583C85.4504 91.6997 85.3724 92.0216 85.1724 92.3289C84.9431 92.68 84.8261 92.6459 84.8115 92.2264ZM78.2855 93.2361C78.2855 93.1533 78.2526 93.0739 78.1941 93.0153C78.1355 92.9568 78.0561 92.9239 77.9733 92.9239H24.8682C24.7854 92.9239 24.706 92.9568 24.6475 93.0153C24.5889 93.0739 24.5561 93.1533 24.5561 93.2361V93.3434C24.5561 93.4262 24.5889 93.5056 24.6475 93.5641C24.706 93.6226 24.7854 93.6555 24.8682 93.6555H77.9733C78.0561 93.6555 78.1355 93.6226 78.1941 93.5641C78.2526 93.5056 78.2855 93.4262 78.2855 93.3434V93.2361Z" fill="#00000E"/>
<path d="M46.4263 50.6805C46.4263 50.6482 46.4392 50.6172 46.462 50.5943C46.4849 50.5714 46.5159 50.5586 46.5483 50.5586L63.0436 50.5879C65.2633 50.5912 67.4606 51.0162 69.5101 51.8384C71.5595 52.6607 73.421 53.8641 74.9881 55.3801C76.5552 56.896 77.7973 58.6947 78.6434 60.6735C79.4896 62.6522 79.9231 64.7723 79.9194 66.9125L79.9097 69.7999C79.9022 74.1211 78.115 78.2623 74.9412 81.3127C71.7673 84.363 67.4667 86.0729 62.9851 86.0661L46.4897 86.0368C46.4574 86.0368 46.4264 86.024 46.4035 86.0011C46.3807 85.9782 46.3678 85.9472 46.3678 85.9149L46.4263 50.6805ZM58.2248 58.5575V78.0379C58.2248 78.0584 58.2288 78.0787 58.2366 78.0976C58.2445 78.1165 58.256 78.1337 58.2705 78.1482C58.285 78.1627 58.3022 78.1742 58.3211 78.1821C58.34 78.1899 58.3603 78.1939 58.3808 78.1939H61.4292C63.2156 78.1939 64.9289 77.4226 66.1921 76.0497C67.4553 74.6767 68.1649 72.8146 68.1649 70.873V65.7224C68.1649 63.7808 67.4553 61.9187 66.1921 60.5457C64.9289 59.1728 63.2156 58.4015 61.4292 58.4015H58.3808C58.3394 58.4015 58.2997 58.4179 58.2705 58.4472C58.2412 58.4764 58.2248 58.5161 58.2248 58.5575Z" fill="white"/>
<path d="M29.5164 60.3524C32.2155 60.3524 34.4035 58.1644 34.4035 55.4653C34.4035 52.7662 32.2155 50.5781 29.5164 50.5781C26.8173 50.5781 24.6292 52.7662 24.6292 55.4653C24.6292 58.1644 26.8173 60.3524 29.5164 60.3524Z" fill="white"/>
<path d="M105.409 50.8709C112.988 51.9196 118.085 56.397 119.192 64.0302C120.421 72.5119 118.485 81.8814 109.535 84.9542C106.311 86.0614 102.877 86.3882 99.2388 85.9346C90.596 84.8567 85.226 79.6427 84.1676 70.917C82.5337 57.3871 92.3372 49.0614 105.409 50.8709ZM106.126 60.7769C103.619 57.9968 99.3753 58.1187 97.1171 60.9525C95.41 63.0937 94.9857 66.1908 95.132 68.9417C95.371 73.385 96.3367 77.4723 101.809 77.5064C109.74 77.5552 109.935 65.0008 106.126 60.7769Z" fill="white"/>
<path d="M58.2247 58.5584C58.2247 58.517 58.2412 58.4773 58.2704 58.4481C58.2997 58.4188 58.3394 58.4023 58.3808 58.4023H61.4292C63.2156 58.4023 64.9288 59.1737 66.192 60.5466C67.4552 61.9196 68.1649 63.7817 68.1649 65.7233V70.8739C68.1649 72.8155 67.4552 74.6776 66.192 76.0506C64.9288 77.4235 63.2156 78.1948 61.4292 78.1948H58.3808C58.3603 78.1948 58.34 78.1908 58.3211 78.183C58.3021 78.1751 58.2849 78.1636 58.2704 78.1491C58.256 78.1346 58.2445 78.1174 58.2366 78.0985C58.2288 78.0796 58.2247 78.0593 58.2247 78.0388V58.5584Z" fill="#00000E"/>
<path d="M106.126 60.7767C109.935 65.0005 109.74 77.555 101.809 77.5062C96.3367 77.472 95.371 73.3848 95.132 68.9415C94.9857 66.1906 95.41 63.0935 97.1171 60.9523C99.3754 58.1185 103.619 57.9966 106.126 60.7767Z" fill="#00000E"/>
<path d="M34.2718 66.377H24.7511C24.6541 66.377 24.5755 66.4556 24.5755 66.5525V85.9256C24.5755 86.0225 24.6541 86.1012 24.7511 86.1012H34.2718C34.3688 86.1012 34.4474 86.0225 34.4474 85.9256V66.5525C34.4474 66.4556 34.3688 66.377 34.2718 66.377Z" fill="white"/>
<path d="M81.3778 91.1197C82.4752 90.6125 83.1092 91.6172 83.1239 92.6025C83.1267 92.7778 83.0872 92.9513 83.0085 93.108C82.9299 93.2648 82.8145 93.4002 82.6722 93.5027C82.5299 93.6052 82.3649 93.6718 82.1914 93.6968C82.0178 93.7218 81.8407 93.7045 81.6753 93.6462C81.2314 93.4902 80.7974 93.495 80.3779 93.656C80.1584 93.7389 80.0511 93.6609 80.0511 93.4316V90.2711C80.0507 90.2157 80.0707 90.1621 80.1074 90.1199C80.1442 90.0778 80.1952 90.0501 80.2511 90.0418L80.6852 89.9882C80.8998 89.9638 81.012 90.0565 81.0168 90.2711L81.0412 90.9149C81.051 91.1539 81.1632 91.2222 81.3778 91.1197ZM81.615 92.9274C81.7311 92.9183 81.8375 92.8465 81.9107 92.7279C81.9839 92.6093 82.0181 92.4535 82.0056 92.2949C81.9931 92.1363 81.935 91.9878 81.8441 91.8821C81.7532 91.7764 81.637 91.7221 81.5209 91.7313C81.4049 91.7404 81.2985 91.8122 81.2253 91.9308C81.152 92.0494 81.1179 92.2052 81.1304 92.3638C81.1429 92.5224 81.2009 92.6709 81.2918 92.7766C81.3827 92.8823 81.499 92.9365 81.615 92.9274Z" fill="white"/>
<path d="M89.8254 91.3382C89.5669 92.0356 90.1864 93.7964 89.1231 93.6549C88.9524 93.6305 88.8646 93.533 88.8646 93.3623L88.8158 90.5919C88.8038 90.3598 88.8832 90.1323 89.0371 89.9581C89.191 89.7839 89.4071 89.6771 89.6389 89.6605C89.8707 89.6439 90.0998 89.7188 90.2769 89.8693C90.4541 90.0197 90.5652 90.2337 90.5863 90.4651C90.6448 90.9333 90.718 91.3869 90.8107 91.8308C90.8741 92.1283 90.9667 92.1381 91.0936 91.8601C91.2838 91.4357 91.396 90.9967 91.4301 90.5431C91.4379 90.3219 91.5332 90.1129 91.6951 89.962C91.857 89.811 92.0722 89.7306 92.2934 89.7384C92.5146 89.7461 92.7237 89.8415 92.8746 90.0034C93.0255 90.1653 93.1059 90.3805 93.0982 90.6017V93.3233C93.0982 93.455 93.0396 93.5379 92.9177 93.5818C91.8983 93.9476 92.269 92.0259 92.2251 91.4455C92.1959 91.1041 92.1324 91.0992 92.0398 91.426L91.4594 93.4111C91.432 93.5084 91.3738 93.5941 91.2935 93.6552C91.2132 93.7162 91.1149 93.7495 91.0135 93.7501C90.9121 93.7506 90.8128 93.7184 90.7306 93.6582C90.6483 93.598 90.5875 93.513 90.557 93.4159L89.9132 91.343C89.8888 91.2504 89.8596 91.2504 89.8254 91.3382Z" fill="white"/>
<path d="M94.7596 90.0168L94.4865 90.0163C94.2575 90.0159 94.0716 90.2012 94.0712 90.4302L94.0663 93.2493C94.0659 93.4783 94.2511 93.6642 94.4801 93.6646L94.7532 93.6651C94.9822 93.6655 95.1681 93.4802 95.1685 93.2513L95.1735 90.4321C95.1739 90.2032 94.9886 90.0172 94.7596 90.0168Z" fill="white"/>
<path d="M97.122 92.0757V93.3292C97.122 93.4901 97.0391 93.5828 96.8781 93.6072L96.4782 93.6608C96.2587 93.695 96.1465 93.5974 96.1465 93.3731V90.6905C96.1458 90.5455 96.1912 90.4039 96.2763 90.2865C96.3613 90.169 96.4816 90.0816 96.6196 90.0371C96.7576 89.9925 96.9062 89.9931 97.0439 90.0386C97.1816 90.0842 97.3012 90.1724 97.3854 90.2905L98.3804 91.6806C98.5999 91.983 98.7072 91.9489 98.7072 91.5733V90.3881C98.7072 90.2564 98.7608 90.1637 98.873 90.1003C100.229 89.3248 99.8241 92.6122 99.7802 93.0511C99.7691 93.1843 99.718 93.3109 99.6337 93.4145C99.5493 93.5182 99.4357 93.5939 99.3076 93.6318C99.1795 93.6698 99.043 93.6682 98.9158 93.6272C98.7887 93.5863 98.6769 93.5079 98.595 93.4023L97.4634 91.9586C97.2342 91.6709 97.122 91.7099 97.122 92.0757Z" fill="white"/>
<path d="M101.392 90.0237L101.012 90.0304C100.799 90.0341 100.63 90.2096 100.633 90.4224L100.683 93.2703C100.687 93.4831 100.862 93.6526 101.075 93.6489L101.455 93.6422C101.668 93.6385 101.838 93.463 101.834 93.2502L101.784 90.4023C101.781 90.1895 101.605 90.02 101.392 90.0237Z" fill="white"/>
<path d="M104.721 90.8621C104.614 90.8223 104.5 90.8074 104.386 90.8187C104.273 90.83 104.163 90.8671 104.066 90.9273C103.968 90.9875 103.886 91.0691 103.825 91.166C103.763 91.2628 103.724 91.3724 103.711 91.4864C103.643 92.0766 103.804 92.5156 104.194 92.8033C104.336 92.9058 104.487 92.9302 104.648 92.8716C104.882 92.7887 105.072 92.6424 105.219 92.4375C105.35 92.2473 105.521 92.2034 105.731 92.3058L106.179 92.5253C106.335 92.6034 106.355 92.7107 106.243 92.8424C105.638 93.5545 104.95 93.8325 104.185 93.6715C101.043 93.0228 103.019 88.2576 106.092 90.6183C106.214 90.7158 106.223 90.8182 106.111 90.9304L105.975 91.067C105.848 91.1938 105.701 91.2279 105.531 91.1645L104.721 90.8621Z" fill="white"/>
<path d="M110.754 91.8318C110.754 92.3467 110.55 92.8404 110.186 93.2045C109.822 93.5685 109.328 93.773 108.813 93.773C108.558 93.773 108.306 93.7228 108.07 93.6253C107.835 93.5277 107.621 93.3847 107.44 93.2045C107.26 93.0242 107.117 92.8102 107.02 92.5747C106.922 92.3392 106.872 92.0868 106.872 91.8318C106.872 91.317 107.076 90.8232 107.44 90.4592C107.805 90.0951 108.298 89.8906 108.813 89.8906C109.328 89.8906 109.822 90.0951 110.186 90.4592C110.55 90.8232 110.754 91.317 110.754 91.8318ZM108.879 92.8924C108.992 92.8843 109.102 92.8491 109.202 92.7888C109.303 92.7285 109.393 92.6443 109.466 92.541C109.538 92.4377 109.594 92.3173 109.628 92.1867C109.662 92.0561 109.674 91.9178 109.664 91.7798C109.644 91.5011 109.535 91.2404 109.359 91.0549C109.183 90.8694 108.956 90.7744 108.728 90.7908C108.615 90.7989 108.505 90.8341 108.404 90.8943C108.304 90.9546 108.214 91.0389 108.141 91.1422C108.068 91.2455 108.013 91.3659 107.979 91.4965C107.945 91.6271 107.932 91.7653 107.942 91.9033C107.962 92.182 108.072 92.4428 108.248 92.6283C108.423 92.8138 108.65 92.9088 108.879 92.8924Z" fill="white"/>
<path d="M112.603 92.1205C112.627 92.6082 112.739 94.0519 111.715 93.5983C111.579 93.5398 111.51 93.4374 111.51 93.2862V90.7207C111.511 90.5705 111.56 90.4244 111.649 90.3037C111.739 90.183 111.864 90.094 112.008 90.0494C112.151 90.0048 112.305 90.0071 112.447 90.0559C112.589 90.1047 112.712 90.1974 112.798 90.3207L113.764 91.7157C113.785 91.744 113.814 91.7651 113.848 91.7759C113.882 91.7867 113.918 91.7868 113.952 91.776C113.986 91.7653 114.015 91.7444 114.037 91.7161C114.058 91.6878 114.07 91.6535 114.071 91.6181V90.3451C114.071 90.1061 114.193 89.9988 114.432 90.0281L114.915 90.0915C115.085 90.111 115.168 90.2085 115.168 90.3793V93.0716C115.168 93.2101 115.125 93.345 115.043 93.4569C114.961 93.5687 114.846 93.6518 114.715 93.6942C114.583 93.7365 114.441 93.7358 114.309 93.6923C114.178 93.6488 114.064 93.5647 113.983 93.452L112.93 92.0034C112.907 91.9715 112.874 91.9479 112.837 91.9362C112.799 91.9245 112.759 91.9254 112.722 91.9386C112.685 91.9518 112.653 91.9768 112.632 92.0096C112.61 92.0424 112.6 92.0813 112.603 92.1205Z" fill="white"/>
<path d="M117.31 91.2956L118.602 91.5248C118.632 91.53 118.66 91.5424 118.683 91.5608C118.707 91.5792 118.726 91.6031 118.739 91.6305C118.751 91.6578 118.757 91.6878 118.755 91.7179C118.753 91.7479 118.744 91.7771 118.729 91.8028L118.646 91.9345C118.602 92.0077 118.539 92.0467 118.456 92.0516L117.392 92.1053C117.178 92.115 117.08 92.2272 117.1 92.4418C117.144 92.871 117.139 93.188 117.085 93.3929C117.053 93.5214 116.975 93.6342 116.866 93.7098C116.757 93.7854 116.624 93.8185 116.493 93.8029C116.361 93.7872 116.241 93.7239 116.154 93.6249C116.067 93.5259 116.02 93.3982 116.022 93.2661V90.3006C116.022 90.0958 116.124 89.9933 116.329 89.9982L118.641 90.0031C118.683 90.0031 118.725 90.0114 118.764 90.0277C118.802 90.0439 118.837 90.0677 118.867 90.0977C118.896 90.1276 118.92 90.1631 118.935 90.2022C118.951 90.2412 118.959 90.283 118.958 90.325C118.943 91.1688 117.768 90.7298 117.275 90.9054C117.235 90.9219 117.201 90.9509 117.178 90.9883C117.155 91.0257 117.144 91.0695 117.148 91.1131C117.152 91.1568 117.17 91.1981 117.199 91.2309C117.228 91.2638 117.267 91.2864 117.31 91.2956Z" fill="white"/>
<path d="M107.942 91.9028C107.984 92.4831 108.403 92.926 108.879 92.8919C109.354 92.8578 109.706 92.3597 109.664 91.7793C109.623 91.199 109.204 90.7562 108.728 90.7902C108.252 90.8243 107.901 91.3224 107.942 91.9028Z" fill="#00000E"/>
<path d="M85.1724 92.3288C85.3724 92.0215 85.4504 91.6996 85.4114 91.3582C85.408 91.3268 85.4109 91.2951 85.4201 91.2651C85.4292 91.235 85.4443 91.2072 85.4644 91.1834C85.4846 91.1596 85.5093 91.1403 85.5371 91.1267C85.5649 91.1132 85.5952 91.1056 85.626 91.1045L86.2308 91.0899C86.4308 91.085 86.4991 91.1777 86.4357 91.3679C86.0601 92.4458 85.3626 95.4942 83.597 94.4895C83.5627 94.4707 83.5346 94.4424 83.5163 94.4079C83.4979 94.3734 83.49 94.3342 83.4937 94.2953C83.4973 94.2564 83.5122 94.2194 83.5367 94.1889C83.5611 94.1584 83.594 94.1357 83.6312 94.1237L84.353 93.87C84.5091 93.8115 84.553 93.7042 84.4896 93.553L83.5385 91.3923C83.5203 91.3514 83.5137 91.3064 83.5193 91.262C83.525 91.2176 83.5427 91.1755 83.5707 91.1401C83.5986 91.1046 83.6358 91.0772 83.6782 91.0607C83.7205 91.0441 83.7667 91.039 83.8116 91.046C84.4603 91.1582 84.7969 91.5484 84.8115 92.2263C84.8261 92.6458 84.9432 92.6799 85.1724 92.3288Z" fill="white"/>
<path d="M81.1304 92.3642C81.1564 92.6945 81.3734 92.9469 81.6151 92.9278C81.8568 92.9088 82.0316 92.6256 82.0056 92.2953C81.9796 91.965 81.7626 91.7127 81.5209 91.7317C81.2793 91.7507 81.1044 92.0339 81.1304 92.3642Z" fill="#00000E"/>
<path d="M77.9733 92.9238H24.8681C24.6957 92.9238 24.556 93.0636 24.556 93.236V93.3433C24.556 93.5157 24.6957 93.6554 24.8681 93.6554H77.9733C78.1457 93.6554 78.2854 93.5157 78.2854 93.3433V93.236C78.2854 93.0636 78.1457 92.9238 77.9733 92.9238Z" fill="white"/>
</g>
<defs>
<clipPath id="clip0_17_13234">
<rect width="139.494" height="139.494" fill="white" transform="translate(0.915283 0.253906)"/>
</clipPath>
</defs>
</svg>
