<svg width="182" height="56" viewBox="0 0 182 56" fill="none" xmlns="http://www.w3.org/2000/svg">
<g clip-path="url(#clip0_17_13548)">
<path d="M0.877106 0.962891H181.123V55.0366H0.877106V0.962891Z" fill="#00000E"/>
<path d="M75.2736 17.0712C78.0974 17.0712 80.8211 18.0275 82.8839 19.7198V17.4567H86.7542V42.0853H82.8839V39.8322C80.8562 41.5145 78.1325 42.4658 75.2736 42.4658C71.7688 42.4658 68.5794 41.169 66.2963 38.8158C64.0332 36.4927 62.7915 33.2883 62.7915 29.7885C62.7915 26.2837 64.0382 23.0694 66.2963 20.7362C68.5844 18.3729 71.7738 17.0712 75.2736 17.0712ZM48.482 16.9811C51.6513 16.9811 54.5253 18.1376 56.5831 20.2455C58.7711 22.4886 59.9376 25.6379 59.9627 29.3629V30.6297H40.0305C40.2708 35.256 43.8006 38.6906 48.3919 38.6906C51.6864 38.6906 54.0446 37.2837 55.817 34.2646L56.0323 33.8991L59.3869 36.0571L59.1916 36.3925C56.9185 40.3029 53.1834 42.3707 48.3869 42.3707C41.152 42.3707 36.1001 37.1586 36.1001 29.6984C36.1001 22.3283 41.3072 16.9811 48.482 16.9811ZM151.437 16.9811C154.607 16.9811 157.481 18.1376 159.538 20.2455C161.726 22.4886 162.893 25.6379 162.918 29.3629V30.6297H142.986C143.226 35.256 146.756 38.6906 151.347 38.6906C154.642 38.6906 157 37.2837 158.772 34.2646L158.988 33.8991L162.342 36.0571L162.147 36.3925C159.874 40.3029 156.139 42.3707 151.342 42.3707C144.107 42.3707 139.056 37.1586 139.051 29.6984C139.051 22.3283 144.263 16.9811 151.437 16.9811ZM34.6081 17.4066V21.0866H23.3928V42.0803H19.4775V17.4066H34.6081ZM126.624 17.0712C132.231 17.0712 135.716 20.9214 135.716 27.1199V42.0352H131.801V27.1199C131.801 23.2496 129.583 20.7512 126.148 20.7512C121.732 20.7512 120.16 23.7953 120.16 26.6442V42.0402H116.244V27.1249C116.244 23.1945 114.096 20.7562 110.637 20.7562C107.788 20.7562 104.744 22.9692 104.744 26.2637V42.0252H100.828V17.4016H104.744V19.7899C106.361 18.0275 108.664 17.0712 111.353 17.0712C115.333 17.0712 117.511 19.0839 118.683 20.9915C120.465 18.4931 123.319 17.0712 126.624 17.0712ZM95.7465 10.1367V42.0352H91.8311V10.1367H95.7465ZM75.0783 20.9915C70.3068 20.9915 66.7069 24.7767 66.7069 29.7935C66.7069 34.7853 70.3068 38.5455 75.0783 38.5505C80.03 38.5505 83.3546 35.0307 83.3546 29.7935C83.3546 24.5313 80.03 20.9915 75.0783 20.9915ZM48.3919 20.6561C44.4465 20.6561 41.152 23.2796 40.2107 27.0948H55.9822C55.2913 23.2246 52.2972 20.6561 48.3919 20.6561ZM151.342 20.6561C147.397 20.6561 144.102 23.2796 143.161 27.0948H158.933C158.242 23.2246 155.248 20.6561 151.342 20.6561Z" fill="white"/>
</g>
<defs>
<clipPath id="clip0_17_13548">
<rect width="180.246" height="54.0737" fill="white" transform="translate(0.877106 0.962891)"/>
</clipPath>
</defs>
</svg>
