<svg width="172" height="172" viewBox="0 0 172 172" fill="none" xmlns="http://www.w3.org/2000/svg">
<path d="M115.791 29.0574C89.8363 15.257 59.9375 21.4809 39.8415 42.4388C39.6559 42.6243 39.6978 42.7201 39.9611 42.7201L46.3646 42.732C46.4903 42.732 46.604 42.6901 46.6938 42.6004C71.6552 20.0087 108.113 22.0016 130.675 46.9152C130.818 47.0708 130.908 47.0409 130.938 46.8314C132.093 38.8421 122.027 32.3728 115.791 29.0574Z" stroke="#00000E" stroke-width="1.19691"/>
<path d="M82.7768 43.957C83.546 43.9275 84.2696 43.5318 84.7884 42.8571C85.3072 42.1824 85.5787 41.2838 85.5432 40.3592C85.5076 39.4345 85.168 38.5595 84.599 37.9266C84.0299 37.2936 83.2781 36.9547 82.5089 36.9842C81.7397 37.0138 81.0161 37.4094 80.4973 38.0841C79.9785 38.7589 79.707 39.6574 79.7425 40.582C79.778 41.5067 80.1176 42.3817 80.6867 43.0147C81.2557 43.6476 82.0075 43.9866 82.7768 43.957Z" stroke="#00000E" stroke-width="1.19691"/>
<path d="M90.0028 43.9495C90.3884 43.965 90.7738 43.8911 91.137 43.732C91.5001 43.5729 91.834 43.3318 92.1195 43.0223C92.405 42.7129 92.6366 42.3412 92.8009 41.9285C92.9653 41.5158 93.0593 41.0702 93.0774 40.6171C93.1142 39.702 92.8401 38.812 92.3155 38.1429C91.7909 37.4737 91.0587 37.0802 90.28 37.0489C89.8945 37.0334 89.5091 37.1073 89.1459 37.2664C88.7827 37.4255 88.4488 37.6666 88.1633 37.9761C87.8778 38.2855 87.6463 38.6572 87.4819 39.0699C87.3176 39.4826 87.2236 39.9282 87.2054 40.3813C87.1687 41.2964 87.4427 42.1864 87.9674 42.8556C88.492 43.5247 89.2242 43.9182 90.0028 43.9495Z" stroke="#00000E" stroke-width="1.19691"/>
<path d="M96.7604 43.6116C96.7208 43.6053 96.6845 43.5859 96.6573 43.5566C96.63 43.5273 96.6133 43.4897 96.6099 43.4498C96.6064 43.4099 96.6164 43.37 96.6383 43.3364C96.6601 43.3028 96.6926 43.2775 96.7305 43.2645C102.105 41.5889 98.436 36.2447 95.2343 38.7163C95.0608 38.8479 95.0308 39.0095 95.1326 39.201L95.4797 39.8533C95.5201 39.9281 95.5849 39.9867 95.6634 40.0194C95.7418 40.052 95.8291 40.0568 95.9106 40.0329L96.8023 39.7815C96.9835 39.73 97.1775 39.7477 97.3465 39.8311C97.5155 39.9145 97.6474 40.0577 97.7168 40.2329C97.7861 40.4082 97.7879 40.6029 97.7217 40.7794C97.6556 40.9558 97.5263 41.1014 97.3588 41.1879L94.1631 42.8516C94.0203 42.9264 93.9034 43.0424 93.8276 43.1846C93.7518 43.3268 93.7205 43.4886 93.738 43.6488C93.7554 43.809 93.8207 43.9602 93.9254 44.0827C94.03 44.2053 94.1692 44.2935 94.3247 44.3358L98.1488 45.389C98.4181 45.4668 98.5797 45.3651 98.6455 45.0958L98.825 44.3298C98.8381 44.2741 98.8392 44.2163 98.8284 44.1602C98.8176 44.104 98.7951 44.0508 98.7624 44.0039C98.7296 43.9571 98.6874 43.9176 98.6384 43.8882C98.5894 43.8588 98.5347 43.84 98.4779 43.8331L96.7604 43.6116Z" stroke="#00000E" stroke-width="1.19691"/>
<path d="M76.4429 43.2108C80.2251 38.3693 74.5996 36.8133 73.271 39.7517C73.1911 39.9258 73.176 40.1226 73.2286 40.3068C73.2811 40.491 73.3979 40.6502 73.5577 40.7558C73.7174 40.8614 73.9097 40.9062 74.0997 40.8823C74.2898 40.8584 74.465 40.7673 74.5936 40.6255C74.851 40.3442 75.593 39.279 76.0239 40.1168C76.2693 40.5956 76.2274 41.0444 75.8983 41.4693L73.8695 44.0965C73.7571 44.2404 73.6929 44.4161 73.6861 44.5986C73.6794 44.781 73.7303 44.961 73.8318 45.1128C73.9332 45.2647 74.08 45.3806 74.2511 45.4442C74.4223 45.5078 74.6092 45.5158 74.7851 45.467L78.5614 44.4436C78.8187 44.3778 78.9264 44.2102 78.8726 43.9469C78.5674 42.3909 77.4423 43.3066 76.5865 43.4442C76.3351 43.4861 76.2873 43.4083 76.4429 43.2108Z" stroke="#00000E" stroke-width="1.19691"/>
<path d="M36.3404 77.3228C33.5576 73.9475 31.1937 71.8051 32.3846 67.2748C33.8329 61.757 39.9909 58.8665 45.4608 58.663C60.8111 58.0945 76.6642 64.0431 90.7877 66.9875C99.4114 68.7829 106.623 69.9618 115.175 69.6806C123.966 69.3813 135.977 65.5453 137.413 55.1741C137.964 51.2063 136.94 47.4899 134.343 44.0189C134.205 43.8334 134.164 43.8513 134.217 44.0787C136.683 53.7019 127.694 59.6864 119.358 60.2968C112.338 60.8055 105.049 60.2789 97.4964 58.7049C84.869 56.0777 73.0016 52.7384 60.7154 49.9496C55.5866 48.7826 50.3981 48.0225 45.1616 47.6635C34.3356 46.9274 23.0846 53.253 22.564 64.8989C22.1989 73.002 28.0698 78.1547 36.2686 77.4904C36.4062 77.4844 36.4301 77.4246 36.3404 77.3228Z" stroke="#00000E" stroke-width="1.19691"/>
<path d="M107.736 83.456C106.892 77.7707 101.297 79.8293 97.4665 80.1166C97.3989 80.1217 97.3345 80.1486 97.2832 80.1931C97.2318 80.2377 97.1962 80.2975 97.182 80.3633C97.1677 80.4292 97.1755 80.4975 97.2042 80.5578C97.2329 80.6181 97.2809 80.667 97.3408 80.6971C99.1541 81.6546 98.6395 83.4081 98.2385 85.4787C97.1792 90.9666 96.1319 96.4604 95.0966 101.948C94.8692 103.139 94.4503 104.073 93.8458 104.749C92.5831 106.155 89.7405 108.286 87.7536 107.125C85.7667 105.964 86.413 103.761 86.8559 101.296C87.4065 98.1959 92.242 80.5535 84.6536 81.7923C82.8642 82.0855 80.8774 82.3189 78.681 82.4984C78.59 82.5131 78.5075 82.5606 78.4491 82.632C78.3907 82.7033 78.3605 82.7936 78.3642 82.8858C78.3679 82.9779 78.4052 83.0655 78.4691 83.1319C78.533 83.1984 78.619 83.2392 78.711 83.2465C80.237 83.2525 79.6924 86.4542 79.5248 87.328C78.4297 92.9834 77.3525 98.6447 76.2872 104.306C76.0837 105.395 75.6888 106.293 75.1023 106.993C73.9413 108.376 72.7324 109.255 71.4757 109.626C68.4954 110.5 67.1488 108.286 67.6515 105.641C69.2554 97.2503 70.8353 88.86 72.3853 80.4637C72.9598 77.3637 72.3853 72.0674 67.7533 72.5521C65.8622 72.7556 63.8992 72.9711 61.8645 73.1985C61.8107 73.2067 61.7612 73.2325 61.7237 73.272C61.6862 73.3114 61.6629 73.3622 61.6574 73.4163C61.6519 73.4705 61.6646 73.5249 61.6934 73.571C61.7222 73.6172 61.7656 73.6524 61.8166 73.6713C63.0913 74.0842 63.588 75.0477 63.3127 76.5498C61.6131 85.748 59.8716 94.9343 58.0942 104.115C57.406 107.657 56.1732 113.313 60.135 115.76C65.3475 118.98 72.7922 114.109 75.8444 109.866C75.8798 109.816 75.9283 109.778 75.9844 109.754C76.0405 109.73 76.1021 109.723 76.1622 109.732C76.2224 109.741 76.2787 109.767 76.3251 109.807C76.3715 109.846 76.406 109.898 76.4249 109.955C78.6391 116.993 87.0534 114.462 91.1588 111.057C91.9368 110.41 92.7088 109.734 93.4688 109.028C93.7202 108.794 93.8159 108.848 93.7621 109.183L93.4389 111.134C93.43 111.184 93.433 111.236 93.4477 111.284C93.4623 111.333 93.4881 111.377 93.5231 111.414C93.558 111.45 93.6011 111.478 93.6489 111.495C93.6966 111.512 93.7477 111.518 93.798 111.511L103.188 110.309C103.403 110.279 103.529 110.159 103.571 109.95C104.81 103.265 106.102 96.586 107.437 89.9253C107.963 87.316 110.237 83.0909 113.326 83.2345C115.486 83.3363 115.42 85.2214 115.085 86.9569C114.295 91.0803 113.523 95.2036 112.775 99.3329C109.974 114.785 124.918 110.811 130.519 103.606C130.546 103.573 130.581 103.547 130.621 103.532C130.661 103.517 130.705 103.513 130.747 103.52C130.789 103.527 130.828 103.546 130.861 103.574C130.894 103.601 130.918 103.637 130.932 103.678C132.045 106.891 134.475 107.975 137.832 107.681C142.686 107.268 145.917 104.605 147.539 99.692C147.558 99.6397 147.559 99.5826 147.542 99.5297C147.525 99.4768 147.491 99.431 147.445 99.3995C147.399 99.3681 147.344 99.3527 147.289 99.3558C147.233 99.3589 147.18 99.3803 147.138 99.4167C145.768 100.548 144.206 100.985 142.446 100.733C142.243 100.703 142.069 100.62 141.926 100.47C140.962 99.4586 140.627 98.13 140.926 96.4783C141.95 90.8169 143.009 85.1675 144.11 79.5361C144.129 79.444 144.177 79.3604 144.245 79.297C144.314 79.2337 144.401 79.1938 144.493 79.183L148.365 78.6983C148.616 78.6683 148.766 78.5307 148.814 78.2853L149.646 74.2218C149.655 74.1705 149.653 74.1176 149.638 74.0673C149.624 74.0171 149.598 73.971 149.562 73.9326C149.527 73.8942 149.483 73.8647 149.434 73.8463C149.385 73.828 149.333 73.8213 149.281 73.8269L145.391 74.2877C145.133 74.3176 145.032 74.2099 145.079 73.9585C145.678 70.685 145.935 64.4311 149.322 62.8931C149.634 62.7555 149.622 62.6717 149.281 62.6418C140.011 61.8817 136.54 67.0883 134.894 75.2931C134.852 75.4965 134.732 75.6102 134.523 75.6282L132.147 75.8736C131.878 75.9035 131.716 76.0471 131.662 76.3164L130.89 80.4457C130.848 80.6911 130.95 80.7988 131.195 80.7689L133.553 80.4757C133.811 80.4458 133.918 80.5535 133.864 80.8108C132.674 86.7534 131.566 92.726 130.543 98.7225C129.813 102.978 121.435 105.527 122.829 98.4472C123.505 94.9942 124.158 91.5291 124.78 88.0641C125.54 83.8629 125.678 78.6444 120.752 77.1842C115.809 75.718 110.603 79.3087 108.125 83.5338C107.921 83.8809 107.79 83.8569 107.736 83.456Z" stroke="#00000E" stroke-width="1.19691"/>
<path d="M48.6506 85.7543C49.8954 78.3874 50.8769 73.1808 51.595 70.1407C51.9421 68.6745 53.1271 68.0521 54.294 67.0586C54.5633 66.8312 54.5214 66.7295 54.1684 66.7534C51.6309 66.915 49.8356 67.1185 48.7823 67.3519C40.1765 69.2729 39.7516 80.3144 38.3752 87.0889C38.3596 87.1607 38.3224 87.2258 38.2688 87.2752C38.2152 87.3245 38.1477 87.3556 38.0759 87.3642L35.5385 87.6754C35.341 87.6993 35.2213 87.807 35.1794 88.0045L34.3476 92.2356C34.3057 92.439 34.3895 92.5288 34.5989 92.5049L36.8132 92.2655C37.2022 92.2236 37.3578 92.3972 37.286 92.7802L32.4445 118.46C32.4026 118.693 32.4984 118.795 32.7318 118.765L42.1335 117.562C42.3848 117.532 42.5344 117.389 42.5763 117.143L47.5435 91.1703C47.5854 90.9609 47.7051 90.8472 47.9145 90.8232L55.9458 89.9136C56.1612 89.8896 56.2869 89.7699 56.3228 89.5605L57.1068 85.3474C57.1147 85.3056 57.1126 85.2625 57.1006 85.2217C57.0887 85.1808 57.0673 85.1434 57.0381 85.1125C57.0089 85.0815 56.9728 85.0579 56.9327 85.0436C56.8926 85.0293 56.8497 85.0247 56.8075 85.0302L48.9379 86.0535C48.7045 86.0835 48.6087 85.9877 48.6506 85.7543Z" stroke="#00000E" stroke-width="1.19691"/>
<path d="M90.9209 72.6578C90.5306 71.5736 89.5969 70.7353 88.3251 70.3271C87.0533 69.919 85.5477 69.9745 84.1394 70.4815C83.4422 70.7326 82.7898 71.0869 82.2195 71.5242C81.6493 71.9616 81.1723 72.4735 80.8159 73.0306C80.4595 73.5877 80.2306 74.1791 80.1424 74.7712C80.0541 75.3632 80.1081 75.9442 80.3014 76.4811C80.6917 77.5653 81.6255 78.4036 82.8973 78.8118C84.169 79.2199 85.6746 79.1644 87.0829 78.6574C87.7802 78.4063 88.4326 78.052 89.0028 77.6146C89.5731 77.1773 90.05 76.6654 90.4064 76.1083C90.7628 75.5512 90.9917 74.9597 91.08 74.3677C91.1682 73.7757 91.1142 73.1946 90.9209 72.6578Z" stroke="#00000E" stroke-width="1.19691"/>
<path d="M119.837 139.435C93.1337 160.124 56.2391 151.62 38.9198 123.391C38.8181 123.217 38.6685 123.145 38.471 123.169L33.7911 123.726C33.5218 123.756 33.4559 123.888 33.5876 124.121C51.3317 155.833 91.1468 166.264 121.111 144.887C132.859 136.503 140.914 125.025 145.283 110.446C145.355 110.213 145.289 110.159 145.079 110.285C143.452 111.284 141.704 111.996 139.843 112.427C139.622 112.481 139.472 112.613 139.388 112.822C135.295 123.636 128.778 132.505 119.837 139.435Z" stroke="#00000E" stroke-width="1.19691"/>
<path d="M56.2389 123.266C56.2389 123.067 56.1996 122.869 56.1232 122.684C56.0468 122.5 55.9348 122.332 55.7937 122.191C55.6525 122.05 55.4849 121.938 55.3005 121.862C55.1161 121.785 54.9184 121.746 54.7188 121.746C54.5192 121.746 54.3215 121.785 54.1371 121.862C53.9527 121.938 53.7851 122.05 53.6439 122.191C53.5028 122.332 53.3908 122.5 53.3144 122.684C53.238 122.869 53.1987 123.067 53.1987 123.266C53.1987 123.669 53.3589 124.056 53.6439 124.341C53.929 124.626 54.3157 124.786 54.7188 124.786C55.122 124.786 55.5086 124.626 55.7937 124.341C56.0787 124.056 56.2389 123.669 56.2389 123.266Z" stroke="#00000E" stroke-width="1.19691"/>
<path d="M118.547 124.795C118.928 124.772 119.282 124.586 119.534 124.276C119.785 123.967 119.913 123.56 119.888 123.144C119.876 122.939 119.827 122.738 119.743 122.552C119.66 122.366 119.544 122.2 119.402 122.063C119.261 121.925 119.096 121.819 118.917 121.751C118.738 121.683 118.55 121.653 118.361 121.664C117.981 121.687 117.626 121.874 117.375 122.183C117.123 122.493 116.996 122.9 117.02 123.315C117.033 123.52 117.082 123.722 117.165 123.907C117.249 124.093 117.364 124.259 117.506 124.397C117.648 124.534 117.813 124.64 117.991 124.708C118.17 124.777 118.359 124.806 118.547 124.795Z" stroke="#00000E" stroke-width="1.19691"/>
<path d="M112.272 128.526L110.782 126.377C110.62 126.144 110.429 126.114 110.208 126.293L109.388 126.964C109.329 127.011 109.291 127.08 109.281 127.155C109.271 127.23 109.29 127.307 109.334 127.371L112.386 131.757C112.506 131.931 112.678 132.06 112.878 132.127C113.078 132.194 113.294 132.195 113.494 132.129C113.694 132.063 113.867 131.934 113.988 131.761C114.109 131.588 114.17 131.381 114.163 131.171L114.038 127.401C114.026 127.071 114.115 127.035 114.313 127.305L115.959 129.609C116.102 129.806 116.27 129.824 116.455 129.675L117.239 129.04C117.305 128.987 117.348 128.912 117.36 128.829C117.372 128.746 117.353 128.661 117.305 128.591L114.008 123.726C113.924 123.606 113.822 123.588 113.703 123.666L112.715 124.318C112.619 124.384 112.571 124.48 112.571 124.6L112.655 128.4C112.661 128.867 112.536 128.909 112.272 128.526Z" stroke="#00000E" stroke-width="1.19691"/>
<path d="M59.7519 129.83C59.562 129.823 59.3757 129.776 59.2054 129.691C59.0352 129.607 58.885 129.487 58.7649 129.341C58.6448 129.194 58.5575 129.023 58.5089 128.84C58.4603 128.657 58.4516 128.466 58.4832 128.28C58.8123 126.257 61.3917 125.641 61.7148 127.927C61.7206 127.965 61.7339 128.002 61.7542 128.035C61.7745 128.068 61.8012 128.096 61.8329 128.119C61.8646 128.142 61.9007 128.158 61.9389 128.167C61.9772 128.177 62.017 128.178 62.056 128.172L63.0973 128.004C63.2708 127.975 63.3426 127.879 63.3187 127.705C62.8818 124.061 58.1062 123.45 56.9033 127.101C56.1911 129.261 58.2139 131.936 60.3623 131.643C60.5832 131.609 60.7835 131.494 60.9246 131.321C61.0657 131.147 61.1376 130.928 61.1265 130.705C61.1153 130.482 61.0219 130.271 60.8642 130.112C60.7065 129.954 60.4957 129.86 60.2726 129.848L59.7519 129.83Z" stroke="#00000E" stroke-width="1.19691"/>
<path d="M66.8497 131.639V129.018C66.8497 128.796 66.7479 128.635 66.5385 128.545L65.4373 128.066C65.2518 127.988 65.1561 128.048 65.1561 128.252L65.2279 133.189C65.229 133.233 65.2181 133.277 65.1963 133.316C65.1744 133.355 65.1424 133.387 65.1035 133.41C65.0645 133.432 65.0201 133.444 64.9747 133.444C64.9292 133.444 64.8844 133.433 64.8449 133.41L64.2763 133.081C64.1249 132.992 63.9471 132.959 63.7739 132.988C63.6007 133.017 63.4432 133.106 63.3291 133.24C63.2149 133.373 63.1513 133.543 63.1495 133.718C63.1476 133.894 63.2075 134.064 63.3188 134.2C65.1381 136.456 69.1537 132.339 70.608 131.118C70.7396 131.004 70.7336 130.903 70.59 130.807L69.5906 130.137C69.5286 130.095 69.4546 130.074 69.3794 130.077C69.3041 130.081 69.2314 130.108 69.1717 130.155L67.1669 131.788C66.9574 131.962 66.8497 131.908 66.8497 131.639Z" stroke="#00000E" stroke-width="1.19691"/>
<path d="M104.732 131.739L104.067 130.249C104.048 130.206 104.02 130.167 103.984 130.136C103.949 130.104 103.907 130.081 103.861 130.067C103.816 130.054 103.768 130.05 103.721 130.057C103.674 130.063 103.629 130.08 103.589 130.106L102.721 130.674C102.553 130.782 102.511 130.926 102.589 131.111L104.815 136.048C104.901 136.256 105.063 136.423 105.269 136.513C105.474 136.604 105.707 136.611 105.918 136.533C106.128 136.456 106.301 136.3 106.399 136.098C106.497 135.896 106.513 135.663 106.443 135.45L106.024 134.026C106.003 133.947 106.006 133.865 106.033 133.788C106.06 133.712 106.11 133.646 106.176 133.599C106.242 133.551 106.321 133.526 106.402 133.525C106.483 133.524 106.562 133.549 106.629 133.595L108.281 134.72C108.373 134.782 108.481 134.818 108.593 134.824C108.706 134.83 108.819 134.807 108.921 134.756L110.136 134.121C110.405 133.984 110.411 133.834 110.148 133.678L107.143 131.895C106.946 131.781 106.88 131.608 106.934 131.386L107.64 128.46C107.694 128.244 107.61 128.167 107.401 128.227C105.498 128.729 105.743 130.189 105.222 131.716C105.206 131.766 105.174 131.81 105.132 131.842C105.089 131.875 105.038 131.893 104.985 131.896C104.932 131.898 104.88 131.885 104.834 131.857C104.789 131.829 104.753 131.788 104.732 131.739Z" stroke="#00000E" stroke-width="1.19691"/>
<path d="M74.4799 133.536L74.2046 132.333C74.1843 132.239 74.1409 132.152 74.0782 132.079C74.0156 132.006 73.9356 131.949 73.8456 131.914L72.7564 131.483C72.6994 131.461 72.6372 131.455 72.5771 131.467C72.517 131.479 72.4615 131.507 72.417 131.549C72.3725 131.591 72.3408 131.645 72.3257 131.704C72.3105 131.763 72.3125 131.826 72.3315 131.884L73.2711 134.751C73.3429 134.972 73.289 135.158 73.1155 135.313L70.7934 137.312C70.6199 137.462 70.6259 137.605 70.8234 137.731C71.8946 138.413 72.7683 138.234 73.4446 137.186C73.4927 137.112 73.5635 137.056 73.6464 137.026C73.7293 136.996 73.8197 136.993 73.9041 137.019C73.9885 137.045 74.0623 137.097 74.1143 137.168C74.1664 137.239 74.1939 137.326 74.1927 137.414C74.1747 138.724 74.827 139.371 76.1436 139.347C76.3531 139.341 76.4249 139.239 76.3651 139.042L75.4135 135.966C75.3477 135.75 75.3956 135.571 75.5631 135.421L77.7714 133.446C78.0048 133.237 77.9749 133.063 77.6936 132.937C76.6104 132.441 75.7427 132.674 75.0963 133.649C75.0593 133.705 75.0068 133.748 74.9454 133.774C74.884 133.8 74.8163 133.808 74.7507 133.796C74.6851 133.784 74.6245 133.752 74.5764 133.706C74.5282 133.66 74.4947 133.601 74.4799 133.536Z" stroke="#00000E" stroke-width="1.19691"/>
<path d="M97.2989 135.822C97.1193 134.883 96.874 133.961 96.5568 133.058C96.479 132.842 96.3294 132.758 96.102 132.806L95.2761 132.98C95.2251 132.99 95.1768 133.011 95.1341 133.041C95.0914 133.071 95.0552 133.109 95.0277 133.153C95.0003 133.197 94.9822 133.247 94.9744 133.298C94.9667 133.35 94.9696 133.402 94.9829 133.453L96.2815 138.629C96.3366 138.843 96.4596 139.034 96.6321 139.172C96.8046 139.311 97.0173 139.39 97.2383 139.397C97.4594 139.404 97.6769 139.34 97.8583 139.213C98.0396 139.087 98.1751 138.905 98.2444 138.695L99.3276 135.344C99.4773 134.883 99.6029 134.889 99.7047 135.362L100.315 138.132C100.323 138.171 100.339 138.208 100.363 138.24C100.386 138.273 100.416 138.299 100.451 138.319C100.485 138.339 100.523 138.351 100.563 138.355C100.602 138.359 100.642 138.355 100.68 138.342L101.715 137.989C101.943 137.911 102.027 137.755 101.967 137.522L100.632 132.357C100.577 132.152 100.457 131.97 100.289 131.839C100.121 131.708 99.9158 131.635 99.7032 131.631C99.4906 131.627 99.2823 131.692 99.1099 131.817C98.9375 131.941 98.8102 132.118 98.7471 132.321L97.6939 135.84C97.5323 136.373 97.4006 136.367 97.2989 135.822Z" stroke="#00000E" stroke-width="1.19691"/>
<path d="M82.4872 133.607C82.4171 133.597 82.3458 133.609 82.2834 133.641C82.221 133.673 82.1709 133.724 82.1401 133.787L79.2495 139.604C79.1358 139.837 79.2076 139.975 79.465 140.017L80.602 140.196C80.6563 140.205 80.7119 140.203 80.7653 140.189C80.8186 140.175 80.8684 140.149 80.9114 140.114C80.9544 140.079 80.9896 140.035 81.0147 139.985C81.0397 139.936 81.0541 139.881 81.0569 139.825C81.0748 139.592 81.2005 139.394 81.4339 139.221C81.5775 139.119 81.7391 139.077 81.9186 139.095L83.5883 139.292C83.8337 139.322 83.9713 139.454 84.0072 139.699C84.1389 140.627 84.7194 140.908 85.7547 140.543C85.8864 140.495 85.9283 140.406 85.8864 140.268L84.0192 134.23C83.9414 133.972 83.7619 133.817 83.4926 133.775L82.4872 133.607Z" stroke="#00000E" stroke-width="1.19691"/>
<path d="M93.2774 137.078C95.0488 133.445 90.2492 133.422 88.3402 133.834C88.1367 133.876 88.0469 134.002 88.0649 134.212L88.5855 140.208C88.6035 140.423 88.7172 140.519 88.9326 140.495L90.0158 140.376C90.0722 140.369 90.1266 140.351 90.1759 140.323C90.2251 140.295 90.2681 140.257 90.3023 140.211C90.3364 140.166 90.361 140.114 90.3745 140.059C90.388 140.004 90.3902 139.947 90.3809 139.891L90.2073 138.808C90.2014 138.771 90.2027 138.734 90.2112 138.698C90.2197 138.662 90.2352 138.628 90.2569 138.598C90.2786 138.568 90.306 138.542 90.3375 138.523C90.3691 138.503 90.4041 138.49 90.4407 138.484C91.512 138.323 92.7627 138.131 93.2774 137.078Z" stroke="#00000E" stroke-width="1.19691"/>
<path d="M82.7293 42.3499C83.0302 42.3294 83.3059 42.1204 83.4956 41.7688C83.6854 41.4173 83.7738 40.952 83.7413 40.4754C83.7088 39.9988 83.5581 39.5498 83.3224 39.2273C83.0867 38.9047 82.7852 38.7351 82.4843 38.7556C82.1835 38.7761 81.9078 38.9851 81.7181 39.3366C81.5283 39.6882 81.4399 40.1534 81.4724 40.63C81.5049 41.1067 81.6556 41.5556 81.8913 41.8782C82.127 42.2007 82.4285 42.3704 82.7293 42.3499Z" stroke="#00000E" stroke-width="1.19691"/>
<path d="M90.066 42.2647C90.3706 42.2738 90.6682 42.0997 90.8932 41.7808C91.1183 41.4618 91.2524 41.0242 91.266 40.5641C91.2728 40.3363 91.2498 40.1098 91.1983 39.8976C91.1468 39.6854 91.0679 39.4917 90.966 39.3274C90.8642 39.1632 90.7413 39.0316 90.6046 38.9403C90.4678 38.849 90.3198 38.7997 90.1689 38.7953C89.8643 38.7862 89.5668 38.9603 89.3417 39.2792C89.1167 39.5982 88.9826 40.0358 88.9689 40.4959C88.9622 40.7237 88.9852 40.9502 89.0367 41.1624C89.0881 41.3745 89.1671 41.5683 89.2689 41.7326C89.3708 41.8968 89.4936 42.0283 89.6304 42.1197C89.7672 42.211 89.9152 42.2603 90.066 42.2647Z" stroke="#00000E" stroke-width="1.19691"/>
<path d="M82.4454 136.397C82.212 136.941 82.1821 137.366 82.3676 137.677C82.4324 137.774 82.5303 137.844 82.6431 137.874C82.7558 137.904 82.8757 137.892 82.98 137.84C83.0844 137.788 83.1661 137.699 83.2098 137.591C83.2535 137.483 83.2562 137.362 83.2174 137.252L82.8703 136.402C82.7327 136.067 82.595 136.067 82.4454 136.397Z" stroke="#00000E" stroke-width="1.19691"/>
<path d="M90.0457 135.499L90.0218 136.66C90.021 136.702 90.0286 136.745 90.0441 136.784C90.0596 136.824 90.0827 136.86 90.1122 136.89C90.1416 136.921 90.1768 136.945 90.2157 136.962C90.2547 136.979 90.2965 136.988 90.339 136.989L90.5245 136.995C90.6909 136.999 90.8561 136.981 91.0107 136.944C91.1652 136.906 91.3061 136.849 91.4251 136.775C91.5441 136.702 91.639 136.614 91.7042 136.516C91.7694 136.418 91.8037 136.312 91.8052 136.205V136.026C91.8082 135.81 91.679 135.601 91.4457 135.444C91.2124 135.287 90.8941 135.195 90.5604 135.188L90.3749 135.182C90.3324 135.181 90.2902 135.188 90.2507 135.204C90.2112 135.22 90.1752 135.243 90.1446 135.272C90.114 135.302 90.0896 135.337 90.0726 135.376C90.0556 135.415 90.0465 135.456 90.0457 135.499Z" stroke="#00000E" stroke-width="1.19691"/>
<path d="M86.5744 170.281C66.2916 170.281 46.8395 161.712 32.4974 146.458C18.1553 131.205 10.098 110.517 10.098 88.9452C10.098 67.3736 18.1553 46.6855 32.4974 31.4321C46.8395 16.1787 66.2916 7.60938 86.5744 7.60938C106.857 7.60938 126.309 16.1787 140.651 31.4321C154.993 46.6855 163.051 67.3736 163.051 88.9452C163.051 110.517 154.993 131.205 140.651 146.458C126.309 161.712 106.857 170.281 86.5744 170.281ZM115.791 29.0579C89.836 15.2576 59.9372 21.4815 39.8412 42.4394C39.6556 42.6249 39.6975 42.7206 39.9609 42.7206L46.3643 42.7326C46.49 42.7326 46.6037 42.6907 46.6935 42.601C71.655 20.0093 108.113 22.0022 130.674 46.9158C130.818 47.0714 130.908 47.0415 130.938 46.832C132.093 38.8427 122.027 32.3734 115.791 29.0579ZM82.7765 43.9569C83.5457 43.9273 84.2693 43.5317 84.7881 42.8569C85.3069 42.1822 85.5784 41.2837 85.5429 40.359C85.5074 39.4344 85.1677 38.5593 84.5987 37.9264C84.0297 37.2935 83.2778 36.9545 82.5086 36.984C81.7394 37.0136 81.0158 37.4093 80.497 38.084C79.9782 38.7587 79.7067 39.6572 79.7422 40.5819C79.7777 41.5065 80.1174 42.3816 80.6864 43.0145C81.2555 43.6474 82.0073 43.9864 82.7765 43.9569ZM90.0026 43.9507C90.3882 43.9662 90.7735 43.8923 91.1367 43.7332C91.4999 43.5741 91.8338 43.3329 92.1193 43.0235C92.4048 42.7141 92.6363 42.3424 92.8007 41.9297C92.965 41.517 93.059 41.0714 93.0772 40.6183C93.114 39.7032 92.8399 38.8132 92.3153 38.144C91.7906 37.4749 91.0585 37.0814 90.2798 37.0501C89.8942 37.0346 89.5088 37.1085 89.1457 37.2676C88.7825 37.4267 88.4486 37.6678 88.1631 37.9773C87.8776 38.2867 87.646 38.6584 87.4817 39.0711C87.3173 39.4838 87.2234 39.9294 87.2052 40.3825C87.1684 41.2976 87.4425 42.1876 87.9671 42.8567C88.4917 43.5259 89.2239 43.9194 90.0026 43.9507ZM96.7601 43.6123C96.7205 43.606 96.6842 43.5867 96.657 43.5573C96.6297 43.528 96.613 43.4904 96.6095 43.4505C96.6061 43.4106 96.6161 43.3707 96.638 43.3371C96.6598 43.3035 96.6923 43.2782 96.7302 43.2652C102.104 41.5896 98.4357 36.2454 95.234 38.717C95.0605 38.8487 95.0305 39.0102 95.1323 39.2017L95.4794 39.8541C95.5198 39.9288 95.5846 39.9874 95.6631 40.0201C95.7415 40.0527 95.8288 40.0575 95.9103 40.0336L96.802 39.7822C96.9832 39.7307 97.1772 39.7484 97.3462 39.8318C97.5151 39.9152 97.6471 40.0584 97.7165 40.2336C97.7858 40.4089 97.7876 40.6036 97.7214 40.7801C97.6553 40.9565 97.526 41.1021 97.3585 41.1886L94.1628 42.8523C94.02 42.9271 93.9031 43.0431 93.8273 43.1853C93.7515 43.3275 93.7202 43.4893 93.7377 43.6495C93.7551 43.8097 93.8204 43.9609 93.9251 44.0834C94.0297 44.206 94.1689 44.2942 94.3244 44.3365L98.1485 45.3897C98.4178 45.4675 98.5794 45.3658 98.6452 45.0965L98.8247 44.3305C98.8378 44.2748 98.8389 44.217 98.8281 44.1609C98.8173 44.1047 98.7948 44.0515 98.7621 44.0046C98.7293 43.9578 98.6871 43.9183 98.6381 43.8889C98.5891 43.8595 98.5344 43.8407 98.4776 43.8338L96.7601 43.6123ZM76.4426 43.2114C80.2248 38.3699 74.5993 36.8139 73.2708 39.7523C73.1908 39.9263 73.1757 40.1232 73.2283 40.3074C73.2809 40.4915 73.3976 40.6508 73.5574 40.7564C73.7172 40.8619 73.9095 40.9068 74.0995 40.8829C74.2895 40.859 74.4647 40.7679 74.5934 40.6261C74.8507 40.3448 75.5928 39.2795 76.0237 40.1174C76.269 40.5961 76.2271 41.045 75.898 41.4699L73.8692 44.0971C73.7568 44.241 73.6926 44.4167 73.6859 44.5991C73.6791 44.7816 73.7301 44.9616 73.8315 45.1134C73.9329 45.2652 74.0797 45.3812 74.2509 45.4448C74.422 45.5084 74.6089 45.5163 74.7849 45.4675L78.5611 44.4442C78.8184 44.3784 78.9262 44.2108 78.8723 43.9475C78.5671 42.3915 77.442 43.3071 76.5862 43.4448C76.3349 43.4867 76.287 43.4089 76.4426 43.2114ZM36.3402 77.3232C33.5574 73.948 31.1935 71.8055 32.3844 67.2752C33.8327 61.7575 39.9908 58.8669 45.4606 58.6634C60.811 58.0949 76.664 64.0435 90.7875 66.9879C99.4112 68.7833 106.623 69.9623 115.174 69.681C123.966 69.3818 135.977 65.5457 137.413 55.1745C137.964 51.2067 136.94 47.4903 134.343 44.0193C134.205 43.8338 134.163 43.8517 134.217 44.0791C136.683 53.7023 127.694 59.6868 119.358 60.2972C112.338 60.8059 105.049 60.2793 97.4962 58.7053C84.8688 56.0781 73.0015 52.7388 60.7152 49.95C55.5865 48.783 50.3979 48.0229 45.1614 47.6639C34.3354 46.9278 23.0845 53.2534 22.5638 64.8993C22.1988 73.0024 28.0696 78.1551 36.2684 77.4908C36.406 77.4848 36.43 77.425 36.3402 77.3232ZM107.736 83.4574C106.892 77.7721 101.296 79.8308 97.4663 80.118C97.3987 80.1231 97.3343 80.15 97.2829 80.1945C97.2315 80.2391 97.196 80.2989 97.1817 80.3648C97.1675 80.4306 97.1753 80.4989 97.204 80.5592C97.2327 80.6195 97.2806 80.6684 97.3406 80.6985C99.1539 81.656 98.6392 83.4095 98.2383 85.4802C97.179 90.968 96.1317 96.4618 95.0964 101.95C94.869 103.141 94.45 104.074 93.8456 104.75C92.5829 106.157 89.7402 108.287 87.7533 107.126C85.7665 105.965 86.4128 103.763 86.8557 101.297C87.4062 98.1973 92.2418 80.5549 84.6534 81.7937C82.864 82.0869 80.8771 82.3203 78.6808 82.4999C78.5898 82.5145 78.5073 82.562 78.4489 82.6334C78.3905 82.7047 78.3603 82.795 78.364 82.8872C78.3677 82.9793 78.405 83.0669 78.4689 83.1334C78.5328 83.1998 78.6188 83.2406 78.7107 83.2479C80.2368 83.2539 79.6922 86.4556 79.5246 87.3294C78.4294 92.9848 77.3522 98.6461 76.287 104.308C76.0835 105.397 75.6885 106.294 75.102 106.995C73.941 108.377 72.7322 109.257 71.4754 109.628C68.4951 110.501 67.1486 108.287 67.6513 105.642C69.2552 97.2517 70.8351 88.8614 72.3851 80.4651C72.9596 77.3651 72.3851 72.0688 67.753 72.5536C65.8619 72.757 63.899 72.9725 61.8643 73.1999C61.8105 73.2081 61.7609 73.2339 61.7234 73.2734C61.6859 73.3128 61.6626 73.3636 61.6571 73.4177C61.6517 73.4719 61.6643 73.5263 61.6931 73.5724C61.722 73.6186 61.7653 73.6538 61.8164 73.6727C63.0911 74.0856 63.5878 75.0491 63.3125 76.5512C61.6129 85.7495 59.8714 94.9357 58.094 104.116C57.4058 107.659 56.173 113.314 60.1347 115.762C65.3473 118.982 72.792 114.11 75.8441 109.867C75.8796 109.818 75.9281 109.779 75.9842 109.755C76.0403 109.732 76.1018 109.724 76.162 109.734C76.2221 109.743 76.2785 109.769 76.3249 109.808C76.3712 109.848 76.4058 109.899 76.4246 109.957C78.6389 116.995 87.0532 114.463 91.1586 111.058C91.9365 110.412 92.7085 109.735 93.4686 109.029C93.7199 108.796 93.8157 108.85 93.7618 109.185L93.4387 111.136C93.4298 111.186 93.4328 111.237 93.4474 111.286C93.4621 111.334 93.4879 111.378 93.5228 111.415C93.5578 111.452 93.6009 111.48 93.6486 111.497C93.6964 111.514 93.7475 111.519 93.7977 111.513L103.187 110.31C103.403 110.28 103.529 110.16 103.57 109.951C104.809 103.266 106.102 96.5875 107.436 89.9267C107.963 87.3174 110.237 83.0923 113.325 83.236C115.486 83.3377 115.42 85.2228 115.085 86.9583C114.295 91.0817 113.523 95.205 112.775 99.3344C109.974 114.786 124.917 110.813 130.519 103.607C130.546 103.574 130.581 103.548 130.621 103.533C130.661 103.518 130.704 103.514 130.747 103.521C130.789 103.529 130.828 103.547 130.861 103.575C130.893 103.603 130.918 103.639 130.932 103.679C132.045 106.893 134.475 107.976 137.832 107.683C142.685 107.27 145.917 104.607 147.539 99.6934C147.558 99.6411 147.559 99.584 147.542 99.5311C147.525 99.4782 147.491 99.4324 147.445 99.401C147.399 99.3695 147.344 99.3541 147.288 99.3572C147.233 99.3603 147.18 99.3818 147.138 99.4181C145.767 100.549 144.205 100.986 142.446 100.735C142.243 100.705 142.069 100.621 141.925 100.471C140.962 99.46 140.627 98.1315 140.926 96.4797C141.949 90.8184 143.009 85.169 144.11 79.5375C144.129 79.4454 144.176 79.3618 144.245 79.2985C144.314 79.2351 144.4 79.1952 144.493 79.1844L148.365 78.6997C148.616 78.6698 148.766 78.5321 148.814 78.2867L149.645 74.2232C149.655 74.1719 149.653 74.119 149.638 74.0688C149.624 74.0185 149.598 73.9724 149.562 73.934C149.527 73.8956 149.483 73.8661 149.434 73.8477C149.385 73.8294 149.332 73.8227 149.28 73.8283L145.39 74.2891C145.133 74.319 145.031 74.2113 145.079 73.9599C145.678 70.6864 145.935 64.4325 149.322 62.8945C149.633 62.7569 149.621 62.6731 149.28 62.6432C140.01 61.8831 136.539 67.0897 134.894 75.2945C134.852 75.4979 134.732 75.6117 134.522 75.6296L132.147 75.875C131.877 75.9049 131.716 76.0485 131.662 76.3178L130.89 80.4472C130.848 80.6925 130.95 80.8002 131.195 80.7703L133.553 80.4771C133.81 80.4472 133.918 80.5549 133.864 80.8122C132.673 86.7549 131.566 92.7274 130.543 98.7239C129.813 102.979 121.434 105.528 122.829 98.4486C123.505 94.9956 124.157 91.5305 124.78 88.0655C125.54 83.8643 125.677 78.6458 120.752 77.1856C115.809 75.7194 110.602 79.3101 108.125 83.5352C107.921 83.8823 107.79 83.8583 107.736 83.4574ZM48.6504 85.7554C49.8952 78.3885 50.8766 73.1819 51.5948 70.1418C51.9419 68.6756 53.1268 68.0532 54.2938 67.0598C54.5631 66.8323 54.5212 66.7306 54.1681 66.7545C51.6307 66.9161 49.8353 67.1196 48.7821 67.353C40.1763 69.274 39.7514 80.3155 38.375 87.09C38.3594 87.1618 38.3222 87.2269 38.2686 87.2763C38.2149 87.3256 38.1475 87.3567 38.0757 87.3653L35.5383 87.6765C35.3408 87.7004 35.2211 87.8081 35.1792 88.0056L34.3474 92.2367C34.3055 92.4402 34.3893 92.5299 34.5987 92.506L36.813 92.2666C37.202 92.2247 37.3576 92.3983 37.2858 92.7813L32.4443 118.461C32.4024 118.694 32.4981 118.796 32.7315 118.766L42.1332 117.563C42.3846 117.533 42.5342 117.39 42.5761 117.144L47.5433 91.1715C47.5852 90.962 47.7048 90.8483 47.9143 90.8243L55.9455 89.9147C56.161 89.8908 56.2867 89.7711 56.3226 89.5616L57.1065 85.3485C57.1145 85.3067 57.1124 85.2636 57.1004 85.2228C57.0885 85.182 57.067 85.1445 57.0378 85.1136C57.0086 85.0826 56.9725 85.0591 56.9325 85.0448C56.8924 85.0305 56.8495 85.0259 56.8073 85.0313L48.9377 86.0547C48.7043 86.0846 48.6085 85.9888 48.6504 85.7554ZM90.9207 72.6587C90.5303 71.5745 89.5966 70.7362 88.3248 70.328C87.053 69.9199 85.5474 69.9754 84.1392 70.4824C83.4419 70.7335 82.7895 71.0878 82.2192 71.5252C81.649 71.9625 81.172 72.4744 80.8156 73.0315C80.4592 73.5886 80.2304 74.1801 80.1421 74.7721C80.0538 75.3641 80.1078 75.9452 80.3011 76.482C80.6914 77.5662 81.6252 78.4045 82.897 78.8127C84.1688 79.2208 85.6744 79.1653 87.0826 78.6583C87.7799 78.4072 88.4323 78.0529 89.0026 77.6155C89.5728 77.1782 90.0497 76.6663 90.4061 76.1092C90.7625 75.5521 90.9914 74.9606 91.0797 74.3686C91.168 73.7766 91.1139 73.1955 90.9207 72.6587ZM119.836 139.437C93.1334 160.125 56.2388 151.621 38.9195 123.392C38.8178 123.219 38.6682 123.147 38.4707 123.171L33.7908 123.727C33.5215 123.757 33.4557 123.889 33.5873 124.122C51.3315 155.834 91.1466 166.265 121.111 144.889C132.859 136.504 140.914 125.026 145.283 110.448C145.355 110.214 145.289 110.16 145.079 110.286C143.451 111.285 141.704 111.998 139.843 112.429C139.621 112.482 139.472 112.614 139.388 112.824C135.295 123.638 128.777 132.507 119.836 139.437ZM56.2388 123.267C56.2388 123.067 56.1995 122.869 56.1231 122.685C56.0467 122.5 55.9347 122.333 55.7936 122.192C55.6524 122.051 55.4848 121.939 55.3004 121.862C55.116 121.786 54.9183 121.746 54.7187 121.746C54.5191 121.746 54.3214 121.786 54.137 121.862C53.9526 121.939 53.785 122.051 53.6439 122.192C53.5027 122.333 53.3907 122.5 53.3144 122.685C53.238 122.869 53.1986 123.067 53.1986 123.267C53.1986 123.67 53.3588 124.056 53.6439 124.341C53.9289 124.626 54.3156 124.787 54.7187 124.787C55.1219 124.787 55.5085 124.626 55.7936 124.341C56.0786 124.056 56.2388 123.67 56.2388 123.267ZM118.547 124.796C118.927 124.773 119.282 124.587 119.534 124.277C119.785 123.968 119.912 123.561 119.888 123.145C119.876 122.94 119.826 122.739 119.743 122.553C119.66 122.367 119.544 122.201 119.402 122.064C119.26 121.926 119.095 121.82 118.917 121.752C118.738 121.684 118.549 121.654 118.361 121.665C117.981 121.688 117.626 121.875 117.374 122.184C117.123 122.494 116.996 122.901 117.02 123.316C117.032 123.521 117.082 123.723 117.165 123.908C117.248 124.094 117.364 124.26 117.506 124.398C117.648 124.535 117.813 124.641 117.991 124.709C118.17 124.778 118.359 124.807 118.547 124.796ZM112.272 128.527L110.782 126.378C110.62 126.145 110.429 126.115 110.207 126.295L109.387 126.965C109.329 127.013 109.291 127.081 109.281 127.156C109.271 127.232 109.29 127.309 109.334 127.372L112.386 131.759C112.505 131.932 112.678 132.062 112.878 132.129C113.078 132.196 113.294 132.196 113.494 132.13C113.694 132.064 113.867 131.935 113.988 131.763C114.108 131.59 114.17 131.383 114.163 131.172L114.037 127.402C114.025 127.073 114.115 127.037 114.313 127.306L115.958 129.61C116.102 129.808 116.27 129.826 116.455 129.676L117.239 129.042C117.304 128.989 117.347 128.913 117.36 128.83C117.372 128.747 117.352 128.662 117.305 128.593L114.008 123.727C113.924 123.608 113.822 123.59 113.702 123.667L112.715 124.32C112.619 124.386 112.571 124.481 112.571 124.601L112.655 128.401C112.661 128.868 112.535 128.91 112.272 128.527ZM59.7517 129.832C59.5618 129.825 59.3755 129.778 59.2052 129.693C59.035 129.609 58.8848 129.489 58.7647 129.343C58.6446 129.196 58.5573 129.025 58.5087 128.842C58.4601 128.659 58.4514 128.468 58.483 128.282C58.8121 126.259 61.3915 125.642 61.7146 127.928C61.7204 127.967 61.7338 128.003 61.754 128.036C61.7743 128.069 61.8011 128.098 61.8328 128.121C61.8645 128.144 61.9005 128.16 61.9387 128.169C61.977 128.178 62.0168 128.18 62.0558 128.174L63.0971 128.006C63.2706 127.976 63.3424 127.881 63.3185 127.707C62.8816 124.062 58.106 123.452 56.9031 127.103C56.1909 129.263 58.2137 131.938 60.3621 131.645C60.583 131.611 60.7833 131.496 60.9244 131.323C61.0655 131.149 61.1374 130.93 61.1263 130.707C61.1151 130.484 61.0217 130.272 60.864 130.114C60.7063 129.956 60.4955 129.862 60.2724 129.85L59.7517 129.832ZM66.8494 131.639V129.018C66.8494 128.796 66.7476 128.635 66.5382 128.545L65.437 128.066C65.2515 127.988 65.1557 128.048 65.1557 128.252L65.2276 133.189C65.2287 133.233 65.2178 133.277 65.196 133.316C65.1741 133.355 65.1421 133.387 65.1032 133.41C65.0642 133.432 65.0198 133.444 64.9744 133.444C64.9289 133.444 64.8841 133.433 64.8446 133.41L64.276 133.081C64.1246 132.992 63.9467 132.959 63.7736 132.988C63.6004 133.017 63.4429 133.106 63.3288 133.24C63.2146 133.373 63.151 133.543 63.1491 133.718C63.1473 133.894 63.2072 134.064 63.3185 134.2C65.1378 136.456 69.1534 132.339 70.6077 131.118C70.7393 131.005 70.7333 130.903 70.5897 130.807L69.5903 130.137C69.5283 130.095 69.4543 130.074 69.3791 130.077C69.3038 130.081 69.2311 130.108 69.1714 130.155L67.1666 131.788C66.9571 131.962 66.8494 131.908 66.8494 131.639ZM104.731 131.741L104.067 130.25C104.048 130.207 104.02 130.168 103.984 130.137C103.948 130.106 103.906 130.082 103.861 130.069C103.815 130.055 103.767 130.051 103.72 130.058C103.673 130.064 103.628 130.081 103.588 130.107L102.721 130.675C102.553 130.783 102.511 130.927 102.589 131.112L104.815 136.049C104.901 136.257 105.063 136.424 105.269 136.514C105.474 136.605 105.707 136.612 105.917 136.534C106.128 136.457 106.301 136.301 106.399 136.099C106.497 135.897 106.513 135.665 106.443 135.451L106.024 134.027C106.003 133.949 106.005 133.866 106.033 133.789C106.06 133.713 106.11 133.647 106.176 133.6C106.242 133.553 106.32 133.527 106.401 133.526C106.482 133.526 106.562 133.55 106.629 133.596L108.28 134.721C108.373 134.783 108.481 134.819 108.593 134.825C108.706 134.831 108.819 134.808 108.921 134.757L110.136 134.122C110.405 133.985 110.411 133.835 110.147 133.68L107.143 131.896C106.946 131.783 106.88 131.609 106.934 131.388L107.64 128.461C107.694 128.246 107.61 128.168 107.401 128.228C105.497 128.73 105.743 130.191 105.222 131.717C105.206 131.767 105.174 131.811 105.132 131.844C105.089 131.876 105.038 131.894 104.985 131.897C104.932 131.9 104.879 131.886 104.834 131.858C104.789 131.83 104.753 131.789 104.731 131.741ZM74.4797 133.536L74.2044 132.333C74.184 132.239 74.1406 132.152 74.0779 132.079C74.0153 132.006 73.9354 131.949 73.8453 131.914L72.7561 131.483C72.6991 131.461 72.6369 131.455 72.5769 131.467C72.5168 131.479 72.4612 131.507 72.4167 131.549C72.3722 131.591 72.3405 131.645 72.3254 131.704C72.3103 131.764 72.3123 131.826 72.3312 131.884L73.2708 134.751C73.3426 134.972 73.2887 135.158 73.1152 135.313L70.7932 137.312C70.6196 137.462 70.6256 137.605 70.8231 137.731C71.8943 138.413 72.7681 138.234 73.4443 137.187C73.4924 137.113 73.5632 137.056 73.6461 137.026C73.729 136.996 73.8195 136.993 73.9039 137.019C73.9883 137.045 74.062 137.097 74.1141 137.168C74.1661 137.24 74.1936 137.326 74.1924 137.414C74.1744 138.725 74.8268 139.371 76.1434 139.347C76.3528 139.341 76.4246 139.239 76.3648 139.042L75.4132 135.966C75.3474 135.75 75.3953 135.571 75.5629 135.421L77.7711 133.446C78.0045 133.237 77.9746 133.063 77.6933 132.938C76.6101 132.441 75.7424 132.674 75.0961 133.65C75.059 133.705 75.0066 133.749 74.9451 133.775C74.8837 133.801 74.816 133.808 74.7504 133.796C74.6848 133.784 74.6242 133.753 74.5761 133.706C74.528 133.66 74.4944 133.601 74.4797 133.536ZM97.2987 135.822C97.1192 134.883 96.8738 133.961 96.5566 133.057C96.4788 132.842 96.3292 132.758 96.1018 132.806L95.2759 132.979C95.2249 132.99 95.1766 133.011 95.1339 133.04C95.0912 133.07 95.055 133.108 95.0275 133.153C95.0001 133.197 94.982 133.246 94.9742 133.298C94.9665 133.349 94.9694 133.402 94.9827 133.452L96.2813 138.629C96.3364 138.843 96.4594 139.034 96.6319 139.172C96.8044 139.311 97.0171 139.389 97.2381 139.397C97.4592 139.404 97.6767 139.34 97.8581 139.213C98.0394 139.087 98.1749 138.905 98.2442 138.695L99.3274 135.343C99.4771 134.882 99.6027 134.888 99.7045 135.361L100.315 138.132C100.323 138.171 100.339 138.208 100.363 138.24C100.386 138.272 100.416 138.299 100.45 138.319C100.485 138.339 100.523 138.351 100.563 138.355C100.602 138.359 100.642 138.354 100.68 138.342L101.715 137.988C101.943 137.911 102.026 137.755 101.967 137.522L100.632 132.357C100.577 132.152 100.456 131.97 100.289 131.839C100.121 131.708 99.9157 131.635 99.703 131.631C99.4904 131.627 99.2821 131.692 99.1097 131.816C98.9373 131.941 98.81 132.118 98.7469 132.321L97.6937 135.84C97.5321 136.373 97.4004 136.367 97.2987 135.822ZM82.487 133.608C82.4169 133.598 82.3456 133.609 82.2832 133.642C82.2208 133.674 82.1706 133.725 82.1399 133.787L79.2493 139.604C79.1356 139.838 79.2074 139.975 79.4648 140.017L80.6018 140.197C80.6561 140.206 80.7117 140.204 80.7651 140.19C80.8184 140.175 80.8682 140.15 80.9112 140.115C80.9542 140.08 80.9894 140.036 81.0145 139.986C81.0395 139.936 81.0539 139.882 81.0567 139.826C81.0746 139.592 81.2003 139.395 81.4337 139.221C81.5773 139.12 81.7389 139.078 81.9184 139.096L83.5881 139.293C83.8335 139.323 83.9711 139.455 84.007 139.7C84.1387 140.628 84.7192 140.909 85.7545 140.544C85.8862 140.496 85.9281 140.406 85.8862 140.269L84.019 134.23C83.9412 133.973 83.7617 133.817 83.4924 133.775L82.487 133.608ZM93.2771 137.079C95.0485 133.446 90.2489 133.422 88.3398 133.835C88.1364 133.877 88.0466 134.003 88.0645 134.212L88.5852 140.209C88.6032 140.424 88.7169 140.52 88.9323 140.496L90.0155 140.376C90.0719 140.37 90.1263 140.352 90.1756 140.324C90.2248 140.295 90.2678 140.258 90.3019 140.212C90.3361 140.167 90.3607 140.115 90.3742 140.06C90.3877 140.005 90.3899 139.948 90.3806 139.892L90.207 138.808C90.201 138.772 90.2023 138.734 90.2108 138.698C90.2194 138.662 90.2349 138.628 90.2566 138.598C90.2783 138.568 90.3057 138.543 90.3372 138.523C90.3688 138.504 90.4038 138.491 90.4404 138.485C91.5116 138.324 92.7624 138.132 93.2771 137.079Z" fill="white"/>
<path d="M39.8413 42.4388C59.9374 21.4809 89.8361 15.257 115.791 29.0574C122.027 32.3728 132.093 38.8421 130.938 46.8314C130.908 47.0409 130.818 47.0708 130.675 46.9152C108.113 22.0016 71.6551 20.0087 46.6936 42.6004C46.6039 42.6901 46.4902 42.732 46.3645 42.732L39.961 42.7201C39.6977 42.7201 39.6558 42.6243 39.8413 42.4388Z" fill="#00000E"/>
<path d="M82.7766 43.957C82.0074 43.9866 81.2556 43.6476 80.6866 43.0147C80.1175 42.3817 79.7779 41.5067 79.7424 40.582C79.7068 39.6574 79.9783 38.7589 80.4971 38.0841C81.0159 37.4094 81.7395 37.0138 82.5088 36.9842C83.278 36.9547 84.0298 37.2936 84.5988 37.9266C85.1679 38.5595 85.5075 39.4345 85.543 40.3592C85.5786 41.2838 85.3071 42.1824 84.7883 42.8571C84.2695 43.5318 83.5459 43.9275 82.7766 43.957ZM82.7293 42.3516C83.0302 42.3311 83.3058 42.122 83.4956 41.7705C83.6853 41.419 83.7737 40.9537 83.7412 40.4771C83.7087 40.0004 83.558 39.5515 83.3223 39.2289C83.0866 38.9064 82.7852 38.7367 82.4843 38.7572C82.1834 38.7777 81.9078 38.9868 81.718 39.3383C81.5282 39.6898 81.4399 40.1551 81.4724 40.6317C81.5049 41.1084 81.6555 41.5573 81.8913 41.8799C82.127 42.2024 82.4284 42.3721 82.7293 42.3516Z" fill="#00000E"/>
<path d="M90.0027 43.9515C89.224 43.9202 88.4919 43.5267 87.9672 42.8575C87.4426 42.1883 87.1685 41.2983 87.2053 40.3833C87.2235 39.9302 87.3174 39.4845 87.4818 39.0719C87.6462 38.6592 87.8777 38.2875 88.1632 37.978C88.4487 37.6686 88.7826 37.4274 89.1458 37.2684C89.509 37.1093 89.8943 37.0354 90.2799 37.0508C91.0586 37.0821 91.7908 37.4756 92.3154 38.1448C92.84 38.814 93.1141 39.704 93.0773 40.6191C93.0591 41.0722 92.9652 41.5178 92.8008 41.9305C92.6364 42.3432 92.4049 42.7148 92.1194 43.0243C91.8339 43.3337 91.5 43.5749 91.1368 43.734C90.7737 43.8931 90.3883 43.967 90.0027 43.9515ZM90.0659 42.2658C90.3705 42.2749 90.6681 42.1008 90.8931 41.7819C91.1182 41.4629 91.2523 41.0253 91.2659 40.5652C91.2727 40.3374 91.2497 40.1109 91.1982 39.8987C91.1467 39.6865 91.0678 39.4928 90.9659 39.3285C90.864 39.1643 90.7412 39.0327 90.6045 38.9414C90.4677 38.8501 90.3197 38.8008 90.1688 38.7964C89.8642 38.7873 89.5667 38.9614 89.3416 39.2803C89.1166 39.5993 88.9825 40.0369 88.9688 40.497C88.9621 40.7248 88.9851 40.9513 89.0365 41.1635C89.088 41.3756 89.1669 41.5694 89.2688 41.7336C89.3707 41.8979 89.4935 42.0294 89.6303 42.1208C89.767 42.2121 89.9151 42.2614 90.0659 42.2658Z" fill="#00000E"/>
<path d="M96.7603 43.6116L98.4778 43.8331C98.5346 43.84 98.5892 43.8588 98.6383 43.8882C98.6873 43.9176 98.7295 43.9571 98.7623 44.0039C98.795 44.0508 98.8175 44.104 98.8283 44.1602C98.8391 44.2163 98.838 44.2741 98.8249 44.3298L98.6454 45.0958C98.5796 45.3651 98.418 45.4668 98.1487 45.389L94.3246 44.3358C94.1691 44.2935 94.0299 44.2053 93.9253 44.0827C93.8206 43.9602 93.7553 43.809 93.7379 43.6488C93.7204 43.4886 93.7517 43.3268 93.8275 43.1846C93.9033 43.0424 94.0202 42.9264 94.163 42.8516L97.3587 41.1879C97.5261 41.1014 97.6555 40.9558 97.7216 40.7794C97.7878 40.6029 97.786 40.4082 97.7166 40.2329C97.6473 40.0577 97.5153 39.9145 97.3463 39.8311C97.1774 39.7477 96.9834 39.73 96.8022 39.7815L95.9105 40.0329C95.8289 40.0568 95.7417 40.052 95.6632 40.0194C95.5848 39.9867 95.52 39.9281 95.4796 39.8533L95.1325 39.201C95.0307 39.0095 95.0606 38.8479 95.2342 38.7163C98.4359 36.2447 102.104 41.5889 96.7303 43.2645C96.6924 43.2775 96.66 43.3028 96.6381 43.3364C96.6163 43.37 96.6063 43.4099 96.6097 43.4498C96.6132 43.4897 96.6299 43.5273 96.6571 43.5566C96.6844 43.5859 96.7207 43.6053 96.7603 43.6116Z" fill="#00000E"/>
<path d="M76.5865 43.4442C77.4423 43.3066 78.5674 42.3909 78.8726 43.9469C78.9264 44.2102 78.8187 44.3778 78.5614 44.4436L74.7851 45.467C74.6092 45.5158 74.4223 45.5078 74.2511 45.4442C74.08 45.3806 73.9332 45.2647 73.8318 45.1128C73.7303 44.961 73.6794 44.781 73.6861 44.5986C73.6929 44.4161 73.7571 44.2404 73.8695 44.0965L75.8983 41.4693C76.2274 41.0444 76.2693 40.5956 76.0239 40.1168C75.593 39.279 74.851 40.3442 74.5936 40.6255C74.465 40.7673 74.2898 40.8584 74.0997 40.8823C73.9097 40.9062 73.7174 40.8614 73.5577 40.7558C73.3979 40.6502 73.2811 40.491 73.2286 40.3068C73.176 40.1226 73.1911 39.9258 73.271 39.7517C74.5996 36.8133 80.2251 38.3693 76.4429 43.2108C76.2873 43.4083 76.3351 43.4861 76.5865 43.4442Z" fill="#00000E"/>
<path d="M81.4724 40.6315C81.5401 41.6241 82.1029 42.3941 82.7294 42.3514C83.3559 42.3087 83.809 41.4694 83.7413 40.4769C83.6736 39.4843 83.1109 38.7143 82.4843 38.757C81.8578 38.7997 81.4048 39.639 81.4724 40.6315Z" fill="white"/>
<path d="M88.9688 40.4967C88.9404 41.4547 89.4316 42.2467 90.0659 42.2655C90.7002 42.2843 91.2375 41.5229 91.2659 40.5648C91.2943 39.6068 90.8032 38.8148 90.1689 38.796C89.5345 38.7772 88.9973 39.5386 88.9688 40.4967Z" fill="white"/>
<path d="M32.3845 67.2748C31.1936 71.8051 33.5574 73.9475 36.3403 77.3228C36.43 77.4246 36.4061 77.4844 36.2684 77.4904C28.0696 78.1547 22.1988 73.002 22.5639 64.8989C23.0845 53.253 34.3354 46.9274 45.1615 47.6635C50.3979 48.0225 55.5865 48.7826 60.7153 49.9496C73.0015 52.7384 84.8689 56.0777 97.4962 58.7049C105.049 60.2789 112.338 60.8055 119.358 60.2968C127.694 59.6864 136.683 53.7019 134.217 44.0787C134.163 43.8513 134.205 43.8334 134.343 44.0189C136.94 47.4899 137.964 51.2063 137.413 55.1741C135.977 65.5453 123.966 69.3813 115.175 69.6806C106.623 69.9618 99.4113 68.7829 90.7876 66.9875C76.6641 64.0431 60.811 58.0945 45.4607 58.663C39.9908 58.8665 33.8327 61.757 32.3845 67.2748Z" fill="#00000E"/>
<path d="M108.125 83.5357C110.602 79.3106 115.809 75.7199 120.752 77.1861C125.677 78.6464 125.54 83.8649 124.78 88.066C124.157 91.5311 123.505 94.9961 122.829 98.4492C121.434 105.529 129.813 102.979 130.543 98.7245C131.566 92.728 132.673 86.7554 133.864 80.8128C133.918 80.5554 133.81 80.4477 133.553 80.4776L131.195 80.7709C130.95 80.8008 130.848 80.6931 130.89 80.4477L131.662 76.3184C131.716 76.0491 131.877 75.9054 132.147 75.8755L134.523 75.6301C134.732 75.6122 134.852 75.4985 134.894 75.295C136.539 67.0902 140.01 61.8837 149.28 62.6437C149.622 62.6736 149.634 62.7574 149.322 62.8951C145.935 64.4331 145.678 70.6869 145.079 73.9605C145.031 74.2118 145.133 74.3195 145.391 74.2896L149.28 73.8288C149.332 73.8232 149.385 73.8299 149.434 73.8483C149.483 73.8666 149.527 73.8962 149.562 73.9346C149.598 73.9729 149.624 74.0191 149.638 74.0693C149.653 74.1195 149.655 74.1724 149.646 74.2238L148.814 78.2873C148.766 78.5327 148.616 78.6703 148.365 78.7002L144.493 79.185C144.401 79.1957 144.314 79.2356 144.245 79.299C144.177 79.3624 144.129 79.446 144.11 79.538C143.009 85.1695 141.949 90.8189 140.926 96.4803C140.627 98.132 140.962 99.4606 141.925 100.472C142.069 100.622 142.243 100.705 142.446 100.735C144.206 100.987 145.768 100.55 147.138 99.4187C147.18 99.3823 147.233 99.3609 147.288 99.3578C147.344 99.3546 147.399 99.37 147.445 99.4015C147.491 99.433 147.525 99.4787 147.542 99.5317C147.559 99.5846 147.558 99.6417 147.539 99.694C145.917 104.607 142.686 107.27 137.832 107.683C134.475 107.977 132.045 106.893 130.932 103.68C130.918 103.639 130.893 103.603 130.861 103.575C130.828 103.548 130.789 103.529 130.747 103.522C130.704 103.515 130.661 103.519 130.621 103.534C130.581 103.549 130.546 103.574 130.519 103.608C124.917 110.813 109.974 114.787 112.775 99.3349C113.523 95.2056 114.295 91.0822 115.085 86.9589C115.42 85.2234 115.486 83.3382 113.325 83.2365C110.237 83.0929 107.963 87.3179 107.437 89.9272C106.102 96.588 104.809 103.267 103.571 109.951C103.529 110.161 103.403 110.281 103.188 110.311L93.7978 111.513C93.7476 111.52 93.6965 111.514 93.6488 111.497C93.601 111.48 93.5579 111.452 93.523 111.416C93.488 111.379 93.4622 111.335 93.4475 111.286C93.4329 111.238 93.4299 111.186 93.4388 111.136L93.7619 109.185C93.8158 108.85 93.72 108.796 93.4687 109.03C92.7087 109.736 91.9367 110.412 91.1587 111.059C87.0533 114.464 78.639 116.995 76.4247 109.957C76.4059 109.9 76.3714 109.848 76.325 109.809C76.2786 109.769 76.2222 109.743 76.1621 109.734C76.1019 109.725 76.0404 109.732 75.9843 109.756C75.9282 109.78 75.8797 109.818 75.8442 109.868C72.7921 114.111 65.3474 118.982 60.1348 115.762C56.1731 113.315 57.4059 107.659 58.0941 104.117C59.8715 94.9363 61.613 85.75 63.3126 76.5518C63.5879 75.0496 63.0912 74.0861 61.8165 73.6732C61.7654 73.6544 61.7221 73.6191 61.6933 73.573C61.6644 73.5268 61.6518 73.4724 61.6572 73.4183C61.6627 73.3641 61.6861 73.3134 61.7235 73.2739C61.761 73.2345 61.8106 73.2086 61.8644 73.2004C63.8991 72.973 65.862 72.7576 67.7532 72.5541C72.3852 72.0694 72.9597 77.3657 72.3852 80.4657C70.8352 88.862 69.2553 97.2523 67.6514 105.643C67.1487 108.288 68.4952 110.502 71.4755 109.628C72.7323 109.257 73.9412 108.378 75.1022 106.995C75.6886 106.295 76.0836 105.397 76.2871 104.308C77.3523 98.6467 78.4296 92.9853 79.5247 87.3299C79.6923 86.4562 80.2369 83.2544 78.7108 83.2485C78.6189 83.2411 78.5329 83.2004 78.469 83.1339C78.4051 83.0674 78.3678 82.9798 78.3641 82.8877C78.3604 82.7956 78.3906 82.7053 78.449 82.6339C78.5074 82.5625 78.5899 82.515 78.6809 82.5004C80.8772 82.3209 82.8641 82.0875 84.6535 81.7942C92.2419 80.5554 87.4064 98.1978 86.8558 101.298C86.4129 103.763 85.7666 105.966 87.7535 107.127C89.7403 108.288 92.583 106.157 93.8457 104.751C94.4502 104.075 94.8691 103.141 95.0965 101.95C96.1318 96.4623 97.1791 90.9685 98.2384 85.4807C98.6393 83.4101 99.154 81.6566 97.3407 80.6991C97.2808 80.6689 97.2328 80.62 97.2041 80.5597C97.1754 80.4994 97.1676 80.4312 97.1818 80.3653C97.1961 80.2994 97.2316 80.2396 97.283 80.1951C97.3344 80.1505 97.3988 80.1236 97.4664 80.1186C101.296 79.8313 106.892 77.7726 107.736 83.4579C107.79 83.8589 107.921 83.8828 108.125 83.5357Z" fill="#00000E"/>
<path d="M48.9378 86.0555L56.8074 85.0322C56.8496 85.0267 56.8925 85.0313 56.9326 85.0456C56.9726 85.0599 57.0087 85.0835 57.0379 85.1144C57.0671 85.1454 57.0886 85.1828 57.1005 85.2236C57.1125 85.2644 57.1146 85.3075 57.1066 85.3493L56.3227 89.5624C56.2868 89.7719 56.1611 89.8916 55.9456 89.9155L47.9144 90.8252C47.7049 90.8491 47.5853 90.9628 47.5434 91.1723L42.5762 117.145C42.5343 117.391 42.3847 117.534 42.1333 117.564L32.7316 118.767C32.4982 118.797 32.4025 118.695 32.4444 118.462L37.2859 92.7821C37.3577 92.3991 37.2021 92.2256 36.8131 92.2675L34.5988 92.5068C34.3894 92.5308 34.3056 92.441 34.3475 92.2375L35.1793 88.0065C35.2212 87.809 35.3409 87.7013 35.5384 87.6773L38.0758 87.3661C38.1476 87.3576 38.215 87.3265 38.2687 87.2771C38.3223 87.2278 38.3595 87.1626 38.3751 87.0908C39.7515 80.3163 40.1764 69.2749 48.7822 67.3538C49.8354 67.1204 51.6308 66.917 54.1682 66.7554C54.5213 66.7314 54.5632 66.8332 54.2939 67.0606C53.1269 68.054 51.942 68.6764 51.5949 70.1426C50.8767 73.1828 49.8953 78.3893 48.6505 85.7563C48.6086 85.9897 48.7044 86.0854 48.9378 86.0555Z" fill="#00000E"/>
<path d="M87.0827 78.6587C90.0152 77.6029 91.7336 74.9169 90.9208 72.6592C90.108 70.4015 87.0718 69.4271 84.1393 70.4829C81.2067 71.5387 79.4884 74.2248 80.3012 76.4824C81.114 78.7401 84.1502 79.7145 87.0827 78.6587Z" fill="#00000E"/>
<path d="M38.9197 123.391C56.2389 151.62 93.1336 160.124 119.837 139.435C128.777 132.505 135.295 123.636 139.388 112.822C139.472 112.613 139.621 112.481 139.843 112.427C141.704 111.996 143.452 111.284 145.079 110.285C145.289 110.159 145.355 110.213 145.283 110.446C140.914 125.025 132.859 136.503 121.111 144.887C91.1467 166.264 51.3316 155.833 33.5875 124.121C33.4558 123.888 33.5216 123.756 33.7909 123.726L38.4708 123.169C38.6683 123.145 38.8179 123.217 38.9197 123.391Z" fill="#00000E"/>
<path d="M54.7188 124.786C55.5583 124.786 56.2389 124.106 56.2389 123.266C56.2389 122.427 55.5583 121.746 54.7188 121.746C53.8793 121.746 53.1987 122.427 53.1987 123.266C53.1987 124.106 53.8793 124.786 54.7188 124.786Z" fill="#00000E"/>
<path d="M117.02 123.316C117.072 124.18 117.755 124.843 118.547 124.796C119.339 124.749 119.939 124.01 119.888 123.145C119.837 122.281 119.153 121.618 118.361 121.665C117.569 121.712 116.969 122.451 117.02 123.316Z" fill="#00000E"/>
<path d="M112.655 128.402L112.571 124.602C112.571 124.482 112.619 124.386 112.715 124.32L113.702 123.668C113.822 123.59 113.924 123.608 114.008 123.728L117.305 128.593C117.352 128.663 117.372 128.748 117.36 128.831C117.347 128.914 117.305 128.989 117.239 129.042L116.455 129.677C116.27 129.826 116.102 129.808 115.959 129.611L114.313 127.307C114.115 127.037 114.026 127.073 114.038 127.402L114.163 131.173C114.17 131.383 114.109 131.59 113.988 131.763C113.867 131.936 113.694 132.065 113.494 132.131C113.294 132.197 113.078 132.196 112.878 132.129C112.678 132.062 112.506 131.933 112.386 131.759L109.334 127.373C109.29 127.309 109.271 127.232 109.281 127.157C109.291 127.082 109.329 127.013 109.388 126.966L110.207 126.295C110.429 126.116 110.62 126.146 110.782 126.379L112.272 128.528C112.535 128.911 112.661 128.869 112.655 128.402Z" fill="#00000E"/>
<path d="M59.7518 129.832L60.2724 129.85C60.4956 129.862 60.7063 129.956 60.864 130.114C61.0217 130.273 61.1152 130.484 61.1264 130.707C61.1375 130.93 61.0656 131.149 60.9245 131.323C60.7833 131.496 60.583 131.611 60.3622 131.645C58.2138 131.938 56.191 129.263 56.9031 127.103C58.106 123.452 62.8817 124.063 63.3186 127.707C63.3425 127.881 63.2707 127.976 63.0971 128.006L62.0558 128.174C62.0169 128.18 61.9771 128.178 61.9388 128.169C61.9006 128.16 61.8645 128.144 61.8328 128.121C61.8011 128.098 61.7744 128.07 61.7541 128.037C61.7338 128.004 61.7204 127.967 61.7147 127.929C61.3915 125.643 58.8122 126.259 58.4831 128.282C58.4514 128.468 58.4602 128.659 58.5088 128.842C58.5574 129.025 58.6447 129.196 58.7648 129.343C58.8849 129.489 59.0351 129.609 59.2053 129.693C59.3755 129.778 59.5618 129.825 59.7518 129.832Z" fill="#00000E"/>
<path d="M67.1667 131.788L69.1716 130.155C69.2313 130.108 69.304 130.081 69.3792 130.077C69.4545 130.074 69.5285 130.095 69.5905 130.137L70.5899 130.807C70.7335 130.903 70.7395 131.004 70.6079 131.118C69.1536 132.339 65.138 136.456 63.3187 134.2C63.2074 134.064 63.1475 133.894 63.1493 133.718C63.1512 133.543 63.2148 133.373 63.329 133.24C63.4431 133.106 63.6006 133.017 63.7737 132.988C63.9469 132.959 64.1248 132.992 64.2762 133.081L64.8447 133.41C64.8843 133.433 64.9291 133.444 64.9745 133.444C65.02 133.444 65.0644 133.432 65.1033 133.41C65.1423 133.387 65.1743 133.355 65.1962 133.316C65.218 133.277 65.2289 133.233 65.2278 133.189L65.1559 128.252C65.1559 128.048 65.2517 127.988 65.4372 128.066L66.5384 128.545C66.7478 128.635 66.8496 128.796 66.8496 129.018V131.639C66.8496 131.908 66.9573 131.962 67.1667 131.788Z" fill="#00000E"/>
<path d="M105.222 131.717C105.743 130.191 105.498 128.731 107.401 128.228C107.61 128.169 107.694 128.246 107.64 128.462L106.934 131.388C106.88 131.61 106.946 131.783 107.143 131.897L110.148 133.68C110.411 133.836 110.405 133.986 110.136 134.123L108.921 134.758C108.819 134.809 108.706 134.832 108.593 134.826C108.481 134.82 108.373 134.784 108.28 134.722L106.629 133.597C106.562 133.551 106.483 133.526 106.402 133.527C106.32 133.528 106.242 133.553 106.176 133.6C106.11 133.648 106.06 133.714 106.033 133.79C106.006 133.867 106.003 133.949 106.024 134.028L106.443 135.452C106.513 135.665 106.497 135.898 106.399 136.1C106.301 136.302 106.128 136.458 105.918 136.535C105.707 136.613 105.474 136.606 105.269 136.515C105.063 136.425 104.901 136.258 104.815 136.05L102.589 131.113C102.511 130.928 102.553 130.784 102.721 130.676L103.589 130.108C103.628 130.082 103.674 130.065 103.721 130.059C103.768 130.052 103.815 130.056 103.861 130.069C103.906 130.083 103.948 130.106 103.984 130.138C104.02 130.169 104.048 130.208 104.067 130.251L104.732 131.741C104.753 131.79 104.789 131.831 104.834 131.859C104.879 131.887 104.932 131.9 104.985 131.898C105.038 131.895 105.089 131.877 105.132 131.844C105.174 131.812 105.206 131.768 105.222 131.717Z" fill="#00000E"/>
<path d="M75.0962 133.649C75.7425 132.674 76.6103 132.441 77.6935 132.937C77.9748 133.063 78.0047 133.237 77.7713 133.446L75.563 135.421C75.3954 135.571 75.3476 135.75 75.4134 135.966L76.3649 139.042C76.4248 139.239 76.353 139.341 76.1435 139.347C74.8269 139.371 74.1746 138.724 74.1925 137.414C74.1937 137.326 74.1663 137.239 74.1142 137.168C74.0622 137.097 73.9884 137.045 73.904 137.019C73.8196 136.993 73.7291 136.996 73.6463 137.026C73.5634 137.056 73.4926 137.112 73.4445 137.186C72.7682 138.234 71.8945 138.413 70.8233 137.731C70.6258 137.605 70.6198 137.462 70.7933 137.312L73.1153 135.313C73.2889 135.158 73.3427 134.972 73.2709 134.751L72.3314 131.884C72.3124 131.826 72.3104 131.763 72.3256 131.704C72.3407 131.645 72.3724 131.591 72.4169 131.549C72.4614 131.507 72.5169 131.479 72.577 131.467C72.6371 131.455 72.6992 131.461 72.7563 131.483L73.8454 131.914C73.9355 131.949 74.0154 132.006 74.0781 132.079C74.1407 132.152 74.1842 132.239 74.2045 132.333L74.4798 133.536C74.4946 133.601 74.5281 133.66 74.5762 133.706C74.6244 133.752 74.685 133.784 74.7506 133.796C74.8162 133.808 74.8839 133.8 74.9453 133.774C75.0067 133.748 75.0592 133.705 75.0962 133.649Z" fill="#00000E"/>
<path d="M97.6939 135.84L98.7471 132.321C98.8102 132.118 98.9375 131.941 99.1099 131.817C99.2823 131.692 99.4906 131.627 99.7032 131.631C99.9158 131.635 100.121 131.708 100.289 131.839C100.457 131.97 100.577 132.152 100.632 132.357L101.967 137.522C102.027 137.755 101.943 137.911 101.715 137.989L100.68 138.342C100.642 138.355 100.602 138.359 100.563 138.355C100.523 138.351 100.485 138.339 100.451 138.319C100.416 138.299 100.386 138.273 100.363 138.24C100.339 138.208 100.323 138.171 100.315 138.132L99.7047 135.362C99.6029 134.889 99.4773 134.883 99.3276 135.344L98.2444 138.695C98.1751 138.905 98.0396 139.087 97.8583 139.213C97.6769 139.34 97.4594 139.404 97.2383 139.397C97.0173 139.39 96.8046 139.311 96.6321 139.172C96.4596 139.034 96.3366 138.843 96.2815 138.629L94.9829 133.453C94.9696 133.402 94.9667 133.35 94.9744 133.298C94.9822 133.247 95.0003 133.197 95.0277 133.153C95.0552 133.109 95.0914 133.071 95.1341 133.041C95.1768 133.011 95.2251 132.99 95.2761 132.98L96.102 132.806C96.3294 132.758 96.479 132.842 96.5568 133.058C96.874 133.961 97.1193 134.883 97.2989 135.822C97.4006 136.367 97.5323 136.373 97.6939 135.84Z" fill="#00000E"/>
<path d="M82.487 133.607L83.4924 133.775C83.7617 133.817 83.9413 133.972 84.0191 134.23L85.8863 140.268C85.9282 140.406 85.8863 140.495 85.7546 140.543C84.7193 140.908 84.1388 140.627 84.0071 139.699C83.9712 139.454 83.8336 139.322 83.5882 139.292L81.9185 139.095C81.739 139.077 81.5774 139.119 81.4338 139.221C81.2004 139.394 81.0747 139.592 81.0567 139.825C81.054 139.881 81.0396 139.936 81.0145 139.985C80.9895 140.035 80.9543 140.079 80.9113 140.114C80.8683 140.149 80.8185 140.175 80.7652 140.189C80.7118 140.203 80.6562 140.205 80.6019 140.196L79.4649 140.017C79.2075 139.975 79.1357 139.837 79.2494 139.604L82.1399 133.787C82.1707 133.724 82.2209 133.673 82.2833 133.641C82.3456 133.609 82.417 133.597 82.487 133.607ZM82.4452 136.396C82.2118 136.941 82.1818 137.365 82.3673 137.677C82.4321 137.774 82.53 137.844 82.6428 137.874C82.7556 137.904 82.8754 137.891 82.9798 137.839C83.0841 137.787 83.1658 137.699 83.2096 137.59C83.2533 137.482 83.256 137.362 83.2172 137.252L82.8701 136.402C82.7324 136.067 82.5948 136.067 82.4452 136.396Z" fill="#00000E"/>
<path d="M88.34 133.834C90.2491 133.422 95.0487 133.445 93.2773 137.078C92.7626 138.131 91.5118 138.323 90.4406 138.484C90.404 138.49 90.369 138.503 90.3374 138.523C90.3059 138.542 90.2785 138.568 90.2568 138.598C90.2351 138.628 90.2195 138.662 90.211 138.698C90.2025 138.734 90.2012 138.771 90.2072 138.808L90.3808 139.891C90.3901 139.947 90.3879 140.004 90.3744 140.059C90.3608 140.114 90.3363 140.166 90.3021 140.211C90.268 140.257 90.225 140.295 90.1758 140.323C90.1265 140.351 90.0721 140.369 90.0157 140.376L88.9325 140.495C88.7171 140.519 88.6034 140.423 88.5854 140.208L88.0647 134.212C88.0468 134.002 88.1366 133.876 88.34 133.834ZM90.0456 135.498L90.0217 136.659C90.0209 136.702 90.0285 136.744 90.044 136.783C90.0595 136.823 90.0826 136.859 90.1121 136.889C90.1415 136.92 90.1767 136.944 90.2156 136.961C90.2546 136.978 90.2964 136.988 90.3389 136.988L90.5244 136.994C90.6908 136.998 90.856 136.981 91.0106 136.943C91.1651 136.905 91.306 136.848 91.425 136.775C91.544 136.701 91.6389 136.613 91.7041 136.515C91.7693 136.417 91.8036 136.312 91.8051 136.204V136.025C91.8081 135.81 91.6789 135.601 91.4456 135.444C91.2123 135.287 90.894 135.194 90.5603 135.187L90.3748 135.181C90.3323 135.18 90.2901 135.188 90.2506 135.203C90.2111 135.219 90.1751 135.242 90.1445 135.271C90.1139 135.301 90.0895 135.336 90.0725 135.375C90.0555 135.414 90.0464 135.456 90.0456 135.498Z" fill="#00000E"/>
<path d="M90.0456 135.499C90.0464 135.456 90.0555 135.415 90.0725 135.376C90.0894 135.337 90.1139 135.302 90.1445 135.272C90.175 135.243 90.2111 135.22 90.2506 135.204C90.2901 135.188 90.3323 135.181 90.3747 135.182L90.5603 135.188C90.894 135.195 91.2123 135.287 91.4456 135.444C91.6788 135.601 91.8081 135.81 91.8051 136.026V136.205C91.8036 136.312 91.7693 136.418 91.7041 136.516C91.6389 136.614 91.544 136.702 91.425 136.775C91.306 136.849 91.1651 136.906 91.0106 136.944C90.856 136.981 90.6908 136.999 90.5244 136.995L90.3388 136.989C90.2964 136.988 90.2545 136.979 90.2156 136.962C90.1767 136.945 90.1415 136.921 90.1121 136.89C90.0826 136.86 90.0595 136.824 90.044 136.784C90.0284 136.745 90.0209 136.702 90.0217 136.66L90.0456 135.499Z" fill="white"/>
<path d="M82.4453 136.397C82.5949 136.067 82.7326 136.067 82.8702 136.402L83.2173 137.252C83.2561 137.362 83.2534 137.483 83.2097 137.591C83.166 137.699 83.0843 137.788 82.9799 137.84C82.8755 137.892 82.7557 137.904 82.643 137.874C82.5302 137.844 82.4322 137.774 82.3675 137.677C82.182 137.366 82.2119 136.941 82.4453 136.397Z" fill="white"/>
</svg>
