<svg width="208" height="60" viewBox="0 0 208 60" fill="none" xmlns="http://www.w3.org/2000/svg">
<path d="M110.499 13.6542C122.283 9.64247 135.426 17.2425 131.385 30.8774C131.183 31.5468 130.981 32.231 130.774 32.93C130.73 33.0875 130.74 33.2401 130.804 33.3927C132.187 36.5676 132.492 39.7868 131.724 43.0552C129.495 52.5455 119.231 55.1789 110.962 52.7129C102.412 50.1729 99.6603 41.0371 102.806 33.3041C102.87 33.1515 102.865 32.9989 102.801 32.8463C99.6308 25.2906 102.269 16.455 110.499 13.6542ZM123.878 27.0724C124.804 16.6617 109.416 15.7068 109.756 27.0331C109.757 27.0587 109.764 27.0837 109.776 27.1061C109.789 27.1286 109.806 27.148 109.828 27.1627C109.849 27.1774 109.874 27.1872 109.9 27.1912C109.926 27.1951 109.952 27.1933 109.978 27.1857C114.55 25.7139 119.118 25.7188 123.686 27.2004C123.707 27.2072 123.73 27.209 123.752 27.206C123.774 27.2029 123.795 27.1949 123.813 27.1826C123.831 27.1703 123.847 27.154 123.858 27.135C123.869 27.1159 123.876 27.0945 123.878 27.0724ZM119.999 33.0846C120 33.0154 119.917 32.9465 119.757 32.8817C119.597 32.817 119.362 32.7577 119.066 32.7072C118.769 32.6568 118.417 32.6161 118.03 32.5876C117.642 32.5591 117.227 32.5434 116.808 32.5412C115.96 32.5367 115.147 32.588 114.548 32.6836C113.948 32.7792 113.611 32.9114 113.61 33.0511C113.61 33.1203 113.692 33.1892 113.852 33.2539C114.013 33.3187 114.248 33.378 114.544 33.4284C114.84 33.4789 115.192 33.5195 115.58 33.548C115.967 33.5765 116.383 33.5923 116.802 33.5945C117.649 33.599 118.462 33.5477 119.062 33.4521C119.661 33.3565 119.999 33.2243 119.999 33.0846ZM109.82 39.1715C108.727 49.7939 124.572 50.1483 123.883 39.0977C123.881 39.0737 123.874 39.0505 123.862 39.0297C123.85 39.0089 123.833 38.9911 123.814 38.9774C123.794 38.9637 123.771 38.9546 123.747 38.9508C123.724 38.9469 123.699 38.9483 123.676 38.9549C119.148 40.3381 114.609 40.3578 110.066 39.0042C109.918 38.9599 109.835 39.0189 109.82 39.1715Z" fill="#00000E"/>
<path d="M85.5971 21.5845C87.758 18.8871 89.9091 16.1896 92.2029 13.7678C92.2416 13.726 92.2887 13.6925 92.3412 13.6697C92.3937 13.6468 92.4505 13.635 92.508 13.6349H101.201C101.398 13.6349 101.432 13.7088 101.304 13.8614L89.2199 28.1509C89.1018 28.2936 89.0427 28.4561 89.0427 28.6382L89.0083 32.8369C89.0089 32.882 89.0236 32.9257 89.0503 32.962C89.077 32.9983 89.1143 33.0253 89.1571 33.0394C89.1999 33.0535 89.246 33.0539 89.289 33.0405C89.3321 33.0272 89.3698 33.0007 89.3971 32.9649L91.9174 29.4947C92.0257 29.3421 92.1733 29.2682 92.3555 29.2682L100.856 29.2486C100.902 29.2493 100.947 29.2627 100.986 29.2874C101.025 29.312 101.057 29.3469 101.077 29.3879C101.097 29.429 101.105 29.4746 101.1 29.5196C101.095 29.5646 101.077 29.6071 101.048 29.6423L89.1805 44.2863C89.0755 44.4168 89.0182 44.58 89.0181 44.749V52.2703C89.0181 52.4327 88.9394 52.5115 88.7769 52.5115L81.3983 52.541C81.3488 52.5417 81.2996 52.5324 81.2537 52.5136C81.2077 52.4948 81.1659 52.467 81.1307 52.4318C81.0954 52.3965 81.0674 52.3545 81.0483 52.3082C81.0292 52.2619 81.0193 52.2122 81.0193 52.162V44.6554C81.0193 44.4769 80.9585 44.3048 80.847 44.1681C76.8403 39.2852 72.8384 34.3973 68.8415 29.5094C68.8241 29.487 68.8133 29.4603 68.8103 29.4321C68.8073 29.4039 68.8122 29.3754 68.8245 29.3499C68.8367 29.3243 68.8559 29.3027 68.8797 29.2874C68.9036 29.2721 68.9313 29.2638 68.9596 29.2633H77.9527C78.125 29.2633 78.2628 29.3372 78.3613 29.4799L80.7289 32.896C80.7508 32.9269 80.782 32.9503 80.8181 32.9627C80.8541 32.9751 80.8929 32.9759 80.9289 32.9648C80.9648 32.9537 80.9959 32.9315 81.0175 32.9014C81.0391 32.8712 81.0501 32.8348 81.0489 32.7976L81.0046 28.5201C81.0046 28.3612 80.9488 28.2078 80.847 28.0869L68.9596 13.8564C68.942 13.8349 68.9308 13.8087 68.9273 13.7811C68.9239 13.7534 68.9284 13.7254 68.9402 13.7002C68.9521 13.6749 68.9708 13.6536 68.9943 13.6385C69.0177 13.6235 69.045 13.6154 69.0728 13.6152L78.1299 13.6448C78.2727 13.6448 78.3859 13.6989 78.4794 13.8072L85.0113 21.5894C85.0473 21.6324 85.0922 21.6669 85.1431 21.6904C85.1939 21.7139 85.2494 21.7259 85.3054 21.7254C85.3614 21.7249 85.4166 21.712 85.4671 21.6877C85.5175 21.6633 85.5619 21.6281 85.5971 21.5845Z" fill="#00000E"/>
<path d="M20.6323 47.9779L18.6043 52.3981C18.5854 52.4382 18.5554 52.472 18.5179 52.4956C18.4804 52.5192 18.4369 52.5315 18.3926 52.531L10.5513 52.5458C10.5115 52.5466 10.4721 52.5371 10.4371 52.5183C10.402 52.4994 10.3724 52.4718 10.3511 52.4381C10.3298 52.4045 10.3176 52.3659 10.3156 52.3261C10.3136 52.2863 10.3219 52.2467 10.3397 52.2111L16.9947 38.6747C17.0123 38.6394 17.0206 38.6002 17.0188 38.5609C17.017 38.5215 17.0052 38.4832 16.9845 38.4497C16.9638 38.4162 16.9349 38.3885 16.9005 38.3693C16.8661 38.3501 16.8273 38.34 16.7879 38.3399L10.5267 38.3842C10.4869 38.3851 10.4475 38.3756 10.4125 38.3567C10.3774 38.3378 10.3478 38.3103 10.3265 38.2766C10.3052 38.2429 10.2929 38.2043 10.2909 38.1646C10.2889 38.1248 10.2972 38.0852 10.3151 38.0495L22.2172 13.7627C22.2364 13.7243 22.2659 13.692 22.3024 13.6694C22.339 13.6468 22.381 13.6348 22.424 13.6348H31.1759C31.2188 13.6348 31.2609 13.6468 31.2974 13.6694C31.3339 13.692 31.3634 13.7243 31.3826 13.7627L43.2651 38.0446C43.2829 38.0802 43.2912 38.1199 43.2892 38.1596C43.2872 38.1994 43.275 38.238 43.2537 38.2717C43.2324 38.3053 43.2028 38.3329 43.1677 38.3518C43.1327 38.3706 43.0933 38.3801 43.0535 38.3793L36.8513 38.3449C36.8115 38.344 36.7722 38.3535 36.7371 38.3724C36.702 38.3913 36.6724 38.4189 36.6511 38.4525C36.6298 38.4862 36.6176 38.5248 36.6156 38.5646C36.6136 38.6043 36.6219 38.644 36.6397 38.6796L43.2356 52.2258C43.2523 52.2613 43.2597 52.3004 43.2571 52.3394C43.2545 52.3785 43.2421 52.4163 43.2209 52.4492C43.1998 52.4822 43.1706 52.5093 43.1362 52.5279C43.1017 52.5465 43.0631 52.556 43.0239 52.5556L34.8529 52.5015C34.8094 52.501 34.767 52.4883 34.7304 52.4648C34.6938 52.4412 34.6646 52.4079 34.6461 52.3686L32.6575 47.9828C32.6397 47.9425 32.6108 47.9082 32.5742 47.8838C32.5376 47.8594 32.4948 47.8459 32.4508 47.845H20.8439C20.7996 47.8445 20.7561 47.8568 20.7186 47.8804C20.6811 47.9039 20.6511 47.9378 20.6323 47.9779ZM23.502 27.5748C23.4913 27.598 23.4865 27.6235 23.4883 27.649C23.49 27.6745 23.498 27.6992 23.5118 27.7207C23.5255 27.7423 23.5444 27.76 23.5668 27.7724C23.5891 27.7847 23.6142 27.7913 23.6398 27.7914L29.6746 27.7815C29.7001 27.7814 29.7252 27.7749 29.7476 27.7625C29.77 27.7502 29.7889 27.7324 29.8026 27.7109C29.8163 27.6893 29.8244 27.6647 29.8261 27.6392C29.8278 27.6137 29.8231 27.5882 29.8124 27.565L26.7852 21.1216C26.7734 21.0942 26.7539 21.0707 26.7289 21.0543C26.704 21.0378 26.6748 21.0291 26.6449 21.0291C26.615 21.0291 26.5858 21.0378 26.5608 21.0543C26.5359 21.0707 26.5163 21.0942 26.5046 21.1216L23.502 27.5748ZM23.561 41.7954C23.5503 41.8186 23.5456 41.8441 23.5473 41.8696C23.549 41.8951 23.5571 41.9198 23.5708 41.9413C23.5845 41.9629 23.6035 41.9807 23.6258 41.993C23.6482 42.0053 23.6733 42.0119 23.6989 42.012L29.6992 41.9923C29.7247 41.9922 29.7499 41.9857 29.7722 41.9733C29.7946 41.961 29.8135 41.9432 29.8272 41.9216C29.8409 41.9001 29.849 41.8754 29.8507 41.8499C29.8524 41.8244 29.8477 41.7989 29.837 41.7757L26.8147 35.3422C26.8023 35.3162 26.7828 35.2942 26.7584 35.2787C26.734 35.2633 26.7057 35.2551 26.6769 35.2551C26.648 35.2551 26.6197 35.2633 26.5954 35.2787C26.571 35.2942 26.5514 35.3162 26.5391 35.3422L23.561 41.7954Z" fill="#00000E"/>
<path d="M54.3797 31.9704H69.2648C69.3471 31.9704 69.4259 32.0031 69.4841 32.0613C69.5423 32.1194 69.5749 32.1983 69.5749 32.2806V38.0594C69.5749 38.1416 69.5423 38.2205 69.4841 38.2786C69.4259 38.3368 69.3471 38.3695 69.2648 38.3695H54.3797C54.2974 38.3695 54.2186 38.4021 54.1604 38.4603C54.1023 38.5185 54.0696 38.5973 54.0696 38.6796V45.812C54.0696 45.8943 54.1023 45.9732 54.1604 46.0313C54.2186 46.0895 54.2974 46.1221 54.3797 46.1221H69.2648C69.3471 46.1221 69.4259 46.1548 69.4841 46.213C69.5423 46.2711 69.5749 46.35 69.5749 46.4322V52.2209C69.5749 52.3032 69.5423 52.382 69.4841 52.4402C69.4259 52.4983 69.3471 52.531 69.2648 52.531H46.3809C46.2987 52.531 46.2198 52.4983 46.1616 52.4402C46.1035 52.382 46.0708 52.3032 46.0708 52.2209L46.1003 13.9449C46.1003 13.8626 46.133 13.7838 46.1912 13.7256C46.2493 13.6674 46.3282 13.6348 46.4104 13.6348H53.7595C53.8417 13.6348 53.9206 13.6674 53.9788 13.7256C54.0369 13.7838 54.0696 13.8626 54.0696 13.9449V31.6603C54.0696 31.7011 54.0776 31.7414 54.0932 31.779C54.1088 31.8166 54.1316 31.8508 54.1604 31.8796C54.1892 31.9084 54.2234 31.9313 54.261 31.9468C54.2986 31.9624 54.339 31.9704 54.3797 31.9704Z" fill="#00000E"/>
<path d="M155.273 24.3211L155.204 13.7874C155.204 13.7469 155.22 13.7081 155.248 13.6795C155.277 13.6508 155.316 13.6348 155.356 13.6348H162.7C162.741 13.6348 162.78 13.6508 162.808 13.6795C162.837 13.7081 162.853 13.7469 162.853 13.7874V52.3883C162.853 52.4287 162.837 52.4676 162.808 52.4962C162.78 52.5248 162.741 52.5409 162.7 52.5409L154.953 52.5113C154.933 52.5114 154.913 52.5076 154.894 52.5C154.876 52.4924 154.859 52.4812 154.844 52.467L143.548 40.934C143.526 40.9125 143.499 40.8979 143.469 40.8919C143.44 40.8859 143.409 40.889 143.381 40.9006C143.353 40.9122 143.329 40.9319 143.312 40.9571C143.296 40.9824 143.287 41.012 143.287 41.0423V52.3932C143.287 52.4337 143.271 52.4725 143.242 52.5011C143.214 52.5297 143.175 52.5458 143.134 52.5458H135.933C135.892 52.5458 135.854 52.5297 135.825 52.5011C135.796 52.4725 135.78 52.4337 135.78 52.3932V13.7874C135.78 13.7469 135.796 13.7081 135.825 13.6795C135.854 13.6508 135.892 13.6348 135.933 13.6348H144.217C144.237 13.6347 144.257 13.6385 144.276 13.6461C144.294 13.6537 144.311 13.6649 144.325 13.6791L155.017 24.4294C155.038 24.4493 155.065 24.4625 155.094 24.4676C155.123 24.4726 155.153 24.4692 155.18 24.4578C155.207 24.4463 155.23 24.4274 155.246 24.4032C155.263 24.3789 155.272 24.3505 155.273 24.3211ZM155.179 35.7902C155.179 35.7497 155.163 35.711 155.135 35.6819L143.558 24.08C143.536 24.0575 143.508 24.042 143.477 24.0354C143.447 24.0289 143.415 24.0316 143.386 24.0432C143.357 24.0548 143.332 24.0748 143.314 24.1007C143.297 24.1265 143.287 24.157 143.287 24.1882V29.4108C143.287 29.4513 143.303 29.4901 143.331 29.5191L155.056 41.2195C155.078 41.2423 155.107 41.2579 155.138 41.2643C155.169 41.2707 155.201 41.2676 155.23 41.2554C155.259 41.2431 155.284 41.2224 155.302 41.1958C155.319 41.1692 155.328 41.138 155.327 41.1063L155.179 35.7902Z" fill="#00000E"/>
<path d="M172.166 38.3301L165.811 38.3892C165.778 38.3898 165.745 38.382 165.715 38.3663C165.686 38.3506 165.661 38.3276 165.642 38.2995C165.624 38.2714 165.613 38.2392 165.611 38.2058C165.609 38.1723 165.615 38.1389 165.629 38.1086L177.551 13.7431C177.568 13.7103 177.593 13.6828 177.624 13.6637C177.656 13.6445 177.692 13.6345 177.728 13.6348H186.525C186.561 13.6345 186.597 13.6445 186.629 13.6637C186.66 13.6828 186.685 13.7103 186.702 13.7431L198.638 38.084C198.654 38.1141 198.661 38.1476 198.659 38.1813C198.658 38.215 198.648 38.2478 198.63 38.2764C198.612 38.3051 198.587 38.3287 198.558 38.345C198.528 38.3613 198.495 38.3697 198.461 38.3695H192.087C192.053 38.3692 192.02 38.3777 191.99 38.394C191.961 38.4103 191.936 38.4339 191.918 38.4625C191.9 38.4912 191.89 38.5239 191.889 38.5576C191.887 38.5913 191.894 38.6249 191.91 38.655L198.629 52.2849C198.644 52.315 198.651 52.3485 198.649 52.3822C198.648 52.4159 198.638 52.4487 198.62 52.4773C198.602 52.506 198.577 52.5296 198.548 52.5459C198.518 52.5622 198.485 52.5706 198.451 52.5704L190.167 52.5064C190.129 52.5058 190.093 52.4943 190.061 52.4734C190.03 52.4524 190.005 52.4229 189.99 52.3883L188.021 47.9631C188.006 47.9277 187.98 47.8977 187.948 47.8767C187.915 47.8557 187.877 47.8446 187.839 47.845H176.138C176.1 47.8446 176.062 47.8557 176.03 47.8767C175.997 47.8977 175.972 47.9277 175.956 47.9631L173.958 52.4424C173.942 52.4778 173.917 52.5079 173.885 52.5289C173.852 52.5499 173.814 52.5609 173.776 52.5606L165.856 52.5212C165.823 52.521 165.79 52.5125 165.761 52.4965C165.732 52.4804 165.708 52.4574 165.69 52.4294C165.673 52.4015 165.662 52.3695 165.66 52.3365C165.658 52.3035 165.664 52.2705 165.679 52.2406L172.348 38.6107C172.363 38.5804 172.369 38.5469 172.366 38.5135C172.364 38.4801 172.353 38.4478 172.335 38.4198C172.317 38.3917 172.292 38.3687 172.262 38.353C172.233 38.3373 172.2 38.3294 172.166 38.3301ZM178.89 27.5354C178.877 27.5611 178.872 27.5896 178.873 27.6182C178.875 27.6468 178.883 27.6746 178.899 27.6988C178.914 27.723 178.935 27.7428 178.961 27.7565C178.986 27.7701 179.014 27.777 179.043 27.7766L184.915 27.7963C184.943 27.7963 184.97 27.7893 184.995 27.776C185.02 27.7626 185.04 27.7433 185.056 27.7198C185.071 27.6962 185.08 27.6693 185.082 27.6414C185.084 27.6135 185.079 27.5855 185.068 27.56L182.154 21.1118C182.141 21.0822 182.12 21.0569 182.093 21.039C182.066 21.021 182.035 21.0112 182.003 21.0107C181.97 21.0102 181.939 21.019 181.911 21.036C181.884 21.0531 181.862 21.0777 181.848 21.1069L178.89 27.5354ZM178.895 41.7511C178.884 41.7743 178.88 41.7998 178.881 41.8253C178.883 41.8508 178.891 41.8755 178.905 41.897C178.918 41.9186 178.937 41.9364 178.96 41.9487C178.982 41.9611 179.007 41.9676 179.033 41.9677L184.954 41.9972C184.98 41.9976 185.005 41.9916 185.027 41.9799C185.05 41.9681 185.069 41.951 185.083 41.93C185.097 41.909 185.106 41.8848 185.108 41.8596C185.111 41.8344 185.107 41.8089 185.097 41.7856L182.168 35.3422C182.157 35.3146 182.138 35.2908 182.113 35.2739C182.089 35.257 182.06 35.2477 182.03 35.2472C182 35.2467 181.97 35.2549 181.945 35.271C181.92 35.287 181.9 35.3101 181.888 35.3373L178.895 41.7511Z" fill="#00000E"/>
</svg>
