<svg width="210" height="36" viewBox="0 0 210 36" fill="none" xmlns="http://www.w3.org/2000/svg">
<g clip-path="url(#clip0_17_13375)">
<path d="M28.6313 22.2082C29.0029 22.324 29.3476 22.3752 29.668 22.3644C29.8807 22.359 29.8834 22.3294 29.6761 22.2755L28.7256 22.0332" stroke="#00000E" stroke-width="0.538528"/>
<path d="M47.9644 35.234H42.089C38.9683 34.1408 37.1292 31.9409 36.5691 28.6344C36.5449 28.4809 36.5153 28.4809 36.4803 28.6317C35.764 31.8844 33.8738 34.0843 30.8096 35.234H26.8325C26.4179 29.1433 19.9367 26.2298 14.791 29.1675C13.9967 29.6199 13.372 30.2984 12.7069 30.95C10.4936 33.1176 7.98672 34.5312 4.94134 35.234H1.53784C1.6267 29.7949 2.97841 23.1225 6.0561 18.5343C6.07113 18.511 6.07919 18.4838 6.07929 18.456C6.07939 18.4283 6.07153 18.4011 6.05666 18.378C6.04179 18.3548 6.02057 18.3366 5.9956 18.3257C5.97063 18.3147 5.94299 18.3114 5.91608 18.3162C4.96019 18.4804 4.15509 18.922 3.50347 19.6382C3.48627 19.654 3.46409 19.6632 3.44079 19.6643C3.41749 19.6654 3.39455 19.6582 3.37597 19.6441C3.35738 19.6301 3.34433 19.6099 3.3391 19.5872C3.33386 19.5644 3.33676 19.5406 3.3473 19.5198C6.85581 13.9433 12.2061 9.72932 17.7933 6.47392C17.8129 6.46289 17.8349 6.45704 17.8573 6.4569C17.8798 6.45676 17.9019 6.46235 17.9215 6.47313C17.9412 6.48391 17.9578 6.49953 17.9698 6.51851C17.9817 6.5375 17.9887 6.55922 17.9899 6.58162C18.3238 13.3509 21.2453 20.5834 28.6312 22.2097C29.0028 22.3255 29.3475 22.3767 29.6679 22.3659C29.8806 22.3605 29.8833 22.3309 29.676 22.277L28.7255 22.0347C20.9841 19.1105 19.075 8.68727 19.1073 1.576C19.1073 1.4656 19.1585 1.4306 19.2608 1.4656C21.5765 2.26262 23.4479 2.93848 25.9466 2.8577C26.0974 2.85501 26.127 2.79307 26.0355 2.67191L25.1604 1.51676C25.15 1.50232 25.1438 1.48531 25.1425 1.46758C25.1411 1.44986 25.1447 1.4321 25.1527 1.41626C25.1608 1.40041 25.1731 1.38709 25.1882 1.37775C25.2033 1.3684 25.2207 1.3634 25.2385 1.36328C28.3296 1.37674 31.4235 1.39559 34.5227 1.42521C37.0026 1.44675 38.7932 1.541 39.8891 1.70525C49.9946 3.21313 57.3752 10.9464 58.0376 21.2484C58.4765 28.0581 54.521 33.5404 47.9644 35.234ZM38.6694 10.8629C39.4664 11.8969 40.7616 12.1608 41.914 11.6249C41.9975 11.5846 42.046 11.5199 42.054 11.4257C42.2533 9.31196 39.5256 8.62265 38.6398 10.6179C38.6219 10.6578 38.6152 10.7017 38.6204 10.7449C38.6256 10.7881 38.6426 10.8289 38.6694 10.8629ZM44.1274 23.9142C41.9302 23.1387 38.5267 23.3676 39.0544 26.7118C40.0319 32.8941 49.308 32.4014 49.4399 26.2514C49.5288 22.0428 44.9405 21.2242 41.8386 22.3443C41.8248 22.3499 41.8132 22.3598 41.8056 22.3726C41.7981 22.3855 41.795 22.4004 41.7968 22.4152C41.7986 22.43 41.8053 22.4437 41.8158 22.4543C41.8263 22.4649 41.84 22.4716 41.8548 22.4736C42.8403 22.5571 43.6265 22.9987 44.2162 23.793C44.3185 23.9303 44.2889 23.9707 44.1274 23.9142ZM57.1005 25.4409C55.1753 26.1544 53.6297 25.8152 51.7018 25.6401C51.6075 25.6321 51.6021 25.6455 51.691 25.6805C52.6577 26.0629 57.429 27.1507 57.2082 25.5055C57.2001 25.4382 57.1624 25.4167 57.1005 25.4409ZM53.7616 30.3173C52.62 30.0372 51.5294 29.6172 50.4901 29.0598C50.2854 28.9494 50.272 28.9682 50.4524 29.1137C51.6506 30.0992 53.0212 30.6862 54.5587 30.8746C54.6168 30.8827 54.6757 30.8694 54.7245 30.8371C54.7733 30.8049 54.8087 30.7558 54.8241 30.6991C54.8395 30.6423 54.834 30.5817 54.8084 30.5283C54.7829 30.475 54.7391 30.4325 54.6852 30.4088C54.5263 30.3388 54.0094 30.3765 53.7616 30.3173ZM48.8341 32.3717C49.1276 32.7595 50.5278 34.1893 51.0582 33.8312C51.0776 33.8186 51.0932 33.8009 51.1033 33.78C51.1134 33.7591 51.1175 33.7359 51.1153 33.7129C51.1131 33.6898 51.1045 33.6678 51.0907 33.6493C51.0768 33.6307 51.0582 33.6163 51.0367 33.6077C50.2639 33.2899 49.5934 32.8241 49.0226 32.2129C47.9267 31.0389 47.8621 31.0927 48.8341 32.3717Z" fill="#00000E"/>
<path d="M120.849 13.0971C118.234 13.4767 117.144 16.032 120.685 16.3848C123.138 16.6298 127.352 16.6514 129.045 18.7651C130.333 20.3726 130.249 22.936 128.967 24.495C128.399 25.187 127.532 25.7363 126.366 26.1402C122.624 27.4381 118.94 26.3718 115.488 24.6C115.34 24.5246 115.294 24.4089 115.356 24.2527L116.245 21.9666C116.29 21.8562 116.363 21.832 116.463 21.8966C118.31 23.0787 120.127 23.768 121.915 23.9592C123.45 24.1234 126.275 23.9134 126.891 22.1255C127.244 21.1023 126.382 20.6876 125.518 20.4911C123.149 19.9525 120.486 20.0441 118.401 19.4059C114.998 18.3666 114.707 13.7406 117.233 11.7104C120.496 9.08234 126.267 10.4125 129.433 12.6016C129.511 12.6555 129.527 12.7228 129.482 12.8036L128.24 15.0412C128.2 15.1166 128.146 15.1273 128.079 15.0735C125.933 13.3636 123.523 12.7066 120.849 13.0971Z" fill="#00000E"/>
<path d="M77.6265 13.1537H71.6704C71.6538 13.1537 71.6373 13.1504 71.6219 13.1441C71.6066 13.1377 71.5926 13.1284 71.5809 13.1166C71.5691 13.1049 71.5598 13.0909 71.5535 13.0756C71.5471 13.0602 71.5438 13.0438 71.5438 13.0272V10.7223C71.5438 10.7056 71.5471 10.6892 71.5535 10.6738C71.5598 10.6585 71.5691 10.6445 71.5809 10.6328C71.5926 10.621 71.6066 10.6117 71.6219 10.6053C71.6373 10.599 71.6538 10.5957 71.6704 10.5957H87.0346C87.0682 10.5957 87.1003 10.609 87.1241 10.6328C87.1478 10.6565 87.1611 10.6887 87.1611 10.7223V13.0272C87.1611 13.0607 87.1478 13.0929 87.1241 13.1166C87.1003 13.1404 87.0682 13.1537 87.0346 13.1537H81.0273C80.9937 13.1537 80.9616 13.167 80.9378 13.1908C80.9141 13.2145 80.9008 13.2467 80.9008 13.2803V26.2884C80.9008 26.305 80.8975 26.3215 80.8911 26.3369C80.8848 26.3522 80.8754 26.3662 80.8637 26.3779C80.8519 26.3897 80.838 26.399 80.8226 26.4053C80.8073 26.4117 80.7908 26.415 80.7742 26.415H77.8877C77.8711 26.415 77.8546 26.4117 77.8393 26.4053C77.8239 26.399 77.81 26.3897 77.7982 26.3779C77.7864 26.3662 77.7771 26.3522 77.7708 26.3369C77.7644 26.3215 77.7611 26.305 77.7611 26.2884L77.7531 13.2803C77.7531 13.2467 77.7397 13.2145 77.716 13.1908C77.6923 13.167 77.6601 13.1537 77.6265 13.1537Z" fill="#00000E"/>
<path d="M92.8778 10.5957H89.9267C89.8866 10.5957 89.854 10.6283 89.854 10.6684V26.345C89.854 26.3851 89.8866 26.4177 89.9267 26.4177H92.8778C92.918 26.4177 92.9505 26.3851 92.9505 26.345V10.6684C92.9505 10.6283 92.918 10.5957 92.8778 10.5957Z" fill="#00000E"/>
<path d="M100.894 20.1595V26.2799C100.894 26.2996 100.89 26.319 100.882 26.3372C100.875 26.3553 100.864 26.3718 100.85 26.3856C100.835 26.3993 100.819 26.4102 100.801 26.4175C100.782 26.4248 100.763 26.4283 100.743 26.428L97.8942 26.4091C97.7838 26.4064 97.73 26.3526 97.73 26.2422V10.7353C97.73 10.6988 97.7447 10.6639 97.771 10.6382C97.7973 10.6124 97.8329 10.5979 97.87 10.5979C101.053 10.5952 104.26 10.5925 107.491 10.5899C111.209 10.5845 113.988 12.9459 112.715 16.8987C111.834 19.6264 109.343 20.0033 106.745 20.0087C104.841 20.0141 102.938 20.0195 101.031 20.0222C100.94 20.0222 100.894 20.068 100.894 20.1595ZM100.897 13.2798L100.891 17.2595C100.891 17.2931 100.904 17.3253 100.928 17.349C100.952 17.3727 100.984 17.3861 101.018 17.3861L107.265 17.3969C107.929 17.3978 108.567 17.1857 109.037 16.807C109.508 16.4283 109.773 15.9141 109.774 15.3774V15.1943C109.775 14.9282 109.711 14.6646 109.585 14.4186C109.459 14.1725 109.275 13.9488 109.043 13.7603C108.81 13.5718 108.534 13.422 108.23 13.3197C107.925 13.2174 107.599 13.1645 107.27 13.164L101.023 13.1532C100.99 13.1532 100.957 13.1666 100.934 13.1903C100.91 13.214 100.897 13.2462 100.897 13.2798Z" fill="#00000E"/>
<path d="M148.777 15.7656L142.589 26.0999C142.58 26.1143 142.568 26.1261 142.553 26.1343C142.539 26.1424 142.522 26.1465 142.505 26.1463C142.488 26.146 142.472 26.1413 142.457 26.1327C142.443 26.1241 142.431 26.1119 142.422 26.0972L136.55 15.7521C136.539 15.734 136.523 15.7199 136.503 15.7118C136.484 15.7038 136.463 15.7022 136.442 15.7073C136.422 15.7125 136.404 15.7241 136.391 15.7404C136.378 15.7568 136.37 15.7769 136.369 15.7979V26.318C136.369 26.3437 136.359 26.3684 136.341 26.3866C136.323 26.4048 136.298 26.415 136.272 26.415H133.639C133.613 26.415 133.589 26.4048 133.57 26.3866C133.552 26.3684 133.542 26.3437 133.542 26.318V10.6926C133.542 10.6669 133.552 10.6423 133.57 10.6241C133.589 10.6059 133.613 10.5957 133.639 10.5957H137.417C137.434 10.5958 137.45 10.6003 137.465 10.6088C137.48 10.6173 137.492 10.6295 137.5 10.6442L142.719 19.9499C142.727 19.9652 142.739 19.9781 142.754 19.9871C142.768 19.9961 142.785 20.001 142.803 20.0013C142.82 20.0016 142.837 19.9972 142.852 19.9887C142.867 19.9801 142.88 19.9677 142.888 19.9526L148.381 10.6442C148.39 10.6295 148.402 10.6173 148.416 10.6088C148.431 10.6003 148.448 10.5958 148.465 10.5957H151.957C151.983 10.5957 152.007 10.6059 152.026 10.6241C152.044 10.6423 152.054 10.6669 152.054 10.6926V26.318C152.054 26.3437 152.044 26.3684 152.026 26.3866C152.007 26.4048 151.983 26.415 151.957 26.415H149.054C149.029 26.415 149.004 26.4048 148.986 26.3866C148.968 26.3684 148.957 26.3437 148.957 26.318V15.814C148.957 15.7929 148.95 15.7723 148.937 15.7555C148.924 15.7388 148.906 15.7267 148.886 15.7212C148.865 15.7157 148.843 15.7171 148.824 15.7251C148.804 15.7331 148.788 15.7473 148.777 15.7656Z" fill="#00000E"/>
<path d="M162.911 10.5957H165.625C165.64 10.5957 165.655 10.6 165.668 10.6081C165.681 10.6162 165.691 10.6278 165.698 10.6415L173.218 26.31C173.224 26.3223 173.227 26.3359 173.226 26.3495C173.225 26.3631 173.221 26.3764 173.214 26.3879C173.206 26.3995 173.196 26.409 173.184 26.4156C173.172 26.4223 173.159 26.4257 173.145 26.4257L169.971 26.4096C169.956 26.4093 169.942 26.4052 169.93 26.3976C169.918 26.39 169.908 26.3793 169.901 26.3665L167.911 22.4191C167.904 22.4063 167.894 22.3956 167.882 22.388C167.869 22.3804 167.855 22.3763 167.841 22.376H160.42C160.405 22.376 160.39 22.3803 160.377 22.3884C160.364 22.3965 160.354 22.4081 160.347 22.4218L158.368 26.3692C158.362 26.3829 158.351 26.3945 158.338 26.4026C158.326 26.4107 158.311 26.415 158.295 26.415H155.573C155.56 26.415 155.546 26.4115 155.534 26.4049C155.522 26.3983 155.512 26.3887 155.505 26.3772C155.498 26.3656 155.493 26.3524 155.493 26.3387C155.492 26.3251 155.495 26.3115 155.501 26.2992L162.838 10.6415C162.845 10.6278 162.855 10.6162 162.868 10.6081C162.881 10.6 162.895 10.5957 162.911 10.5957ZM161.341 20.0738C161.333 20.0894 161.329 20.1067 161.33 20.1242C161.331 20.1416 161.336 20.1585 161.345 20.1734C161.355 20.1882 161.367 20.2005 161.383 20.209C161.398 20.2175 161.415 20.2219 161.432 20.2219H166.882C166.9 20.2219 166.917 20.2175 166.932 20.209C166.947 20.2005 166.96 20.1882 166.969 20.1734C166.979 20.1585 166.984 20.1416 166.985 20.1242C166.985 20.1067 166.982 20.0894 166.974 20.0738L164.249 14.7451C164.24 14.7281 164.227 14.7137 164.211 14.7037C164.195 14.6937 164.176 14.6884 164.157 14.6884C164.138 14.6884 164.12 14.6937 164.104 14.7037C164.087 14.7137 164.074 14.7281 164.066 14.7451L161.341 20.0738Z" fill="#00000E"/>
<path d="M179.64 20.106L179.659 26.2425C179.659 26.265 179.655 26.2874 179.647 26.3083C179.638 26.3292 179.626 26.3482 179.61 26.3642C179.594 26.3803 179.576 26.393 179.555 26.4017C179.534 26.4104 179.512 26.4149 179.489 26.4149H176.624C176.535 26.4149 176.49 26.3691 176.49 26.2802V10.7356C176.49 10.6494 176.533 10.6064 176.619 10.6037C179.573 10.5848 182.518 10.5848 185.459 10.6064C187.923 10.6252 190.712 10.574 191.706 13.4013C192.923 16.8667 191.03 19.2067 187.667 19.7883C187.564 19.8071 187.543 19.8583 187.602 19.9417L191.948 26.2102C192.045 26.3475 192.01 26.4175 191.84 26.4175L188.814 26.4149C188.772 26.4149 188.73 26.4045 188.692 26.3843C188.654 26.3641 188.621 26.3349 188.596 26.2991L184.271 20.1248C184.22 20.0494 184.147 20.0118 184.059 20.0118L179.753 19.9929C179.678 19.9929 179.64 20.0306 179.64 20.106ZM179.64 13.2182L179.635 17.2572C179.635 17.275 179.642 17.2922 179.654 17.3048C179.667 17.3174 179.684 17.3245 179.702 17.3245L186.439 17.3353C187.086 17.3363 187.707 17.1457 188.166 16.8054C188.624 16.4651 188.883 16.0029 188.884 15.5204V14.9873C188.884 14.7481 188.822 14.5112 188.7 14.29C188.577 14.0688 188.398 13.8676 188.171 13.6981C187.945 13.5285 187.675 13.3939 187.379 13.3019C187.083 13.2098 186.765 13.1622 186.444 13.1617L179.707 13.1509C179.689 13.1509 179.672 13.158 179.66 13.1706C179.647 13.1832 179.64 13.2004 179.64 13.2182Z" fill="#00000E"/>
<path d="M209.205 10.6057V13.1207L203.502 13.1395C203.443 13.1402 203.387 13.1641 203.346 13.2059C203.305 13.2477 203.281 13.3042 203.281 13.363V26.2581C203.281 26.3658 203.228 26.4196 203.12 26.4196L200.317 26.4115C200.228 26.4115 200.185 26.3658 200.185 26.2769V13.2876C200.185 13.2519 200.171 13.2177 200.145 13.1924C200.12 13.1672 200.086 13.153 200.05 13.153H194.094C193.981 13.153 193.924 13.0964 193.924 12.9833V10.7484C193.924 10.6488 193.976 10.5977 194.075 10.5977L209.205 10.6057Z" fill="#00000E"/>
<path d="M28.7256 22.0332L29.6761 22.2755C29.8834 22.3294 29.8807 22.359 29.668 22.3644C29.3476 22.3752 29.0029 22.324 28.6313 22.2082C28.7256 22.1624 28.7552 22.1059 28.7256 22.0332Z" fill="#00000E"/>
</g>
<defs>
<clipPath id="clip0_17_13375">
<rect width="208.411" height="34.4658" fill="white" transform="translate(0.794678 0.767578)"/>
</clipPath>
</defs>
</svg>
