<svg width="221" height="68" viewBox="0 0 221 68" fill="none" xmlns="http://www.w3.org/2000/svg">
<path d="M174.93 21.5084C174.929 21.5535 174.942 21.5975 174.968 21.634C174.994 21.6705 175.032 21.6975 175.075 21.711C175.118 21.7245 175.165 21.7238 175.208 21.709C175.251 21.6942 175.289 21.666 175.315 21.6287C182.191 11.4609 195.398 10.1699 206.5 10.7913C209.106 10.9357 213.657 10.4625 215.221 13.1168C215.87 14.2153 214.166 17.8358 213.733 19.0667C213.019 21.0835 212.117 20.5662 210.457 20.5662C205.883 20.5622 201.316 20.5582 196.749 20.5542C192.303 20.5462 188.329 22.5709 187.042 27.0374C184.669 35.2607 182.291 43.484 179.906 51.7073C179.16 54.2773 179.092 58.5393 175.531 58.5513C172.067 58.5634 167.805 58.9683 164.441 58.2907C164.385 58.2791 164.333 58.2503 164.293 58.208C164.253 58.1657 164.226 58.1121 164.217 58.0542C164.101 57.2804 164.085 56.7471 164.173 56.4544C166.867 47.4373 169.465 38.4482 171.971 29.4791C171.985 29.4312 171.981 29.3803 171.96 29.3353C171.939 29.2903 171.903 29.254 171.858 29.2326C171.813 29.2112 171.762 29.2061 171.713 29.2182C171.664 29.2303 171.62 29.2587 171.59 29.2987C167.741 34.7074 158.961 37.3175 152.742 38.1395C144.559 39.218 136.376 40.2805 128.188 41.3269C127.663 41.3951 127.242 41.5033 126.917 41.6557C126.777 41.7239 126.709 41.8361 126.717 41.9925C127.014 47.1566 130.221 48.4917 135.008 49.013C143.344 49.9151 152.181 49.0531 160.564 48.6922C161.254 48.6641 161.912 48.6802 162.533 48.7483C162.577 48.7531 162.619 48.7674 162.657 48.7902C162.695 48.813 162.728 48.8438 162.752 48.8804C162.777 48.9171 162.794 48.9586 162.801 49.0023C162.808 49.046 162.805 49.0906 162.794 49.1332C162.184 51.2863 161.543 53.3992 160.873 55.4641C160.123 57.7695 155.448 58.1063 153.019 58.2586C147.153 58.6195 141.279 58.7237 135.401 58.5714C128.152 58.3869 120.366 57.0438 115.555 50.9615C115.086 50.3681 114.821 50.4483 114.769 51.2061C114.56 54.0568 113.955 56.8914 110.667 57.541C108.775 57.9138 106.87 58.1785 104.958 58.3268C94.2889 59.1688 73.7447 60.5841 71.0063 46.3708C70.8219 45.4205 70.6695 44.4703 70.5532 43.5201C70.5493 43.4914 70.5359 43.465 70.5151 43.4449C70.4942 43.4249 70.4672 43.4125 70.4385 43.4097C70.4097 43.4069 70.3808 43.4139 70.3565 43.4296C70.3323 43.4452 70.314 43.4687 70.3047 43.496C69.8035 45.0156 69.5669 46.5993 69.0417 48.0387C68.5285 49.454 68.0554 50.8854 67.6224 52.3247C66.4637 56.1738 63.6611 56.7752 60.1529 57.2162C49.4237 58.5754 36.1245 59.6379 24.5293 57.144C18.7397 55.9011 13.8964 52.4089 15.1353 45.8816C17.144 35.3249 29.7455 32.3338 38.6584 31.0749C45.8393 30.0605 53.0081 28.982 60.1649 27.8393C61.4198 27.6388 62.5104 26.9733 62.8231 25.7825C64.5311 19.2632 55.3055 19.2832 51.5046 19.2872C44.5402 19.2993 39.2358 19.5358 35.5912 20.0049C33.0292 20.3337 30.5274 20.5221 28.0896 20.5702C28.0227 20.5716 27.9563 20.5575 27.8956 20.529C27.8349 20.5006 27.7816 20.4586 27.7398 20.4063C27.6979 20.354 27.6686 20.2928 27.6542 20.2273C27.6398 20.1619 27.6406 20.094 27.6566 20.029C28.0014 18.5976 28.4144 17.1823 28.8915 15.779C30.375 11.4088 34.7813 11.3286 39.0032 11.096C47.8199 10.6109 57.7753 9.9774 66.3674 12.0062C72.574 13.4696 77.3692 17.7516 76.0942 24.6518C76.0838 24.7055 76.0923 24.7611 76.1182 24.8092C76.1441 24.8573 76.1859 24.895 76.2365 24.9158C76.287 24.9366 76.3432 24.9392 76.3955 24.9232C76.4478 24.9073 76.4929 24.8737 76.5232 24.8282C84.947 12.3229 100.287 9.69675 114.472 10.9357C117.171 11.1722 120.274 11.0439 121.196 14.3436C121.705 16.1639 121.926 18.0243 121.858 19.9287C121.854 20.057 121.793 20.1493 121.673 20.2014C121.084 20.462 120.683 20.5863 120.466 20.5702C113.45 20.029 107.54 19.5238 101.815 20.4379C90.3677 22.2702 85.4562 30.0124 84.3055 41.0062C83.8003 45.8255 86.7873 47.9906 91.1014 48.7283C98.5309 50.0033 106.329 49.1052 113.883 48.5038C113.947 48.4988 114.009 48.4794 114.065 48.4471C114.121 48.4148 114.169 48.3703 114.205 48.3169C114.242 48.2635 114.266 48.2026 114.276 48.1385C114.286 48.0744 114.282 48.0088 114.264 47.9465C112.127 40.6413 115.37 31.0067 119.592 24.7039C129.227 10.3302 149.815 8.89486 165.275 12.0342C170.155 13.0246 175.05 15.8392 174.93 21.5084ZM144.495 19.3915C134.616 20.1332 131.941 24.9084 128.806 33.3161C128.786 33.37 128.78 33.4281 128.79 33.4848C128.799 33.5415 128.823 33.5948 128.858 33.6396C128.894 33.6844 128.941 33.7191 128.995 33.7404C129.048 33.7617 129.106 33.7689 129.163 33.7612C136.123 32.8591 143.087 31.8647 150.052 30.7782C153.536 30.2369 156.463 29.2346 158.828 27.7751C160.645 26.6565 161.418 25.0287 161.154 22.8957C160.572 18.1927 147.634 19.1549 144.495 19.3915ZM28.9517 43.7646C27.2677 48.4516 33.4222 49.7026 36.6738 49.9111C42.1867 50.2599 47.6996 50.2118 53.2126 49.7667C53.842 49.7146 54.4715 49.6104 55.101 49.454C55.2453 49.4179 55.3416 49.3257 55.3857 49.1854L59.5955 35.9944C59.6032 35.9706 59.6047 35.9453 59.5999 35.9208C59.5951 35.8962 59.5843 35.8733 59.5683 35.8541C59.5523 35.8349 59.5317 35.8201 59.5084 35.811C59.4851 35.8018 59.4599 35.7988 59.4352 35.802C51.7291 36.8364 44.027 37.8748 36.325 38.9213C33.1295 39.3543 30.0462 40.7135 28.9517 43.7646Z" fill="#00000E"/>
</svg>
