<svg width="174" height="140" viewBox="0 0 174 140" fill="none" xmlns="http://www.w3.org/2000/svg">
<g clip-path="url(#clip0_60_1807)">
<path d="M157.697 60.0857C161.628 60.2888 165.715 61.8316 168.394 64.7092C172.389 69.0039 172.733 75.6296 169.768 80.7319C169.731 80.798 169.716 80.8739 169.725 80.9487C169.733 81.0234 169.765 81.0931 169.816 81.1478C171.881 83.3919 173.003 85.9309 173.173 88.7698C173.976 101.944 160.642 108.691 149.833 111.293C140.726 113.483 129.549 114.731 119.519 115.974C118.6 116.09 117.676 116.361 116.743 116.787C107.684 120.922 97.3105 122.368 88.5471 116.651C88.4068 116.559 88.2762 116.574 88.1553 116.69C82.6758 122.097 75.6873 125.003 68.2394 126.503C61.0672 127.949 53.8417 129.119 46.5728 130.004C46.4132 130.024 46.2971 130.106 46.2246 130.246C44.4448 133.757 41.988 136.112 38.8492 137.307C18.3723 145.132 1.98203 123.794 0.913203 106.031C0.482771 98.8681 1.76439 91.6426 4.75323 84.3591C5.65278 82.1538 5.93329 79.9001 6.11707 77.8591C7.65985 60.6516 9.18329 43.4633 10.6777 26.2896C10.6834 26.2274 10.7078 26.1685 10.7476 26.1209C10.7874 26.0733 10.8406 26.0393 10.9002 26.0236C21.2305 23.4023 31.6431 21.0954 42.1427 19.098C50.4999 17.5069 59.8436 17.7922 67.04 22.3915C67.1851 22.4834 67.3012 22.4592 67.3834 22.3093C73.6319 11.505 89.4321 6.9347 97.736 18.3049C97.8279 18.4354 97.9295 18.4403 98.0359 18.3194C106.553 8.49683 118.822 3.41871 131.484 1.6728C139.062 0.623322 146.147 1.78887 152.73 5.16461C155.82 6.74609 158.693 9.36736 161.459 11.713C161.595 11.829 161.604 11.9548 161.483 12.0902L150.64 24.0988C150.316 24.4566 150.394 24.6066 150.873 24.5437L160.41 23.3298C160.432 23.3268 160.455 23.3291 160.477 23.3364C160.499 23.3437 160.519 23.3559 160.536 23.3721C160.552 23.3883 160.565 23.408 160.573 23.43C160.582 23.4519 160.585 23.4755 160.584 23.4991L157.373 59.7133C157.369 59.7592 157.374 59.8054 157.388 59.8492C157.402 59.893 157.425 59.9335 157.456 59.9682C157.486 60.003 157.523 60.0313 157.564 60.0514C157.606 60.0716 157.651 60.0833 157.697 60.0857ZM133.515 47.9611L133.036 52.9328C133.017 53.1021 132.935 53.2278 132.79 53.31C126.232 57.0098 115.964 58.3446 115.234 47.7241C114.707 40.0489 116.351 28.4853 124.563 25.1241C129.801 22.9816 134.874 23.3588 139.783 26.2461C139.923 26.3283 140.054 26.3089 140.165 26.188L152.372 12.6561C152.493 12.5206 152.478 12.4046 152.328 12.303C141.577 5.30487 128.572 7.40382 117.309 12.1579C105.489 17.149 98.1616 25.9269 95.3276 38.4964C93.7122 45.6397 92.9771 52.7635 95.139 58.9782C100.145 73.3614 117.328 73.284 129.467 69.8986C137.142 67.7561 144.281 64.4432 150.877 59.9648C150.938 59.9239 150.988 59.87 151.025 59.8072C151.062 59.7445 151.084 59.6743 151.09 59.6021L153.624 31.0727C153.649 30.8067 153.528 30.6858 153.262 30.7197L125.535 34.2743C125.337 34.2985 125.216 34.4146 125.177 34.6129L122.508 49.117C122.502 49.1472 122.504 49.1784 122.512 49.2079C122.521 49.2374 122.537 49.2643 122.558 49.2866C122.579 49.3088 122.606 49.3256 122.635 49.3357C122.664 49.3457 122.695 49.3487 122.725 49.3443L133.268 47.7289C133.452 47.6999 133.534 47.7773 133.515 47.9611ZM92.257 21.641C91.3047 19.8116 89.3477 18.6003 86.8167 18.2736C84.2857 17.947 81.3879 18.5318 78.7609 19.8993C76.1338 21.2669 73.9927 23.3052 72.8085 25.5658C71.6243 27.8265 71.4941 30.1243 72.4465 31.9538C73.3989 33.7833 75.3558 34.9946 77.8868 35.3212C80.4179 35.6478 83.3156 35.063 85.9427 33.6955C88.5697 32.3279 90.7108 30.2896 91.895 28.029C93.0792 25.7683 93.2094 23.4705 92.257 21.641ZM57.5463 50.8919C57.4087 50.8854 57.2767 50.8336 57.1712 50.7445C57.0656 50.6555 56.9924 50.5342 56.9631 50.3998C56.9338 50.2654 56.95 50.1254 57.0092 50.0018C57.0683 49.8782 57.1671 49.7779 57.29 49.7167C62.5906 47.0374 67.514 42.1527 67.4269 35.8993C67.248 23.1025 50.6159 24.0214 42.1476 25.6415C34.6755 27.0682 26.2071 28.9206 16.7473 31.1936C16.6167 31.2275 16.5441 31.3097 16.5296 31.4451L12.9604 71.5768C12.9169 72.0894 13.0813 72.1668 13.4586 71.8138C18.556 67.0258 26.3183 66.8179 31.1256 72.1571C31.152 72.1871 31.1866 72.2088 31.2251 72.2196C31.2636 72.2304 31.3042 72.2299 31.3419 72.218C31.3797 72.2061 31.4128 72.1834 31.4371 72.1528C31.4614 72.1222 31.4759 72.085 31.4787 72.0459L32.3298 63.1326C32.3444 62.9536 32.4411 62.8521 32.6152 62.8182C35.8362 62.1605 50.9593 58.0013 49.4987 65.0332C48.222 71.185 37.3112 72.012 32.4266 73.0035C32.2235 73.047 32.1848 73.1486 32.3105 73.313C35.3961 77.2885 37.113 80.9012 39.3328 85.8197C39.4005 85.9745 39.5166 86.0325 39.681 85.9986C52.0765 83.2565 69.9998 76.3405 69.729 60.9321C69.6129 54.611 63.1129 51.1047 57.5463 50.8919ZM73.5352 38.1289C73.4837 38.1392 73.4369 38.166 73.402 38.2053C73.3671 38.2446 73.3459 38.2941 73.3417 38.3465L69.7483 79.281C69.7447 79.3184 69.7498 79.356 69.7632 79.3911C69.7767 79.4261 69.7981 79.4576 69.8258 79.4829C69.8534 79.5082 69.8866 79.5268 69.9227 79.5371C69.9588 79.5474 69.9968 79.5491 70.0337 79.5422L89.8142 75.8521C89.8681 75.8423 89.9171 75.8144 89.9531 75.7731C89.9891 75.7318 90.0101 75.6795 90.0125 75.6248L91.7729 35.0385C91.7742 35.0023 91.7674 34.9663 91.7529 34.9331C91.7385 34.8999 91.7168 34.8704 91.6894 34.8467C91.662 34.823 91.6296 34.8058 91.5947 34.7963C91.5598 34.7868 91.5231 34.7853 91.4875 34.7918L73.5352 38.1289ZM158.741 83.4499C162.16 81.4283 165.391 79.1746 165.527 74.8123C165.802 65.8312 152.236 67.8431 147.12 68.8443C141.572 69.9324 136.552 71.0109 132.064 72.0846C131.89 72.1281 131.793 72.2393 131.779 72.4183L128.123 108.55C128.108 108.676 128.166 108.729 128.292 108.715C136.281 107.685 142.346 106.746 146.481 105.9C152.565 104.652 158.935 102.539 163.529 98.1813C166.257 95.5939 168.404 90.5303 165.918 87.1158C164.1 84.6203 161.532 84.5332 158.799 83.8416C158.758 83.8301 158.721 83.807 158.693 83.775C158.665 83.7431 158.647 83.7038 158.64 83.6621C158.634 83.6203 158.64 83.5779 158.658 83.5402C158.676 83.5025 158.705 83.4711 158.741 83.4499ZM35.1591 89.4566C33.3455 82.71 28.2238 67.9834 17.9999 73.9998C8.01774 79.871 3.99393 102.055 6.63939 112.231C9.28001 122.387 17.197 132.442 27.9965 134.691C33.0505 135.74 38.6267 134.7 42.312 131.02C48.4541 124.897 47.7722 113.3 44.6044 106.04C43.642 103.84 41.9928 101.809 40.5129 99.7966C40.4113 99.6612 40.3871 99.5113 40.4307 99.3517C41.0884 96.8078 41.572 94.0995 40.9578 91.4492C40.924 91.2992 40.8321 91.2025 40.6822 91.1638L35.4493 89.7468C35.3799 89.7276 35.3168 89.6908 35.2659 89.64C35.215 89.5891 35.1782 89.5259 35.1591 89.4566ZM128.722 89.7033C129.573 71.5768 110.146 72.6553 99.5642 78.5749C91.357 83.1646 87.1349 90.1047 86.8882 99.3952C86.3998 117.967 106.32 116.148 117.12 109.643C124.244 105.354 128.331 98.0652 128.722 89.7033ZM78.4005 98.2345C78.4198 98.162 78.4392 98.0991 78.4537 98.0459C78.4682 98.0024 78.4924 97.9685 78.5359 97.9492C82.8402 95.8357 87.604 90.9172 84.1605 85.8536C80.4027 80.3257 68.9794 83.0824 63.703 84.127C59.6937 84.925 55.7086 85.7907 51.7379 86.7338C51.5783 86.7725 51.4865 86.874 51.4671 87.0433C50.408 97.3881 49.373 107.738 48.3622 118.088C48.2703 119.016 48.2268 120.68 48.2268 123.074C48.2268 123.233 48.309 123.306 48.4686 123.287C56.3131 122.353 62.9485 121.275 68.3748 120.061C72.8484 119.06 76.9931 117.323 80.8138 114.847C87.5895 110.451 90.2785 99.2404 78.6858 98.6311C78.6391 98.6284 78.5935 98.6153 78.5525 98.5928C78.5114 98.5703 78.476 98.5388 78.4486 98.5008C78.4213 98.4628 78.4027 98.4192 78.3944 98.3731C78.3861 98.327 78.3882 98.2797 78.4005 98.2345Z" fill="black"/>
<path d="M133.269 47.729L122.726 49.3444C122.696 49.3487 122.665 49.3458 122.635 49.3358C122.606 49.3257 122.58 49.3089 122.559 49.2867C122.537 49.2644 122.522 49.2375 122.513 49.208C122.504 49.1785 122.503 49.1473 122.508 49.1171L125.178 34.613C125.217 34.4147 125.338 34.2986 125.536 34.2744L153.262 30.7197C153.528 30.6859 153.649 30.8068 153.625 31.0728L151.091 59.6022C151.085 59.6744 151.063 59.7445 151.026 59.8073C150.989 59.8701 150.939 59.924 150.878 59.9649C144.281 64.4433 137.143 67.7562 129.468 69.8987C117.329 73.2841 100.145 73.3615 95.1397 58.9783C92.9779 52.7636 93.713 45.6398 95.3284 38.4965C98.1624 25.927 105.489 17.1491 117.309 12.158C128.573 7.40391 141.578 5.30496 152.329 12.3031C152.479 12.4047 152.494 12.5207 152.373 12.6561L140.166 26.1881C140.055 26.309 139.924 26.3284 139.784 26.2462C134.875 23.3589 129.802 22.9817 124.564 25.1241C116.352 28.4854 114.707 40.049 115.235 47.7242C115.965 58.3447 126.232 57.0099 132.79 53.3101C132.935 53.2279 133.018 53.1022 133.037 52.9329L133.516 47.9612C133.535 47.7774 133.453 47.7 133.269 47.729Z" fill="white"/>
<path d="M85.9426 33.6957C91.4131 30.8479 94.2402 25.451 92.2569 21.6413C90.2737 17.8316 84.2313 17.0518 78.7607 19.8995C73.2902 22.7473 70.4632 28.1443 72.4464 31.954C74.4296 35.7637 80.472 36.5435 85.9426 33.6957Z" fill="white"/>
<path d="M57.5478 50.892C63.1144 51.1048 69.6144 54.6111 69.7305 60.9322C70.0013 76.3407 52.078 83.2566 39.6825 85.9988C39.5181 86.0326 39.402 85.9746 39.3343 85.8198C37.1144 80.9013 35.3975 77.2886 32.312 73.3131C32.1862 73.1487 32.2249 73.0471 32.428 73.0036C37.3127 72.0122 48.2234 71.1852 49.5002 65.0334C50.9608 58.0014 35.8376 62.1606 32.6167 62.8183C32.4425 62.8522 32.3458 62.9538 32.3313 63.1327L31.4801 72.046C31.4773 72.0851 31.4629 72.1223 31.4385 72.153C31.4142 72.1836 31.3811 72.2062 31.3434 72.2181C31.3057 72.23 31.265 72.2306 31.2266 72.2197C31.1881 72.2089 31.1535 72.1872 31.1271 72.1573C26.3198 66.818 18.5575 67.0259 13.46 71.8139C13.0828 72.1669 12.9184 72.0895 12.9619 71.5769L16.5311 31.4452C16.5456 31.3098 16.6182 31.2276 16.7487 31.1937C26.2085 28.9207 34.6769 27.0684 42.149 25.6417C50.6174 24.0215 67.2494 23.1026 67.4284 35.8995C67.5154 42.1528 62.5921 47.0375 57.2915 49.7168C57.1686 49.778 57.0698 49.8783 57.0106 50.0019C56.9515 50.1255 56.9353 50.2655 56.9646 50.4C56.9939 50.5344 57.0671 50.6556 57.1726 50.7447C57.2782 50.8337 57.4101 50.8855 57.5478 50.892ZM47.4448 44.1405C48.8376 40.7358 47.2755 38.7432 43.5999 39.2075C40.5579 39.5944 37.5449 40.1216 34.5608 40.7938C34.3964 40.8277 34.3045 40.9341 34.29 41.1033L33.5597 49.0736C33.5452 49.2428 33.6178 49.3105 33.787 49.2815C36.9451 48.7254 45.8875 47.9515 47.4448 44.1405Z" fill="white"/>
<path d="M73.536 38.1291L91.4884 34.7921C91.524 34.7855 91.5606 34.7871 91.5955 34.7966C91.6305 34.8061 91.6628 34.8233 91.6902 34.847C91.7176 34.8706 91.7393 34.9002 91.7538 34.9333C91.7682 34.9665 91.775 35.0025 91.7737 35.0387L90.0133 75.625C90.0109 75.6798 89.99 75.7321 89.954 75.7734C89.9179 75.8147 89.8689 75.8425 89.815 75.8523L70.0345 79.5424C69.9977 79.5493 69.9597 79.5476 69.9236 79.5373C69.8875 79.527 69.8543 79.5085 69.8266 79.4831C69.7989 79.4578 69.7775 79.4264 69.7641 79.3913C69.7506 79.3563 69.7455 79.3186 69.7492 79.2812L73.3426 38.3468C73.3468 38.2944 73.368 38.2448 73.4029 38.2056C73.4378 38.1663 73.4845 38.1395 73.536 38.1291Z" fill="white"/>
<path d="M43.5986 39.2073C47.2742 38.7431 48.8363 40.7356 47.4435 44.1404C45.8862 47.9514 36.9439 48.7252 33.7858 49.2814C33.6165 49.3104 33.5439 49.2427 33.5584 49.0734L34.2887 41.1032C34.3032 40.9339 34.3951 40.8275 34.5596 40.7936C37.5436 40.1214 40.5566 39.5942 43.5986 39.2073Z" fill="black"/>
<path d="M158.8 83.8417C161.532 84.5333 164.101 84.6204 165.919 87.1159C168.405 90.5303 166.258 95.5939 163.53 98.1814C158.935 102.539 152.566 104.652 146.482 105.9C142.347 106.746 136.282 107.685 128.293 108.715C128.167 108.729 128.109 108.676 128.123 108.55L131.78 72.4184C131.794 72.2394 131.891 72.1282 132.065 72.0847C136.553 71.011 141.573 69.9325 147.12 68.8443C152.237 67.8432 165.803 65.8313 165.527 74.8123C165.392 79.1747 162.161 81.4284 158.742 83.45C158.706 83.4712 158.677 83.5026 158.659 83.5403C158.641 83.578 158.635 83.6204 158.641 83.6621C158.647 83.7039 158.666 83.7432 158.694 83.7751C158.722 83.807 158.759 83.8302 158.8 83.8417ZM143.57 78.4783L143.106 82.8019C143.092 82.9518 143.159 83.0195 143.309 83.005C146.24 82.6665 148.576 82.1925 150.322 81.5832C151.744 81.0802 153.644 78.5315 151.971 77.245C150.752 76.3116 145.515 77.5739 144.059 77.9221C143.764 77.9898 143.604 78.1736 143.57 78.4783ZM142.197 91.8168L141.578 97.5575C141.559 97.7171 141.631 97.7896 141.791 97.7654C144.784 97.3689 151.241 96.5612 153.059 93.8722C153.77 92.8227 153.819 91.9474 153.214 91.2364C151.565 89.3067 144.185 91.1929 142.468 91.5266C142.397 91.5404 142.333 91.576 142.284 91.6281C142.236 91.6803 142.205 91.7464 142.197 91.8168Z" fill="white"/>
<path d="M35.4502 89.7467L40.6831 91.1638C40.833 91.2025 40.9249 91.2992 40.9587 91.4491C41.5729 94.0994 41.0893 96.8077 40.4316 99.3516C40.3881 99.5112 40.4122 99.6612 40.5138 99.7966C41.9937 101.808 43.6429 103.84 44.6053 106.04C47.7731 113.3 48.455 124.897 42.3129 131.02C38.6276 134.7 33.0514 135.74 27.9974 134.691C17.198 132.442 9.28093 122.387 6.64031 112.231C3.99485 102.055 8.01866 79.871 18.0008 73.9997C28.2247 67.9834 33.3464 82.7099 35.16 89.4566C35.1792 89.5259 35.216 89.5891 35.2668 89.6399C35.3177 89.6908 35.3809 89.7276 35.4502 89.7467ZM26.7207 92.2278C25.1053 91.8263 23.5335 91.9279 22.0053 92.5228C21.9304 92.5534 21.8499 92.5688 21.7685 92.5679C21.6872 92.5671 21.6065 92.5501 21.5313 92.5179C17.0577 90.6753 13.3724 91.6909 9.18421 93.9398C9.03428 94.0172 8.95207 94.1381 8.93272 94.3074C8.83116 95.1634 9.01494 95.9275 9.47922 96.5901C9.58079 96.7304 9.62915 96.89 9.63399 97.0641C9.67268 103.269 13.0049 104.497 18.557 103.105C23.1321 101.954 23.9204 98.8148 23.1563 94.6024C23.1128 94.3461 23.2192 94.2155 23.4755 94.201L25.6035 94.0849C25.855 94.0704 25.9807 94.1913 25.9759 94.4428C25.913 97.3204 26.3289 100.333 28.8776 101.509C31.4312 102.684 35.2761 102.747 37.6217 101.538C40.0882 100.266 39.9044 97.7508 39.7545 95.1634C39.7448 94.9893 39.7738 94.8249 39.8415 94.6653C40.1849 93.8963 40.2478 93.0838 40.0302 92.2278C39.9915 92.0682 39.8947 91.9618 39.74 91.9086C35.3438 90.2787 31.2668 89.8144 27.2333 92.1552C27.0779 92.2452 26.894 92.2712 26.7207 92.2278ZM24.8689 95.698C24.8616 95.6111 24.8201 95.5307 24.7534 95.4744C24.6868 95.4181 24.6006 95.3906 24.5137 95.3979L24.4751 95.401C24.432 95.4047 24.3901 95.4167 24.3517 95.4365C24.3134 95.4563 24.2793 95.4835 24.2514 95.5165C24.2235 95.5495 24.2024 95.5877 24.1893 95.6288C24.1761 95.67 24.1713 95.7133 24.1749 95.7563L24.3068 97.3274C24.3141 97.4143 24.3556 97.4948 24.4222 97.5511C24.4889 97.6074 24.5751 97.6349 24.662 97.6276L24.7006 97.6244C24.7437 97.6208 24.7856 97.6087 24.824 97.5889C24.8623 97.5691 24.8964 97.5419 24.9243 97.5089C24.9522 97.476 24.9733 97.4378 24.9864 97.3966C24.9995 97.3555 25.0044 97.3122 25.0008 97.2691L24.8689 95.698ZM40.9394 108.884C37.2396 111.413 33.5689 101.867 27.3445 108.091C27.2907 108.144 27.2221 108.179 27.1479 108.192C27.0736 108.205 26.9971 108.195 26.9286 108.163C24.9215 107.264 22.8129 106.712 20.8591 107.955C19.4082 108.874 18.2329 111.205 16.6079 112.405C13.1016 114.997 11.3654 109.962 14.1946 109.755C14.2246 109.75 14.2523 109.737 14.2734 109.715C14.2945 109.693 14.3078 109.665 14.3111 109.635C14.3145 109.605 14.3077 109.575 14.2918 109.549C14.276 109.524 14.252 109.504 14.2236 109.493C13.3773 109.218 12.6373 109.426 12.0038 110.112C10.1902 112.081 11.2058 114.997 13.2612 116.322C16.0518 118.117 20.2061 117.377 22.7791 115.563C24.4428 114.388 26.9721 110.727 29.3032 111.97C31.4941 113.14 33.3077 113.861 34.7393 114.127C38.3713 114.808 43.019 113.522 43.8412 109.426C44.2523 107.37 42.4386 103.903 39.9625 105.441C39.9348 105.458 39.9134 105.484 39.9013 105.514C39.8892 105.544 39.887 105.578 39.895 105.61C39.9031 105.641 39.921 105.67 39.9461 105.69C39.9713 105.711 40.0024 105.724 40.035 105.726C42.0566 105.876 42.4145 107.873 40.9394 108.884ZM33.3609 115.723C30.5849 118.566 27.7701 117.981 24.4089 116.55C24.0994 116.419 24.0559 116.477 24.2783 116.728C27.1172 119.988 32.0309 119.862 34.4684 116.39C34.5223 116.313 34.5542 116.224 34.5606 116.13C34.567 116.037 34.5478 115.943 34.5049 115.86C34.4621 115.777 34.3973 115.707 34.3175 115.658C34.2377 115.609 34.1461 115.583 34.0525 115.582H33.6946C33.564 115.582 33.4528 115.631 33.3609 115.723Z" fill="white"/>
<path d="M99.5656 78.575C110.147 72.6554 129.575 71.5769 128.724 89.7033C128.332 98.0653 124.245 105.354 117.121 109.643C106.322 116.148 86.4012 117.967 86.8897 99.3953C87.1363 90.1048 91.3584 83.1647 99.5656 78.575ZM114.394 96.1937C115.211 92.1167 115.83 83.0776 108.639 84.6252C105.364 85.3313 103.125 87.1159 101.921 89.9838C100.489 93.3886 98.6419 104.875 105.742 104.507C110.776 104.241 113.422 101.025 114.394 96.1937Z" fill="white"/>
<path d="M143.57 78.4782C143.604 78.1735 143.763 77.9897 144.058 77.922C145.514 77.5738 150.752 76.3115 151.97 77.2449C153.644 78.5314 151.743 81.0801 150.321 81.5831C148.575 82.1924 146.239 82.6664 143.309 83.0049C143.159 83.0195 143.091 82.9517 143.105 82.8018L143.57 78.4782Z" fill="black"/>
<path d="M78.4003 98.2347C78.388 98.2799 78.3859 98.3273 78.3942 98.3733C78.4025 98.4194 78.421 98.4631 78.4484 98.5011C78.4757 98.5391 78.5112 98.5705 78.5523 98.593C78.5933 98.6156 78.6389 98.6286 78.6856 98.6313C90.2782 99.2407 87.5893 110.451 80.8136 114.847C76.9929 117.324 72.8482 119.06 68.3746 120.061C62.9483 121.275 56.3129 122.353 48.4684 123.287C48.3088 123.306 48.2266 123.234 48.2266 123.074C48.2266 120.68 48.2701 119.016 48.362 118.088C49.3728 107.738 50.4077 97.3884 51.4669 87.0435C51.4862 86.8743 51.5781 86.7727 51.7377 86.734C55.7083 85.7909 59.6934 84.9252 63.7027 84.1272C68.9792 83.0826 80.4025 80.3259 84.1603 85.8538C87.6038 90.9174 82.84 95.8359 78.5357 97.9494C78.4922 97.9687 78.468 98.0026 78.4535 98.0461C78.439 98.0993 78.4196 98.1622 78.4003 98.2347ZM70.4832 91.638C68.3021 91.4639 65.6808 92.1507 63.5286 92.5811C63.3739 92.6101 63.2917 92.702 63.2771 92.8568L62.808 97.4416C62.7838 97.6495 62.8757 97.7366 63.0837 97.7076C65.4003 97.3787 69.9706 96.8564 71.5279 95.2024C72.7079 93.9498 72.6789 91.8073 70.4832 91.638ZM71.7213 109.615C74.4442 107.593 73.3899 104.711 69.8594 105.035C67.2913 105.272 64.7184 105.663 62.1503 106.219C61.9955 106.253 61.9085 106.35 61.894 106.51L61.2749 112.207C61.2604 112.376 61.3329 112.444 61.4974 112.42C64.5443 111.97 69.3177 111.399 71.7213 109.615Z" fill="white"/>
<path d="M108.637 84.6253C115.829 83.0777 115.21 92.1167 114.392 96.1937C113.42 101.025 110.775 104.241 105.74 104.507C98.6406 104.875 100.488 93.3887 101.92 89.9839C103.124 87.116 105.363 85.3314 108.637 84.6253Z" fill="black"/>
<path d="M141.577 97.5576L142.196 91.8169C142.204 91.7465 142.235 91.6804 142.284 91.6283C142.332 91.5761 142.397 91.5405 142.467 91.5267C144.184 91.193 151.564 89.3069 153.213 91.2366C153.818 91.9475 153.77 92.8229 153.059 93.8723C151.24 96.5613 144.784 97.369 141.79 97.7656C141.63 97.7898 141.558 97.7172 141.577 97.5576Z" fill="black"/>
<path d="M26.7194 92.228C26.8927 92.2714 27.0766 92.2454 27.232 92.1554C31.2655 89.8146 35.3425 90.2789 39.7387 91.9088C39.8935 91.962 39.9902 92.0684 40.0289 92.228C40.2465 93.084 40.1836 93.8965 39.8403 94.6655C39.7726 94.8251 39.7435 94.9895 39.7532 95.1636C39.9031 97.751 40.0869 100.266 37.6204 101.538C35.2748 102.747 31.4299 102.684 28.8764 101.509C26.3276 100.334 25.9117 97.3206 25.9746 94.443C25.9794 94.1915 25.8537 94.0706 25.6022 94.0851L23.4742 94.2012C23.2179 94.2157 23.1115 94.3463 23.155 94.6026C23.9192 98.815 23.1308 101.954 18.5557 103.105C13.0036 104.498 9.67139 103.269 9.6327 97.0643C9.62786 96.8902 9.5795 96.7306 9.47794 96.5903C9.01365 95.9277 8.82987 95.1636 8.93144 94.3076C8.95078 94.1383 9.033 94.0174 9.18292 93.94C13.3712 91.6911 17.0564 90.6755 21.53 92.5181C21.6053 92.5503 21.6859 92.5673 21.7673 92.5681C21.8486 92.569 21.9291 92.5536 22.004 92.523C23.5322 91.9281 25.104 91.8265 26.7194 92.228ZM37.2142 92.9437C35.8261 92.1554 34.3414 91.9088 32.7599 92.2086C32.7377 92.2139 32.7174 92.2259 32.7018 92.2428C32.6863 92.2597 32.6762 92.2808 32.673 92.3031C32.6698 92.3254 32.6737 92.3478 32.6841 92.3673C32.6944 92.3867 32.7108 92.4023 32.7309 92.4117C35.2023 93.645 36.9675 95.536 38.0218 98.0944C38.0342 98.128 38.058 98.1563 38.089 98.1744C38.1199 98.1925 38.1562 98.1993 38.1916 98.1936C38.2271 98.1879 38.2594 98.17 38.2831 98.1431C38.3068 98.1162 38.3205 98.0819 38.3217 98.046C38.4087 96.7257 38.8198 93.8578 37.2142 92.9437ZM21.3704 99.2938C22.6956 94.8783 20.7659 92.8954 16.3697 92.9969C16.1472 93.0018 16.1327 93.0646 16.3213 93.1807C18.6572 94.6364 20.2484 96.6725 21.0851 99.2986C21.1818 99.6082 21.2785 99.6082 21.3704 99.2938Z" fill="black"/>
<path d="M70.4837 91.6378C72.6794 91.8071 72.7084 93.9496 71.5283 95.2022C69.971 96.8562 65.4007 97.3785 63.0841 97.7074C62.8762 97.7364 62.7843 97.6493 62.8085 97.4414L63.2776 92.8565C63.2921 92.7018 63.3743 92.6099 63.5291 92.5809C65.6812 92.1505 68.3025 91.4637 70.4837 91.6378Z" fill="black"/>
<path d="M37.2141 92.9436C38.8197 93.8576 38.4087 96.7256 38.3216 98.0459C38.3204 98.0817 38.3068 98.116 38.283 98.1429C38.2593 98.1699 38.227 98.1877 38.1916 98.1934C38.1562 98.1991 38.1199 98.1924 38.0889 98.1743C38.0579 98.1562 38.0342 98.1279 38.0218 98.0942C36.9674 95.5358 35.2022 93.6448 32.7308 92.4116C32.7107 92.4021 32.6944 92.3866 32.684 92.3671C32.6736 92.3476 32.6698 92.3252 32.673 92.3029C32.6761 92.2807 32.6862 92.2596 32.7018 92.2427C32.7173 92.2257 32.7376 92.2138 32.7599 92.2085C34.3413 91.9086 35.8261 92.1553 37.2141 92.9436Z" fill="white"/>
<path d="M21.3714 99.2937C21.2795 99.6081 21.1828 99.6081 21.086 99.2986C20.2494 96.6725 18.6582 94.6364 16.3223 93.1806C16.1337 93.0646 16.1482 93.0017 16.3706 92.9969C20.7668 92.8953 22.6965 94.8782 21.3714 99.2937Z" fill="white"/>
<path d="M24.5128 95.398L24.4742 95.4012C24.2932 95.4164 24.1588 95.5754 24.174 95.7564L24.3059 97.3275C24.3211 97.5085 24.4802 97.6429 24.6612 97.6277L24.6997 97.6245C24.8807 97.6093 25.0151 97.4502 24.9999 97.2693L24.868 95.6982C24.8528 95.5172 24.6937 95.3828 24.5128 95.398Z" fill="black"/>
<path d="M69.8597 105.034C73.3902 104.71 74.4445 107.593 71.7217 109.614C69.318 111.399 64.5446 111.97 61.4977 112.419C61.3333 112.444 61.2607 112.376 61.2752 112.207L61.8943 106.509C61.9088 106.35 61.9959 106.253 62.1506 106.219C64.7187 105.663 67.2916 105.271 69.8597 105.034Z" fill="black"/>
<path d="M27.3435 108.091C33.5678 101.867 37.2386 111.414 40.9384 108.884C42.4134 107.873 42.0556 105.876 40.034 105.726C40.0014 105.724 39.9702 105.712 39.9451 105.691C39.9199 105.67 39.9021 105.642 39.894 105.61C39.8859 105.578 39.8881 105.545 39.9003 105.514C39.9124 105.484 39.9338 105.458 39.9614 105.441C42.4376 103.903 44.2512 107.371 43.8402 109.426C43.018 113.522 38.3703 114.809 34.7382 114.127C33.3067 113.861 31.4931 113.14 29.3022 111.97C26.9711 110.727 24.4417 114.388 22.778 115.563C20.2051 117.377 16.0507 118.117 13.2602 116.323C11.2048 114.997 10.1891 112.081 12.0028 110.113C12.6363 109.426 13.3763 109.218 14.2226 109.494C14.2509 109.504 14.2749 109.524 14.2908 109.55C14.3066 109.575 14.3134 109.606 14.3101 109.636C14.3068 109.666 14.2935 109.694 14.2724 109.715C14.2513 109.737 14.2235 109.751 14.1936 109.755C11.3644 109.963 13.1006 114.997 16.6069 112.405C18.2319 111.206 19.4071 108.875 20.858 107.956C22.8119 106.713 24.9205 107.264 26.9276 108.164C26.9961 108.195 27.0726 108.205 27.1468 108.192C27.2211 108.179 27.2897 108.144 27.3435 108.091Z" fill="black"/>
<path d="M24.4088 116.55C27.77 117.981 30.5848 118.567 33.3608 115.723C33.4527 115.631 33.5639 115.583 33.6945 115.583H34.0524C34.146 115.583 34.2376 115.609 34.3174 115.658C34.3972 115.707 34.462 115.777 34.5048 115.86C34.5477 115.944 34.5669 116.037 34.5605 116.13C34.5541 116.224 34.5222 116.314 34.4683 116.39C32.0308 119.863 27.1171 119.988 24.2782 116.729C24.0558 116.477 24.0993 116.419 24.4088 116.55Z" fill="black"/>
</g>
<defs>
<clipPath id="clip0_60_1807">
<rect width="172.656" height="138.318" fill="white" transform="translate(0.671875 0.841064)"/>
</clipPath>
</defs>
</svg>
