<svg width="243" height="106" viewBox="0 0 243 106" fill="none" xmlns="http://www.w3.org/2000/svg">
<g clip-path="url(#clip0_17_13050)">
<path d="M237.041 0.380859H238.789C238.781 0.402937 238.774 0.425015 238.767 0.443413L237.041 0.380859Z" fill="#00000E"/>
<path d="M238.789 0.380859H241.008L238.767 0.443413C238.774 0.425015 238.781 0.402937 238.789 0.380859Z" fill="#00000E"/>
<path d="M150.463 43.3958C150.461 43.4219 150.468 43.4477 150.483 43.4693C150.498 43.4909 150.519 43.5069 150.544 43.5149C150.569 43.5229 150.596 43.5224 150.62 43.5135C150.645 43.5046 150.666 43.4878 150.68 43.4657C154.087 38.3731 159.919 36.9454 165.726 38.1891C173.556 39.867 175.076 46.9393 175.094 53.7724C175.116 61.1427 175.12 68.502 175.101 75.8502C175.101 75.8864 175.093 75.9221 175.078 75.955C175.063 75.9879 175.042 76.0172 175.015 76.0412C174.988 76.0651 174.956 76.0831 174.921 76.0939C174.887 76.1048 174.85 76.1083 174.814 76.1041C168.96 75.394 166.05 71.5598 166.094 65.9299C166.123 61.7756 166.105 57.6213 166.039 53.467C165.991 50.3503 165.115 46.8988 161.586 46.093C154.621 44.4997 150.632 50.3871 150.555 56.6094C150.474 63.0377 150.441 69.4661 150.452 75.8944C150.452 76.0232 150.389 76.0894 150.26 76.0894H141.595C141.451 76.0894 141.381 76.0195 141.381 75.876L141.341 16.0156C141.341 15.8647 141.414 15.7801 141.565 15.7617C141.981 15.7065 142.367 15.7212 142.728 15.7985C146.36 16.5675 148.748 18.5361 149.892 21.6969C150.249 22.6868 150.441 24.0887 150.47 25.9028C150.562 31.7644 150.558 37.593 150.463 43.3958Z" fill="#00000E"/>
<path d="M85.9953 67.0847C93.9875 70.6907 102.303 63.1622 102.061 55.1884C101.936 51.0672 102.734 48.0573 105.674 45.0032C105.696 44.9799 105.722 44.9616 105.751 44.9494C105.781 44.9372 105.813 44.9314 105.845 44.9325C105.877 44.9335 105.908 44.9413 105.937 44.9554C105.966 44.9695 105.992 44.9895 106.013 45.0142C109.413 49.0581 111.146 54.2023 110.432 59.4568C109.262 68.0524 101.825 75.4669 93.1154 76.4715C84.6706 77.4502 76.741 71.9786 73.0945 64.5421C69.562 57.33 71.1516 49.3525 76.557 43.5828C83.7286 35.9292 94.6425 34.9982 102.76 41.7982C102.852 41.8755 102.852 41.9527 102.767 42.0374C100.99 43.7337 98.944 44.8633 96.6368 45.43C93.9912 46.0776 90.9665 45.2791 88.1847 46.4014C84.483 47.8954 81.8778 50.5005 80.3728 54.217C78.3306 59.2581 81.2486 64.9431 85.9953 67.0847Z" fill="#00000E"/>
<path d="M42.8257 44.3086C42.8253 44.3223 42.8294 44.3357 42.8373 44.3468C42.8452 44.358 42.8566 44.3663 42.8699 44.3707C42.8831 44.3752 42.8977 44.3754 42.9115 44.3716C42.9253 44.3677 42.9378 44.3598 42.9471 44.349C47.1272 38.9105 52.4369 36.8426 58.88 38.1488C65.8934 39.5692 68.6053 45.578 68.6089 52.172C68.6126 60.0942 68.5979 68.0128 68.5648 75.9351C68.5648 76.0639 68.4985 76.1228 68.3698 76.108C63.9947 75.6186 61.2313 73.5176 60.0722 69.8085C59.73 68.7083 59.5607 66.9936 59.5644 64.6643C59.5717 61.1429 59.5681 57.6215 59.557 54.1038C59.546 51.5685 59.3068 48.9081 57.2425 47.2008C54.7624 45.1438 50.3027 45.6295 47.8042 47.3995C45.3205 49.1583 44.04 51.7378 43.9627 55.1414C43.8854 58.3501 43.8891 65.2568 43.9664 75.8615C43.9664 75.922 43.9427 75.98 43.9006 76.0228C43.8585 76.0656 43.8014 76.0896 43.7419 76.0896H35.0212C34.9685 76.0896 34.9179 76.0687 34.8807 76.0314C34.8434 75.9942 34.8225 75.9436 34.8225 75.8909C34.8261 66.4379 34.8188 56.9886 34.8077 47.5503C34.8041 45.5228 34.977 44.0215 35.3266 43.0538C36.4194 40.0181 38.859 38.583 42.6527 38.7449C42.7668 38.7486 42.8257 38.8112 42.8257 38.9252V44.3086Z" fill="#00000E"/>
<path d="M114.089 42.5756C119.892 36.2356 130.534 37.5529 137.26 41.4202C137.292 41.4384 137.319 41.4628 137.341 41.4919C137.363 41.5211 137.379 41.5545 137.388 41.5899C137.396 41.6254 137.397 41.6622 137.391 41.6982C137.385 41.7342 137.372 41.7686 137.352 41.7992C135.788 44.2131 133.643 45.523 130.909 45.7254C128.212 45.9241 122.251 44.1726 120.897 47.5799C119.929 50.0159 122.277 51.6128 124.109 52.4481C127.756 54.115 131.373 55.2336 134.743 57.7799C140.977 62.4788 139.56 71.8067 132.815 75.1957C126.416 78.4117 116.54 76.8515 110.63 72.94C110.509 72.8628 110.487 72.7597 110.557 72.6346C112.606 68.9918 115.734 68.1344 119.605 68.9991C122.446 69.632 130.118 70.4673 129.757 65.3784C129.614 63.3362 127.675 62.3537 125.842 61.5442C121.401 59.5792 114.939 57.515 112.783 52.6468C111.425 49.5817 111.683 45.2066 114.089 42.5756Z" fill="#00000E"/>
<path d="M202.695 70.8599C201.51 72.1625 200.307 73.5424 198.813 74.3997C194.409 76.935 189.78 77.5127 184.93 76.1255C177.946 74.1274 175.999 65.701 179.701 59.9902C184.058 53.2712 194.151 52.8885 201.231 53.3338C201.356 53.3448 201.426 53.2859 201.44 53.1608C202.776 42.1219 187.929 46.1253 182.766 48.5981C182.409 48.771 182.163 48.6717 182.034 48.2927C181.706 47.3323 181.637 46.3167 181.817 45.2459C182.972 38.4165 190.74 38.1736 196.002 38.2141C202.71 38.2693 208.557 40.9186 210.231 47.8805C210.544 49.1831 210.717 51.6227 210.754 55.1993C210.824 62.3673 210.798 67.5445 210.676 70.7274C210.592 72.8947 209.661 74.4549 207.88 75.4043C206.537 76.1218 204.708 76.0703 203.137 76.1034C203.108 76.1039 203.079 76.0987 203.052 76.088C203.025 76.0774 203 76.0615 202.98 76.0413C202.959 76.0212 202.942 75.9971 202.93 75.9705C202.919 75.9439 202.913 75.9153 202.912 75.8863L202.879 70.9335C202.875 70.7532 202.817 70.7274 202.695 70.8599ZM201.348 59.2175C197.157 58.7576 187.936 58.592 187.049 64.3874C186.468 68.1811 188.724 69.9179 192.267 69.9474C198.239 69.9952 201.691 65.2595 201.698 59.6076C201.698 59.3721 201.58 59.2433 201.348 59.2175Z" fill="#00000E"/>
</g>
<defs>
<clipPath id="clip0_17_13050">
<rect width="241.753" height="105.238" fill="white" transform="translate(0.785828 0.380859)"/>
</clipPath>
</defs>
</svg>
