<svg width="218" height="130" viewBox="0 0 218 130" fill="none" xmlns="http://www.w3.org/2000/svg">
<path d="M76.9069 26.0123C79.0045 27.4542 78.8383 29.3631 78.7889 31.4967C78.7871 31.5683 78.7639 31.6378 78.7224 31.6962C78.6808 31.7545 78.6227 31.7991 78.5556 31.8242C78.4885 31.8494 78.4154 31.8538 78.3457 31.8371C78.276 31.8203 78.2129 31.7831 78.1646 31.7302L72.5994 25.6889C72.5656 25.6524 72.5423 25.6075 72.5317 25.5589C72.5212 25.5103 72.5238 25.4598 72.5394 25.4126C72.555 25.3654 72.5829 25.3232 72.6203 25.2904C72.6577 25.2577 72.7032 25.2355 72.7521 25.2263C74.3376 24.9343 75.7211 25.1993 76.9069 26.0123Z" fill="white"/>
<path d="M75.5324 31.9776C76.1792 32.5346 77.0057 33.0915 77.4684 33.8731C77.5001 33.9255 77.5139 33.9869 77.5078 34.0479C77.5017 34.1089 77.4759 34.1662 77.4344 34.2113C77.3928 34.2564 77.3378 34.2868 77.2775 34.2979C77.2172 34.309 77.1549 34.3002 77.1 34.2729L65.4666 28.6448C65.385 28.605 65.3139 28.5465 65.2593 28.474C65.2047 28.4016 65.168 28.3172 65.1522 28.2278C65.1364 28.1384 65.142 28.0466 65.1686 27.9598C65.1951 27.873 65.2418 27.7937 65.3049 27.7285L67.4249 25.568C67.529 25.4594 67.6716 25.396 67.8225 25.3909C67.9733 25.3859 68.1207 25.4397 68.2334 25.541C70.632 27.7105 73.0665 29.853 75.5324 31.9776Z" fill="white"/>
<path d="M80.7158 36.9321C79.8579 46.6476 67.3396 45.7942 65.7944 36.9366L66.1807 33.1546C66.2301 32.6919 66.4727 32.5347 66.9129 32.6919C70.9554 34.1248 75.1372 35.5396 79.4582 36.9455C79.8804 37.0848 80.2981 37.0803 80.7158 36.9321Z" fill="white"/>
<path d="M65.7945 36.9367C67.3396 45.7943 79.858 46.6478 80.7159 36.9322L207.346 36.9277C207.471 36.9277 207.591 36.9774 207.679 37.0659C207.768 37.1543 207.817 37.2743 207.817 37.3994L207.781 92.8808C207.781 92.9618 207.749 93.0394 207.692 93.0967C207.635 93.154 207.557 93.1862 207.476 93.1862H14.7284C14.6248 93.1862 14.5254 93.1445 14.4521 93.0704C14.3788 92.9963 14.3376 92.8957 14.3376 92.7909V37.606C14.3376 37.1613 14.5622 36.9367 15.0069 36.9367H65.7945ZM36.9937 75.9605C36.841 79.7246 31.442 79.509 31.424 75.6686C31.3926 69.0793 31.3926 62.4855 31.4196 55.8917C31.4285 53.5739 31.6127 51.2832 34.4874 51.5123C37.9954 51.7952 36.9937 56.534 37.0476 58.8607C37.0521 59.0628 37.151 59.1616 37.3531 59.1616H42.7521C42.832 59.1617 42.9089 59.1309 42.9666 59.0757C43.0244 59.0204 43.0585 58.945 43.062 58.8652C43.2866 53.4347 43.318 47.7347 36.8815 46.0099C29.3264 43.9887 25.0324 48.5567 25.0144 55.9051C24.9964 62.3687 25.0189 68.8367 25.0863 75.3048C25.0953 76.257 25.1941 77.1868 25.3827 78.0986C27.2468 87.0281 41.5304 86.8304 42.8464 77.5686C43.1474 75.435 43.1833 72.8433 42.9452 69.8024C42.9363 69.6722 42.8644 69.6048 42.7341 69.6048H37.2632C37.2255 69.6048 37.1882 69.6124 37.1535 69.6272C37.1188 69.642 37.0874 69.6638 37.0614 69.6911C37.0354 69.7184 37.0151 69.7507 37.002 69.786C36.9888 69.8214 36.9829 69.8591 36.9848 69.8968C37.0746 71.936 37.0791 73.9572 36.9937 75.9605ZM111.134 76.5804C110.509 79.208 106.314 79.3877 105.757 76.7825C105.577 75.9426 105.497 74.4199 105.519 72.2055C105.52 72.1764 105.514 72.1475 105.504 72.1205C105.493 72.0936 105.476 72.0691 105.456 72.0485C105.435 72.0279 105.411 72.0117 105.384 72.0009C105.357 71.9901 105.328 71.9848 105.299 71.9854L99.8729 72.0797C99.7157 72.0842 99.6349 72.1606 99.6214 72.3133C99.042 78.6735 100.74 84.2881 108.21 84.5127C114.273 84.6969 117.409 81.2203 117.593 75.3587C117.808 68.2663 113.146 65.0278 108.528 60.4238C106.642 58.5418 105.869 56.26 106.211 53.5829C106.368 52.3567 107.033 51.6785 108.214 51.5392C111.929 51.1035 111.444 54.342 111.484 56.7451C111.484 56.7963 111.504 56.8454 111.541 56.8817C111.577 56.9179 111.626 56.9382 111.677 56.9382L117.157 56.9203C117.261 56.9203 117.36 56.8795 117.435 56.8066C117.51 56.7337 117.553 56.6343 117.557 56.5295C117.606 54.9439 117.48 53.4437 117.17 52.0378C116.398 48.5567 114.273 46.3468 110.756 45.7584C98.494 43.7057 97.0791 57.4368 103.3 64.3136C106.269 67.597 112.337 71.4958 111.134 76.5804ZM190.497 45.8078C180.005 43.6383 176.721 54.5262 181.056 61.9105C183.935 66.811 191.593 69.9686 190.641 76.4501C190.196 79.4775 185.498 79.3248 185.269 76.3289C185.166 75.0263 185.116 73.6833 185.121 72.2998C185.121 72.2717 185.116 72.2438 185.106 72.2177C185.095 72.1915 185.079 72.1677 185.059 72.1477C185.039 72.1276 185.015 72.1116 184.989 72.1007C184.962 72.0898 184.934 72.0842 184.905 72.0842L179.376 72.0573C179.201 72.0573 179.106 72.1426 179.097 72.3178C178.814 77.1823 179.407 82.4196 184.905 84.0366C195.721 87.2167 199.903 76.3693 195.515 68.5223C192.604 63.3074 184.088 59.8354 185.938 53.0619C186.513 50.9598 189.729 51.0855 190.623 52.6891C191.176 53.6907 191.108 55.4694 191.086 56.7406C191.081 56.8664 191.144 56.9292 191.27 56.9292L196.835 56.9382C196.925 56.9427 196.974 56.8978 196.983 56.8035C197.437 51.7368 196.049 46.9577 190.497 45.8078ZM53.1998 62.0812C53.1426 62.0812 53.0877 62.0585 53.0473 62.0181C53.0069 61.9776 52.9842 61.9228 52.9842 61.8656L52.9572 46.239C52.9572 46.2107 52.9516 46.1827 52.9408 46.1565C52.93 46.1303 52.9141 46.1066 52.8941 46.0866C52.874 46.0665 52.8503 46.0507 52.8241 46.0398C52.798 46.029 52.7699 46.0234 52.7416 46.0234H46.7946C46.7374 46.0234 46.6826 46.0461 46.6422 46.0866C46.6017 46.127 46.579 46.1818 46.579 46.239L46.6733 84.0097C46.6733 84.0384 46.6791 84.0668 46.6902 84.0932C46.7013 84.1197 46.7176 84.1436 46.7381 84.1637C46.7586 84.1838 46.7829 84.1996 46.8095 84.2102C46.8362 84.2207 46.8647 84.2259 46.8934 84.2253L52.7147 84.1444C52.7711 84.1432 52.8248 84.12 52.8642 84.0797C52.9037 84.0394 52.9258 83.9852 52.9258 83.9288L53.0695 68.2303C53.0707 68.1739 53.0939 68.1203 53.1342 68.0808C53.1745 68.0413 53.2287 68.0192 53.2851 68.0192L59.039 68.1001C59.0954 68.1013 59.1491 68.1245 59.1885 68.1648C59.228 68.2051 59.2501 68.2593 59.2501 68.3157L59.2591 83.9872C59.2591 84.0155 59.2646 84.0435 59.2755 84.0697C59.2863 84.0959 59.3022 84.1196 59.3222 84.1396C59.3422 84.1597 59.366 84.1755 59.3922 84.1864C59.4183 84.1972 59.4464 84.2028 59.4747 84.2028H65.5519C65.6091 84.2028 65.6639 84.1801 65.7044 84.1396C65.7448 84.0992 65.7675 84.0444 65.7675 83.9872V46.239C65.7675 46.1818 65.7448 46.127 65.7044 46.0866C65.6639 46.0461 65.6091 46.0234 65.5519 46.0234H59.4702C59.413 46.0234 59.3582 46.0461 59.3177 46.0866C59.2773 46.127 59.2546 46.1818 59.2546 46.239V61.8656C59.2546 61.9228 59.2319 61.9776 59.1914 62.0181C59.151 62.0585 59.0962 62.0812 59.039 62.0812H53.1998ZM76.0939 46.1447C76.0939 46.1293 76.0909 46.1142 76.085 46.1C76.0792 46.0858 76.0706 46.073 76.0597 46.0621C76.0489 46.0513 76.036 46.0427 76.0218 46.0368C76.0077 46.0309 75.9925 46.0279 75.9771 46.0279H69.8056C69.7746 46.0279 69.7449 46.0402 69.723 46.0621C69.7011 46.084 69.6888 46.1137 69.6888 46.1447V84.0815C69.6888 84.1125 69.7011 84.1422 69.723 84.1641C69.7449 84.186 69.7746 84.1983 69.8056 84.1983H75.9771C75.9925 84.1983 76.0077 84.1953 76.0218 84.1894C76.036 84.1836 76.0489 84.1749 76.0597 84.1641C76.0706 84.1533 76.0792 84.1404 76.085 84.1262C76.0909 84.112 76.0939 84.0969 76.0939 84.0815V46.1447ZM97.9775 59.8399C97.9909 53.1742 98.1796 46.1582 89.2276 46.0459C86.2541 46.0054 83.2582 46.0054 80.2442 46.0369C80.105 46.0414 80.0331 46.1132 80.0331 46.2525L80.0242 83.9198C80.0242 83.9949 80.054 84.0668 80.107 84.1199C80.1601 84.173 80.2321 84.2028 80.3071 84.2028H86.1463C86.335 84.2028 86.4293 84.1085 86.4293 83.9198V70.2651C86.4293 70.188 86.4593 70.1139 86.5129 70.0586C86.5666 70.0032 86.6397 69.971 86.7168 69.9686C87.8981 69.9282 89.0704 69.8878 90.2293 69.8384C96.3065 69.5823 97.9685 65.1086 97.9775 59.8399ZM130.56 52.0378C130.56 51.9913 130.579 51.9468 130.611 51.9139C130.644 51.8811 130.689 51.8626 130.735 51.8626H136.561C136.608 51.8626 136.652 51.8442 136.685 51.8113C136.718 51.7785 136.736 51.7339 136.736 51.6874V46.1986C136.736 46.1521 136.718 46.1076 136.685 46.0747C136.652 46.0419 136.608 46.0234 136.561 46.0234H118.181C118.135 46.0234 118.091 46.0412 118.059 46.0731C118.026 46.105 118.007 46.1484 118.006 46.1941L117.921 51.6829C117.92 51.7063 117.924 51.7296 117.933 51.7514C117.941 51.7731 117.954 51.793 117.97 51.8097C117.987 51.8265 118.006 51.8398 118.028 51.8489C118.049 51.8579 118.072 51.8626 118.096 51.8626H123.984C124.031 51.8626 124.075 51.8811 124.108 51.9139C124.141 51.9468 124.16 51.9913 124.16 52.0378V84.0276C124.16 84.0741 124.178 84.1186 124.211 84.1515C124.244 84.1843 124.288 84.2028 124.335 84.2028H130.385C130.431 84.2028 130.476 84.1843 130.509 84.1515C130.542 84.1186 130.56 84.0741 130.56 84.0276V52.0378ZM145.374 78.3052C145.313 78.3052 145.255 78.2811 145.212 78.2381C145.169 78.1952 145.145 78.1369 145.145 78.0761L145.167 67.9204C145.167 67.8597 145.191 67.8014 145.234 67.7584C145.277 67.7155 145.335 67.6913 145.396 67.6913L153.014 67.7093C153.075 67.7093 153.133 67.6852 153.176 67.6422C153.219 67.5993 153.243 67.541 153.243 67.4802V62.2115C153.243 62.1515 153.22 62.0939 153.178 62.0511C153.136 62.0082 153.079 61.9836 153.019 61.9824L145.414 61.8656C145.353 61.8656 145.295 61.8415 145.252 61.7985C145.209 61.7556 145.185 61.6973 145.185 61.6365L145.068 52.0962C145.068 52.0657 145.073 52.0355 145.084 52.0071C145.096 51.9788 145.113 51.953 145.134 51.9313C145.155 51.9095 145.181 51.8923 145.209 51.8805C145.237 51.8687 145.267 51.8626 145.297 51.8626H155.148C155.208 51.8626 155.267 51.8385 155.31 51.7955C155.353 51.7526 155.377 51.6943 155.377 51.6335L155.372 46.2525C155.372 46.1917 155.348 46.1335 155.305 46.0905C155.262 46.0475 155.204 46.0234 155.143 46.0234H138.987C138.926 46.0234 138.868 46.0475 138.825 46.0905C138.782 46.1335 138.758 46.1917 138.758 46.2525V83.9108C138.758 83.9716 138.782 84.0299 138.825 84.0728C138.868 84.1158 138.926 84.1399 138.987 84.1399L155.148 84.2073C155.208 84.2073 155.267 84.1832 155.31 84.1402C155.353 84.0972 155.377 84.039 155.377 83.9782V78.6196C155.377 78.5589 155.353 78.5006 155.31 78.4576C155.267 78.4147 155.208 78.3905 155.148 78.3905L145.374 78.3052ZM173.658 65.3152C175.203 64.2597 176.146 62.9571 176.492 61.3985C177.197 58.2184 177.256 52.752 175.89 49.9806C174.637 47.4428 172.261 46.1537 168.753 46.1088C163.848 46.0414 160.628 46.0099 159.091 46.0099C158.934 46.0144 158.858 46.0908 158.858 46.248V83.9782C158.858 84.1264 158.934 84.2028 159.082 84.2028H164.922C165.07 84.2028 165.146 84.1264 165.146 83.9782V69.1736C165.146 69.0703 165.196 69.0074 165.294 68.9849C169.8 67.8755 170.604 70.5975 170.523 74.2851C170.451 77.4653 170.59 80.6229 170.945 83.7536C170.957 83.8613 171.008 83.9608 171.088 84.0336C171.168 84.1064 171.272 84.1474 171.381 84.1489L177.373 84.2253C177.557 84.2297 177.624 84.1399 177.584 83.9602C176.753 80.6274 177.009 78.0896 176.923 74.9724C176.802 70.584 176.991 67.9249 173.658 65.5982C173.519 65.5039 173.519 65.4096 173.658 65.3152ZM179.825 46.23L176.937 45.7943C176.908 45.7905 176.878 45.7982 176.855 45.8158C176.831 45.8335 176.816 45.8596 176.811 45.8887L176.802 45.9471C176.641 47.013 176.612 48.0543 176.721 48.8425C176.831 49.6308 177.07 50.1014 177.386 50.1513L178.109 50.2591C178.426 50.3049 178.794 49.9258 179.131 49.2049C179.469 48.484 179.749 47.4803 179.91 46.4142L179.919 46.3558C179.923 46.3267 179.916 46.2972 179.898 46.2737C179.88 46.2501 179.854 46.2345 179.825 46.23Z" fill="#00000E"/>
<path d="M31.424 75.6677C31.442 79.5081 36.841 79.7237 36.9937 75.9597C37.079 73.9564 37.0746 71.9351 36.9847 69.8959C36.9829 69.8582 36.9887 69.8205 37.0019 69.7852C37.0151 69.7498 37.0353 69.7175 37.0614 69.6902C37.0874 69.6629 37.1187 69.6412 37.1534 69.6263C37.1881 69.6115 37.2255 69.6039 37.2632 69.6039H42.7341C42.8643 69.6039 42.9362 69.6713 42.9452 69.8016C43.1833 72.8424 43.1473 75.4341 42.8464 77.5677C41.5303 86.8296 27.2467 87.0272 25.3827 78.0977C25.194 77.1859 25.0952 76.2561 25.0862 75.3039C25.0189 68.8358 24.9964 62.3678 25.0144 55.9043C25.0323 48.5558 29.3264 43.9878 36.8814 46.0091C43.318 47.7339 43.2866 53.4338 43.062 58.8643C43.0585 58.9441 43.0243 59.0195 42.9666 59.0748C42.9088 59.13 42.832 59.1608 42.7521 59.1607H37.353C37.1509 59.1607 37.0521 59.0619 37.0476 58.8598C36.9937 56.5331 37.9954 51.7944 34.4873 51.5114C31.6127 51.2823 31.4285 53.5731 31.4195 55.8908C31.3926 62.4846 31.3926 69.0784 31.424 75.6677Z" fill="white"/>
<path d="M105.757 76.7818C106.314 79.387 110.509 79.2073 111.134 76.5797C112.337 71.4951 106.269 67.5963 103.3 64.3129C97.0791 57.4361 98.4939 43.705 110.756 45.7577C114.273 46.3461 116.398 48.556 117.17 52.0371C117.48 53.443 117.606 54.9432 117.557 56.5288C117.553 56.6336 117.51 56.733 117.435 56.8059C117.36 56.8788 117.261 56.9196 117.157 56.9196L111.677 56.9375C111.626 56.9375 111.577 56.9172 111.54 56.881C111.504 56.8447 111.484 56.7956 111.484 56.7444C111.443 54.3413 111.929 51.1028 108.214 51.5385C107.033 51.6778 106.368 52.356 106.211 53.5822C105.869 56.2593 106.642 58.5411 108.528 60.4231C113.146 65.0271 117.808 68.2656 117.593 75.358C117.408 81.2196 114.273 84.6962 108.209 84.512C100.74 84.2874 99.0419 78.6728 99.6214 72.3126C99.6348 72.1599 99.7157 72.0835 99.8729 72.079L105.299 71.9847C105.328 71.9841 105.357 71.9894 105.384 72.0002C105.411 72.011 105.435 72.0272 105.456 72.0478C105.476 72.0684 105.493 72.0929 105.503 72.1198C105.514 72.1468 105.52 72.1757 105.519 72.2048C105.496 74.4192 105.577 75.9419 105.757 76.7818Z" fill="white"/>
<path d="M181.056 61.9107C176.721 54.5264 180.005 43.6385 190.497 45.808C196.049 46.9579 197.437 51.7371 196.983 56.8037C196.974 56.898 196.925 56.9429 196.835 56.9384L191.27 56.9295C191.144 56.9295 191.081 56.8666 191.086 56.7408C191.108 55.4697 191.176 53.6909 190.623 52.6893C189.729 51.0858 186.513 50.96 185.938 53.0621C184.088 59.8356 192.604 63.3077 195.514 68.5225C199.903 76.3695 195.721 87.2169 184.905 84.0368C179.407 82.4198 178.814 77.1825 179.097 72.318C179.106 72.1428 179.201 72.0575 179.376 72.0575L184.905 72.0844C184.934 72.0844 184.962 72.09 184.989 72.1009C185.015 72.1118 185.039 72.1278 185.059 72.1479C185.079 72.168 185.095 72.1918 185.106 72.2179C185.116 72.244 185.121 72.2719 185.121 72.3C185.116 73.6835 185.166 75.0265 185.269 76.3291C185.498 79.325 190.196 79.4778 190.641 76.4504C191.593 69.9688 183.935 66.8112 181.056 61.9107Z" fill="white"/>
<path d="M53.1997 62.0812H59.0389C59.0961 62.0812 59.151 62.0585 59.1914 62.0181C59.2318 61.9777 59.2545 61.9228 59.2545 61.8656V46.239C59.2545 46.1819 59.2773 46.127 59.3177 46.0866C59.3581 46.0462 59.413 46.0234 59.4701 46.0234H65.5519C65.6091 46.0234 65.6639 46.0462 65.7043 46.0866C65.7448 46.127 65.7675 46.1819 65.7675 46.239V83.9872C65.7675 84.0444 65.7448 84.0992 65.7043 84.1397C65.6639 84.1801 65.6091 84.2028 65.5519 84.2028H59.4746C59.4463 84.2028 59.4183 84.1972 59.3921 84.1864C59.366 84.1756 59.3422 84.1597 59.3222 84.1397C59.3022 84.1197 59.2863 84.0959 59.2754 84.0697C59.2646 84.0436 59.259 84.0155 59.259 83.9872L59.25 68.3157C59.2501 68.2593 59.228 68.2051 59.1885 68.1648C59.149 68.1245 59.0953 68.1013 59.0389 68.1001L53.2851 68.0193C53.2287 68.0192 53.1745 68.0413 53.1342 68.0808C53.0939 68.1203 53.0707 68.174 53.0695 68.2304L52.9257 83.9288C52.9258 83.9852 52.9037 84.0394 52.8642 84.0797C52.8247 84.12 52.771 84.1433 52.7146 84.1444L46.8934 84.2253C46.8647 84.2259 46.8362 84.2207 46.8095 84.2102C46.7828 84.1996 46.7585 84.1838 46.738 84.1637C46.7175 84.1437 46.7013 84.1197 46.6901 84.0932C46.679 84.0668 46.6733 84.0384 46.6733 84.0097L46.579 46.239C46.579 46.1819 46.6017 46.127 46.6421 46.0866C46.6826 46.0462 46.7374 46.0234 46.7946 46.0234H52.7416C52.7699 46.0234 52.7979 46.029 52.8241 46.0398C52.8502 46.0507 52.874 46.0666 52.894 46.0866C52.9141 46.1066 52.9299 46.1304 52.9408 46.1565C52.9516 46.1827 52.9572 46.2107 52.9572 46.239L52.9841 61.8656C52.9841 61.9228 53.0068 61.9777 53.0473 62.0181C53.0877 62.0585 53.1426 62.0812 53.1997 62.0812Z" fill="white"/>
<path d="M75.977 46.0273H69.8054C69.7409 46.0273 69.6886 46.0796 69.6886 46.1441V84.081C69.6886 84.1455 69.7409 84.1977 69.8054 84.1977H75.977C76.0415 84.1977 76.0938 84.1455 76.0938 84.081V46.1441C76.0938 46.0796 76.0415 46.0273 75.977 46.0273Z" fill="white"/>
<path d="M89.2275 46.0452C98.1795 46.1575 97.9908 53.1735 97.9773 59.8392C97.9684 65.108 96.3064 69.5817 90.2292 69.8377C89.0703 69.8871 87.898 69.9275 86.7167 69.968C86.6396 69.9703 86.5665 70.0026 86.5128 70.0579C86.4592 70.1133 86.4292 70.1873 86.4292 70.2644V83.9192C86.4292 84.1078 86.3349 84.2021 86.1462 84.2021H80.307C80.232 84.2021 80.16 84.1723 80.1069 84.1193C80.0539 84.0662 80.024 83.9942 80.024 83.9192L80.033 46.2518C80.033 46.1126 80.1049 46.0407 80.2441 46.0362C83.2581 46.0048 86.254 46.0048 89.2275 46.0452ZM86.4022 52.1584L86.4472 63.8638C86.4472 63.934 86.4751 64.0015 86.5248 64.0512C86.5745 64.1009 86.6419 64.1288 86.7122 64.1288L89.0793 64.1198C89.4144 64.1186 89.7459 64.0493 90.055 63.9157C90.3641 63.7822 90.6447 63.587 90.8808 63.3413C91.1169 63.0956 91.3038 62.8043 91.4309 62.4839C91.558 62.1636 91.6228 61.8205 91.6216 61.4742L91.5946 54.5121C91.5922 53.8128 91.3211 53.1432 90.8409 52.6504C90.3608 52.1576 89.711 51.8821 89.0344 51.8844L86.6673 51.8934C86.597 51.8934 86.5296 51.9213 86.4799 51.971C86.4302 52.0207 86.4022 52.0881 86.4022 52.1584Z" fill="white"/>
<path d="M130.56 52.0378V84.0276C130.56 84.0741 130.542 84.1187 130.509 84.1515C130.476 84.1844 130.431 84.2028 130.385 84.2028H124.335C124.288 84.2028 124.244 84.1844 124.211 84.1515C124.178 84.1187 124.159 84.0741 124.159 84.0276V52.0378C124.159 51.9914 124.141 51.9468 124.108 51.9139C124.075 51.8811 124.031 51.8626 123.984 51.8626H118.096C118.072 51.8626 118.049 51.858 118.028 51.8489C118.006 51.8398 117.986 51.8265 117.97 51.8098C117.954 51.793 117.941 51.7732 117.933 51.7514C117.924 51.7296 117.92 51.7063 117.92 51.683L118.006 46.1941C118.007 46.1484 118.026 46.105 118.059 46.0731C118.091 46.0413 118.135 46.0234 118.181 46.0234H136.561C136.607 46.0234 136.652 46.0419 136.685 46.0747C136.718 46.1076 136.736 46.1522 136.736 46.1986V51.6875C136.736 51.7339 136.718 51.7785 136.685 51.8113C136.652 51.8442 136.607 51.8626 136.561 51.8626H130.735C130.689 51.8626 130.644 51.8811 130.611 51.9139C130.579 51.9468 130.56 51.9914 130.56 52.0378Z" fill="white"/>
<path d="M145.374 78.3052L155.148 78.3906C155.209 78.3906 155.267 78.4147 155.31 78.4577C155.353 78.5006 155.377 78.5589 155.377 78.6197V83.9782C155.377 84.039 155.353 84.0973 155.31 84.1402C155.267 84.1832 155.209 84.2073 155.148 84.2073L138.987 84.1399C138.926 84.1399 138.868 84.1158 138.825 84.0728C138.782 84.0299 138.758 83.9716 138.758 83.9109V46.2525C138.758 46.1918 138.782 46.1335 138.825 46.0905C138.868 46.0476 138.926 46.0234 138.987 46.0234H155.143C155.204 46.0234 155.262 46.0476 155.305 46.0905C155.348 46.1335 155.372 46.1918 155.372 46.2525L155.377 51.6336C155.377 51.6943 155.353 51.7526 155.31 51.7955C155.267 51.8385 155.209 51.8626 155.148 51.8626H145.297C145.267 51.8626 145.237 51.8687 145.209 51.8805C145.181 51.8923 145.155 51.9096 145.134 51.9313C145.113 51.9531 145.096 51.9788 145.085 52.0072C145.073 52.0355 145.068 52.0657 145.068 52.0962L145.185 61.6366C145.185 61.6973 145.209 61.7556 145.252 61.7985C145.295 61.8415 145.354 61.8656 145.414 61.8656L153.019 61.9824C153.079 61.9836 153.136 62.0082 153.178 62.0511C153.22 62.0939 153.243 62.1515 153.243 62.2115V67.4803C153.243 67.541 153.219 67.5993 153.176 67.6422C153.133 67.6852 153.075 67.7093 153.014 67.7093L145.396 67.6914C145.336 67.6914 145.277 67.7155 145.234 67.7585C145.191 67.8014 145.167 67.8597 145.167 67.9204L145.145 78.0762C145.145 78.1369 145.169 78.1952 145.212 78.2381C145.255 78.2811 145.313 78.3052 145.374 78.3052Z" fill="white"/>
<path d="M173.658 65.598C176.991 67.9247 176.802 70.5838 176.923 74.9722C177.009 78.0894 176.753 80.6272 177.584 83.9601C177.624 84.1397 177.557 84.2296 177.373 84.2251L171.381 84.1487C171.272 84.1472 171.168 84.1062 171.088 84.0334C171.008 83.9607 170.957 83.8611 170.945 83.7535C170.59 80.6227 170.451 77.4651 170.523 74.285C170.604 70.5973 169.8 67.8753 165.294 68.9848C165.196 69.0072 165.146 69.0701 165.146 69.1734V83.978C165.146 84.1263 165.07 84.2026 164.922 84.2026H159.082C158.934 84.2026 158.858 84.1263 158.858 83.978V46.2478C158.858 46.0906 158.934 46.0143 159.091 46.0098C160.628 46.0098 163.848 46.0412 168.753 46.1086C172.261 46.1535 174.637 47.4426 175.89 49.9804C177.256 52.7518 177.197 58.2182 176.492 61.3983C176.146 62.9569 175.203 64.2595 173.658 65.3151C173.519 65.4094 173.519 65.5037 173.658 65.598ZM165.245 52.0241L165.209 62.7683C165.209 62.8171 165.229 62.864 165.263 62.8985C165.298 62.933 165.344 62.9524 165.393 62.9524L167.549 62.9614C168.334 62.9636 169.088 62.6393 169.645 62.0598C170.202 61.4803 170.516 60.693 170.518 59.8711L170.536 54.9572C170.538 54.5502 170.462 54.1469 170.315 53.7704C170.167 53.3939 169.95 53.0515 169.676 52.7629C169.402 52.4742 169.076 52.245 168.717 52.0882C168.359 51.9313 167.974 51.8501 167.585 51.849L165.429 51.84C165.38 51.84 165.334 51.8594 165.299 51.8939C165.264 51.9285 165.245 51.9753 165.245 52.0241Z" fill="white"/>
<path d="M179.825 46.2296C179.854 46.2341 179.88 46.2497 179.898 46.2733C179.915 46.2968 179.923 46.3263 179.919 46.3554L179.91 46.4138C179.749 47.4799 179.469 48.4836 179.131 49.2045C178.794 49.9254 178.426 50.3045 178.109 50.2587L177.386 50.1509C177.07 50.1011 176.831 49.6304 176.721 48.8421C176.612 48.0539 176.641 47.0126 176.802 45.9467L176.811 45.8883C176.815 45.8592 176.831 45.8331 176.855 45.8154C176.878 45.7978 176.908 45.7901 176.937 45.7939L179.825 46.2296Z" fill="white"/>
<path d="M86.4022 52.1588C86.4022 52.0885 86.4301 52.0211 86.4798 51.9714C86.5295 51.9217 86.5969 51.8938 86.6672 51.8938L89.0344 51.8848C89.7109 51.8825 90.3608 52.158 90.8409 52.6508C91.321 53.1435 91.5922 53.8132 91.5946 54.5124L91.6216 61.4745C91.6228 61.8208 91.558 62.1639 91.4309 62.4843C91.3038 62.8047 91.1169 63.096 90.8808 63.3417C90.6447 63.5873 90.3641 63.7825 90.055 63.9161C89.7459 64.0497 89.4143 64.119 89.0793 64.1201L86.7121 64.1291C86.6419 64.1291 86.5745 64.1012 86.5248 64.0515C86.4751 64.0018 86.4471 63.9344 86.4471 63.8641L86.4022 52.1588Z" fill="#00000E"/>
<path d="M165.245 52.024C165.245 51.9752 165.264 51.9283 165.299 51.8938C165.334 51.8592 165.38 51.8398 165.429 51.8398L167.585 51.8488C167.974 51.8499 168.359 51.9312 168.717 52.088C169.076 52.2448 169.402 52.4741 169.676 52.7627C169.95 53.0514 170.167 53.3937 170.315 53.7702C170.462 54.1467 170.538 54.55 170.536 54.9571L170.518 59.871C170.516 60.6929 170.202 61.4802 169.645 62.0597C169.088 62.6392 168.334 62.9635 167.549 62.9613L165.393 62.9523C165.344 62.9523 165.298 62.9329 165.263 62.8984C165.229 62.8638 165.209 62.817 165.209 62.7681L165.245 52.024Z" fill="#00000E"/>
</svg>
