<svg width="221" height="68" viewBox="0 0 221 68" fill="none" xmlns="http://www.w3.org/2000/svg">
<path d="M174.931 21.5067C174.93 21.5518 174.943 21.5958 174.969 21.6323C174.996 21.6688 175.033 21.6958 175.076 21.7093C175.119 21.7228 175.166 21.7221 175.209 21.7073C175.253 21.6925 175.29 21.6643 175.316 21.627C182.192 11.4592 195.399 10.1681 206.501 10.7896C209.107 10.9339 213.658 10.4608 215.222 13.1151C215.871 14.2136 214.167 17.8341 213.734 19.065C213.021 21.0817 212.119 20.5645 210.459 20.5645C205.884 20.5605 201.317 20.5565 196.75 20.5525C192.304 20.5445 188.331 22.5692 187.044 27.0357C184.67 35.259 182.293 43.4823 179.907 51.7056C179.161 54.2756 179.093 58.5376 175.533 58.5496C172.069 58.5616 167.807 58.9666 164.443 58.289C164.386 58.2774 164.334 58.2485 164.294 58.2063C164.254 58.164 164.227 58.1104 164.218 58.0525C164.102 57.2786 164.086 56.7454 164.174 56.4527C166.868 47.4356 169.466 38.4465 171.972 29.4774C171.986 29.4295 171.982 29.3786 171.961 29.3336C171.941 29.2886 171.905 29.2523 171.86 29.2309C171.814 29.2095 171.763 29.2044 171.714 29.2165C171.665 29.2285 171.622 29.257 171.591 29.297C167.742 34.7057 158.962 37.3158 152.743 38.1377C144.56 39.2163 136.377 40.2788 128.19 41.3252C127.664 41.3934 127.243 41.5016 126.919 41.654C126.778 41.7222 126.71 41.8344 126.718 41.9908C127.015 47.1549 130.222 48.49 135.01 49.0112C143.345 49.9134 152.182 49.0513 160.566 48.6905C161.255 48.6624 161.913 48.6785 162.534 48.7466C162.578 48.7514 162.621 48.7657 162.658 48.7885C162.696 48.8113 162.729 48.8421 162.754 48.8787C162.778 48.9154 162.795 48.9569 162.802 49.0006C162.809 49.0442 162.807 49.0889 162.795 49.1315C162.185 51.2846 161.544 53.3975 160.874 55.4624C160.125 57.7678 155.45 58.1046 153.02 58.2569C147.154 58.6178 141.28 58.722 135.403 58.5697C128.154 58.3852 120.367 57.0421 115.556 50.9598C115.087 50.3664 114.822 50.4466 114.77 51.2044C114.562 54.0551 113.956 56.8897 110.669 57.5393C108.776 57.9121 106.872 58.1767 104.959 58.3251C94.2901 59.1671 73.746 60.5824 71.0075 46.3691C70.8231 45.4188 70.6707 44.4686 70.5545 43.5184C70.5506 43.4897 70.5371 43.4632 70.5163 43.4432C70.4955 43.4232 70.4685 43.4107 70.4397 43.408C70.4109 43.4052 70.3821 43.4122 70.3578 43.4279C70.3335 43.4435 70.3152 43.4669 70.3059 43.4943C69.8047 45.0139 69.5682 46.5976 69.0429 48.037C68.5297 49.4523 68.0566 50.8836 67.6236 52.323C66.4649 56.172 63.6623 56.7735 60.1541 57.2145C49.4249 58.5737 36.1257 59.6362 24.5305 57.1423C18.7409 55.8994 13.8976 52.4072 15.1365 45.8799C17.1452 35.3231 29.7468 32.3321 38.6597 31.0732C45.8405 30.0588 53.0093 28.9803 60.1661 27.8376C61.421 27.6371 62.5116 26.9716 62.8243 25.7808C64.5323 19.2615 55.3067 19.2815 51.5058 19.2855C44.5415 19.2976 39.237 19.5341 35.5925 20.0032C33.0305 20.332 30.5286 20.5204 28.0909 20.5685C28.0239 20.5699 27.9575 20.5558 27.8968 20.5273C27.8362 20.4989 27.7828 20.4569 27.741 20.4046C27.6991 20.3523 27.6699 20.2911 27.6554 20.2256C27.641 20.1602 27.6419 20.0923 27.6579 20.0273C28.0027 18.5959 28.4156 17.1806 28.8927 15.7773C30.3762 11.4071 34.7826 11.3269 39.0045 11.0943C47.8211 10.6092 57.7765 9.9757 66.3687 12.0045C72.5752 13.4679 77.3705 17.7499 76.0955 24.6501C76.085 24.7038 76.0935 24.7594 76.1194 24.8075C76.1454 24.8556 76.1872 24.8933 76.2377 24.9141C76.2883 24.9348 76.3444 24.9375 76.3967 24.9215C76.449 24.9056 76.4941 24.872 76.5245 24.8265C84.9482 12.3212 100.288 9.69504 114.473 10.9339C117.172 11.1705 120.275 11.0422 121.197 14.3419C121.706 16.1622 121.927 18.0226 121.859 19.927C121.855 20.0553 121.795 20.1476 121.674 20.1997C121.085 20.4603 120.684 20.5846 120.468 20.5685C113.451 20.0273 107.541 19.5221 101.816 20.4362C90.3689 22.2685 85.4574 30.0107 84.3067 41.0045C83.8015 45.8238 86.7885 47.9889 91.1027 48.7266C98.5321 50.0016 106.33 49.1035 113.884 48.5021C113.948 48.4971 114.01 48.4777 114.066 48.4454C114.122 48.4131 114.17 48.3686 114.206 48.3152C114.243 48.2618 114.267 48.2009 114.277 48.1368C114.287 48.0727 114.283 48.0071 114.265 47.9447C112.128 40.6396 115.372 31.005 119.593 24.7022C129.228 10.3285 149.816 8.89316 165.277 12.0325C170.156 13.0228 175.052 15.8374 174.931 21.5067ZM144.496 19.3898C134.617 20.1315 131.942 24.9067 128.807 33.3144C128.787 33.3683 128.782 33.4264 128.791 33.4831C128.8 33.5398 128.824 33.5931 128.86 33.6379C128.896 33.6827 128.942 33.7174 128.996 33.7387C129.049 33.76 129.107 33.7672 129.164 33.7595C136.124 32.8574 143.089 31.863 150.053 30.7765C153.537 30.2352 156.464 29.2329 158.83 27.7734C160.646 26.6548 161.42 25.027 161.155 22.894C160.574 18.191 147.635 19.1532 144.496 19.3898ZM28.9529 43.7629C27.2689 48.4499 33.4234 49.7009 36.675 49.9094C42.1879 50.2582 47.7009 50.2101 53.2138 49.765C53.8433 49.7129 54.4727 49.6087 55.1022 49.4523C55.2466 49.4162 55.3428 49.324 55.3869 49.1837L59.5968 35.9927C59.6044 35.9689 59.6059 35.9436 59.6011 35.9191C59.5964 35.8945 59.5855 35.8716 59.5695 35.8524C59.5535 35.8332 59.5329 35.8184 59.5096 35.8092C59.4864 35.8001 59.4612 35.797 59.4364 35.8003C51.7303 36.8347 44.0282 37.8731 36.3262 38.9196C33.1307 39.3526 30.0475 40.7118 28.9529 43.7629Z" fill="black"/>
</svg>
