<svg width="212" height="93" viewBox="0 0 212 93" fill="none" xmlns="http://www.w3.org/2000/svg">
<g clip-path="url(#clip0_17_13533)">
<path d="M26.5752 32.3816C27.6012 27.1582 18.747 25.9729 15.4677 25.2983C10.9798 24.3708 5.89683 21.9769 3.72311 17.8262C-0.0106111 10.6914 4.7397 3.65024 11.8417 1.61238C19.0703 -0.467637 26.9219 1.25166 33.0729 5.42575C33.532 5.73494 33.9208 6.10972 34.2441 6.54539C34.2948 6.61253 34.3215 6.69478 34.3198 6.77891C34.3181 6.86304 34.2881 6.94415 34.2347 7.00918L29.8873 12.3779C29.8627 12.4088 29.8322 12.4346 29.7975 12.4535C29.7629 12.4725 29.7247 12.4842 29.6854 12.4882C29.6461 12.4921 29.6064 12.4881 29.5686 12.4764C29.5309 12.4647 29.4959 12.4455 29.4657 12.42C25.2119 8.84091 20.0072 6.81242 14.4464 8.33496C10.5909 9.38902 8.97469 14.055 12.6381 16.4911C14.3293 17.6154 16.4187 18.2431 18.6908 18.6367C27.5777 20.1826 36.6755 23.3354 34.3987 34.6256C32.8668 42.2243 23.3053 44.2059 16.8685 43.7796C11.5044 43.4189 6.39341 41.8401 1.53535 39.034C1.43775 38.9774 1.36613 38.8847 1.33555 38.7755C1.30496 38.6663 1.31781 38.549 1.37138 38.4484L4.84276 32.0303C4.85535 32.0072 4.87254 31.9869 4.89329 31.9707C4.91404 31.9545 4.93789 31.9428 4.96337 31.9362C4.98884 31.9296 5.0154 31.9283 5.0414 31.9324C5.06739 31.9365 5.09227 31.9459 5.11448 31.96C10.7455 35.5532 16.8825 37.8628 23.3193 35.8437C24.6264 35.4314 26.2941 33.8058 26.5752 32.3816Z" fill="#00000E"/>
<path d="M52.0085 17.6524H69.5013C69.5522 17.6524 69.6011 17.6322 69.6371 17.5961C69.6731 17.5601 69.6934 17.5113 69.6934 17.4603V1.66343C69.6934 1.55534 69.7368 1.45167 69.8141 1.37523C69.8914 1.2988 69.9963 1.25586 70.1056 1.25586H77.6621C77.8049 1.25586 77.942 1.31213 78.043 1.41228C78.144 1.51244 78.2008 1.64828 78.2008 1.78992C78.257 14.4293 78.257 27.0546 78.2055 39.6706C78.2008 40.7012 78.1633 41.7366 78.0977 42.7719C78.093 42.8518 78.0578 42.9269 77.9994 42.9818C77.9411 43.0367 77.864 43.0672 77.7839 43.067H70.2227C70.0823 43.067 69.9477 43.0112 69.8484 42.912C69.7491 42.8127 69.6934 42.678 69.6934 42.5376V25.9678C69.6934 25.8435 69.644 25.7244 69.5561 25.6365C69.4683 25.5487 69.3491 25.4993 69.2249 25.4993H52.0694C51.929 25.4993 51.7944 25.5546 51.6951 25.653C51.5958 25.7514 51.54 25.8848 51.54 26.024V42.6548C51.54 42.7641 51.4966 42.869 51.4193 42.9463C51.342 43.0236 51.2371 43.067 51.1278 43.067H43.5198C43.4105 43.067 43.3056 43.0241 43.2283 42.9476C43.151 42.8712 43.1075 42.7675 43.1075 42.6594V2.11785C43.1075 2.03585 43.1401 1.9572 43.1981 1.89922C43.2561 1.84123 43.3347 1.80866 43.4167 1.80866L50.9638 1.8555C51.1171 1.85674 51.2636 1.91849 51.3716 2.02729C51.4795 2.1361 51.5401 2.28315 51.54 2.43641V17.1839C51.54 17.3082 51.5894 17.4273 51.6773 17.5152C51.7651 17.603 51.8843 17.6524 52.0085 17.6524Z" fill="#00000E"/>
<path d="M183.359 18.0166C183.354 18.7755 183.621 18.888 184.16 18.3492C189.58 12.9056 194.949 7.71021 200.266 2.76314C201.456 1.65755 201.681 1.83088 203.461 1.84494C205.995 1.85899 208.455 1.8543 210.835 1.8262C210.927 1.82525 211.018 1.8521 211.096 1.90329C211.173 1.95448 211.233 2.02765 211.268 2.11337C211.304 2.19909 211.312 2.29342 211.294 2.38419C211.275 2.47496 211.229 2.558 211.163 2.6226L192.358 20.9492C192.257 21.0479 192.197 21.1821 192.192 21.3242C192.187 21.4662 192.236 21.6054 192.33 21.7128L210.544 42.5271C210.793 42.8128 210.727 42.9534 210.352 42.9534L200.528 42.944C200.364 42.944 200.224 42.8831 200.116 42.7613L183.631 24.5846C183.611 24.564 183.587 24.5496 183.559 24.5432C183.532 24.5369 183.503 24.5389 183.477 24.5489C183.451 24.559 183.428 24.5767 183.412 24.5998C183.396 24.6229 183.387 24.6502 183.387 24.6783L183.429 42.4146C183.429 42.5563 183.373 42.6921 183.273 42.7923C183.173 42.8924 183.037 42.9487 182.895 42.9487H175.568C175.175 42.9487 174.978 42.7519 174.978 42.3631L174.983 2.1307C174.983 1.93863 175.081 1.84025 175.278 1.84025H182.961C183.024 1.84025 183.086 1.85276 183.145 1.87707C183.203 1.90137 183.256 1.93699 183.3 1.98186C183.345 2.02673 183.38 2.07996 183.403 2.13848C183.427 2.19699 183.439 2.25963 183.438 2.32278L183.359 18.0166Z" fill="#00000E"/>
<path d="M115.215 34.0399L96.6867 34.054C96.5087 34.054 96.3869 34.1383 96.3213 34.3023L93.2997 42.1445C93.2435 42.2897 93.1451 42.3881 93.0045 42.4443C92.6766 42.5802 92.3206 42.6364 91.9411 42.613C89.5753 42.4677 87.1346 42.4349 84.6189 42.5193C84.5674 42.5208 84.5163 42.5094 84.4704 42.4861C84.4244 42.4629 84.385 42.4285 84.3556 42.3862C84.3263 42.3438 84.308 42.2948 84.3025 42.2436C84.2969 42.1924 84.3042 42.1406 84.3238 42.0929L100.847 2.13225C100.883 2.04633 100.943 1.97293 101.021 1.92126C101.098 1.86959 101.189 1.84195 101.282 1.8418H110.722C111.214 1.8418 111.551 2.06666 111.739 2.52108L128.079 42.1211C128.095 42.1611 128.102 42.2044 128.097 42.2474C128.093 42.2903 128.079 42.3314 128.055 42.3671C128.031 42.4028 127.999 42.4319 127.962 42.4519C127.924 42.4719 127.883 42.4822 127.84 42.4818H119.342C119.19 42.482 119.042 42.4365 118.917 42.3512C118.792 42.266 118.695 42.145 118.639 42.0039L115.566 34.2741C115.537 34.2046 115.488 34.1453 115.425 34.1036C115.363 34.0619 115.29 34.0398 115.215 34.0399ZM99.3196 26.1743C99.3011 26.219 99.294 26.2676 99.2987 26.3157C99.3035 26.3639 99.32 26.4101 99.3469 26.4504C99.3737 26.4907 99.41 26.5237 99.4527 26.5466C99.4953 26.5695 99.5429 26.5816 99.5913 26.5818H112.484C112.532 26.5816 112.58 26.5695 112.622 26.5466C112.665 26.5237 112.701 26.4907 112.728 26.4504C112.755 26.4101 112.771 26.3639 112.776 26.3157C112.781 26.2676 112.774 26.219 112.755 26.1743L106.314 9.88078C106.293 9.82449 106.255 9.77598 106.206 9.74173C106.156 9.70749 106.098 9.68914 106.037 9.68914C105.977 9.68914 105.919 9.70749 105.869 9.74173C105.82 9.77598 105.782 9.82449 105.761 9.88078L99.3196 26.1743Z" fill="#00000E"/>
<path d="M150.856 1.97727C164.859 2.09907 168.846 17.8819 158.319 25.8647C158.17 25.9762 158.068 26.1391 158.032 26.3219C157.997 26.5046 158.03 26.6939 158.127 26.8531L167.623 42.6781C167.646 42.7175 167.659 42.7623 167.659 42.8081C167.659 42.8538 167.647 42.8987 167.624 42.9383C167.601 42.9779 167.568 43.0107 167.528 43.0333C167.489 43.0559 167.444 43.0675 167.398 43.067H158.539C158.389 43.0672 158.242 43.0284 158.111 42.9545C157.98 42.8806 157.871 42.7741 157.794 42.6454L149.348 28.4928C149.273 28.3663 149.16 28.3054 149.015 28.3101L143.112 28.446C142.991 28.4484 142.875 28.4984 142.79 28.5851C142.705 28.6718 142.658 28.7883 142.658 28.9097V42.7578C142.658 42.8315 142.629 42.9023 142.577 42.9549C142.526 43.0075 142.455 43.0376 142.382 43.0389L134.525 43.081C134.446 43.081 134.369 43.0494 134.313 42.9932C134.257 42.937 134.225 42.8607 134.225 42.7812V2.3052C134.225 2.23959 134.238 2.17463 134.264 2.11408C134.289 2.05352 134.326 1.99857 134.373 1.95239C134.419 1.90622 134.474 1.86974 134.535 1.84506C134.596 1.82038 134.661 1.808 134.727 1.80862C140.1 1.8742 145.473 1.93042 150.856 1.97727ZM142.635 8.99967L142.653 20.5803C142.654 20.6851 142.697 20.7852 142.772 20.8589C142.846 20.9325 142.947 20.9738 143.051 20.9738L149.385 20.9645C150.302 20.963 151.209 20.8037 152.055 20.4956C152.901 20.1876 153.669 19.7368 154.316 19.1691C154.963 18.6013 155.476 17.9278 155.825 17.1868C156.174 16.4459 156.353 15.6521 156.351 14.8509V14.6729C156.348 13.0557 155.61 11.5062 154.3 10.365C152.991 9.22388 151.216 8.58448 149.366 8.58741L143.033 8.59678C142.98 8.59678 142.928 8.60723 142.879 8.62753C142.831 8.64784 142.787 8.67759 142.749 8.71506C142.712 8.75254 142.683 8.79699 142.663 8.84584C142.644 8.8947 142.634 8.94698 142.635 8.99967Z" fill="#00000E"/>
<path d="M59.5697 92.6071H49.4272L49.282 61.1492C49.282 60.9618 49.1883 60.8681 49.0009 60.8681H37.6826C37.6031 60.8681 37.5269 60.8365 37.4706 60.7803C37.4144 60.7241 37.3828 60.6478 37.3828 60.5683L37.3453 52.801C37.3407 52.6371 37.425 52.5527 37.5889 52.5527H71.4454C71.5448 52.5527 71.6402 52.5922 71.7105 52.6625C71.7807 52.7328 71.8202 52.8281 71.8202 52.9275L71.764 60.5964C71.764 60.7791 71.6703 60.8681 71.4876 60.8681H59.8742C59.7149 60.8681 59.6353 60.9478 59.6353 61.107L59.5697 92.6071Z" fill="#00000E"/>
<path d="M111.776 92.6072H100.945L98.1062 85.6738C98.0524 85.5423 97.9604 85.4299 97.8419 85.3506C97.7235 85.2714 97.5839 85.229 97.441 85.2288H80.8337C80.6789 85.2285 80.5273 85.2753 80.3987 85.363C80.2701 85.4507 80.1703 85.5753 80.1122 85.7207L77.3435 92.6072H66.8404L84.0286 53.1009C84.1551 52.8151 84.3706 52.6699 84.6845 52.6699H94.5084C94.6911 52.6699 94.8129 52.7542 94.8832 52.9182L111.776 92.6072ZM83.4196 77.3818C83.406 77.4164 83.4009 77.4539 83.4049 77.4908C83.4089 77.5278 83.4218 77.5633 83.4426 77.5942C83.4633 77.6251 83.4912 77.6504 83.524 77.6681C83.5567 77.6858 83.5932 77.6953 83.6304 77.6957L94.677 77.7145C94.7146 77.7148 94.7517 77.7059 94.7851 77.6885C94.8184 77.6711 94.847 77.6458 94.8683 77.6148C94.8895 77.5838 94.9029 77.5481 94.9071 77.5107C94.9113 77.4734 94.9063 77.4355 94.8925 77.4006L89.3927 63.3417C89.3756 63.2991 89.3462 63.2626 89.3082 63.2369C89.2702 63.2111 89.2254 63.1974 89.1795 63.1974C89.1336 63.1974 89.0888 63.2111 89.0508 63.2369C89.0128 63.2626 88.9834 63.2991 88.9663 63.3417L83.4196 77.3818Z" fill="#00000E"/>
<path d="M158.661 92.6072H146.41L137.908 80.1599C137.887 80.1314 137.861 80.1081 137.83 80.092C137.799 80.0758 137.765 80.0674 137.73 80.0674C137.695 80.0674 137.661 80.0758 137.631 80.092C137.601 80.1081 137.575 80.1314 137.556 80.1599L128.969 92.6072H117.14L131.349 72.4582C131.447 72.3223 131.447 72.1865 131.354 72.0506L118.162 52.9229C118.044 52.7542 118.091 52.6699 118.297 52.6699H129.653C129.745 52.6699 129.836 52.6926 129.917 52.7359C129.998 52.7792 130.067 52.8419 130.117 52.9182L137.444 63.9976C137.474 64.0418 137.514 64.0781 137.561 64.1034C137.608 64.1287 137.661 64.1422 137.714 64.1426C137.767 64.1431 137.819 64.1306 137.866 64.1061C137.913 64.0816 137.953 64.046 137.983 64.0023L145.408 52.862C145.447 52.803 145.5 52.7546 145.562 52.721C145.624 52.6875 145.693 52.6699 145.764 52.6699H156.951C157.368 52.6699 157.462 52.8433 157.223 53.1852L144.508 71.3901C144.433 71.4991 144.392 71.6281 144.391 71.7603C144.39 71.8924 144.43 72.0214 144.504 72.1303L158.661 92.6072Z" fill="#00000E"/>
<path d="M175.948 92.6072H165.613L165.594 52.937C165.594 52.8661 165.622 52.7982 165.673 52.7481C165.723 52.6981 165.791 52.6699 165.861 52.6699H175.76C175.773 52.6699 175.785 52.6749 175.793 52.6836C175.802 52.6924 175.807 52.7043 175.807 52.7168L175.948 92.6072Z" fill="#00000E"/>
</g>
<defs>
<clipPath id="clip0_17_13533">
<rect width="211.281" height="92.2891" fill="white" transform="translate(0.359467 0.318359)"/>
</clipPath>
</defs>
</svg>
