<svg width="174" height="140" viewBox="0 0 174 140" fill="none" xmlns="http://www.w3.org/2000/svg">
<g clip-path="url(#clip0_17_13488)">
<path d="M157.697 60.0847C161.629 60.2879 165.716 61.8306 168.395 64.7082C172.39 69.0029 172.733 75.6286 169.769 80.7309C169.732 80.797 169.716 80.8729 169.725 80.9477C169.734 81.0224 169.766 81.0922 169.817 81.1469C171.882 83.3909 173.004 85.93 173.173 88.7689C173.976 101.943 160.643 108.69 149.833 111.292C140.727 113.482 129.55 114.73 119.519 115.973C118.6 116.089 117.677 116.36 116.743 116.786C107.685 120.921 97.3111 122.367 88.5477 116.65C88.4074 116.558 88.2768 116.573 88.1559 116.689C82.6764 122.096 75.6879 125.002 68.24 126.502C61.0678 127.948 53.8424 129.118 46.5734 130.003C46.4138 130.023 46.2977 130.105 46.2252 130.245C44.4454 133.756 41.9886 136.111 38.8498 137.306C18.3729 145.131 1.98264 123.793 0.913813 106.03C0.483382 98.8671 1.765 91.6416 4.75384 84.3582C5.65339 82.1528 5.9339 79.8991 6.11768 77.8582C7.66046 60.6506 9.1839 43.4623 10.6783 26.2886C10.684 26.2264 10.7084 26.1675 10.7482 26.1199C10.788 26.0723 10.8413 26.0383 10.9008 26.0226C21.2311 23.4014 31.6437 21.0944 42.1433 19.097C50.5005 17.5059 59.8442 17.7912 67.0406 22.3906C67.1857 22.4825 67.3018 22.4583 67.384 22.3083C73.6325 11.504 89.4327 6.93373 97.7367 18.3039C97.8285 18.4345 97.9301 18.4393 98.0365 18.3184C106.553 8.49585 118.823 3.41773 131.484 1.67182C139.063 0.622345 146.148 1.7879 152.73 5.16364C155.821 6.74511 158.693 9.36639 161.46 11.712C161.595 11.8281 161.605 11.9538 161.484 12.0892L150.641 24.0978C150.317 24.4557 150.394 24.6056 150.873 24.5427L160.41 23.3288C160.433 23.3258 160.456 23.3281 160.478 23.3354C160.5 23.3427 160.519 23.3549 160.536 23.3711C160.553 23.3873 160.566 23.4071 160.574 23.429C160.582 23.451 160.586 23.4746 160.584 23.4981L157.373 59.7123C157.369 59.7582 157.375 59.8044 157.389 59.8482C157.403 59.892 157.426 59.9325 157.456 59.9672C157.486 60.002 157.523 60.0303 157.565 60.0505C157.606 60.0707 157.651 60.0823 157.697 60.0847ZM133.516 47.9601L133.037 52.9318C133.018 53.1011 132.935 53.2268 132.79 53.3091C126.232 57.0088 115.965 58.3437 115.234 47.7231C114.707 40.0479 116.352 28.4843 124.564 25.1231C129.801 22.9806 134.875 23.3578 139.784 26.2451C139.924 26.3273 140.054 26.308 140.166 26.1871L152.372 12.6551C152.493 12.5197 152.479 12.4036 152.329 12.302C141.578 5.30389 128.573 7.40285 117.309 12.1569C105.489 17.148 98.1623 25.9259 95.3282 38.4955C93.7129 45.6387 92.9777 52.7626 95.1396 58.9772C100.145 73.3604 117.329 73.283 129.468 69.8976C137.143 67.7551 144.281 64.4422 150.878 59.9638C150.939 59.9229 150.989 59.869 151.026 59.8063C151.063 59.7435 151.085 59.6734 151.091 59.6011L153.625 31.0717C153.649 30.8057 153.528 30.6848 153.262 30.7187L125.536 34.2734C125.337 34.2975 125.217 34.4136 125.178 34.6119L122.508 49.116C122.503 49.1462 122.504 49.1774 122.513 49.2069C122.522 49.2364 122.537 49.2634 122.559 49.2856C122.58 49.3078 122.606 49.3247 122.635 49.3347C122.664 49.3447 122.695 49.3477 122.726 49.3433L133.269 47.728C133.453 47.699 133.535 47.7763 133.516 47.9601ZM92.2577 21.6401C91.3053 19.8106 89.3483 18.5993 86.8173 18.2727C84.2863 17.946 81.3885 18.5308 78.7615 19.8984C76.1344 21.2659 73.9933 23.3042 72.8091 25.5649C71.6249 27.8255 71.4947 30.1233 72.4471 31.9528C73.3995 33.7823 75.3564 34.9936 77.8874 35.3202C80.4185 35.6468 83.3162 35.0621 85.9433 33.6945C88.5703 32.327 90.7114 30.2887 91.8956 28.028C93.0798 25.7674 93.21 23.4696 92.2577 21.6401ZM57.547 50.8909C57.4093 50.8844 57.2773 50.8326 57.1718 50.7436C57.0662 50.6545 56.9931 50.5333 56.9637 50.3989C56.9344 50.2644 56.9506 50.1244 57.0098 50.0008C57.0689 49.8772 57.1677 49.7769 57.2906 49.7157C62.5912 47.0364 67.5146 42.1517 67.4275 35.8984C67.2486 23.1015 50.6165 24.0204 42.1482 25.6406C34.6761 27.0673 26.2077 28.9196 16.7479 31.1926C16.6173 31.2265 16.5448 31.3087 16.5302 31.4441L12.9611 71.5758C12.9175 72.0884 13.082 72.1658 13.4592 71.8128C18.5567 67.0248 26.3189 66.8169 31.1262 72.1562C31.1526 72.1861 31.1872 72.2078 31.2257 72.2186C31.2642 72.2295 31.3048 72.2289 31.3426 72.217C31.3803 72.2051 31.4134 72.1825 31.4377 72.1518C31.462 72.1212 31.4765 72.084 31.4793 72.0449L32.3305 63.1316C32.345 62.9527 32.4417 62.8511 32.6158 62.8172C35.8368 62.1595 50.9599 58.0003 49.4993 65.0323C48.2226 71.1841 37.3119 72.0111 32.4272 73.0025C32.2241 73.046 32.1854 73.1476 32.3111 73.312C35.3967 77.2875 37.1136 80.9002 39.3334 85.8187C39.4011 85.9735 39.5172 86.0315 39.6816 85.9977C52.0771 83.2555 70.0004 76.3396 69.7296 60.9311C69.6135 54.61 63.1135 51.1037 57.547 50.8909ZM73.5358 38.1279C73.4843 38.1382 73.4375 38.1651 73.4026 38.2043C73.3677 38.2436 73.3466 38.2932 73.3423 38.3455L69.749 79.28C69.7453 79.3174 69.7504 79.3551 69.7638 79.3901C69.7773 79.4252 69.7987 79.4566 69.8264 79.4819C69.854 79.5073 69.8872 79.5258 69.9233 79.5361C69.9594 79.5464 69.9974 79.5481 70.0343 79.5412L89.8148 75.8511C89.8687 75.8413 89.9177 75.8134 89.9537 75.7721C89.9898 75.7309 90.0107 75.6785 90.0131 75.6238L91.7735 35.0375C91.7748 35.0013 91.768 34.9653 91.7535 34.9321C91.7391 34.8989 91.7174 34.8694 91.69 34.8457C91.6626 34.8221 91.6302 34.8048 91.5953 34.7953C91.5604 34.7858 91.5238 34.7843 91.4882 34.7908L73.5358 38.1279ZM158.742 83.4489C162.161 81.4274 165.392 79.1736 165.527 74.8113C165.803 65.8303 152.237 67.8422 147.12 68.8433C141.573 69.9315 136.553 71.0099 132.065 72.0836C131.891 72.1271 131.794 72.2384 131.779 72.4173L128.123 108.549C128.109 108.675 128.167 108.728 128.292 108.714C136.282 107.684 142.347 106.745 146.482 105.899C152.566 104.651 158.935 102.538 163.53 98.1803C166.257 95.5929 168.405 90.5293 165.919 87.1149C164.1 84.6193 161.532 84.5323 158.8 83.8407C158.759 83.8291 158.722 83.806 158.694 83.774C158.665 83.7421 158.647 83.7028 158.641 83.6611C158.635 83.6193 158.641 83.577 158.659 83.5392C158.677 83.5015 158.706 83.4701 158.742 83.4489ZM35.1597 89.4556C33.3461 82.709 28.2244 67.9824 18.0005 73.9988C8.01835 79.8701 3.99454 102.054 6.64 112.23C9.28062 122.386 17.1977 132.441 27.9971 134.69C33.0511 135.739 38.6273 134.699 42.3126 131.019C48.4547 124.896 47.7728 113.299 44.605 106.039C43.6426 103.839 41.9934 101.808 40.5135 99.7956C40.4119 99.6602 40.3877 99.5103 40.4313 99.3507C41.089 96.8068 41.5726 94.0985 40.9584 91.4482C40.9246 91.2983 40.8327 91.2015 40.6828 91.1628L35.4499 89.7458C35.3805 89.7267 35.3174 89.6898 35.2665 89.639C35.2156 89.5881 35.1788 89.525 35.1597 89.4556ZM128.723 89.7023C129.574 71.5758 110.147 72.6543 99.5648 78.5739C91.3576 83.1636 87.1355 90.1037 86.8888 99.3942C86.4004 117.966 106.321 116.147 117.121 109.642C124.244 105.353 128.331 98.0643 128.723 89.7023ZM78.4011 98.2335C78.4205 98.161 78.4398 98.0981 78.4543 98.0449C78.4688 98.0014 78.493 97.9675 78.5365 97.9482C82.8408 95.8347 87.6046 90.9162 84.1612 85.8526C80.4033 80.3247 68.98 83.0814 63.7036 84.126C59.6943 84.924 55.7092 85.7897 51.7386 86.7328C51.579 86.7715 51.4871 86.873 51.4677 87.0423C50.4086 97.3872 49.3736 107.737 48.3628 118.087C48.2709 119.015 48.2274 120.679 48.2274 123.073C48.2274 123.232 48.3096 123.305 48.4692 123.286C56.3137 122.352 62.9491 121.274 68.3754 120.06C72.849 119.059 76.9937 117.322 80.8144 114.846C87.5901 110.45 90.2791 99.2395 78.6865 98.6301C78.6397 98.6274 78.5941 98.6143 78.5531 98.5918C78.5121 98.5693 78.4766 98.5379 78.4492 98.4999C78.4219 98.4618 78.4034 98.4182 78.395 98.3721C78.3867 98.326 78.3888 98.2787 78.4011 98.2335Z" fill="#00000E"/>
<path d="M133.269 47.7285L122.726 49.3439C122.695 49.3483 122.664 49.3453 122.635 49.3353C122.606 49.3252 122.58 49.3084 122.559 49.2862C122.537 49.2639 122.522 49.237 122.513 49.2075C122.504 49.178 122.503 49.1468 122.508 49.1166L125.178 34.6125C125.217 34.4142 125.337 34.2981 125.536 34.2739L153.262 30.7193C153.528 30.6854 153.649 30.8063 153.625 31.0723L151.091 59.6017C151.085 59.6739 151.063 59.7441 151.026 59.8068C150.989 59.8696 150.939 59.9235 150.878 59.9644C144.281 64.4428 137.143 67.7557 129.468 69.8982C117.329 73.2836 100.145 73.361 95.1396 58.9778C92.9777 52.7631 93.7128 45.6393 95.3282 38.496C98.1622 25.9265 105.489 17.1486 117.309 12.1575C128.573 7.40343 141.578 5.30447 152.329 12.3026C152.479 12.4042 152.493 12.5202 152.372 12.6557L140.166 26.1876C140.054 26.3085 139.924 26.3279 139.784 26.2457C134.875 23.3584 129.801 22.9812 124.564 25.1237C116.352 28.4849 114.707 40.0485 115.234 47.7237C115.965 58.3442 126.232 57.0094 132.79 53.3096C132.935 53.2274 133.018 53.1017 133.037 52.9324L133.516 47.9607C133.535 47.7769 133.453 47.6995 133.269 47.7285Z" fill="white"/>
<path d="M85.9433 33.6945C91.4138 30.8467 94.2409 25.4498 92.2577 21.6401C90.2745 17.8303 84.232 17.0505 78.7615 19.8983C73.2909 22.7461 70.4639 28.1431 72.4471 31.9528C74.4303 35.7625 80.4728 36.5423 85.9433 33.6945Z" fill="white"/>
<path d="M57.547 50.8906C63.1135 51.1033 69.6135 54.6097 69.7296 60.9307C70.0004 76.3392 52.0771 83.2551 39.6816 85.9973C39.5172 86.0312 39.4011 85.9731 39.3334 85.8184C37.1136 80.8998 35.3967 77.2871 32.3111 73.3117C32.1854 73.1472 32.2241 73.0457 32.4272 73.0021C37.3119 72.0107 48.2226 71.1837 49.4993 65.0319C50.9599 57.9999 35.8368 62.1591 32.6158 62.8169C32.4417 62.8507 32.345 62.9523 32.3305 63.1312L31.4793 72.0446C31.4765 72.0837 31.462 72.1209 31.4377 72.1515C31.4134 72.1821 31.3803 72.2048 31.3426 72.2167C31.3048 72.2285 31.2642 72.2291 31.2257 72.2183C31.1872 72.2074 31.1526 72.1857 31.1262 72.1558C26.3189 66.8165 18.5567 67.0245 13.4592 71.8124C13.082 72.1655 12.9175 72.0881 12.9611 71.5754L16.5302 31.4438C16.5448 31.3083 16.6173 31.2261 16.7479 31.1923C26.2077 28.9192 34.6761 27.0669 42.1482 25.6402C50.6165 24.02 67.2486 23.1011 67.4275 35.898C67.5146 42.1513 62.5912 47.036 57.2906 49.7153C57.1677 49.7765 57.0689 49.8768 57.0098 50.0004C56.9506 50.1241 56.9344 50.2641 56.9637 50.3985C56.993 50.5329 57.0662 50.6541 57.1718 50.7432C57.2773 50.8322 57.4093 50.8841 57.547 50.8906ZM47.4439 44.1391C48.8368 40.7343 47.2746 38.7418 43.5991 39.206C40.557 39.5929 37.544 40.1201 34.56 40.7923C34.3956 40.8262 34.3037 40.9326 34.2892 41.1019L33.5589 49.0721C33.5444 49.2414 33.6169 49.3091 33.7862 49.2801C36.9443 48.7239 45.8866 47.9501 47.4439 44.1391Z" fill="white"/>
<path d="M73.5358 38.1281L91.4881 34.7911C91.5237 34.7845 91.5604 34.7861 91.5953 34.7956C91.6302 34.8051 91.6626 34.8223 91.69 34.846C91.7174 34.8697 91.7391 34.8992 91.7535 34.9324C91.768 34.9656 91.7748 35.0016 91.7735 35.0377L90.0131 75.624C90.0107 75.6788 89.9897 75.7311 89.9537 75.7724C89.9177 75.8137 89.8687 75.8415 89.8148 75.8513L70.0343 79.5414C69.9974 79.5484 69.9594 79.5466 69.9233 79.5363C69.8872 79.526 69.854 79.5075 69.8264 79.4822C69.7987 79.4568 69.7773 79.4254 69.7638 79.3903C69.7504 79.3553 69.7453 79.3176 69.7489 79.2803L73.3423 38.3458C73.3465 38.2934 73.3677 38.2438 73.4026 38.2046C73.4375 38.1653 73.4843 38.1385 73.5358 38.1281Z" fill="white"/>
<path d="M43.599 39.2054C47.2746 38.7411 48.8368 40.7337 47.4439 44.1384C45.8866 47.9494 36.9443 48.7232 33.7862 49.2794C33.6169 49.3084 33.5444 49.2407 33.5589 49.0715L34.2892 41.1012C34.3037 40.9319 34.3956 40.8255 34.56 40.7917C37.544 40.1194 40.557 39.5923 43.599 39.2054Z" fill="#00000E"/>
<path d="M158.8 83.84C161.532 84.5316 164.1 84.6187 165.919 87.1142C168.405 90.5286 166.257 95.5922 163.53 98.1797C158.935 102.537 152.566 104.651 146.482 105.898C142.347 106.745 136.282 107.683 128.292 108.713C128.167 108.728 128.109 108.674 128.123 108.549L131.779 72.4167C131.794 72.2377 131.891 72.1265 132.065 72.0829C136.553 71.0093 141.573 69.9308 147.12 68.8426C152.237 67.8415 165.803 65.8296 165.527 74.8106C165.392 79.173 162.161 81.4267 158.742 83.4483C158.706 83.4694 158.677 83.5009 158.659 83.5386C158.641 83.5763 158.635 83.6187 158.641 83.6604C158.647 83.7022 158.665 83.7415 158.694 83.7734C158.722 83.8053 158.759 83.8285 158.8 83.84ZM143.57 78.4765L143.106 82.8002C143.092 82.9501 143.159 83.0178 143.309 83.0033C146.24 82.6648 148.576 82.1908 150.322 81.5815C151.744 81.0785 153.644 78.5297 151.971 77.2433C150.752 76.3099 145.515 77.5722 144.059 77.9204C143.764 77.9881 143.604 78.1719 143.57 78.4765ZM142.197 91.8151L141.578 97.5558C141.558 97.7154 141.631 97.7879 141.791 97.7637C144.784 97.3672 151.241 96.5595 153.059 93.8705C153.77 92.821 153.818 91.9457 153.214 91.2347C151.565 89.305 144.185 91.1912 142.468 91.5249C142.397 91.5387 142.333 91.5743 142.284 91.6264C142.235 91.6786 142.205 91.7447 142.197 91.8151Z" fill="white"/>
<path d="M35.4499 89.746L40.6828 91.163C40.8327 91.2017 40.9246 91.2985 40.9584 91.4484C41.5726 94.0987 41.089 96.807 40.4313 99.3509C40.3877 99.5105 40.4119 99.6604 40.5135 99.7958C41.9934 101.808 43.6426 103.839 44.605 106.04C47.7728 113.299 48.4547 124.896 42.3126 131.019C38.6273 134.699 33.0511 135.739 27.9971 134.69C17.1977 132.441 9.28063 122.386 6.64001 112.23C3.99455 102.054 8.01836 79.8703 18.0005 73.999C28.2244 67.9826 33.3461 82.7092 35.1597 89.4558C35.1789 89.5252 35.2157 89.5883 35.2665 89.6392C35.3174 89.69 35.3806 89.7269 35.4499 89.746ZM26.7203 92.227C25.105 91.8256 23.5332 91.9272 22.005 92.522C21.9301 92.5527 21.8496 92.568 21.7682 92.5672C21.6869 92.5664 21.6062 92.5494 21.531 92.5172C17.0574 90.6746 13.3721 91.6902 9.1839 93.9391C9.03398 94.0165 8.95176 94.1374 8.93242 94.3066C8.83085 95.1627 9.01463 95.9268 9.47892 96.5894C9.58048 96.7296 9.62884 96.8892 9.63368 97.0633C9.67237 103.268 13.0046 104.497 18.5567 103.104C23.1318 101.953 23.9201 98.8141 23.156 94.6017C23.1125 94.3453 23.2189 94.2147 23.4752 94.2002L25.6032 94.0842C25.8547 94.0697 25.9804 94.1906 25.9756 94.4421C25.9127 97.3197 26.3286 100.333 28.8773 101.508C31.4309 102.683 35.2758 102.746 37.6214 101.537C40.0879 100.265 39.9041 97.7501 39.7542 95.1627C39.7445 94.9886 39.7735 94.8241 39.8412 94.6645C40.1846 93.8956 40.2475 93.0831 40.0299 92.227C39.9912 92.0674 39.8944 91.961 39.7397 91.9078C35.3435 90.278 31.2665 89.8137 27.233 92.1545C27.0776 92.2444 26.8937 92.2705 26.7203 92.227ZM24.8686 95.6973C24.8613 95.6104 24.8197 95.53 24.7531 95.4737C24.6865 95.4174 24.6003 95.3898 24.5133 95.3971L24.4748 95.4003C24.4317 95.4039 24.3898 95.416 24.3514 95.4358C24.3131 95.4556 24.2789 95.4828 24.2511 95.5158C24.2232 95.5488 24.2021 95.5869 24.189 95.6281C24.1758 95.6692 24.1709 95.7126 24.1746 95.7556L24.3065 97.3267C24.3138 97.4136 24.3553 97.494 24.4219 97.5503C24.4886 97.6066 24.5748 97.6342 24.6617 97.6269L24.7003 97.6237C24.7434 97.6201 24.7853 97.608 24.8236 97.5882C24.862 97.5684 24.8961 97.5412 24.924 97.5082C24.9519 97.4752 24.973 97.4371 24.9861 97.3959C24.9992 97.3548 25.0041 97.3114 25.0005 97.2684L24.8686 95.6973ZM40.9391 108.883C37.2393 111.413 33.5686 101.866 27.3442 108.09C27.2904 108.143 27.2218 108.178 27.1475 108.191C27.0733 108.204 26.9968 108.194 26.9283 108.163C24.9212 107.263 22.8126 106.712 20.8587 107.955C19.4079 108.874 18.2326 111.205 16.6076 112.404C13.1013 114.996 11.3651 109.962 14.1943 109.754C14.2243 109.75 14.252 109.736 14.2731 109.714C14.2942 109.693 14.3075 109.665 14.3108 109.635C14.3141 109.605 14.3074 109.574 14.2915 109.549C14.2756 109.523 14.2517 109.503 14.2233 109.493C13.377 109.217 12.637 109.425 12.0035 110.112C10.1899 112.08 11.2055 114.996 13.2609 116.322C16.0515 118.116 20.2058 117.376 22.7788 115.562C24.4424 114.387 26.9718 110.726 29.3029 111.969C31.4938 113.139 33.3074 113.86 34.7389 114.126C38.371 114.808 43.0187 113.521 43.8409 109.425C44.252 107.37 42.4383 103.902 39.9622 105.44C39.9345 105.457 39.9131 105.483 39.901 105.513C39.8888 105.544 39.8867 105.577 39.8947 105.609C39.9028 105.641 39.9207 105.669 39.9458 105.69C39.971 105.711 40.0021 105.723 40.0347 105.725C42.0563 105.875 42.4142 107.872 40.9391 108.883ZM33.3606 115.722C30.5846 118.566 27.7698 117.98 24.4086 116.549C24.0991 116.418 24.0555 116.476 24.278 116.728C27.1169 119.987 32.0306 119.862 34.4681 116.389C34.522 116.313 34.5539 116.223 34.5603 116.129C34.5667 116.036 34.5475 115.943 34.5046 115.859C34.4618 115.776 34.397 115.706 34.3172 115.657C34.2374 115.608 34.1458 115.582 34.0522 115.582H33.6943C33.5637 115.582 33.4525 115.63 33.3606 115.722Z" fill="white"/>
<path d="M99.5648 78.574C110.147 72.6544 129.574 71.5759 128.723 89.7024C128.331 98.0643 124.244 105.353 117.121 109.642C106.321 116.147 86.4004 117.966 86.8888 99.3943C87.1355 90.1038 91.3576 83.1637 99.5648 78.574ZM114.393 96.1927C115.21 92.1157 115.829 83.0766 108.638 84.6242C105.364 85.3303 103.124 87.1149 101.92 89.9829C100.489 93.3876 98.641 104.874 105.741 104.506C110.775 104.24 113.421 101.024 114.393 96.1927Z" fill="white"/>
<path d="M143.57 78.4769C143.604 78.1723 143.764 77.9885 144.059 77.9208C145.515 77.5726 150.752 76.3103 151.971 77.2437C153.644 78.5301 151.744 81.0789 150.322 81.5818C148.576 82.1912 146.24 82.6652 143.309 83.0037C143.159 83.0182 143.092 82.9505 143.106 82.8006L143.57 78.4769Z" fill="#00000E"/>
<path d="M78.4011 98.2333C78.3887 98.2784 78.3867 98.3258 78.395 98.3719C78.4033 98.418 78.4218 98.4616 78.4492 98.4996C78.4765 98.5376 78.512 98.569 78.5531 98.5916C78.5941 98.6141 78.6397 98.6272 78.6864 98.6298C90.279 99.2392 87.5901 110.45 80.8144 114.846C76.9937 117.322 72.849 119.058 68.3754 120.06C62.9491 121.273 56.3137 122.352 48.4692 123.285C48.3096 123.305 48.2274 123.232 48.2274 123.073C48.2274 120.679 48.2709 119.015 48.3628 118.086C49.3736 107.737 50.4085 97.3869 51.4677 87.0421C51.487 86.8728 51.5789 86.7712 51.7385 86.7325C55.7091 85.7895 59.6942 84.9238 63.7035 84.1258C68.9799 83.0811 80.4033 80.3244 84.1611 85.8523C87.6046 90.9159 82.8408 95.8345 78.5365 97.9479C78.493 97.9673 78.4688 98.0011 78.4543 98.0447C78.4398 98.0979 78.4204 98.1607 78.4011 98.2333ZM70.484 91.6366C68.3029 91.4624 65.6816 92.1492 63.5294 92.5796C63.3747 92.6087 63.2924 92.7005 63.2779 92.8553L62.8088 97.4401C62.7846 97.6481 62.8765 97.7351 63.0845 97.7061C65.4011 97.3772 69.9714 96.8549 71.5287 95.2009C72.7087 93.9483 72.6797 91.8058 70.484 91.6366ZM71.7221 109.613C74.445 107.592 73.3907 104.709 69.8602 105.033C67.2921 105.27 64.7192 105.662 62.1511 106.218C61.9963 106.252 61.9093 106.349 61.8948 106.508L61.2757 112.205C61.2612 112.375 61.3337 112.442 61.4982 112.418C64.5451 111.968 69.3185 111.398 71.7221 109.613Z" fill="white"/>
<path d="M108.638 84.6236C115.829 83.0759 115.21 92.115 114.393 96.192C113.421 101.023 110.775 104.24 105.741 104.506C98.6411 104.873 100.489 93.387 101.92 89.9822C103.124 87.1143 105.364 85.3297 108.638 84.6236Z" fill="#00000E"/>
<path d="M141.578 97.5566L142.197 91.8159C142.205 91.7455 142.236 91.6795 142.284 91.6273C142.333 91.5751 142.397 91.5396 142.468 91.5258C144.185 91.1921 151.565 89.3059 153.214 91.2356C153.819 91.9465 153.77 92.8219 153.059 93.8714C151.241 96.5604 144.784 97.368 141.791 97.7646C141.631 97.7888 141.558 97.7162 141.578 97.5566Z" fill="#00000E"/>
<path d="M26.7203 92.227C26.8937 92.2704 27.0776 92.2444 27.233 92.1544C31.2665 89.8137 35.3435 90.2779 39.7397 91.9078C39.8944 91.961 39.9912 92.0674 40.0299 92.227C40.2475 93.083 40.1846 93.8955 39.8412 94.6645C39.7735 94.8241 39.7445 94.9885 39.7542 95.1626C39.9041 97.75 40.0879 100.265 37.6214 101.537C35.2758 102.746 31.4309 102.683 28.8773 101.508C26.3286 100.333 25.9127 97.3196 25.9756 94.442C25.9804 94.1905 25.8546 94.0696 25.6032 94.0841L23.4752 94.2002C23.2189 94.2147 23.1125 94.3453 23.156 94.6016C23.9201 98.814 23.1318 101.953 18.5567 103.104C13.0046 104.497 9.67237 103.268 9.63368 97.0633C9.62884 96.8892 9.58048 96.7296 9.47891 96.5893C9.01463 95.9268 8.83085 95.1626 8.93241 94.3066C8.95176 94.1373 9.03398 94.0164 9.1839 93.939C13.3721 91.6901 17.0574 90.6745 21.531 92.5172C21.6062 92.5493 21.6869 92.5663 21.7682 92.5671C21.8496 92.568 21.9301 92.5526 22.0049 92.522C23.5332 91.9271 25.105 91.8256 26.7203 92.227ZM37.2151 92.9428C35.8271 92.1544 34.3424 91.9078 32.7609 92.2076C32.7387 92.213 32.7184 92.2249 32.7028 92.2418C32.6873 92.2588 32.6772 92.2798 32.674 92.3021C32.6708 92.3244 32.6747 92.3468 32.685 92.3663C32.6954 92.3857 32.7118 92.4013 32.7319 92.4108C35.2032 93.644 36.9685 95.535 38.0228 98.0934C38.0352 98.1271 38.059 98.1554 38.0899 98.1734C38.1209 98.1915 38.1572 98.1983 38.1926 98.1926C38.228 98.1869 38.2604 98.169 38.2841 98.1421C38.3078 98.1152 38.3214 98.0809 38.3226 98.0451C38.4097 96.7247 38.8208 93.8568 37.2151 92.9428ZM21.3714 99.2928C22.6965 94.8773 20.7669 92.8944 16.3707 92.996C16.1482 93.0008 16.1337 93.0637 16.3223 93.1797C18.6582 94.6355 20.2494 96.6715 21.0861 99.2977C21.1828 99.6072 21.2795 99.6072 21.3714 99.2928Z" fill="#00000E"/>
<path d="M70.4841 91.6371C72.6797 91.8063 72.7088 93.9488 71.5287 95.2014C69.9714 96.8554 65.4011 97.3778 63.0845 97.7066C62.8765 97.7356 62.7847 97.6486 62.8088 97.4406L63.278 92.8558C63.2925 92.7011 63.3747 92.6092 63.5294 92.5801C65.6816 92.1497 68.3029 91.463 70.4841 91.6371Z" fill="#00000E"/>
<path d="M37.2151 92.9426C38.8208 93.8567 38.4097 96.7246 38.3226 98.0449C38.3214 98.0807 38.3078 98.1151 38.2841 98.142C38.2604 98.1689 38.228 98.1867 38.1926 98.1924C38.1572 98.1981 38.1209 98.1914 38.0899 98.1733C38.0589 98.1552 38.0352 98.1269 38.0228 98.0933C36.9685 95.5349 35.2032 93.6439 32.7319 92.4106C32.7118 92.4011 32.6954 92.3856 32.685 92.3661C32.6747 92.3467 32.6708 92.3243 32.674 92.302C32.6772 92.2797 32.6873 92.2586 32.7028 92.2417C32.7184 92.2248 32.7387 92.2128 32.7609 92.2075C34.3424 91.9076 35.8271 92.1543 37.2151 92.9426Z" fill="white"/>
<path d="M21.3714 99.2928C21.2795 99.6071 21.1828 99.6071 21.086 99.2976C20.2494 96.6715 18.6582 94.6354 16.3223 93.1797C16.1337 93.0636 16.1482 93.0007 16.3706 92.9959C20.7668 92.8943 22.6965 94.8772 21.3714 99.2928Z" fill="white"/>
<path d="M24.5133 95.397L24.4747 95.4002C24.2938 95.4154 24.1594 95.5745 24.1746 95.7554L24.3065 97.3266C24.3217 97.5075 24.4807 97.642 24.6617 97.6268L24.7003 97.6235C24.8813 97.6083 25.0157 97.4493 25.0005 97.2683L24.8685 95.6972C24.8533 95.5162 24.6943 95.3818 24.5133 95.397Z" fill="#00000E"/>
<path d="M69.8602 105.033C73.3907 104.709 74.445 107.591 71.7222 109.613C69.3185 111.398 64.5451 111.968 61.4982 112.418C61.3338 112.442 61.2612 112.374 61.2757 112.205L61.8948 106.508C61.9093 106.348 61.9963 106.252 62.1511 106.218C64.7192 105.662 67.2921 105.27 69.8602 105.033Z" fill="#00000E"/>
<path d="M27.3443 108.089C33.5686 101.865 37.2393 111.411 40.9391 108.882C42.4142 107.871 42.0563 105.874 40.0347 105.724C40.0021 105.722 39.971 105.709 39.9458 105.689C39.9207 105.668 39.9028 105.639 39.8947 105.608C39.8867 105.576 39.8889 105.543 39.901 105.512C39.9131 105.482 39.9345 105.456 39.9622 105.439C42.4384 103.901 44.252 107.368 43.8409 109.424C43.0187 113.52 38.371 114.807 34.739 114.125C33.3074 113.859 31.4938 113.138 29.303 111.968C26.9719 110.725 24.4425 114.386 22.7788 115.561C20.2059 117.375 16.0515 118.115 13.2609 116.32C11.2055 114.995 10.1899 112.079 12.0035 110.111C12.637 109.424 13.377 109.216 14.2234 109.491C14.2517 109.502 14.2757 109.522 14.2915 109.547C14.3074 109.573 14.3142 109.603 14.3108 109.633C14.3075 109.663 14.2942 109.691 14.2731 109.713C14.252 109.735 14.2243 109.749 14.1943 109.753C11.3651 109.961 13.1013 114.995 16.6077 112.403C18.2327 111.204 19.4079 108.872 20.8588 107.954C22.8126 106.711 24.9213 107.262 26.9283 108.161C26.9969 108.193 27.0733 108.203 27.1476 108.19C27.2218 108.177 27.2904 108.142 27.3443 108.089Z" fill="#00000E"/>
<path d="M24.4086 116.549C27.7699 117.981 30.5846 118.566 33.3606 115.722C33.4525 115.63 33.5637 115.582 33.6943 115.582H34.0522C34.1458 115.583 34.2375 115.609 34.3172 115.658C34.397 115.707 34.4618 115.777 34.5047 115.86C34.5475 115.943 34.5668 116.037 34.5603 116.13C34.5539 116.223 34.522 116.313 34.4681 116.39C32.0306 119.862 27.117 119.988 24.278 116.728C24.0556 116.477 24.0991 116.419 24.4086 116.549Z" fill="#00000E"/>
</g>
<defs>
<clipPath id="clip0_17_13488">
<rect width="172.656" height="138.318" fill="white" transform="translate(0.671936 0.839844)"/>
</clipPath>
</defs>
</svg>
