<svg width="223" height="48" viewBox="0 0 223 48" fill="none" xmlns="http://www.w3.org/2000/svg">
<g clip-path="url(#clip0_17_13219)">
<path d="M63.0548 25.1861L65.1301 25.7107C64.6977 27.4112 63.9195 28.7025 62.7954 29.596C61.6713 30.4896 60.2935 30.9334 58.6679 30.9334C56.9847 30.9334 55.6184 30.5933 54.5635 29.9016C53.5086 29.2156 52.7073 28.2241 52.1597 26.9213C51.612 25.6184 51.3353 24.2234 51.3353 22.7304C51.3353 21.1048 51.6466 19.6809 52.2692 18.4703C52.8918 17.2598 53.7738 16.3374 54.9209 15.7091C56.0681 15.0807 57.3305 14.7637 58.7083 14.7637C60.2763 14.7637 61.5906 15.1614 62.6513 15.9569C63.7177 16.7525 64.4614 17.8708 64.8822 19.312L62.853 19.7904C62.4899 18.6548 61.9653 17.8247 61.2793 17.3059C60.5933 16.7871 59.7228 16.5276 58.6795 16.5276C57.4804 16.5276 56.4774 16.8159 55.6703 17.3923C54.8633 17.9688 54.2983 18.7413 53.9755 19.7097C53.6469 20.6839 53.4855 21.6812 53.4855 22.7131C53.4855 24.0447 53.6758 25.2034 54.062 26.1949C54.4482 27.1864 55.0477 27.9301 55.8663 28.4201C56.6791 28.91 57.5611 29.1579 58.5123 29.1579C59.671 29.1579 60.6452 28.8236 61.4465 28.1549C62.2305 27.492 62.7723 26.5062 63.0548 25.1861ZM75.1836 27.002L77.1723 27.2614C76.8611 28.4143 76.2846 29.3136 75.4372 29.9534C74.5898 30.5933 73.5176 30.9104 72.2032 30.9104C70.5488 30.9104 69.2402 30.4031 68.2718 29.3827C67.3033 28.3682 66.8191 26.9385 66.8191 25.0996C66.8191 23.1973 67.3091 21.7216 68.2891 20.6724C69.2691 19.6175 70.5373 19.0987 72.0995 19.0987C73.6098 19.0987 74.8434 19.6117 75.8004 20.6436C76.7573 21.6754 77.2358 23.1224 77.2358 24.9901C77.2358 25.1054 77.23 25.2726 77.2242 25.4974H68.7791C68.854 26.7368 69.1999 27.6937 69.834 28.3509C70.4623 29.008 71.2521 29.3424 72.1975 29.3424C72.9008 29.3424 73.5003 29.1579 73.996 28.7832C74.4976 28.4085 74.8896 27.8205 75.1836 27.002ZM68.8886 23.9237H75.2008C75.1144 22.9725 74.8723 22.2577 74.4745 21.7792C73.8692 21.0413 73.0737 20.6666 72.0995 20.6666C71.2175 20.6666 70.4796 20.9606 69.8801 21.5486C69.2863 22.1424 68.9578 22.9321 68.8886 23.9237ZM79.5993 35.0205V19.335H81.3459V20.8223C81.7552 20.2458 82.2222 19.8135 82.7467 19.5252C83.2656 19.237 83.8939 19.0929 84.6318 19.0929C85.6002 19.0929 86.4534 19.3408 87.1913 19.8365C87.9291 20.3323 88.4883 21.0356 88.8688 21.9349C89.2435 22.8399 89.4337 23.8314 89.4337 24.9152C89.4337 26.0681 89.2262 27.1115 88.8111 28.0396C88.3961 28.9619 87.7908 29.6767 86.9953 30.1667C86.2055 30.6567 85.3696 30.9046 84.4992 30.9046C83.8593 30.9046 83.2828 30.772 82.7756 30.5011C82.2683 30.2301 81.8532 29.8958 81.5246 29.4807V35.009H79.5993V35.0205ZM81.3459 25.0708C81.3459 26.5235 81.6399 27.5957 82.2279 28.2932C82.8159 28.9908 83.5307 29.3366 84.3666 29.3366C85.2198 29.3366 85.9461 28.9735 86.5514 28.2529C87.1567 27.5323 87.4622 26.4197 87.4622 24.9094C87.4622 23.4682 87.1682 22.3903 86.5744 21.6754C85.9807 20.9606 85.2774 20.6032 84.4531 20.6032C83.6402 20.6032 82.9139 20.9837 82.2913 21.7446C81.6572 22.5113 81.3459 23.6181 81.3459 25.0708ZM91.7453 19.335H96.1668C97.2505 19.335 98.0576 19.4272 98.5937 19.606C99.124 19.7904 99.5794 20.119 99.9541 20.6032C100.335 21.0932 100.525 21.6697 100.525 22.3499C100.525 22.8918 100.41 23.3645 100.19 23.768C99.9656 24.1715 99.6313 24.5116 99.1759 24.7826C99.7062 24.9613 100.15 25.2899 100.502 25.7799C100.853 26.2641 101.026 26.8405 101.026 27.5092C100.957 28.5815 100.571 29.3827 99.8734 29.8958C99.1759 30.4146 98.1671 30.674 96.8412 30.674H91.7395V19.335H91.7453ZM93.6707 24.1196H95.7114C96.5242 24.1196 97.0833 24.0735 97.3889 23.9928C97.6944 23.9064 97.9653 23.7334 98.2074 23.474C98.4496 23.2146 98.5706 22.9033 98.5706 22.5401C98.5706 21.9406 98.3573 21.5256 97.9423 21.2892C97.5215 21.0529 96.8009 20.9376 95.7805 20.9376H93.6822V24.1196H93.6707ZM93.6707 29.1003H96.1956C97.2793 29.1003 98.0287 28.9735 98.4323 28.7198C98.8358 28.4662 99.0491 28.0338 99.0721 27.4112C99.0721 27.0481 98.9568 26.7137 98.7205 26.4024C98.4841 26.0911 98.1786 25.8952 97.8039 25.8144C97.4292 25.728 96.8239 25.6934 95.9938 25.6934H93.6765L93.6707 29.1003ZM102.785 35.0321L102.565 33.2566C102.986 33.3719 103.349 33.4295 103.667 33.4295C104.099 33.4295 104.439 33.3546 104.693 33.2162C104.952 33.0721 105.16 32.8761 105.327 32.6167C105.448 32.4265 105.644 31.948 105.915 31.1813C105.949 31.0775 106.007 30.9219 106.088 30.7144L101.782 19.3408H103.834L106.203 25.8894C106.514 26.7137 106.785 27.5899 107.027 28.5065C107.252 27.6418 107.512 26.7944 107.817 25.9528L110.232 19.3408H112.152L107.869 30.8758C107.408 32.1152 107.045 32.9683 106.785 33.441C106.445 34.0694 106.047 34.5305 105.609 34.8303C105.165 35.1243 104.635 35.2684 104.024 35.2684C103.655 35.2569 103.24 35.182 102.785 35.0321ZM120.955 26.5235L122.834 26.7829C122.626 28.0742 122.102 29.083 121.254 29.8151C120.407 30.5472 119.364 30.9104 118.124 30.9104C116.579 30.9104 115.334 30.4031 114.394 29.3943C113.449 28.3797 112.982 26.9328 112.982 25.0478C112.982 23.8257 113.184 22.7592 113.587 21.8426C113.991 20.9261 114.608 20.2401 115.438 19.7847C116.262 19.3235 117.162 19.0987 118.141 19.0987C119.369 19.0987 120.378 19.41 121.156 20.0325C121.94 20.6551 122.442 21.5371 122.661 22.6843L120.805 22.9667C120.626 22.2058 120.315 21.6351 119.859 21.2489C119.41 20.8684 118.862 20.6724 118.222 20.6724C117.254 20.6724 116.47 21.0183 115.859 21.71C115.253 22.4076 114.954 23.4971 114.954 24.9959C114.954 26.5177 115.248 27.6188 115.83 28.3105C116.418 28.9965 117.179 29.3424 118.113 29.3424C118.868 29.3424 119.502 29.1118 120.003 28.6506C120.499 28.1895 120.822 27.4804 120.955 26.5235Z" fill="#00000E"/>
<path d="M137.372 14.7871C139.546 14.7871 141.321 15.525 142.699 16.995C144.082 18.4707 144.768 20.4076 144.768 22.823C144.768 25.2268 144.077 27.158 142.687 28.6222C141.298 30.0864 139.528 30.8185 137.367 30.8185C135.13 30.8185 133.337 30.0633 131.977 28.5473C130.616 27.0312 129.936 25.1807 129.936 22.9959C129.936 20.4537 130.622 18.4476 132.005 16.9834C133.389 15.5192 135.176 14.7871 137.372 14.7871ZM137.355 29.0603C138.929 29.0603 140.203 28.5127 141.177 27.4116C142.151 26.3106 142.647 24.783 142.653 22.823C142.653 20.8054 142.151 19.2547 141.154 18.1709C140.157 17.0872 138.906 16.5453 137.395 16.5453C135.845 16.5453 134.571 17.0757 133.568 18.1421C132.565 19.2086 132.069 20.84 132.069 23.0363C132.069 24.8348 132.559 26.2875 133.539 27.4001C134.513 28.5069 135.787 29.0603 137.355 29.0603Z" fill="#00000E"/>
<path d="M157.744 33.7359H156.159V30.5538H147.351V33.7359H145.766V28.9685H146.757C147.38 28.1211 147.858 26.9048 148.198 25.3138C148.538 23.7227 148.711 21.9126 148.711 19.872V19.3301H156.522V28.9628H157.739V33.7359H157.744ZM154.626 28.9685V20.9211H150.291C150.141 24.524 149.57 27.2045 148.579 28.9685H154.626Z" fill="#00000E"/>
<path d="M169.591 25.423H161.186C161.261 26.6624 161.618 27.6136 162.247 28.265C162.875 28.9221 163.665 29.2507 164.61 29.2507C165.336 29.2507 165.947 29.0605 166.437 28.6743C166.933 28.288 167.308 27.7116 167.567 26.9333L169.522 27.1755C169.204 28.3457 168.622 29.245 167.775 29.8733C166.927 30.5016 165.873 30.8129 164.604 30.8129C162.921 30.8129 161.601 30.2941 160.656 29.2623C159.71 28.2304 159.232 26.8181 159.232 25.0253C159.232 23.2555 159.693 21.8201 160.609 20.7249C161.532 19.6238 162.823 19.0762 164.495 19.0762C165.313 19.0762 166.097 19.2549 166.858 19.618C167.613 19.9755 168.259 20.5865 168.789 21.4512C169.326 22.3159 169.591 23.6417 169.591 25.423ZM167.631 23.8608C167.556 22.7194 167.198 21.8951 166.57 21.3935C165.942 20.892 165.25 20.6384 164.501 20.6384C163.607 20.6384 162.869 20.9381 162.293 21.5377C161.716 22.1372 161.382 22.9096 161.29 23.8608H167.631Z" fill="#00000E"/>
<path d="M181.068 26.674C180.82 28.1037 180.255 29.1528 179.379 29.8215C178.497 30.4902 177.5 30.8188 176.387 30.8188C174.762 30.8188 173.499 30.2827 172.611 29.2162C171.724 28.1498 171.28 26.7317 171.28 24.9735C171.28 23.515 171.533 22.3448 172.046 21.4686C172.559 20.5924 173.199 19.9755 173.966 19.6181C174.733 19.2607 175.54 19.082 176.387 19.082C177.546 19.082 178.532 19.3818 179.35 19.9813C180.169 20.5808 180.676 21.4628 180.866 22.6273L179.027 22.9155C178.837 22.1603 178.526 21.5954 178.105 21.2149C177.678 20.8345 177.137 20.6442 176.474 20.6442C175.407 20.6442 174.6 21.0189 174.053 21.7741C173.505 22.5293 173.228 23.5842 173.228 24.9331C173.228 26.3166 173.499 27.3831 174.035 28.1325C174.577 28.8819 175.35 29.2566 176.364 29.2566C177.183 29.2566 177.823 29.0202 178.295 28.5533C178.762 28.0864 179.056 27.3831 179.177 26.4434L181.068 26.674Z" fill="#00000E"/>
<path d="M191.894 26.674C191.646 28.1037 191.081 29.1528 190.205 29.8215C189.323 30.4902 188.326 30.8188 187.213 30.8188C185.588 30.8188 184.325 30.2827 183.437 29.2162C182.55 28.1498 182.106 26.7317 182.106 24.9735C182.106 23.515 182.359 22.3448 182.872 21.4686C183.385 20.5924 184.025 19.9755 184.792 19.6181C185.559 19.2607 186.366 19.082 187.213 19.082C188.372 19.082 189.358 19.3818 190.176 19.9813C190.995 20.5808 191.502 21.4628 191.692 22.6273L189.853 22.9155C189.663 22.1603 189.352 21.5954 188.931 21.2149C188.504 20.8345 187.963 20.6442 187.3 20.6442C186.233 20.6442 185.426 21.0189 184.878 21.7741C184.331 22.5293 184.054 23.5842 184.054 24.9331C184.054 26.3166 184.325 27.3831 184.861 28.1325C185.403 28.8819 186.176 29.2566 187.19 29.2566C188.009 29.2566 188.649 29.0202 189.121 28.5533C189.588 28.0864 189.882 27.3831 190.003 26.4434L191.894 26.674Z" fill="#00000E"/>
<path d="M203.262 30.5538H201.262C201.077 30.2022 200.95 29.741 200.87 29.1703C199.596 30.2713 198.218 30.819 196.736 30.819C195.555 30.819 194.621 30.525 193.935 29.9312C193.249 29.3375 192.909 28.5593 192.909 27.585C192.909 26.6569 193.237 25.8902 193.894 25.2849C194.552 24.6797 195.699 24.2819 197.324 24.0859L199.1 23.8207C199.763 23.717 200.31 23.5844 200.737 23.4287C200.737 22.858 200.72 22.4545 200.685 22.2182C200.65 21.9818 200.547 21.7397 200.374 21.4861C200.201 21.2324 199.924 21.0307 199.544 20.875C199.163 20.7194 198.65 20.6444 198.01 20.6444C197.192 20.6444 196.546 20.7943 196.068 21.0998C195.589 21.4054 195.266 21.9645 195.088 22.7889L193.226 22.5468C193.427 21.3996 193.958 20.5349 194.799 19.9584C195.647 19.382 196.805 19.0938 198.287 19.0938C199.636 19.0938 200.622 19.2955 201.25 19.6933C201.878 20.091 202.27 20.5753 202.414 21.1344C202.559 21.6994 202.634 22.4257 202.634 23.3135V25.8729C202.634 27.4294 202.662 28.4728 202.726 29.0089C202.801 29.5277 202.974 30.0465 203.262 30.5538ZM200.743 25.6135V24.9275C199.751 25.2561 198.535 25.5213 197.094 25.7173C195.658 25.9133 194.938 26.5186 194.938 27.5389C194.938 28.052 195.134 28.4785 195.52 28.8129C195.906 29.1472 196.465 29.3144 197.192 29.3144C198.131 29.3144 198.956 29.032 199.67 28.4728C200.385 27.9136 200.743 26.9625 200.743 25.6135Z" fill="#00000E"/>
<path d="M46.3605 21.6061L41.0051 16.2623L37.0218 20.2283L39.195 22.4016C40.1059 23.3066 40.1059 24.7881 39.195 25.6932L26.0229 38.8711C25.1178 39.7819 23.6363 39.7819 22.7313 38.8711L9.55338 25.6932C8.64257 24.7881 8.64257 23.3066 9.55338 22.4016L22.7313 9.2179C23.6363 8.30709 25.1178 8.30709 26.0229 9.2179L28.2192 11.4142L32.1795 7.4251L26.8242 2.06401C25.4753 0.720852 23.2789 0.720852 21.9358 2.06401L2.39372 21.6118C1.05056 22.9608 1.05056 25.1571 2.39372 26.5002L21.9358 46.0423C23.2847 47.3854 25.481 47.3854 26.8242 46.0423L46.3662 26.5002C47.7036 25.1455 47.7036 22.9492 46.3605 21.6061Z" fill="#00000E"/>
<path d="M23.1406 12.9594L13.2831 22.8169C12.6028 23.4971 12.6028 24.6039 13.2831 25.2841L23.1406 35.1416C23.8208 35.8219 24.9276 35.8219 25.6078 35.1416L35.4653 25.2841C36.1455 24.6039 36.1455 23.4971 35.4653 22.8169L25.602 12.9594C24.9334 12.2792 23.8208 12.2792 23.1406 12.9594ZM33.1825 24.0736H15.5716L21.7743 17.8247H26.974L33.1825 24.0736Z" fill="#00000E"/>
</g>
<defs>
<clipPath id="clip0_17_13219">
<rect width="221.822" height="46.0132" fill="white" transform="translate(0.750854 0.992188)"/>
</clipPath>
</defs>
</svg>
