<svg width="188" height="30" viewBox="0 0 188 30" fill="none" xmlns="http://www.w3.org/2000/svg">
<path d="M28.4112 23.5914C28.1272 23.5899 27.8552 23.4764 27.6544 23.2756C27.4536 23.0748 27.3401 22.8028 27.3386 22.5188V9.09499C27.3106 8.69406 27.3675 8.29173 27.5057 7.91431C27.6438 7.53689 27.86 7.19286 28.1402 6.90472C28.4485 6.63719 28.8068 6.43356 29.1944 6.30564C29.5821 6.17773 29.9912 6.12808 30.3982 6.15958H42.3035C42.588 6.15958 42.8608 6.27258 43.0619 6.47373C43.2631 6.67487 43.3761 6.94768 43.3761 7.23213V9.32079C43.3746 9.60479 43.2611 9.87673 43.0603 10.0776C42.8595 10.2784 42.5875 10.3919 42.3035 10.3933H34.0392C33.8967 10.3801 33.753 10.3953 33.6164 10.4379C33.4798 10.4806 33.353 10.5498 33.2433 10.6417C33.0388 10.9028 32.9401 11.2313 32.9667 11.5619V12.7812H39.4923C39.7768 12.7812 40.0496 12.8942 40.2507 13.0953C40.4519 13.2965 40.5649 13.5693 40.5649 13.8537V15.6432C40.5649 15.9277 40.4519 16.2005 40.2507 16.4016C40.0496 16.6027 39.7768 16.7157 39.4923 16.7157H32.9667V22.5188C32.9652 22.8028 32.8517 23.0748 32.6509 23.2756C32.4501 23.4764 32.1781 23.5899 31.8941 23.5914H28.4112Z" fill="#00000E"/>
<path d="M81.3555 9.29185C81.2739 8.49634 81.4737 7.6974 81.92 7.03385C82.1893 6.75272 82.5139 6.53037 82.8734 6.38076C83.2328 6.23115 83.6194 6.15753 84.0086 6.16452H91.9512C93.893 6.16452 95.9365 6.85885 97.1559 8.28139C98.3752 9.70394 98.7252 11.7644 98.7252 14.7788C98.7252 18.1658 98.2792 20.1811 97.3817 21.4004C96.4841 22.6197 94.7906 23.5963 92.3745 23.5963H84.2175C83.4733 23.6408 82.739 23.4075 82.1571 22.9415C81.8966 22.691 81.6912 22.3889 81.5542 22.0545C81.4171 21.7201 81.3514 21.3608 81.3611 20.9996L81.3555 9.29185ZM87.0005 17.9344C86.9723 18.1126 86.9798 18.2947 87.0224 18.4701C87.0651 18.6455 87.142 18.8106 87.2489 18.9561C87.511 19.1607 87.8367 19.2666 88.169 19.2553H88.9311C90.2012 19.2553 91.4939 19.1029 92.1939 18.2561C92.4423 17.9852 92.9673 17.1892 92.9673 14.7223C92.9673 12.803 92.4705 11.6853 91.7931 11.087C91.0254 10.4152 89.9754 10.3418 88.6319 10.3418H88.2085C87.9054 10.3174 87.602 10.3864 87.3392 10.5394C87.2124 10.6651 87.1153 10.8175 87.0547 10.9854C86.9942 11.1533 86.9718 11.3327 86.9892 11.5103L87.0005 17.9344Z" fill="#00000E"/>
<path d="M100.289 20.8703C100.29 20.6575 100.332 20.447 100.414 20.2507C100.497 20.0544 100.616 19.8762 100.767 19.7263C100.918 19.5764 101.097 19.4577 101.294 19.3769C101.491 19.2962 101.702 19.255 101.915 19.2558H109.959C110.783 19.2558 110.93 18.9566 110.93 18.6913C110.93 18.1268 110.365 17.9687 109.801 17.8163L103.044 15.9422C102.247 15.7446 101.543 15.278 101.051 14.6212C100.233 13.5261 100.103 12.0358 100.103 10.7375C100.103 9.64234 100.182 8.27625 101.203 7.2545C101.602 6.88084 102.072 6.5913 102.585 6.40315C103.098 6.215 103.644 6.13209 104.19 6.15937H114.091C114.516 6.15937 114.924 6.32828 115.225 6.62893C115.525 6.92959 115.694 7.33736 115.694 7.76255V8.89155C115.694 9.31974 115.524 9.73039 115.221 10.0332C114.919 10.3359 114.508 10.506 114.08 10.506H106.843C106.53 10.4721 106.215 10.5067 105.917 10.6076C105.835 10.6573 105.768 10.7268 105.72 10.8098C105.673 10.8927 105.647 10.9863 105.646 11.0818C105.646 11.6463 106.442 11.8495 107.114 12.0245L112.99 13.5938C113.884 13.7947 114.714 14.2136 115.406 14.8132C116.501 15.8857 116.603 17.6018 116.603 18.7985C116.603 19.8203 116.552 21.2146 115.756 22.2589C114.757 23.5799 113.442 23.6081 112.245 23.6081H101.915C101.485 23.6066 101.074 23.4354 100.771 23.1319C100.467 22.8284 100.296 22.4172 100.295 21.988L100.289 20.8703Z" fill="#00000E"/>
<path d="M122.801 8.07391C123.366 6.7812 124.094 5.95703 126.787 5.95703C128.452 5.95703 129.948 6.13203 130.772 8.07391L136.49 21.8364C136.571 22.0289 136.604 22.2385 136.584 22.4465C136.564 22.6544 136.493 22.8543 136.378 23.0282C136.262 23.2021 136.105 23.3446 135.921 23.443C135.736 23.5414 135.531 23.5926 135.322 23.592H132.166C131.909 23.5917 131.658 23.5132 131.446 23.3671C131.235 23.2209 131.072 23.0139 130.981 22.7735L130.236 20.8147C130.143 20.5758 129.98 20.3704 129.768 20.2254C129.557 20.0804 129.307 20.0025 129.05 20.0018H124.534C124.28 20.0043 124.033 20.0832 123.825 20.2282C123.616 20.3732 123.456 20.5775 123.366 20.8147L122.615 22.7735C122.524 23.0135 122.363 23.2203 122.152 23.3665C121.942 23.5127 121.692 23.5913 121.435 23.592H118.274C118.065 23.5912 117.861 23.5391 117.677 23.4403C117.494 23.3415 117.337 23.1991 117.222 23.0257C117.106 22.8522 117.035 22.653 117.015 22.4456C116.995 22.2382 117.026 22.029 117.105 21.8364L122.801 8.07391ZM124.991 16.039H128.576L127.012 11.6359C126.962 11.5117 126.86 11.2633 126.787 11.2633C126.713 11.2633 126.612 11.5117 126.561 11.6359L124.991 16.039Z" fill="#00000E"/>
<path d="M140.38 23.5919C139.704 23.6209 139.038 23.4221 138.489 23.0274C138.247 22.8164 138.053 22.5561 137.919 22.2641C137.786 21.9721 137.716 21.655 137.715 21.3339V7.72948C137.715 7.52292 137.756 7.31839 137.835 7.12762C137.914 6.93686 138.031 6.7636 138.177 6.61781C138.323 6.47201 138.497 6.35653 138.688 6.278C138.879 6.19947 139.084 6.15942 139.29 6.16017H141.74C142.165 6.16017 142.573 6.32907 142.874 6.62973C143.174 6.93038 143.343 7.33816 143.343 7.76335V18.184C143.321 18.4916 143.421 18.7955 143.62 19.0308C143.883 19.2086 144.201 19.2885 144.517 19.2566H151.98C152.397 19.2566 152.797 19.4217 153.092 19.7159C153.387 20.01 153.554 20.4092 153.555 20.8259V22.017C153.555 22.4347 153.389 22.8353 153.094 23.1306C152.798 23.426 152.398 23.5919 151.98 23.5919H140.38Z" fill="#00000E"/>
<path d="M157.236 23.5911C156.481 23.6588 155.727 23.4457 155.119 22.9927C154.323 22.3209 154.323 21.6209 154.323 20.7968V8.8463C154.294 8.47986 154.345 8.11149 154.474 7.76718C154.603 7.42287 154.806 7.11101 155.068 6.85361C155.661 6.36337 156.417 6.11534 157.185 6.15928H168.39C168.564 6.15853 168.735 6.19201 168.895 6.25777C169.056 6.32354 169.201 6.4203 169.324 6.54251C169.447 6.66472 169.544 6.80997 169.611 6.96992C169.677 7.12986 169.711 7.30136 169.711 7.47456V9.0721C169.711 9.24748 169.676 9.42112 169.609 9.58287C169.541 9.74462 169.441 9.89125 169.316 10.0142C169.191 10.1372 169.043 10.234 168.88 10.299C168.717 10.3641 168.543 10.396 168.368 10.393H161.074C160.763 10.3766 160.456 10.4639 160.199 10.6414C160.096 10.7546 160.018 10.8889 159.971 11.035C159.924 11.1812 159.91 11.3358 159.928 11.4882V12.8034H168.119C168.47 12.8034 168.806 12.9426 169.053 13.1903C169.301 13.4381 169.44 13.774 169.44 14.1244V15.2534C169.444 15.4292 169.413 15.604 169.348 15.7676C169.283 15.9311 169.187 16.0801 169.064 16.2057C168.941 16.3314 168.794 16.4312 168.631 16.4994C168.469 16.5675 168.295 16.6026 168.119 16.6025H159.928V18.4936C159.918 18.6136 159.935 18.7343 159.978 18.8467C160.021 18.9592 160.089 19.0604 160.177 19.1428C160.497 19.3422 160.876 19.4222 161.249 19.3686H168.447C168.796 19.3686 169.13 19.5072 169.377 19.7538C169.624 20.0005 169.762 20.335 169.762 20.6839V22.2475C169.763 22.4207 169.729 22.5924 169.664 22.7526C169.598 22.9128 169.501 23.0585 169.379 23.1812C169.257 23.304 169.111 23.4014 168.951 23.4678C168.791 23.5343 168.62 23.5685 168.447 23.5685L157.236 23.5911Z" fill="#00000E"/>
<path d="M170.936 20.8602C170.936 20.435 171.105 20.0272 171.406 19.7265C171.706 19.4259 172.114 19.257 172.539 19.257H180.595C181.419 19.257 181.566 18.9578 181.566 18.6925C181.566 18.128 181.001 17.9699 180.437 17.8175L173.663 15.9264C172.866 15.7288 172.162 15.2622 171.67 14.6055C170.851 13.5104 170.727 12.0201 170.727 10.7217C170.727 9.6266 170.801 8.26051 171.822 7.23876C172.221 6.86537 172.691 6.576 173.204 6.38787C173.717 6.19974 174.263 6.11668 174.809 6.14363H184.71C185.135 6.14363 185.543 6.31254 185.843 6.6132C186.144 6.91385 186.313 7.32163 186.313 7.74682V8.87582C186.313 9.30101 186.144 9.70878 185.843 10.0094C185.543 10.3101 185.135 10.479 184.71 10.479H177.484C177.174 10.444 176.859 10.4787 176.564 10.5806C176.481 10.6296 176.413 10.6988 176.364 10.7818C176.316 10.8648 176.289 10.9587 176.288 11.0548C176.288 11.6193 177.083 11.8225 177.755 11.9975L183.632 13.5668C184.518 13.7744 185.34 14.197 186.025 14.7974C187.12 15.87 187.222 17.5861 187.222 18.7828C187.222 19.8045 187.171 21.1989 186.375 22.2432C185.382 23.5641 184.061 23.5923 182.864 23.5923H172.539C172.114 23.5909 171.706 23.4207 171.405 23.1191C171.105 22.8176 170.936 22.4092 170.936 21.9835V20.8602Z" fill="#00000E"/>
<path d="M12.3905 0.475254C6.5536 -0.00457168 0.34974 5.75898 0.80134 12.087C1.21907 17.8957 10.9115 27.9834 12.4639 29.5527C14.0107 27.989 23.7088 17.907 24.1265 12.087C24.5781 5.76462 18.2331 -0.00457168 12.3905 0.475254ZM12.3905 13.6846L12.7292 12.5556C13.2542 10.8 15.3146 10.5798 16.5961 10.2976L16.2574 11.4266C15.738 13.1822 13.6776 13.4023 12.3962 13.6846H12.3905ZM15.659 13.4305L15.3203 14.5595C15.061 15.3409 14.5261 16.001 13.8155 16.4166C13.1048 16.8322 12.2672 16.9747 11.4591 16.8175L11.7922 15.6885C12.3228 13.9329 14.3832 13.7071 15.6646 13.4305H15.659ZM13.3333 10.5629L13.672 9.43388C14.1969 7.68393 16.2517 7.46377 17.5331 7.17588L17.2001 8.30488C16.6751 10.0605 14.6147 10.2806 13.3333 10.5629ZM14.6034 6.31219C14.7165 5.96036 14.9097 5.63958 15.1679 5.37512C15.867 5.66251 16.5107 6.06938 17.0702 6.5775C16.2016 7.01838 15.2644 7.30852 14.2985 7.43555L14.6034 6.31219ZM13.7397 4.97432C13.8469 4.97432 13.9486 5.01948 14.0502 5.04206C14.1139 5.4036 14.0906 5.77511 13.9824 6.1259L13.6494 7.25491C12.8921 6.60675 12.259 5.82634 11.7809 4.95174C12.431 4.85782 13.0919 4.86544 13.7397 4.97432ZM10.7196 6.36864L11.0583 5.23964C11.9728 6.18235 13.576 7.49764 13.051 9.24759L12.7236 10.3935C11.7978 9.43388 10.1946 8.13553 10.7196 6.36864ZM12.1139 12.3749L11.7752 13.5039C10.8607 12.5669 9.2632 11.2459 9.78819 9.49597L10.1212 8.36697C11.0301 9.30404 12.6389 10.6193 12.1139 12.3749ZM10.3753 17.4554C9.15402 16.9924 8.10084 16.1717 7.35335 15.1007C6.60585 14.0297 6.19881 12.758 6.18539 11.452C6.17198 10.146 6.55282 8.86631 7.27816 7.78015C8.0035 6.69398 9.0396 5.85186 10.2511 5.36383L8.20759 12.2451C7.86934 13.202 7.91569 14.2529 8.33688 15.1764C8.75807 16.0999 9.52122 16.8238 10.4656 17.1958L10.3753 17.4554ZM11.1769 15.474L10.8438 16.603C10.081 16.2916 9.45787 15.7129 9.09106 14.9751C8.72426 14.2374 8.63896 13.3912 8.85112 12.5951L9.18982 11.4661C10.1043 12.4314 11.7018 13.7467 11.1769 15.474ZM19.0799 12.4257C18.9422 13.27 18.6391 14.0787 18.188 14.8054C17.7368 15.5321 17.1464 16.1625 16.4508 16.6603C15.7553 17.1581 14.9681 17.5136 14.1347 17.7062C13.3013 17.8989 12.4381 17.9249 11.5946 17.7828L11.4027 17.732L11.4704 17.4949C12.4665 17.7043 13.5049 17.5212 14.3694 16.9838C15.2338 16.4465 15.8575 15.5962 16.1106 14.6103L18.1372 7.83634C19.0189 9.20094 19.3554 10.8472 19.0799 12.4483V12.4257Z" fill="#00000E"/>
<path d="M51.9113 6.19336C50.1481 6.19224 48.4243 6.71406 46.9577 7.69281C45.4912 8.67155 44.3478 10.0633 43.6723 11.6919C42.9968 13.3205 42.8195 15.1129 43.1628 16.8423C43.5061 18.5717 44.3545 20.1605 45.6009 21.4076C46.8472 22.6547 48.4355 23.5042 50.1646 23.8486C51.8938 24.193 53.6863 24.0168 55.3154 23.3423C56.9444 22.6679 58.3369 21.5254 59.3165 20.0595C60.2962 18.5935 60.8191 16.87 60.8191 15.1068C60.8199 13.9366 60.59 12.7776 60.1427 11.6962C59.6953 10.6148 59.0393 9.63216 58.2121 8.8044C57.3848 7.97663 56.4026 7.31998 55.3215 6.87197C54.2404 6.42396 53.0816 6.19336 51.9113 6.19336ZM51.9113 19.0245C51.1349 19.0256 50.3756 18.7963 49.7295 18.3656C49.0835 17.935 48.5797 17.3223 48.2821 16.6052C47.9845 15.888 47.9063 15.0987 48.0575 14.3372C48.2087 13.5756 48.5825 12.876 49.1315 12.327C49.6805 11.778 50.3801 11.4042 51.1416 11.253C51.9032 11.1018 52.6925 11.18 53.4096 11.4776C54.1268 11.7753 54.7394 12.279 55.1701 12.925C55.6008 13.5711 55.8301 14.3304 55.8289 15.1068C55.8289 15.6213 55.7276 16.1307 55.5307 16.606C55.3338 17.0813 55.0453 17.5132 54.6815 17.877C54.3177 18.2408 53.8858 18.5294 53.4105 18.7262C52.9352 18.9231 52.4258 19.0245 51.9113 19.0245Z" fill="#00000E"/>
<path d="M70.8955 6.19336C69.1326 6.19336 67.4093 6.71613 65.9435 7.69555C64.4777 8.67497 63.3352 10.0671 62.6606 11.6958C61.9859 13.3245 61.8094 15.1167 62.1533 16.8458C62.4973 18.5748 63.3462 20.163 64.5928 21.4096C65.8393 22.6562 67.4276 23.5051 69.1566 23.849C70.8856 24.1929 72.6778 24.0164 74.3066 23.3418C75.9353 22.6672 77.3274 21.5247 78.3068 20.0589C79.2862 18.5931 79.809 16.8697 79.809 15.1068C79.8097 13.9361 79.5797 12.7767 79.132 11.6949C78.6843 10.6131 78.0278 9.63024 77.2 8.8024C76.3721 7.97456 75.3892 7.31803 74.3074 6.87035C73.2257 6.42267 72.0663 6.19262 70.8955 6.19336ZM70.8955 19.0245C70.1193 19.0245 69.3606 18.7942 68.7153 18.3629C68.07 17.9315 67.5671 17.3185 67.2703 16.6012C66.9736 15.884 66.8962 15.0949 67.048 14.3337C67.1999 13.5725 67.5741 12.8735 68.1233 12.325C68.6726 11.7766 69.3722 11.4033 70.1336 11.2526C70.895 11.1019 71.684 11.1804 72.4008 11.4782C73.1176 11.776 73.7299 12.2797 74.1604 12.9256C74.5908 13.5716 74.8199 14.3306 74.8188 15.1068C74.8188 15.6218 74.7173 16.1317 74.52 16.6073C74.3228 17.083 74.0337 17.5151 73.6694 17.879C73.305 18.2429 72.8724 18.5313 72.3965 18.7279C71.9205 18.9244 71.4105 19.0252 70.8955 19.0245Z" fill="#00000E"/>
</svg>
