<svg width="30" height="30" viewBox="0 0 30 30" fill="none" xmlns="http://www.w3.org/2000/svg">
<path fill-rule="evenodd" clip-rule="evenodd" d="M30 15C30 23.28 23.265 30 15 30L14.5804 29.9942C6.49413 29.7718 0 23.1397 0 15C0 6.735 6.72 0 15 0C23.265 0 30 6.735 30 15ZM12.0296 8.99992C11.5946 9.44992 11.5946 10.1549 12.0446 10.5899L16.4696 14.9999L12.0446 19.4099C11.5946 19.8449 11.5946 20.5649 12.0296 20.9999C12.4796 21.4499 13.1846 21.4499 13.6196 20.9999L18.8546 15.7949C19.0646 15.5849 19.1846 15.2999 19.1846 14.9999C19.1846 14.6999 19.0646 14.4149 18.8546 14.2049L13.6196 8.99992C13.4096 8.77492 13.1246 8.66992 12.8396 8.66992C12.5396 8.66992 12.2546 8.77492 12.0296 8.99992Z" fill="white"/>
</svg>
