<svg width="40" height="40" viewBox="0 0 40 40" fill="none" xmlns="http://www.w3.org/2000/svg">
<path fill-rule="evenodd" clip-rule="evenodd" d="M40 20C40 31.04 31.02 40 20 40L19.4405 39.9923C8.65884 39.6957 0 30.8529 0 20C0 8.98 8.96 0 20 0C31.02 0 40 8.98 40 20ZM16.04 11.9999C15.46 12.5999 15.46 13.5399 16.06 14.1199L21.96 19.9999L16.06 25.8799C15.46 26.4599 15.46 27.4199 16.04 27.9999C16.64 28.5999 17.58 28.5999 18.16 27.9999L25.14 21.0599C25.42 20.7799 25.58 20.3999 25.58 19.9999C25.58 19.5999 25.42 19.2199 25.14 18.9399L18.16 11.9999C17.88 11.6999 17.5 11.5599 17.12 11.5599C16.72 11.5599 16.34 11.6999 16.04 11.9999Z" fill="black"/>
</svg>
