<svg width="30" height="30" viewBox="0 0 30 30" fill="none" xmlns="http://www.w3.org/2000/svg">
<path fill-rule="evenodd" clip-rule="evenodd" d="M30 15C30 23.28 23.265 30 15 30L14.5804 29.9942C6.49413 29.7718 0 23.1397 0 15C0 6.735 6.72 0 15 0C23.265 0 30 6.735 30 15ZM12.0296 9.00004C11.5946 9.45004 11.5946 10.155 12.0446 10.59L16.4696 15L12.0446 19.41C11.5946 19.845 11.5946 20.565 12.0296 21C12.4796 21.45 13.1846 21.45 13.6196 21L18.8546 15.795C19.0646 15.585 19.1846 15.3 19.1846 15C19.1846 14.7 19.0646 14.415 18.8546 14.205L13.6196 9.00004C13.4096 8.77504 13.1246 8.67004 12.8396 8.67004C12.5396 8.67004 12.2546 8.77504 12.0296 9.00004Z" fill="#FFA132"/>
</svg>
