<svg width="328" height="51" viewBox="0 0 328 51" fill="none" xmlns="http://www.w3.org/2000/svg">
<path fill-rule="evenodd" clip-rule="evenodd" d="M102.623 17.973H92.1265V12.9971H109.127C109.268 13.713 109.339 14.4648 109.339 15.2524C109.339 22.7343 104.921 28.3904 92.8333 28.3904C80.7461 28.3904 76.3281 22.7343 76.3281 15.2524C76.3281 7.77046 80.7461 2.11426 92.8333 2.11426C102.623 2.11426 107.359 5.83733 108.808 11.2071H101.81C100.574 9.02342 97.8167 7.59147 92.8333 7.59147C84.9518 7.59147 82.6899 10.7418 82.6899 15.2524C82.6899 19.763 84.9518 22.9133 92.8333 22.9133C98.983 22.9133 101.704 20.9801 102.623 17.973ZM113.422 2.72285H130.386C138.657 2.72285 141.944 6.33851 141.944 12.0305C141.944 15.9683 140.389 18.9039 136.678 20.3358L142.297 27.7819H135.405L130.563 21.3382H119.784V27.7819H113.422V2.72285ZM119.784 15.8968H130.386C134.239 15.8968 135.582 14.429 135.582 12.0305C135.582 9.66779 134.239 8.20004 130.386 8.20004H119.784V15.8968ZM161.034 2.11426C173.121 2.11426 177.539 7.73466 177.539 15.2166C177.539 22.6986 173.121 28.3547 161.034 28.3547C148.947 28.3547 144.529 22.6986 144.529 15.2166C144.529 7.73466 148.947 2.11426 161.034 2.11426ZM161.034 22.1616C168.916 22.1616 171.178 19.2976 171.178 15.2166C171.178 11.1713 168.916 8.27165 161.034 8.27165C153.152 8.27165 150.891 11.1713 150.891 15.2166C150.891 19.2976 153.152 22.1616 161.034 22.1616ZM205.247 2.72285L212.35 20.0136L218.854 2.72285H225.463L216.203 27.7819H208.852L201.677 10.348L194.503 27.7819H187.152L177.892 2.72285H184.501L191.005 20.0136L198.108 2.72285H205.247ZM239.222 8.88022H227.417V2.72285H257.353V8.88022H245.583V27.7819H239.222V8.88022ZM267.092 12.2811H284.305V2.72285H290.666V27.7819H284.305V18.2237H267.092V27.7819H260.73V2.72285H267.092V12.2811ZM310.464 14.8944L320.29 2.72285H327.428L313.645 20.1569V27.7819H307.283V20.1569L293.499 2.72285H300.604L310.464 14.8944Z" fill="white"/>
<path fill-rule="evenodd" clip-rule="evenodd" d="M31.5385 7.80712C38.1821 10.2425 43.3415 16.5419 43.3305 24.6924C43.3305 24.7287 43.3435 24.7511 43.3701 24.7602C43.3797 24.7638 43.3912 24.7656 43.4045 24.7656L49.5627 24.7612C49.6139 24.7612 49.6388 24.736 49.6403 24.6843C49.7399 17.3639 46.296 10.2678 40.6389 5.71831C38.4547 3.96175 36.1121 2.6375 33.6109 1.74571C31.0406 0.828953 28.3028 0.36898 25.3981 0.365984C11.8103 0.349737 0.840185 11.7751 1.29282 25.5004C1.63327 35.8334 8.238 44.4433 17.403 47.7096C19.9106 48.6035 22.61 49.0974 25.4252 49.1171C25.4706 49.1171 25.4939 49.0934 25.4939 49.0477L25.5043 42.8675C25.5043 42.8449 25.4958 42.8231 25.4804 42.8069C25.4708 42.7967 25.4591 42.7891 25.4462 42.7847C25.4378 42.7817 25.4291 42.7798 25.42 42.7795C23.2693 42.7002 21.2757 42.3335 19.4392 41.6792C16.3846 40.5906 13.7648 38.7065 11.5796 36.027C4.80913 27.7212 6.97562 15.1881 15.9522 9.49822C20.907 6.35806 26.5057 6.02667 31.3434 7.7369C31.4086 7.75994 31.4736 7.78334 31.5385 7.80712Z" fill="white"/>
<path fill-rule="evenodd" clip-rule="evenodd" d="M80.9065 46.2984H84.6026C84.279 47.3573 83.3208 48.038 81.1554 48.038C78.3802 48.038 77.5838 46.9288 77.5838 45.3405C77.5838 43.7522 78.3802 42.643 81.1554 42.643C82.9101 42.643 83.8808 43.1472 84.3164 43.9161H86.7804C86.2702 42.0253 84.6026 40.7144 81.1554 40.7144C76.8993 40.7144 75.3438 42.706 75.3438 45.3405C75.3438 47.975 76.8993 49.9666 81.1554 49.9666C85.4115 49.9666 86.967 47.975 86.967 45.3405C86.967 45.0632 86.9422 44.7984 86.8924 44.5464H80.9065V46.2984ZM94.3783 40.9287H88.4048V49.7523H90.645V47.4834H94.4405L96.1454 49.7523H98.5722L96.5934 47.1304C97.9002 46.6263 98.4478 45.5926 98.4478 44.206C98.4478 42.2018 97.2904 40.9287 94.3783 40.9287ZM94.3783 45.5674H90.645V42.8572H94.3783C95.7348 42.8572 96.2077 43.3741 96.2077 44.206C96.2077 45.0505 95.7348 45.5674 94.3783 45.5674ZM110.982 45.328C110.982 42.6934 109.426 40.7144 105.17 40.7144C100.914 40.7144 99.3581 42.6934 99.3581 45.328C99.3581 47.9623 100.914 49.954 105.17 49.954C109.426 49.954 110.982 47.9623 110.982 45.328ZM108.741 45.328C108.741 46.7649 107.945 47.7733 105.17 47.7733C102.395 47.7733 101.598 46.7649 101.598 45.328C101.598 43.9035 102.395 42.8824 105.17 42.8824C107.945 42.8824 108.741 43.9035 108.741 45.328ZM123.239 47.0169L120.738 40.9287H118.224L115.723 47.0169L113.433 40.9287H111.106L114.366 49.7523H116.955L119.481 43.6136L122.007 49.7523H124.596L127.856 40.9287H125.529L123.239 47.0169ZM128.544 43.0968H132.701V49.7523H134.941V43.0968H139.085V40.9287H128.544V43.0968ZM148.575 44.2943H142.514V40.9287H140.274V49.7523H142.514V46.3867H148.575V49.7523H150.815V40.9287H148.575V44.2943ZM162.887 40.9287H157.362V49.7523H162.887C166.521 49.7523 168.151 47.975 168.151 45.3405C168.151 42.706 166.521 40.9287 162.887 40.9287ZM162.887 47.5717H159.602V43.0968H162.887C165.165 43.0968 165.911 44.0043 165.911 45.3405C165.911 46.664 165.165 47.5717 162.887 47.5717ZM169.6 49.7523H171.84V40.9287H169.6V49.7523ZM178.86 46.2984H182.556C182.232 47.3573 181.274 48.038 179.109 48.038C176.334 48.038 175.537 46.9288 175.537 45.3405C175.537 43.7522 176.334 42.643 179.109 42.643C180.864 42.643 181.835 43.1472 182.27 43.9161H184.734C184.223 42.0253 182.556 40.7144 179.109 40.7144C174.854 40.7144 173.297 42.706 173.297 45.3405C173.297 47.975 174.854 49.9666 179.109 49.9666C183.366 49.9666 184.921 47.975 184.921 45.3405C184.921 45.0632 184.896 44.7984 184.846 44.5464H178.86V46.2984ZM186.358 49.7523H188.598V40.9287H186.358V49.7523ZM189.808 43.0968H193.964V49.7523H196.204V43.0968H200.348V40.9287H189.808V43.0968ZM201.138 49.7523L201.996 48.1515H207.398L208.256 49.7523H210.67L206.065 40.9287H203.315L198.723 49.7523H201.138ZM204.697 43.1345L206.365 46.2355H203.029L204.697 43.1345ZM213.889 40.9287H211.649V49.7523H220.696V47.6598H213.889V40.9287ZM232.931 45.7565L228.489 40.9287H226.622V49.7523H228.861V44.1934L232.931 48.6556L237.001 44.1934V49.7523H239.241V40.9287H237.374L232.931 45.7565ZM242.652 49.7523L243.511 48.1515H248.913L249.771 49.7523H252.185L247.58 40.9287H244.83L240.238 49.7523H242.652ZM246.212 43.1345L247.88 46.2355H244.544L246.212 43.1345ZM259.138 40.9287H253.164V49.7523H255.404V47.4834H259.2L260.905 49.7523H263.332L261.352 47.1304C262.66 46.6263 263.206 45.5926 263.206 44.206C263.206 42.2018 262.05 40.9287 259.138 40.9287ZM259.138 45.5674H255.404V42.8572H259.138C260.493 42.8572 260.967 43.3741 260.967 44.206C260.967 45.0505 260.493 45.5674 259.138 45.5674ZM272.975 40.9287L269.964 44.2943H266.852V40.9287H264.612V49.7523H266.852V46.3867H269.964L272.975 49.7523H275.738L271.829 45.3405L275.738 40.9287H272.975ZM286.146 40.9287H276.85V49.7523H286.146V47.8363H279.09V46.2228H285.811V44.4707H279.09V42.8572H286.146V40.9287ZM286.972 43.0968H291.128V49.7523H293.368V43.0968H297.513V40.9287H286.972V43.0968ZM298.701 49.7523H300.941V40.9287H298.701V49.7523ZM311.073 46.6136L304.64 40.9287H302.772V49.7523H305.014V44.0547L311.447 49.7523H313.313V40.9287H311.073V46.6136ZM320.322 46.2984H324.017C323.695 47.3573 322.736 48.038 320.571 48.038C317.796 48.038 316.999 46.9288 316.999 45.3405C316.999 43.7522 317.796 42.643 320.571 42.643C322.326 42.643 323.297 43.1472 323.731 43.9161H326.195C325.686 42.0253 324.017 40.7144 320.571 40.7144C316.315 40.7144 314.759 42.706 314.759 45.3405C314.759 47.975 316.315 49.9666 320.571 49.9666C324.827 49.9666 326.382 47.975 326.382 45.3405C326.382 45.0632 326.358 44.7984 326.308 44.5464H320.322V46.2984Z" fill="black"/>
<path fill-rule="evenodd" clip-rule="evenodd" d="M45.8667 49.6767C45.876 49.6834 45.8867 49.6876 45.8979 49.6892C45.9034 49.6905 45.909 49.6913 45.9146 49.6913H58.9369C58.9483 49.6913 58.9595 49.6885 58.9697 49.6832C58.9759 49.6799 58.9816 49.6757 58.9867 49.6706L58.9907 49.6663L58.9949 49.6607C59.0013 49.6513 59.0055 49.6404 59.0068 49.629C59.0083 49.6175 59.0068 49.606 59.0028 49.5952L50.8715 27.5436C50.8665 27.53 50.8575 27.5185 50.8457 27.5103C50.8366 27.5039 50.8262 27.5 50.8154 27.4984C50.8098 27.4971 50.8041 27.4963 50.7982 27.4963H37.9486C37.9374 27.4962 37.9262 27.4987 37.916 27.5039C37.9059 27.509 37.8971 27.5166 37.8905 27.5258C37.8839 27.5351 37.8796 27.5459 37.878 27.5573C37.8764 27.5685 37.8776 27.5801 37.8813 27.5909L45.8412 49.6426C45.846 49.6563 45.8549 49.6682 45.8667 49.6767ZM22.3665 27.5698C22.3589 27.5699 22.3512 27.5717 22.3443 27.5753C22.3376 27.579 22.3317 27.5842 22.3272 27.5905C22.3227 27.5969 22.3199 27.6042 22.3189 27.6119C22.3177 27.6196 22.3186 27.6275 22.3212 27.6348L30.278 49.6939C30.2815 49.7033 30.2875 49.7115 30.2957 49.7173C30.2985 49.7194 30.3013 49.721 30.3044 49.7223C30.3088 49.7243 30.3134 49.7255 30.3182 49.7261C30.3223 49.7272 30.3267 49.7278 30.331 49.7278H43.4031C43.4071 49.7277 43.411 49.7271 43.4149 49.7261C43.4185 49.7251 43.4221 49.7236 43.4254 49.7219C43.4321 49.7181 43.4379 49.7127 43.4422 49.7061C43.4465 49.6996 43.4493 49.6921 43.4501 49.6844C43.451 49.6765 43.4498 49.6687 43.4471 49.6614L35.3143 27.6023C35.3108 27.5931 35.3045 27.5852 35.2964 27.5797C35.29 27.5752 35.2825 27.5724 35.2747 27.5715L35.2703 27.5705C35.2674 27.5701 35.2644 27.5698 35.2615 27.5698H22.3665Z" fill="black"/>
</svg>
