<svg width="129" height="90" viewBox="0 0 129 90" fill="none" xmlns="http://www.w3.org/2000/svg">
<path d="M100.497 0.185724L128.984 89.6106C128.998 89.6542 129.003 89.7012 128.998 89.7474C128.993 89.7937 128.979 89.8378 128.956 89.8761C128.933 89.9144 128.903 89.9457 128.868 89.9673C128.832 89.9889 128.793 90.0001 128.753 90H83.1313C83.0806 89.9997 83.0312 89.9811 82.9899 89.9468C82.9485 89.9125 82.9173 89.8641 82.9004 89.8083L55.0141 0.383395C55.0008 0.339671 54.9969 0.29285 55.0025 0.246935C55.0081 0.20102 55.0231 0.157375 55.0463 0.119714C55.0695 0.0820538 55.1001 0.0515027 55.1356 0.0306631C55.1711 0.00982352 55.2104 -0.000687158 55.2502 3.48352e-05H100.266C100.317 -0.000100651 100.365 0.0176025 100.407 0.0507803C100.448 0.0839581 100.48 0.131031 100.497 0.185724Z" fill="black"/>
<path d="M0.168759 6.08918e-06H45.34C45.3744 -0.000308484 45.4079 0.0115721 45.4363 0.0340729C45.4648 0.0565736 45.4866 0.088637 45.4991 0.12601L73.9884 89.73C73.9983 89.7597 74.0019 89.7917 73.999 89.8234C73.9961 89.855 73.9866 89.8854 73.9715 89.9119C73.9564 89.9384 73.9361 89.9602 73.9122 89.9756C73.8884 89.9909 73.8617 89.9993 73.8344 90H28.0423C28.0073 89.9999 27.9733 89.9871 27.9448 89.9635C27.9164 89.9398 27.8948 89.9065 27.8832 89.868L0.00968871 0.264008C0.000674724 0.234197 -0.00210728 0.202295 0.00158484 0.170972C0.00527697 0.139649 0.0153329 0.109817 0.0309075 0.0839691C0.0464822 0.058121 0.0671281 0.0370071 0.091111 0.0223999C0.115094 0.00779267 0.141718 0.000114007 0.168759 6.08918e-06Z" fill="black"/>
</svg>
