<svg width="22" height="18" viewBox="0 0 22 18" fill="none" xmlns="http://www.w3.org/2000/svg">
<path d="M0.5 5.66992V14.2499C0.5 15.0456 0.816071 15.8086 1.37868 16.3712C1.94129 16.9339 2.70435 17.2499 3.5 17.2499H18.5C19.2956 17.2499 20.0587 16.9339 20.6213 16.3712C21.1839 15.8086 21.5 15.0456 21.5 14.2499V5.66992L12.572 11.1629C12.0992 11.4538 11.5551 11.6078 11 11.6078C10.4449 11.6078 9.90076 11.4538 9.428 11.1629L0.5 5.66992Z" fill="#FFA132"/>
<path d="M21.5 3.908V3.75C21.5 2.95435 21.1839 2.19129 20.6213 1.62868C20.0587 1.06607 19.2956 0.75 18.5 0.75H3.5C2.70435 0.75 1.94129 1.06607 1.37868 1.62868C0.816071 2.19129 0.5 2.95435 0.5 3.75V3.908L10.214 9.886C10.4504 10.0314 10.7225 10.1084 11 10.1084C11.2775 10.1084 11.5496 10.0314 11.786 9.886L21.5 3.908Z" fill="#FFA132"/>
</svg>
