<svg width="18" height="21" viewBox="0 0 18 21" fill="none" xmlns="http://www.w3.org/2000/svg">
<path fill-rule="evenodd" clip-rule="evenodd" d="M0 8.66433C0 3.8728 4.00404 0 8.84734 0C13.7043 0 17.7083 3.8728 17.7083 8.66433C17.7083 11.0788 16.8302 13.3204 15.3849 15.2204C13.7904 17.3162 11.8252 19.1422 9.61306 20.5754C9.10678 20.9067 8.64987 20.9317 8.09422 20.5754C5.86952 19.1422 3.90426 17.3162 2.32344 15.2204C0.877066 13.3204 0 11.0788 0 8.66433ZM5.93149 8.93412C5.93149 10.5393 7.24131 11.8017 8.84734 11.8017C10.4544 11.8017 11.7768 10.5393 11.7768 8.93412C11.7768 7.34145 10.4544 6.01753 8.84734 6.01753C7.24131 6.01753 5.93149 7.34145 5.93149 8.93412Z" fill="#FFA132"/>
</svg>
