<svg width="228" height="35" viewBox="0 0 228 35" fill="none" xmlns="http://www.w3.org/2000/svg">
<g clip-path="url(#clip0_417_1438)">
<path fill-rule="evenodd" clip-rule="evenodd" d="M21.9225 5.35765C26.5406 7.02897 30.127 11.3521 30.1194 16.9456C30.1194 16.9705 30.1284 16.9859 30.1469 16.9921C30.1536 16.9946 30.1616 16.9958 30.1708 16.9958L34.4515 16.9928C34.4871 16.9928 34.5044 16.9755 34.5055 16.94C34.5747 11.9162 32.1808 7.04635 28.2484 3.92415C26.7301 2.71867 25.1017 1.80987 23.3631 1.19786C21.5764 0.568712 19.6733 0.253044 17.6542 0.250988C8.209 0.239838 0.583436 8.0808 0.898071 17.5001C1.13473 24.5914 5.72582 30.5001 12.0966 32.7417C13.8397 33.3552 15.7161 33.6941 17.673 33.7076C17.7046 33.7076 17.7208 33.6914 17.7208 33.66L17.728 29.4187C17.728 29.4032 17.7221 29.3882 17.7114 29.3771C17.7047 29.3701 17.6966 29.3649 17.6876 29.3619C17.6818 29.3598 17.6757 29.3585 17.6694 29.3583C16.1744 29.3039 14.7886 29.0522 13.512 28.6032C11.3887 27.8561 9.56761 26.5631 8.04863 24.7242C3.34234 19.0242 4.84831 10.423 11.0881 6.51821C14.5323 4.3632 18.4241 4.13577 21.7869 5.30946C21.8322 5.32527 21.8774 5.34133 21.9225 5.35765ZM31.8814 34.0915C31.8879 34.0961 31.8953 34.099 31.9031 34.1001C31.9069 34.101 31.9108 34.1015 31.9147 34.1015H40.9668C40.9747 34.1015 40.9825 34.0996 40.9896 34.096C40.9939 34.0937 40.9979 34.0908 41.0014 34.0873L41.0042 34.0844L41.0071 34.0805C41.0116 34.0741 41.0145 34.0666 41.0154 34.0588C41.0164 34.0509 41.0154 34.043 41.0126 34.0356L35.3604 18.9021C35.3569 18.8928 35.3506 18.8849 35.3424 18.8793C35.3361 18.8749 35.3289 18.8722 35.3214 18.8711C35.3175 18.8702 35.3135 18.8697 35.3094 18.8697H26.3774C26.3696 18.8696 26.3618 18.8713 26.3547 18.8749C26.3477 18.8784 26.3416 18.8836 26.337 18.8899C26.3324 18.8963 26.3294 18.9037 26.3283 18.9115C26.3272 18.9192 26.328 18.9272 26.3306 18.9346L31.8637 34.0681C31.867 34.0775 31.8732 34.0857 31.8814 34.0915ZM15.5459 18.9201C15.5406 18.9202 15.5353 18.9214 15.5305 18.9239C15.5258 18.9264 15.5217 18.93 15.5186 18.9343C15.5155 18.9387 15.5135 18.9437 15.5128 18.949C15.512 18.9543 15.5126 18.9597 15.5144 18.9647L21.0454 34.1033C21.0478 34.1098 21.052 34.1154 21.0577 34.1194C21.0596 34.1208 21.0616 34.1219 21.0637 34.1228C21.0668 34.1242 21.07 34.125 21.0733 34.1254C21.0762 34.1262 21.0792 34.1266 21.0822 34.1266H30.1689C30.1717 34.1265 30.1744 34.1261 30.1771 34.1254C30.1796 34.1247 30.1821 34.1237 30.1844 34.1225C30.1891 34.1199 30.1931 34.1162 30.1961 34.1117C30.1991 34.1072 30.201 34.1021 30.2016 34.0968C30.2022 34.0914 30.2014 34.086 30.1995 34.081L24.5462 18.9424C24.5438 18.9361 24.5394 18.9307 24.5338 18.9269C24.5293 18.9238 24.5241 18.9219 24.5187 18.9213L24.5156 18.9206C24.5136 18.9203 24.5115 18.9201 24.5095 18.9201H15.5459ZM71.3353 12.3343H64.0387V8.91942H75.8558C75.954 9.41077 76.0032 9.9267 76.0032 10.4672C76.0032 15.6018 72.9322 19.4835 64.53 19.4835C56.1279 19.4835 53.0569 15.6018 53.0569 10.4672C53.0569 5.33253 56.1279 1.45082 64.53 1.45082C71.3353 1.45082 74.6274 4.00587 75.6347 7.69103H70.7702C69.9104 6.1924 67.9941 5.20969 64.53 5.20969C59.0514 5.20969 57.4791 7.37165 57.4791 10.4672C57.4791 13.5627 59.0514 15.7247 64.53 15.7247C68.8048 15.7247 70.6965 14.398 71.3353 12.3343ZM78.8415 1.86848H90.634C96.3829 1.86848 98.6677 4.34982 98.6677 8.25609C98.6677 10.9585 97.5867 12.9731 95.0071 13.9558L98.9134 19.0659H94.1226L90.7569 14.6437H83.2637V19.0659H78.8415V1.86848ZM83.2637 10.9094H90.634C93.3119 10.9094 94.2455 9.90213 94.2455 8.25609C94.2455 6.63462 93.3119 5.62734 90.634 5.62734H83.2637V10.9094ZM111.938 1.45082C120.34 1.45082 123.411 5.30796 123.411 10.4426C123.411 15.5773 120.34 19.459 111.938 19.459C103.536 19.459 100.465 15.5773 100.465 10.4426C100.465 5.30796 103.536 1.45082 111.938 1.45082ZM111.938 15.2088C117.417 15.2088 118.989 13.2433 118.989 10.4426C118.989 7.66646 117.417 5.67648 111.938 5.67648C106.459 5.67648 104.887 7.66646 104.887 10.4426C104.887 13.2433 106.459 15.2088 111.938 15.2088ZM142.671 1.86848L147.609 13.7347L152.13 1.86848H156.724L150.287 19.0659H145.177L140.19 7.10141L135.203 19.0659H130.093L123.656 1.86848H128.25L132.771 13.7347L137.709 1.86848H142.671ZM166.288 6.09413H158.082V1.86848H178.891V6.09413H170.71V19.0659H166.288V6.09413ZM185.661 8.42806H197.626V1.86848H202.048V19.0659H197.626V12.5063H185.661V19.0659H181.239V1.86848H185.661V8.42806ZM215.81 10.2215L222.64 1.86848H227.602L218.021 13.833V19.0659H213.599V13.833L204.017 1.86848H208.956L215.81 10.2215ZM56.2393 31.7733H58.8085C58.5836 32.5 57.9175 32.9671 56.4123 32.9671C54.4832 32.9671 53.9296 32.2059 53.9296 31.1159C53.9296 30.0259 54.4832 29.2647 56.4123 29.2647C57.632 29.2647 58.3068 29.6107 58.6096 30.1384H60.3224C59.9677 28.8408 58.8085 27.9411 56.4123 27.9411C53.4538 27.9411 52.3725 29.3079 52.3725 31.1159C52.3725 32.9239 53.4538 34.2907 56.4123 34.2907C59.3708 34.2907 60.4521 32.9239 60.4521 31.1159C60.4521 30.9256 60.4348 30.7439 60.4002 30.5709H56.2393V31.7733ZM65.6038 28.0882H61.4515V34.1436H63.0087V32.5865H65.6471L66.8322 34.1436H68.5191L67.1436 32.3443C68.052 31.9983 68.4326 31.2889 68.4326 30.3373C68.4326 28.9619 67.6281 28.0882 65.6038 28.0882ZM65.6038 31.2716H63.0087V29.4117H65.6038C66.5468 29.4117 66.8755 29.7664 66.8755 30.3373C66.8755 30.9169 66.5468 31.2716 65.6038 31.2716ZM77.1451 31.1073C77.1451 29.2993 76.0638 27.9411 73.1053 27.9411C70.1468 27.9411 69.0654 29.2993 69.0654 31.1073C69.0654 32.9152 70.1468 34.282 73.1053 34.282C76.0638 34.282 77.1451 32.9152 77.1451 31.1073ZM75.588 31.1073C75.588 32.0934 75.0344 32.7855 73.1053 32.7855C71.1762 32.7855 70.6226 32.0934 70.6226 31.1073C70.6226 30.1297 71.1762 29.429 73.1053 29.429C75.0344 29.429 75.588 30.1297 75.588 31.1073ZM85.6656 32.2664L83.9268 28.0882H82.1794L80.4407 32.2664L78.8489 28.0882H77.2313L79.4977 34.1436H81.2971L83.0531 29.9308L84.8092 34.1436H86.6085L88.875 28.0882H87.2573L85.6656 32.2664ZM89.3531 29.5761H92.2425V34.1436H93.7996V29.5761H96.6802V28.0882H89.3531V29.5761ZM103.277 30.3979H99.0641V28.0882H97.507V34.1436H99.0641V31.8339H103.277V34.1436H104.834V28.0882H103.277V30.3979ZM113.226 28.0882H109.385V34.1436H113.226C115.752 34.1436 116.885 32.9239 116.885 31.1159C116.885 29.3079 115.752 28.0882 113.226 28.0882ZM113.226 32.6471H110.942V29.5761H113.226C114.809 29.5761 115.328 30.1989 115.328 31.1159C115.328 32.0242 114.809 32.6471 113.226 32.6471ZM117.892 34.1436H119.449V28.0882H117.892V34.1436ZM124.329 31.7733H126.898C126.673 32.5 126.007 32.9671 124.502 32.9671C122.573 32.9671 122.019 32.2059 122.019 31.1159C122.019 30.0259 122.573 29.2647 124.502 29.2647C125.722 29.2647 126.397 29.6107 126.699 30.1384H128.412C128.057 28.8408 126.898 27.9411 124.502 27.9411C121.544 27.9411 120.462 29.3079 120.462 31.1159C120.462 32.9239 121.544 34.2907 124.502 34.2907C127.461 34.2907 128.542 32.9239 128.542 31.1159C128.542 30.9256 128.525 30.7439 128.49 30.5709H124.329V31.7733ZM129.541 34.1436H131.098V28.0882H129.541V34.1436ZM131.939 29.5761H134.828V34.1436H136.385V29.5761H139.266V28.0882H131.939V29.5761ZM139.815 34.1436L140.411 33.045H144.166L144.763 34.1436H146.441L143.24 28.0882H141.328L138.136 34.1436H139.815ZM142.289 29.602L143.448 31.7301H141.129L142.289 29.602ZM148.678 28.0882H147.121V34.1436H153.41V32.7076H148.678V28.0882ZM161.915 31.4014L158.827 28.0882H157.529V34.1436H159.086V30.3287L161.915 33.391L164.744 30.3287V34.1436H166.301V28.0882H165.003L161.915 31.4014ZM168.672 34.1436L169.269 33.045H173.024L173.621 34.1436H175.299L172.098 28.0882H170.186L166.994 34.1436H168.672ZM171.147 29.602L172.306 31.7301H169.987L171.147 29.602ZM180.132 28.0882H175.979V34.1436H177.536V32.5865H180.175L181.36 34.1436H183.047L181.671 32.3443C182.58 31.9983 182.96 31.2889 182.96 30.3373C182.96 28.9619 182.156 28.0882 180.132 28.0882ZM180.132 31.2716H177.536V29.4117H180.132C181.074 29.4117 181.403 29.7664 181.403 30.3373C181.403 30.9169 181.074 31.2716 180.132 31.2716ZM189.75 28.0882L187.657 30.3979H185.494V28.0882H183.937V34.1436H185.494V31.8339H187.657L189.75 34.1436H191.671L188.954 31.1159L191.671 28.0882H189.75ZM198.906 28.0882H192.444V34.1436H198.906V32.8287H194.001V31.7214H198.673V30.519H194.001V29.4117H198.906V28.0882ZM199.48 29.5761H202.369V34.1436H203.926V29.5761H206.807V28.0882H199.48V29.5761ZM207.633 34.1436H209.19V28.0882H207.633V34.1436ZM216.233 31.9896L211.761 28.0882H210.463V34.1436H212.021V30.2335L216.493 34.1436H217.79V28.0882H216.233V31.9896ZM222.662 31.7733H225.231C225.007 32.5 224.34 32.9671 222.835 32.9671C220.906 32.9671 220.352 32.2059 220.352 31.1159C220.352 30.0259 220.906 29.2647 222.835 29.2647C224.055 29.2647 224.73 29.6107 225.032 30.1384H226.745C226.391 28.8408 225.231 27.9411 222.835 27.9411C219.877 27.9411 218.795 29.3079 218.795 31.1159C218.795 32.9239 219.877 34.2907 222.835 34.2907C225.794 34.2907 226.875 32.9239 226.875 31.1159C226.875 30.9256 226.858 30.7439 226.823 30.5709H222.662V31.7733Z" fill="white"/>
</g>
<defs>
<clipPath id="clip0_417_1438">
<rect width="228" height="35" fill="white"/>
</clipPath>
</defs>
</svg>
