<svg width="129" height="36" viewBox="0 0 129 36" fill="none" xmlns="http://www.w3.org/2000/svg">
<path d="M74.4688 18.6921L77.0101 16.1508L74.466 13.6067L75.8076 12.2651L78.3517 14.8092L80.8859 12.275L82.229 13.6181L79.6948 16.1523L82.2247 18.6822L80.8831 20.0238L78.3532 17.4939L75.8119 20.0352L74.4688 18.6921Z" fill="black"/>
<g clip-path="url(#clip0_1_3059)">
<path d="M0.0439111 13.2561C-0.0108027 11.7757 0.262766 10.2954 0.930275 8.88227C1.70721 7.05424 2.87809 5.57386 4.48667 4.44115C5.53718 3.70096 6.70805 3.129 7.97741 2.84863C9.42186 2.51218 10.8116 2.45611 12.3107 2.73648C15.2543 3.30844 17.4757 5.01312 19.0843 7.51405C19.9707 8.93835 20.474 10.4748 20.6382 12.1795C20.6929 13.144 20.6382 14.1084 20.5835 15.0281C20.5288 15.544 20.4193 15.9926 20.2552 16.5084C19.6424 18.6169 18.4278 20.3776 16.6988 21.7346C15.5279 22.6991 14.2586 23.3271 12.8141 23.6636C11.3697 24 9.87051 24 8.42607 23.7757C6.36883 23.4393 4.5961 22.4636 3.09694 20.8711C2.26529 20.0187 1.59778 19.0542 1.0397 17.9664C0.383137 16.4972 0.0439111 14.9047 0.0439111 13.2561ZM3.87388 13.3122C3.87388 13.5926 3.87388 13.8841 3.92859 14.1084C4.03802 15.6449 4.65081 17.0131 5.70132 18.1458C7.25519 19.6823 9.08263 20.3664 11.2493 20.1309C12.1357 20.0187 12.9673 19.7383 13.7442 19.2225C15.4623 18.0225 16.6331 16.4412 16.852 14.2767C17.0708 12.1122 16.6331 10.1832 15.1887 8.53461C14.2476 7.45797 13.0767 6.71779 11.698 6.48227C10.3629 6.25798 8.98415 6.31405 7.70384 6.94209C6.42354 7.57012 5.48246 8.47854 4.81495 9.66732C4.09273 10.8112 3.81916 12 3.87388 13.3122Z" fill="black"/>
<path d="M60.9185 9.30844C60.251 8.62433 59.4741 7.91779 58.7518 7.45798C57.0885 6.49349 55.3158 6.2019 53.4774 6.60564C51.4749 7.06545 50.0414 8.19816 49.0347 10.015C48.586 10.8112 48.3124 11.6636 48.3124 12.572C48.3124 13.4243 48.3124 14.3327 48.5313 15.1851C48.8596 16.3739 49.4724 17.3496 50.3587 18.2019C52.3503 20.0748 54.6811 20.5907 57.2964 19.9066C58.905 19.514 59.9555 18.3701 60.623 16.7776H55.5128C55.0094 16.7776 55.0094 16.7776 55.0094 16.2617V13.6486C55.0094 13.2561 55.0094 13.2561 55.4033 13.2561H64.5077C64.9017 13.2561 64.9017 13.2561 64.9017 13.6486C64.9564 15.0169 64.7922 16.3178 64.2889 17.5739C63.7308 19.0542 62.8991 20.3552 61.7939 21.443C60.6887 22.5197 59.4084 23.2598 57.9092 23.6075C56.4101 24 54.8562 24.0673 53.357 23.7757C52.1971 23.6075 51.081 23.2598 50.0852 22.7552C48.7501 22.0711 47.5902 21.1066 46.7038 19.9066C45.8175 18.7178 45.2047 17.4056 44.8217 15.9253C44.4278 14.3327 44.373 12.7402 44.7123 11.0916C45.2156 8.53461 46.5397 6.48227 48.4875 4.88975C49.6475 3.92526 50.9825 3.29723 52.4269 3.01685C54.2544 2.62433 56.038 2.68041 57.8655 3.07293C60.0321 3.53274 61.8049 4.66545 63.304 6.25798C63.5229 6.48227 63.5229 6.53835 63.304 6.82994C62.5818 7.51405 61.8705 8.20938 61.1921 8.99442C60.9185 9.30844 61.0279 9.19629 60.9185 9.30844Z" fill="black"/>
<path d="M26.9522 8.53461C26.9522 8.81498 27.0069 9.10657 27.0069 9.44302C27.0616 9.83555 27.0616 10.2954 27.1163 10.6991C27.171 10.9795 27.0616 11.0355 26.8427 11.0916C26.2847 11.1477 25.7375 11.2598 25.2341 11.3159C24.7855 11.372 24.4025 11.4281 23.9538 11.4841C23.8991 11.4841 23.8444 11.5402 23.735 11.5963C24.8949 11.8767 26.0111 12.1122 27.171 12.3365C26.3394 15.6898 25.5624 18.9869 24.7855 22.3402C24.3916 22.2281 24.0633 22.172 23.735 22.1159C22.9581 21.9477 22.1264 21.7234 21.3495 21.4879C21.0759 21.4318 21.0212 21.3197 21.0759 21.0281C21.4698 19.5477 21.7981 18.1234 22.1264 16.6542C22.3453 15.6898 22.5751 14.7253 22.7939 13.7496C22.9033 13.1776 23.0675 12.6169 23.1879 12.101C23.2426 11.7084 23.352 11.3047 23.2973 10.9683C23.1879 9.60003 23.0237 8.2991 22.8486 6.93087C22.6845 5.50657 22.5751 4.14956 22.4 2.72526C22.3453 2.33274 22.4 2.26545 22.783 2.26545C23.5599 2.1533 24.2821 2.09723 25.0044 1.98508C25.2779 1.98508 25.453 1.98508 25.6719 2.1533C27.9042 4.03741 30.1146 5.86545 32.3907 7.68227C32.6643 7.90657 32.9488 8.14209 33.3318 8.42246C33.3865 8.31031 33.3865 8.19816 33.4959 8.14209C35.1592 6.03368 36.8225 3.8804 38.4858 1.77199C38.8141 1.37947 39.0986 0.975732 39.4269 0.583209C39.5363 0.471059 39.7005 0.35891 39.8099 0.302835C40.6416 0.190685 41.4732 0.13461 42.3049 0.0224609C42.5237 0.0224609 42.5784 0.0224609 42.6331 0.24676C42.7426 1.67106 42.852 2.97199 43.0161 4.28414C43.1256 5.59629 43.2897 6.84115 43.4648 8.1533C43.5195 8.66919 43.5195 8.66919 43.0161 8.72527C42.1845 8.83741 41.3528 8.94956 40.5759 9.129H40.4665C39.5254 9.24115 39.6348 9.24115 39.5801 8.44489C39.5254 8.05237 39.5254 7.64863 39.4707 7.13274C39.3065 7.30097 39.1971 7.41311 39.0877 7.52526C38.5843 8.09723 38.1466 8.71405 37.698 9.34209C37.5885 9.51031 37.4244 9.56639 37.2493 9.56639C35.5313 9.79069 33.8133 10.0823 32.15 10.3626C31.4825 10.4748 30.8697 10.5309 30.2131 10.643C29.9395 10.6991 29.7097 10.643 29.4909 10.4748C28.7139 9.79069 27.937 9.16265 27.1601 8.54583C27.0616 8.47854 27.0069 8.47854 26.9522 8.53461Z" fill="black"/>
<path d="M40.6087 26.3888C40.0506 26.2767 39.6129 26.1645 39.1643 26.0524C38.5515 25.8841 37.9387 25.7159 37.2821 25.5365C37.0086 25.4804 37.0086 25.3683 37.0633 25.1327C37.2274 24.3926 37.3916 23.6524 37.6214 22.9122C38.07 21.0393 38.5624 19.1552 39.0111 17.2823C39.1752 16.6542 39.2847 16.0262 39.4597 15.4094C39.5692 15.0169 39.5692 15.0169 39.9631 15.0729C40.9589 15.2412 41.9 15.4767 42.9067 15.701C43.3554 15.8131 43.4101 15.8131 43.235 16.2729C42.9614 17.4056 42.6769 18.5496 42.4033 19.6823C41.9547 21.443 41.5717 23.2038 41.123 24.9757C41.0683 25.3122 40.9589 25.6598 40.8495 25.9963C40.7729 26.2206 40.6634 26.3327 40.6087 26.3888Z" fill="black"/>
<path d="M37.1618 14.6804C35.6079 15.6449 34.054 16.6094 32.4454 17.6412C31.5591 16.1047 30.618 14.5683 29.666 12.9197C32.2156 13.4916 34.7106 13.9963 37.1618 14.5683C37.107 14.5683 37.107 14.6243 37.1618 14.6804Z" fill="black"/>
<path d="M16.6331 34.4075H15.8015V33.8916C15.3528 34.5197 14.751 34.5757 14.5212 34.5757C13.5254 34.5757 12.639 33.7795 12.639 32.5234C12.639 31.2673 13.4707 30.415 14.5212 30.415C15.0793 30.415 15.517 30.6393 15.7468 31.0991V30.5271H16.5784L16.6331 34.4075ZM13.5254 32.4785C13.5254 33.1626 13.974 33.6112 14.6306 33.6112C15.2981 33.6112 15.7358 33.0954 15.7358 32.4112C15.7358 31.7271 15.2872 31.2225 14.6306 31.2225C13.974 31.2225 13.5254 31.7383 13.5254 32.4785Z" fill="black"/>
<path d="M23.8554 33.7795C23.8554 35.2038 22.8596 35.8879 21.7981 35.8879C20.9118 35.8879 20.1348 35.372 19.916 34.4636H20.9665C21.1306 34.9795 21.6887 35.0355 21.7981 35.0355C22.4109 35.0355 22.9033 34.5197 22.9033 33.9589V33.8468C22.7939 34.015 22.4547 34.4748 21.7981 34.4748C20.7476 34.4748 19.8613 33.5664 19.8613 32.4225C19.8613 31.2337 20.7476 30.3813 21.7981 30.3813C22.0717 30.3813 22.6298 30.4374 22.9581 31.0655V30.5496H23.7897L23.8554 33.7795ZM20.8023 32.3664C20.8023 32.9944 21.1853 33.5552 21.9075 33.5552C22.5751 33.5552 23.0128 33.0393 23.0128 32.4225C23.0128 31.7383 22.5641 31.2337 21.9075 31.2337C21.1853 31.2225 20.8023 31.7944 20.8023 32.3664Z" fill="black"/>
<path d="M28.123 32.815C28.2325 33.2748 28.6264 33.6112 29.1188 33.6112C29.3924 33.6112 29.7316 33.4991 29.9505 33.2187H31.001C30.4976 34.4748 29.3377 34.4748 29.1188 34.4748C27.7291 34.4748 27.1163 33.3421 27.1163 32.4337C27.1163 31.5253 27.7838 30.3253 29.1735 30.3253C30.3335 30.3253 31.1104 31.2337 31.1104 32.4337V32.8262H28.123V32.815ZM30.1693 32.0187C30.0599 31.5028 29.6113 31.2225 29.1735 31.2225C28.6702 31.2225 28.2872 31.5589 28.123 32.0187H30.1693Z" fill="black"/>
<path d="M34.3932 30.4823H35.2249V30.8187C35.3343 30.6505 35.6735 30.3028 36.2754 30.3028C37.1618 30.3028 37.7746 30.9309 37.7746 32.0636V34.3402H36.8882V32.2879C36.8882 31.4355 36.5052 31.2112 36.1113 31.2112C35.389 31.2112 35.3343 31.9514 35.3343 32.2879V34.3963H34.448L34.3932 30.4823Z" fill="black"/>
<path d="M45.1062 33.1066C44.8326 33.9028 44.1651 34.5309 43.224 34.5309C41.7796 34.5309 41.1121 33.3982 41.1121 32.4225C41.1121 31.514 41.7796 30.3813 43.1693 30.3813C44.1104 30.3813 44.8326 30.9533 45.1062 31.8056H44.0557C43.8916 31.4692 43.5523 31.2898 43.1693 31.2898C42.4471 31.2898 42.0094 31.8617 42.0094 32.4785C42.0094 33.1626 42.4581 33.6673 43.1693 33.6673C43.3335 33.6673 43.8368 33.6112 44.0557 33.1514L45.1062 33.1066Z" fill="black"/>
<path d="M51.8688 30.4823L49.6475 35.7197H48.6517L49.3739 34.0711L47.9841 30.5496H49.0347L49.921 33.0505L50.8074 30.5496C50.873 30.4823 51.8688 30.4823 51.8688 30.4823Z" fill="black"/>
</g>
<g clip-path="url(#clip1_1_3059)">
<path fill-rule="evenodd" clip-rule="evenodd" d="M110.324 4.60632C114.021 5.95199 116.892 9.4328 116.886 13.9365C116.886 13.9565 116.893 13.9689 116.908 13.9739C116.913 13.9759 116.92 13.9769 116.927 13.9769L120.354 13.9745C120.383 13.9745 120.397 13.9605 120.397 13.932C120.453 9.887 118.536 5.96599 115.388 3.45212C114.173 2.48152 112.869 1.74979 111.477 1.25702C110.047 0.750457 108.523 0.496294 106.907 0.494638C99.3449 0.485661 93.24 6.79888 93.4919 14.3829C93.6814 20.0926 97.3569 24.85 102.457 26.6548C103.853 27.1488 105.355 27.4217 106.922 27.4325C106.947 27.4325 106.96 27.4195 106.96 27.3942L106.966 23.9793C106.966 23.9668 106.961 23.9547 106.952 23.9458C106.947 23.9402 106.941 23.936 106.933 23.9336C106.929 23.9319 106.924 23.9308 106.919 23.9307C105.722 23.8869 104.612 23.6842 103.59 23.3227C101.891 22.7212 100.433 21.6801 99.2165 20.1995C95.4487 15.6101 96.6544 8.68473 101.65 5.54075C104.407 3.80562 107.523 3.62251 110.215 4.56752C110.251 4.58025 110.288 4.59318 110.324 4.60632ZM118.297 27.7416C118.302 27.7454 118.308 27.7477 118.314 27.7486C118.317 27.7493 118.32 27.7497 118.323 27.7497H125.57C125.577 27.7497 125.583 27.7482 125.589 27.7453C125.592 27.7434 125.595 27.7411 125.598 27.7383L125.6 27.7359L125.603 27.7328C125.606 27.7276 125.608 27.7216 125.609 27.7153C125.61 27.709 125.609 27.7026 125.607 27.6966L121.082 15.5118C121.079 15.5043 121.074 15.4979 121.068 15.4934C121.062 15.4899 121.057 15.4877 121.051 15.4868C121.048 15.4861 121.044 15.4857 121.041 15.4857H113.89C113.884 15.4856 113.878 15.487 113.872 15.4899C113.866 15.4927 113.862 15.4969 113.858 15.5019C113.854 15.5071 113.852 15.513 113.851 15.5193C113.85 15.5255 113.851 15.532 113.853 15.5379L118.283 27.7228C118.285 27.7304 118.29 27.737 118.297 27.7416ZM105.219 15.5263C105.214 15.5263 105.21 15.5273 105.206 15.5293C105.203 15.5313 105.199 15.5342 105.197 15.5377C105.194 15.5412 105.193 15.5453 105.192 15.5495C105.192 15.5538 105.192 15.5581 105.194 15.5622L109.622 27.7511C109.623 27.7564 109.627 27.7609 109.631 27.7641C109.633 27.7652 109.635 27.7661 109.636 27.7668C109.639 27.768 109.641 27.7686 109.644 27.7689C109.646 27.7696 109.649 27.7699 109.651 27.7699H116.926C116.928 27.7698 116.93 27.7695 116.932 27.7689C116.934 27.7684 116.936 27.7676 116.938 27.7666C116.942 27.7645 116.945 27.7615 116.947 27.7579C116.95 27.7543 116.951 27.7502 116.952 27.7459C116.952 27.7416 116.952 27.7372 116.95 27.7332L112.424 15.5442C112.422 15.5391 112.419 15.5348 112.414 15.5317C112.411 15.5292 112.407 15.5277 112.402 15.5272L112.4 15.5267C112.398 15.5264 112.396 15.5263 112.395 15.5263H105.219ZM149.883 10.2236H144.041V7.47411H153.502C153.581 7.86972 153.62 8.28513 153.62 8.72032C153.62 12.8545 151.161 15.9799 144.435 15.9799C137.708 15.9799 135.249 12.8545 135.249 8.72032C135.249 4.58609 137.708 1.46069 144.435 1.46069C149.883 1.46069 152.518 3.51792 153.325 6.48506H149.43C148.742 5.27842 147.208 4.48718 144.435 4.48718C140.049 4.48718 138.79 6.22791 138.79 8.72032C138.79 11.2127 140.049 12.9534 144.435 12.9534C147.857 12.9534 149.371 11.8852 149.883 10.2236ZM155.892 1.79698H165.333C169.936 1.79698 171.765 3.79485 171.765 6.94002C171.765 9.11589 170.899 10.738 168.834 11.5292L171.961 15.6436H168.126L165.431 12.0831H159.433V15.6436H155.892V1.79698ZM159.433 9.07636H165.333C167.477 9.07636 168.224 8.26535 168.224 6.94002C168.224 5.63448 167.477 4.82346 165.333 4.82346H159.433V9.07636ZM182.389 1.46069C189.115 1.46069 191.574 4.56631 191.574 8.70051C191.574 12.8348 189.115 15.9602 182.389 15.9602C175.662 15.9602 173.204 12.8348 173.204 8.70051C173.204 4.56631 175.662 1.46069 182.389 1.46069ZM182.389 12.5381C186.775 12.5381 188.034 10.9555 188.034 8.70051C188.034 6.46528 186.775 4.86302 182.389 4.86302C178.002 4.86302 176.744 6.46528 176.744 8.70051C176.744 10.9555 178.002 12.5381 182.389 12.5381ZM206.993 1.79698L210.946 11.3512L214.566 1.79698H218.244L213.09 15.6436H208.999L205.007 6.01032L201.014 15.6436H196.923L191.77 1.79698H195.448L199.067 11.3512L203.021 1.79698H206.993ZM225.901 5.1993H219.331V1.79698H235.99V5.1993H229.441V15.6436H225.901V5.1993ZM241.41 7.07849H250.989V1.79698H254.529V15.6436H250.989V10.3621H241.41V15.6436H237.87V1.79698H241.41V7.07849ZM265.547 8.52249L271.015 1.79698H274.988L267.317 11.4303V15.6436H263.777V11.4303L256.106 1.79698H260.06L265.547 8.52249ZM137.797 25.8751H139.854C139.674 26.4602 139.141 26.8363 137.936 26.8363C136.391 26.8363 135.948 26.2234 135.948 25.3458C135.948 24.4682 136.391 23.8553 137.936 23.8553C138.912 23.8553 139.452 24.1339 139.695 24.5588H141.066C140.782 23.514 139.854 22.7896 137.936 22.7896C135.567 22.7896 134.702 23.8901 134.702 25.3458C134.702 26.8015 135.567 27.902 137.936 27.902C140.304 27.902 141.17 26.8015 141.17 25.3458C141.17 25.1926 141.156 25.0463 141.128 24.907H137.797V25.8751ZM145.294 22.908H141.97V27.7836H143.217V26.5299H145.329L146.278 27.7836H147.628L146.527 26.3349C147.254 26.0563 147.559 25.4851 147.559 24.7189C147.559 23.6115 146.915 22.908 145.294 22.908ZM145.294 25.4712H143.217V23.9737H145.294C146.049 23.9737 146.312 24.2593 146.312 24.7189C146.312 25.1856 146.049 25.4712 145.294 25.4712ZM154.534 25.3389C154.534 23.8832 153.668 22.7896 151.3 22.7896C148.931 22.7896 148.066 23.8832 148.066 25.3389C148.066 26.7945 148.931 27.895 151.3 27.895C153.668 27.895 154.534 26.7945 154.534 25.3389ZM153.288 25.3389C153.288 26.1329 152.844 26.6901 151.3 26.6901C149.755 26.6901 149.312 26.1329 149.312 25.3389C149.312 24.5518 149.755 23.9876 151.3 23.9876C152.844 23.9876 153.288 24.5518 153.288 25.3389ZM161.355 26.2722L159.963 22.908H158.564L157.173 26.2722L155.898 22.908H154.603L156.418 27.7836H157.858L159.264 24.3916L160.67 27.7836H162.11L163.925 22.908H162.63L161.355 26.2722ZM164.308 24.106H166.621V27.7836H167.867V24.106H170.174V22.908H164.308V24.106ZM175.455 24.7677H172.082V22.908H170.836V27.7836H172.082V25.9239H175.455V27.7836H176.701V22.908H175.455V24.7677ZM183.42 22.908H180.345V27.7836H183.42C185.442 27.7836 186.349 26.8015 186.349 25.3458C186.349 23.8901 185.442 22.908 183.42 22.908ZM183.42 26.5787H181.591V24.106H183.42C184.687 24.106 185.103 24.6075 185.103 25.3458C185.103 26.0771 184.687 26.5787 183.42 26.5787ZM187.155 27.7836H188.402V22.908H187.155V27.7836ZM192.309 25.8751H194.366C194.185 26.4602 193.652 26.8363 192.447 26.8363C190.903 26.8363 190.459 26.2234 190.459 25.3458C190.459 24.4682 190.903 23.8553 192.447 23.8553C193.424 23.8553 193.964 24.1339 194.206 24.5588H195.578C195.293 23.514 194.366 22.7896 192.447 22.7896C190.079 22.7896 189.213 23.8901 189.213 25.3458C189.213 26.8015 190.079 27.902 192.447 27.902C194.816 27.902 195.682 26.8015 195.682 25.3458C195.682 25.1926 195.668 25.0463 195.64 24.907H192.309V25.8751ZM196.481 27.7836H197.728V22.908H196.481V27.7836ZM198.401 24.106H200.714V27.7836H201.961V24.106H204.267V22.908H198.401V24.106ZM204.707 27.7836L205.184 26.899H208.19L208.668 27.7836H210.011L207.449 22.908H205.918L203.362 27.7836H204.707ZM206.687 24.1269L207.615 25.8403H205.759L206.687 24.1269ZM211.802 22.908H210.556V27.7836H215.591V26.6274H211.802V22.908ZM222.4 25.5757L219.927 22.908H218.888V27.7836H220.135V24.712L222.4 27.1776L224.664 24.712V27.7836H225.911V22.908H224.872L222.4 25.5757ZM227.809 27.7836L228.287 26.899H231.293L231.771 27.7836H233.115L230.552 22.908H229.021L226.466 27.7836H227.809ZM229.791 24.1269L230.718 25.8403H228.862L229.791 24.1269ZM236.984 22.908H233.659V27.7836H234.906V26.5299H237.018L237.967 27.7836H239.318L238.216 26.3349C238.944 26.0563 239.248 25.4851 239.248 24.7189C239.248 23.6115 238.604 22.908 236.984 22.908ZM236.984 25.4712H234.906V23.9737H236.984C237.738 23.9737 238.001 24.2593 238.001 24.7189C238.001 25.1856 237.738 25.4712 236.984 25.4712ZM244.684 22.908L243.008 24.7677H241.277V22.908H240.03V27.7836H241.277V25.9239H243.008L244.684 27.7836H246.222L244.047 25.3458L246.222 22.908H244.684ZM252.014 22.908H246.841V27.7836H252.014V26.7249H248.087V25.8333H251.827V24.8652H248.087V23.9737H252.014V22.908ZM252.474 24.106H254.786V27.7836H256.033V24.106H258.339V22.908H252.474V24.106ZM259.001 27.7836H260.247V22.908H259.001V27.7836ZM265.886 26.0493L262.306 22.908H261.266V27.7836H262.514V24.6353L266.094 27.7836H267.132V22.908H265.886V26.0493ZM271.033 25.8751H273.089C272.91 26.4602 272.376 26.8363 271.171 26.8363C269.627 26.8363 269.183 26.2234 269.183 25.3458C269.183 24.4682 269.627 23.8553 271.171 23.8553C272.148 23.8553 272.688 24.1339 272.93 24.5588H274.301C274.018 23.514 273.089 22.7896 271.171 22.7896C268.803 22.7896 267.937 23.8901 267.937 25.3458C267.937 26.8015 268.803 27.902 271.171 27.902C273.54 27.902 274.406 26.8015 274.406 25.3458C274.406 25.1926 274.392 25.0463 274.364 24.907H271.033V25.8751Z" fill="black"/>
</g>
<path fill-rule="evenodd" clip-rule="evenodd" d="M94.7609 32.9166H93.1621V32.1542H95.7514C95.7729 32.2639 95.7837 32.3791 95.7837 32.4997C95.7837 33.646 95.1108 34.5126 93.2698 34.5126C91.4288 34.5126 90.7559 33.646 90.7559 32.4997C90.7559 31.3534 91.4288 30.4868 93.2698 30.4868C94.7609 30.4868 95.4822 31.0572 95.7029 31.8799H94.6371C94.4487 31.5454 94.0288 31.326 93.2698 31.326C92.0693 31.326 91.7248 31.8086 91.7248 32.4997C91.7248 33.1908 92.0693 33.6735 93.2698 33.6735C94.2064 33.6735 94.6209 33.3773 94.7609 32.9166ZM96.4056 30.5801H98.9895C100.249 30.5801 100.75 31.134 100.75 32.0061C100.75 32.6094 100.513 33.0592 99.9477 33.2786L100.804 34.4194H99.7539L99.0164 33.4321H97.3746V34.4194H96.4056V30.5801ZM97.3746 32.5984H98.9895C99.5763 32.5984 99.7808 32.3736 99.7808 32.0061C99.7808 31.6441 99.5763 31.4192 98.9895 31.4192H97.3746V32.5984ZM103.657 30.4868C105.498 30.4868 106.171 31.3479 106.171 32.4942C106.171 33.6406 105.498 34.5071 103.657 34.5071C101.816 34.5071 101.144 33.6406 101.144 32.4942C101.144 31.3479 101.816 30.4868 103.657 30.4868ZM103.657 33.5583C104.858 33.5583 105.202 33.1195 105.202 32.4942C105.202 31.8745 104.858 31.4302 103.657 31.4302C102.457 31.4302 102.113 31.8745 102.113 32.4942C102.113 33.1195 102.457 33.5583 103.657 33.5583ZM110.391 30.5801L111.473 33.2292L112.464 30.5801H113.471L112.06 34.4194H110.941L109.848 31.7483L108.755 34.4194H107.635L106.225 30.5801H107.232L108.222 33.2292L109.304 30.5801H110.391ZM115.566 31.5234H113.768V30.5801H118.328V31.5234H116.535V34.4194H115.566V31.5234ZM119.811 32.0445H122.433V30.5801H123.402V34.4194H122.433V32.955H119.811V34.4194H118.842V30.5801H119.811V32.0445ZM126.417 32.4449L127.914 30.5801H129.001L126.902 33.2511V34.4194H125.933V33.2511L123.833 30.5801H124.915L126.417 32.4449Z" fill="black"/>
<defs>
<clipPath id="clip0_1_3059">
<rect width="65" height="36" fill="white"/>
</clipPath>
<clipPath id="clip1_1_3059">
<rect width="33.2128" height="28.1806" fill="white" transform="translate(92.7715 0.29248)"/>
</clipPath>
</defs>
</svg>
